M48
;Layer_Color=9474304
;FILE_FORMAT=2:4
INCH
;TYPE=PLATED
T1F00S00C0.0200
T2F00S00C0.0280
T3F00S00C0.0280
T4F00S00C0.0315
T5F00S00C0.0350
T6F00S00C0.0370
T7F00S00C0.0380
T8F00S00C0.0394
T9F00S00C0.0433
T10F00S00C0.0460
T11F00S00C0.0670
T12F00S00C0.1654
;TYPE=NON_PLATED
T13F00S00C0.1200
T14F00S00C0.1280
T15F00S00C0.1614
%
T01
X033700Y002410
X034350Y012900
X045660Y012210
Y011400
Y010590
X046540
Y011400
X046560Y012210
X047460
Y011400
X047440Y010590
X042300Y005050
X032100Y007100
X013200Y004650
X019200Y023580
X027534Y026100
X029800Y020700
X027900Y016950
X034740Y022740
X034600Y025840
X034544Y029144
X036620Y028540
X036380Y027580
X037040Y024230
X039600Y024800
X040733Y026050
X041700Y028850
X060620Y017760
X060600Y016950
Y016140
X061500
X061520Y016950
Y017760
X062400
Y016950
Y016140
X036171Y030550
X032980Y031280
X036450Y034900
X028120Y034120
X027850Y031938
X003600Y031700
X003240Y045090
X003498Y047640
X032307Y047100
T02
X049920Y007960
X054670Y013410
X027670Y007294
X025870Y000400
X001480Y005800
X025000Y023800
X039663Y020300
X039700Y018600
Y017600
X040740Y016000
X041660Y018640
Y020300
T03
X021860Y028010
X020780Y029210
X023210Y036580
X024430Y035430
X027710Y041080
X028950Y039950
X054750Y046200
X054190Y052465
T04
X052500Y001952
X052500Y003920
T05
X004742Y048590
Y049590
Y050590
X005742Y050090
Y049090
T06
X020580Y002280
Y003280
Y004280
Y005280
Y006280
Y007280
Y008280
Y009280
Y010280
Y011280
Y012280
Y013280
X023500Y012900
Y011900
Y010900
Y009300
Y008300
Y007300
Y006300
Y005300
Y004300
Y003300
Y002300
X014580Y002280
Y003280
Y004280
Y005280
Y006280
Y007280
Y008280
Y009280
Y010280
Y011280
Y012280
Y013280
X004500Y013300
Y012300
Y011300
Y010300
Y009300
Y007300
Y006300
Y005300
Y004300
Y003300
Y002300
Y014300
Y015300
X014580Y015280
Y014280
X020580
Y015280
X023500Y014900
Y013900
Y015900
Y016900
Y017900
Y018900
Y019900
X037387Y026037
X038387
Y027037
X037387
Y028037
X038387
Y029037
X037387
X059710Y043720
X060710
X061720
X038387Y033037
Y032037
Y031037
Y030037
X037387
Y031037
Y032037
Y033037
X002090Y047090
Y048090
Y049090
Y050090
Y051090
Y052090
X059750Y054260
X060750
X061760
Y049460
X061730Y048600
X060720
X060750Y049460
X059750
X059720Y048600
T07
X026200Y022574
Y023574
Y024574
Y025574
Y026574
X029200
Y025574
Y024574
Y023574
Y022574
X030600Y022600
Y023600
Y024600
Y025600
Y026600
X033600
Y025600
Y024600
Y023600
Y022600
X058720Y044750
X059720
X060720
X061720
X062720
X012550Y035900
X011550
X011570Y034870
Y033870
X012570
Y034870
Y032870
X011570
X058720Y047750
X059720
X060720
X061720
X062720
X062750Y050310
X061750
X060750
X059750
X058750
Y053310
X059750
X060750
X061750
X062750
T08
X005742Y051090
T09
X056649Y009760
Y010760
X058649
Y009760
T10
X052040Y007212
X054040
T11
X061150Y004500
X063400
X062300Y006500
T12
X058000Y002000
T13
X017500Y001300
X006500
X004500Y021800
X023500Y021300
T14
X008242Y047842
Y051842
T15
X031000Y010000
X002000Y001900
X058000Y037000
X031000Y035500
X002000Y037000
X007400Y055600
X031000
X058000
M30
