M48
;Layer_Color=9474304
;FILE_FORMAT=2:4
INCH
;TYPE=PLATED
T1F00S00C0.0200
T2F00S00C0.0280
T3F00S00C0.0340
T4F00S00C0.0350
T5F00S00C0.0370
T6F00S00C0.0380
T7F00S00C0.0394
T8F00S00C0.0433
T9F00S00C0.0460
T10F00S00C0.0670
T11F00S00C0.1654
;TYPE=NON_PLATED
T12F00S00C0.1200
T13F00S00C0.1280
T14F00S00C0.1614
%
T01
X038400Y002442
X038450Y005541
X037900Y009277
X043700Y009922
Y010650
Y011460
Y012270
X043720Y012960
X044600
X044580Y012270
Y011460
Y010650
Y009922
X045460
Y010650
Y011460
Y012270
X045480Y012960
X046360
Y012270
X046340Y011460
Y010650
Y009922
X047240
Y010650
X047260Y011460
Y012270
Y012960
X042300Y005050
X034350Y012900
X032100Y007100
X031250Y002950
X013200Y004650
X019200Y023580
X027534Y026100
X029800Y020700
X027900Y016950
X034740Y022740
X034600Y025840
X034544Y029144
X036620Y028540
X036380Y027580
X037040Y024230
X039600Y024800
X040733Y026050
X041700Y028850
X054513Y021927
X060620Y018488
Y017760
X060600Y016950
Y016140
Y015450
X061500
Y016140
X061520Y016950
Y017760
Y018488
X062400
Y017760
Y016950
Y016140
X062380Y015450
X063260
X063280Y016140
Y016950
Y017760
Y018488
X036171Y030550
X032980Y031280
X036450Y034900
X028120Y034120
X027850Y031938
X003600Y031700
X003240Y045090
X003498Y047640
X032307Y047100
T02
X049920Y007960
X054670Y013410
X027670Y007294
X025870Y000400
X001480Y005800
X025000Y023800
X021860Y028010
X020780Y029210
X039663Y020300
X039700Y018600
Y017600
X040740Y016000
X041660Y018640
Y020300
X028950Y039950
X027710Y041080
X024430Y035430
X023210Y036580
X054685Y046085
X054190Y052465
T03
X052500Y001952
X052500Y003920
T04
X044650Y015626
X044650Y017594
X005742Y049090
Y050090
X004742Y050590
Y049590
Y048590
T05
X020580Y002280
Y003280
Y004280
Y005280
Y006280
Y007280
Y008280
Y009280
Y010280
Y011280
Y012280
Y013280
X023500Y012900
Y011900
Y010900
Y009300
Y008300
Y007300
Y006300
Y005300
Y004300
Y003300
Y002300
X014580Y002280
Y003280
Y004280
Y005280
Y006280
Y007280
Y008280
Y009280
Y010280
Y011280
Y012280
Y013280
X004500Y013300
Y012300
Y011300
Y010300
Y009300
Y007300
Y006300
Y005300
Y004300
Y003300
Y002300
Y014300
Y015300
X014580Y015280
Y014280
X020580
Y015280
X023500Y014900
Y013900
Y015900
Y016900
Y017900
Y018900
Y019900
X037400Y026050
Y027050
Y028050
Y029050
X038400
Y028050
Y027050
Y026050
Y030050
Y031050
Y032050
Y033050
X037400
Y032050
Y031050
Y030050
X002090Y047090
Y048090
Y049090
Y050090
Y051090
Y052090
T06
X026200Y022574
Y023574
Y024574
Y025574
Y026574
X029200
Y025574
Y024574
Y023574
Y022574
X030600Y022600
Y023600
Y024600
Y025600
Y026600
X033600
Y025600
Y024600
Y023600
Y022600
X059720Y042900
X060720
X061720
Y044000
X062720
X060720
X059720
X058720
X012550Y035900
X011550
X011570Y034870
Y033870
X012570
Y034870
Y032870
X011570
X058720Y047000
X059720
X060720
X061720
X062720
X061720Y048050
X060720
X059720
X059750Y049250
X060750
X061750
Y050310
X062750
X060750
X059750
X058750
Y053310
X059750
X060750
X061750
X062750
X061750Y054350
X060750
X059750
T07
X005742Y051090
T08
X056649Y009760
Y010760
X058649
Y009760
T09
X052040Y007212
X054040
T10
X060950Y004500
X063200
X062100Y006500
T11
X058000Y002000
T12
X017500Y001300
X006500
X004500Y021800
X023500Y021300
T13
X008242Y047842
Y051842
T14
X031000Y010000
X002000Y001900
X058000Y037000
X031000Y035500
X002000Y037000
X007400Y055600
X031000
X058000
M30
