G04*
G04 #@! TF.GenerationSoftware,Altium Limited,Altium Designer,18.0.11 (651)*
G04*
G04 Layer_Physical_Order=2*
G04 Layer_Color=16711680*
%FSLAX24Y24*%
%MOIN*%
G70*
G01*
G75*
%ADD12C,0.0150*%
%ADD15C,0.0200*%
%ADD18C,0.0120*%
%ADD77C,0.0300*%
%ADD78C,0.0250*%
%ADD79C,0.0180*%
%ADD81C,0.0600*%
%ADD82R,0.0600X0.0600*%
%ADD83C,0.0700*%
G04:AMPARAMS|DCode=84|XSize=80mil|YSize=52mil|CornerRadius=0mil|HoleSize=0mil|Usage=FLASHONLY|Rotation=0.000|XOffset=0mil|YOffset=0mil|HoleType=Round|Shape=Octagon|*
%AMOCTAGOND84*
4,1,8,0.0400,-0.0130,0.0400,0.0130,0.0270,0.0260,-0.0270,0.0260,-0.0400,0.0130,-0.0400,-0.0130,-0.0270,-0.0260,0.0270,-0.0260,0.0400,-0.0130,0.0*
%
%ADD84OCTAGOND84*%

%ADD85C,0.1200*%
%ADD86C,0.0531*%
%ADD87R,0.0531X0.0531*%
%ADD88C,0.0620*%
%ADD89R,0.0620X0.0620*%
%ADD90R,0.0620X0.0620*%
%ADD91O,0.0900X0.1400*%
%ADD92O,0.1400X0.0900*%
%ADD93C,0.2067*%
%ADD94C,0.0728*%
%ADD95R,0.0728X0.0728*%
%ADD96R,0.0600X0.0600*%
%ADD97O,0.0591X0.0600*%
%ADD98R,0.0551X0.0551*%
%ADD99C,0.0551*%
%ADD100C,0.0591*%
%ADD101C,0.1181*%
%ADD102C,0.0500*%
%ADD103C,0.0400*%
G36*
X12431Y33561D02*
X12422Y33568D01*
X12411Y33572D01*
X12398D01*
X12383Y33568D01*
X12367Y33561D01*
X12349Y33551D01*
X12330Y33538D01*
X12309Y33521D01*
X12261Y33477D01*
X12176Y33561D01*
X12200Y33586D01*
X12237Y33630D01*
X12251Y33650D01*
X12261Y33667D01*
X12268Y33684D01*
X12271Y33698D01*
Y33711D01*
X12268Y33722D01*
X12261Y33731D01*
X12431Y33561D01*
D02*
G37*
G36*
X63202Y56582D02*
X63384Y56506D01*
X63547Y56397D01*
X63687Y56257D01*
X63796Y56094D01*
X63872Y55912D01*
X63910Y55718D01*
Y55620D01*
Y5054D01*
X63840Y5031D01*
X63771Y5121D01*
X63662Y5204D01*
X63536Y5257D01*
X63400Y5274D01*
X63264Y5257D01*
X63138Y5204D01*
X63029Y5121D01*
X62946Y5012D01*
X62893Y4886D01*
X62876Y4750D01*
Y4250D01*
X62893Y4114D01*
X62946Y3988D01*
X63029Y3879D01*
X63138Y3796D01*
X63264Y3743D01*
X63400Y3726D01*
X63536Y3743D01*
X63662Y3796D01*
X63771Y3879D01*
X63840Y3969D01*
X63910Y3946D01*
Y1540D01*
Y1442D01*
X63872Y1248D01*
X63796Y1066D01*
X63687Y903D01*
X63547Y763D01*
X63384Y654D01*
X63202Y578D01*
X63008Y540D01*
X26158D01*
X26150Y561D01*
X26098Y628D01*
X26031Y680D01*
X25954Y712D01*
X25870Y723D01*
X25786Y712D01*
X25709Y680D01*
X25645Y631D01*
X25638Y629D01*
X25628Y627D01*
X25585Y624D01*
X21593D01*
X16259Y5959D01*
X16186Y6007D01*
X16100Y6024D01*
X4951D01*
X4924Y6089D01*
X4970Y6135D01*
Y6465D01*
X4805Y6630D01*
X4195D01*
X4030Y6465D01*
Y6135D01*
X4076Y6089D01*
X4049Y6024D01*
X1750D01*
X1723Y6027D01*
X1712Y6029D01*
X1705Y6031D01*
X1700Y6034D01*
X1686Y6049D01*
X1669Y6069D01*
X1654Y6087D01*
X1642Y6105D01*
X1632Y6122D01*
X1624Y6138D01*
X1618Y6153D01*
X1614Y6167D01*
X1613Y6178D01*
Y28025D01*
X6855Y33267D01*
X11299D01*
X11323Y33197D01*
X11278Y33162D01*
X11212Y33077D01*
X11171Y32977D01*
X11164Y32930D01*
X11570D01*
X11976D01*
X11969Y32977D01*
X11928Y33077D01*
X11862Y33162D01*
X11817Y33197D01*
X11841Y33267D01*
X12084D01*
X12152Y33256D01*
X12190Y33220D01*
X12190Y33220D01*
X12190Y33201D01*
X12190Y33201D01*
X12190Y33198D01*
Y32490D01*
X12950D01*
Y33250D01*
X12250D01*
X12234Y33250D01*
X12222Y33266D01*
X12214Y33296D01*
X12242Y33355D01*
X12334Y33447D01*
X12355Y33467D01*
X12373Y33480D01*
X12387Y33490D01*
X12430D01*
X12431Y33490D01*
X12432Y33490D01*
X12950D01*
Y34250D01*
X12190D01*
Y33732D01*
X12190Y33731D01*
X12190Y33730D01*
Y33687D01*
X12181Y33674D01*
X12152Y33640D01*
X12045Y33533D01*
X11913D01*
X11881Y33603D01*
X11928Y33663D01*
X11969Y33763D01*
X11976Y33810D01*
X11570D01*
X11164D01*
X11171Y33763D01*
X11212Y33663D01*
X11259Y33603D01*
X11227Y33533D01*
X6800D01*
X6749Y33522D01*
X6706Y33494D01*
X1386Y28174D01*
X1358Y28131D01*
X1347Y28080D01*
Y6178D01*
X1346Y6167D01*
X1342Y6153D01*
X1336Y6138D01*
X1328Y6122D01*
X1318Y6105D01*
X1307Y6088D01*
X1274Y6049D01*
X1260Y6034D01*
X1252Y6028D01*
X1200Y5961D01*
X1168Y5884D01*
X1157Y5800D01*
X1168Y5716D01*
X1200Y5639D01*
X1252Y5572D01*
X1319Y5520D01*
X1396Y5488D01*
X1480Y5477D01*
X1564Y5488D01*
X1641Y5520D01*
X1705Y5569D01*
X1712Y5571D01*
X1722Y5573D01*
X1765Y5576D01*
X4049D01*
X4076Y5511D01*
X4030Y5465D01*
Y5135D01*
X4195Y4970D01*
X4805D01*
X4970Y5135D01*
Y5465D01*
X4924Y5511D01*
X4951Y5576D01*
X16007D01*
X20978Y605D01*
X20951Y540D01*
X1862D01*
X1668Y578D01*
X1486Y654D01*
X1323Y763D01*
X1183Y903D01*
X1074Y1066D01*
X998Y1248D01*
X960Y1442D01*
Y1540D01*
Y33440D01*
X970Y53500D01*
Y55620D01*
Y55718D01*
X1008Y55912D01*
X1084Y56094D01*
X1193Y56257D01*
X1333Y56397D01*
X1496Y56506D01*
X1678Y56582D01*
X1872Y56620D01*
X63008D01*
X63202Y56582D01*
D02*
G37*
G36*
X1540Y6185D02*
X1541Y6172D01*
X1545Y6152D01*
X1550Y6131D01*
X1558Y6110D01*
X1569Y6088D01*
X1581Y6067D01*
X1596Y6045D01*
X1614Y6023D01*
X1633Y6001D01*
X1655Y5979D01*
X1557D01*
X1563Y5955D01*
X1570Y5934D01*
X1577Y5918D01*
X1586Y5906D01*
X1374D01*
X1383Y5918D01*
X1390Y5934D01*
X1397Y5955D01*
X1403Y5979D01*
X1305D01*
X1327Y6001D01*
X1364Y6045D01*
X1379Y6067D01*
X1391Y6088D01*
X1402Y6110D01*
X1410Y6131D01*
X1415Y6152D01*
X1419Y6172D01*
X1420Y6185D01*
X1420Y6237D01*
X1540D01*
X1540Y6185D01*
D02*
G37*
G36*
X1665Y5970D02*
X1673Y5966D01*
X1684Y5962D01*
X1698Y5959D01*
X1714Y5956D01*
X1753Y5952D01*
X1802Y5950D01*
X1830Y5950D01*
Y5650D01*
X1802Y5650D01*
X1714Y5644D01*
X1698Y5641D01*
X1684Y5638D01*
X1673Y5634D01*
X1665Y5630D01*
X1659Y5625D01*
Y5975D01*
X1665Y5970D01*
D02*
G37*
G36*
X25691Y225D02*
X25685Y230D01*
X25677Y234D01*
X25666Y238D01*
X25652Y241D01*
X25636Y244D01*
X25597Y248D01*
X25548Y250D01*
X25520Y250D01*
Y550D01*
X25548Y550D01*
X25636Y556D01*
X25652Y559D01*
X25666Y562D01*
X25677Y566D01*
X25685Y570D01*
X25691Y575D01*
Y225D01*
D02*
G37*
%LPC*%
G36*
X58000Y56481D02*
X57828Y56464D01*
X57663Y56414D01*
X57510Y56333D01*
X57377Y56223D01*
X57267Y56090D01*
X57186Y55937D01*
X57136Y55772D01*
X57119Y55600D01*
X57136Y55428D01*
X57186Y55263D01*
X57267Y55110D01*
X57377Y54977D01*
X57510Y54867D01*
X57663Y54786D01*
X57828Y54736D01*
X58000Y54719D01*
X58172Y54736D01*
X58337Y54786D01*
X58490Y54867D01*
X58623Y54977D01*
X58733Y55110D01*
X58814Y55263D01*
X58864Y55428D01*
X58881Y55600D01*
X58864Y55772D01*
X58814Y55937D01*
X58733Y56090D01*
X58623Y56223D01*
X58490Y56333D01*
X58337Y56414D01*
X58172Y56464D01*
X58000Y56481D01*
D02*
G37*
G36*
X31000D02*
X30828Y56464D01*
X30663Y56414D01*
X30510Y56333D01*
X30377Y56223D01*
X30267Y56090D01*
X30186Y55937D01*
X30136Y55772D01*
X30119Y55600D01*
X30136Y55428D01*
X30186Y55263D01*
X30267Y55110D01*
X30377Y54977D01*
X30510Y54867D01*
X30663Y54786D01*
X30828Y54736D01*
X31000Y54719D01*
X31172Y54736D01*
X31337Y54786D01*
X31490Y54867D01*
X31623Y54977D01*
X31733Y55110D01*
X31814Y55263D01*
X31864Y55428D01*
X31881Y55600D01*
X31864Y55772D01*
X31814Y55937D01*
X31733Y56090D01*
X31623Y56223D01*
X31490Y56333D01*
X31337Y56414D01*
X31172Y56464D01*
X31000Y56481D01*
D02*
G37*
G36*
X7400D02*
X7228Y56464D01*
X7063Y56414D01*
X6910Y56333D01*
X6777Y56223D01*
X6667Y56090D01*
X6586Y55937D01*
X6536Y55772D01*
X6519Y55600D01*
X6536Y55428D01*
X6586Y55263D01*
X6667Y55110D01*
X6777Y54977D01*
X6910Y54867D01*
X7063Y54786D01*
X7228Y54736D01*
X7400Y54719D01*
X7572Y54736D01*
X7737Y54786D01*
X7890Y54867D01*
X8023Y54977D01*
X8133Y55110D01*
X8214Y55263D01*
X8264Y55428D01*
X8281Y55600D01*
X8264Y55772D01*
X8214Y55937D01*
X8133Y56090D01*
X8023Y56223D01*
X7890Y56333D01*
X7737Y56414D01*
X7572Y56464D01*
X7400Y56481D01*
D02*
G37*
G36*
X2090Y52463D02*
X1995Y52451D01*
X1906Y52414D01*
X1829Y52355D01*
X1771Y52279D01*
X1734Y52190D01*
X1722Y52095D01*
Y52085D01*
X1734Y51990D01*
X1771Y51901D01*
X1829Y51825D01*
X1906Y51766D01*
X1995Y51729D01*
X2090Y51717D01*
X2185Y51729D01*
X2274Y51766D01*
X2351Y51825D01*
X2409Y51901D01*
X2446Y51990D01*
X2458Y52085D01*
Y52095D01*
X2446Y52190D01*
X2409Y52279D01*
X2351Y52355D01*
X2274Y52414D01*
X2185Y52451D01*
X2090Y52463D01*
D02*
G37*
G36*
X8242Y52555D02*
X8103Y52541D01*
X7969Y52501D01*
X7846Y52435D01*
X7738Y52346D01*
X7649Y52238D01*
X7583Y52115D01*
X7542Y51981D01*
X7529Y51842D01*
X7542Y51703D01*
X7583Y51569D01*
X7649Y51446D01*
X7738Y51338D01*
X7846Y51249D01*
X7969Y51183D01*
X8103Y51142D01*
X8242Y51129D01*
X8381Y51142D01*
X8515Y51183D01*
X8638Y51249D01*
X8746Y51338D01*
X8835Y51446D01*
X8901Y51569D01*
X8941Y51703D01*
X8955Y51842D01*
X8941Y51981D01*
X8901Y52115D01*
X8835Y52238D01*
X8746Y52346D01*
X8638Y52435D01*
X8515Y52501D01*
X8381Y52541D01*
X8242Y52555D01*
D02*
G37*
G36*
X5742Y51458D02*
X5647Y51446D01*
X5558Y51409D01*
X5481Y51351D01*
X5423Y51274D01*
X5386Y51185D01*
X5374Y51090D01*
X5386Y50995D01*
X5423Y50906D01*
X5481Y50829D01*
X5510Y50808D01*
X5486Y50738D01*
X5152D01*
X5139Y50740D01*
X5122Y50744D01*
X5105Y50750D01*
X5087Y50758D01*
X5069Y50769D01*
X5050Y50781D01*
X5030Y50796D01*
X5010Y50813D01*
X4995Y50827D01*
X4988Y50836D01*
X4916Y50892D01*
X4832Y50927D01*
X4742Y50939D01*
X4652Y50927D01*
X4568Y50892D01*
X4495Y50836D01*
X4440Y50764D01*
X4405Y50680D01*
X4393Y50590D01*
X4405Y50500D01*
X4440Y50416D01*
X4495Y50344D01*
X4568Y50288D01*
X4652Y50253D01*
X4742Y50241D01*
X4832Y50253D01*
X4916Y50288D01*
X4988Y50344D01*
X4995Y50353D01*
X5010Y50367D01*
X5030Y50384D01*
X5050Y50399D01*
X5069Y50411D01*
X5087Y50422D01*
X5105Y50430D01*
X5122Y50436D01*
X5139Y50440D01*
X5152Y50442D01*
X5518D01*
X5542Y50372D01*
X5495Y50336D01*
X5440Y50264D01*
X5405Y50180D01*
X5393Y50090D01*
X5405Y50000D01*
X5440Y49916D01*
X5495Y49844D01*
X5568Y49788D01*
X5652Y49753D01*
X5742Y49741D01*
X5832Y49753D01*
X5916Y49788D01*
X5988Y49844D01*
X5995Y49853D01*
X6010Y49867D01*
X6030Y49884D01*
X6050Y49899D01*
X6069Y49911D01*
X6087Y49922D01*
X6105Y49930D01*
X6122Y49936D01*
X6139Y49940D01*
X6152Y49942D01*
X11129D01*
X16535Y44535D01*
X28185Y32885D01*
X28185Y32885D01*
X35139Y25932D01*
X35187Y25900D01*
X35243Y25889D01*
X36920D01*
X36936Y25886D01*
X36955Y25881D01*
X36975Y25873D01*
X36997Y25863D01*
X37019Y25850D01*
X37041Y25835D01*
X37091Y25794D01*
X37108Y25777D01*
X37116Y25766D01*
X37196Y25705D01*
X37288Y25667D01*
X37387Y25653D01*
X37487Y25667D01*
X37579Y25705D01*
X37659Y25766D01*
X37682Y25796D01*
X37752Y25772D01*
Y25669D01*
X37455Y25373D01*
X35255D01*
X34902Y25725D01*
X34898Y25731D01*
X34892Y25740D01*
X34887Y25751D01*
X34882Y25762D01*
X34878Y25775D01*
X34875Y25788D01*
X34873Y25803D01*
X34872Y25820D01*
X34871Y25833D01*
X34872Y25840D01*
X34863Y25910D01*
X34836Y25976D01*
X34793Y26033D01*
X34736Y26076D01*
X34670Y26103D01*
X34600Y26112D01*
X34530Y26103D01*
X34464Y26076D01*
X34407Y26033D01*
X34364Y25976D01*
X34337Y25910D01*
X34328Y25840D01*
X34337Y25770D01*
X34364Y25704D01*
X34407Y25647D01*
X34464Y25604D01*
X34530Y25577D01*
X34600Y25568D01*
X34607Y25569D01*
X34620Y25568D01*
X34637Y25567D01*
X34652Y25565D01*
X34665Y25562D01*
X34678Y25558D01*
X34689Y25553D01*
X34700Y25548D01*
X34709Y25542D01*
X34715Y25538D01*
X35106Y25146D01*
X35149Y25118D01*
X35200Y25107D01*
X37510D01*
X37561Y25118D01*
X37604Y25146D01*
X37978Y25521D01*
X38007Y25564D01*
X38017Y25614D01*
Y25731D01*
X38087Y25755D01*
X38095Y25744D01*
X38181Y25679D01*
X38280Y25637D01*
X38327Y25631D01*
Y26037D01*
Y26442D01*
X38280Y26436D01*
X38181Y26395D01*
X38095Y26329D01*
X38087Y26318D01*
X38017Y26342D01*
Y26781D01*
X38087Y26804D01*
X38116Y26766D01*
X38196Y26705D01*
X38288Y26667D01*
X38387Y26653D01*
X38401Y26655D01*
X38426Y26655D01*
X38459Y26653D01*
X38489Y26649D01*
X38517Y26644D01*
X38541Y26638D01*
X38563Y26630D01*
X38583Y26621D01*
X38600Y26611D01*
X38613Y26602D01*
X39452Y25763D01*
Y25082D01*
X39452Y25077D01*
X39449Y25065D01*
X39446Y25053D01*
X39442Y25042D01*
X39438Y25031D01*
X39432Y25022D01*
X39426Y25012D01*
X39418Y25003D01*
X39412Y24996D01*
X39407Y24993D01*
X39364Y24936D01*
X39337Y24870D01*
X39328Y24800D01*
X39337Y24730D01*
X39364Y24664D01*
X39407Y24607D01*
X39464Y24564D01*
X39530Y24537D01*
X39600Y24528D01*
X39670Y24537D01*
X39736Y24564D01*
X39793Y24607D01*
X39836Y24664D01*
X39863Y24730D01*
X39872Y24800D01*
X39863Y24870D01*
X39836Y24936D01*
X39793Y24993D01*
X39788Y24996D01*
X39782Y25003D01*
X39774Y25012D01*
X39768Y25022D01*
X39762Y25031D01*
X39758Y25042D01*
X39754Y25053D01*
X39751Y25065D01*
X39748Y25077D01*
X39748Y25082D01*
Y25824D01*
X39737Y25881D01*
X39705Y25929D01*
X38822Y26811D01*
X38813Y26824D01*
X38803Y26841D01*
X38794Y26861D01*
X38787Y26883D01*
X38780Y26908D01*
X38775Y26934D01*
X38769Y26999D01*
X38769Y27023D01*
X38771Y27037D01*
X38758Y27136D01*
X38719Y27228D01*
X38658Y27308D01*
X38579Y27369D01*
X38487Y27407D01*
X38387Y27420D01*
X38288Y27407D01*
X38196Y27369D01*
X38116Y27308D01*
X38087Y27269D01*
X38017Y27293D01*
Y27731D01*
X38087Y27755D01*
X38095Y27744D01*
X38181Y27679D01*
X38280Y27637D01*
X38327Y27631D01*
Y28037D01*
Y28442D01*
X38280Y28436D01*
X38181Y28395D01*
X38095Y28329D01*
X38087Y28318D01*
X38017Y28342D01*
Y28781D01*
X38087Y28804D01*
X38116Y28766D01*
X38196Y28705D01*
X38288Y28667D01*
X38387Y28653D01*
X38487Y28667D01*
X38579Y28705D01*
X38658Y28766D01*
X38667Y28776D01*
X38682Y28791D01*
X38704Y28810D01*
X38725Y28826D01*
X38747Y28839D01*
X38768Y28851D01*
X38788Y28860D01*
X38809Y28867D01*
X38829Y28871D01*
X38844Y28874D01*
X39596D01*
X40570Y27899D01*
Y26315D01*
X40569Y26302D01*
X40566Y26289D01*
X40563Y26278D01*
X40560Y26269D01*
X40556Y26261D01*
X40552Y26254D01*
X40548Y26249D01*
X40545Y26246D01*
X40541Y26243D01*
X40498Y26186D01*
X40470Y26120D01*
X40461Y26050D01*
X40470Y25980D01*
X40498Y25914D01*
X40541Y25857D01*
X40548Y25852D01*
X40554Y25846D01*
X40558Y25840D01*
X40562Y25834D01*
X40566Y25827D01*
X40569Y25818D01*
X40572Y25807D01*
X40575Y25795D01*
X40577Y25781D01*
Y16355D01*
X40576Y16347D01*
X40573Y16330D01*
X40568Y16314D01*
X40563Y16299D01*
X40556Y16284D01*
X40548Y16270D01*
X40538Y16256D01*
X40527Y16243D01*
X40519Y16234D01*
X40512Y16228D01*
X40460Y16161D01*
X40428Y16084D01*
X40417Y16000D01*
X40428Y15916D01*
X40460Y15839D01*
X40512Y15772D01*
X40579Y15720D01*
X40656Y15688D01*
X40740Y15677D01*
X40824Y15688D01*
X40901Y15720D01*
X40968Y15772D01*
X41020Y15839D01*
X41052Y15916D01*
X41063Y16000D01*
X41052Y16084D01*
X41020Y16161D01*
X40968Y16228D01*
X40961Y16234D01*
X40953Y16243D01*
X40942Y16256D01*
X40932Y16270D01*
X40924Y16284D01*
X40917Y16299D01*
X40912Y16314D01*
X40907Y16330D01*
X40904Y16347D01*
X40903Y16355D01*
Y25789D01*
X40905Y25802D01*
X40907Y25815D01*
X40910Y25826D01*
X40914Y25836D01*
X40917Y25845D01*
X40921Y25852D01*
X40925Y25856D01*
X40926Y25857D01*
X40931Y25864D01*
X40932Y25865D01*
X40932Y25866D01*
X40969Y25914D01*
X40997Y25980D01*
X41006Y26050D01*
X40997Y26120D01*
X40969Y26186D01*
X40926Y26243D01*
X40922Y26246D01*
X40919Y26249D01*
X40915Y26254D01*
X40911Y26261D01*
X40907Y26269D01*
X40904Y26278D01*
X40901Y26289D01*
X40899Y26301D01*
X40897Y26320D01*
Y27967D01*
X40884Y28029D01*
X40849Y28082D01*
X39779Y29152D01*
X39726Y29187D01*
X39663Y29200D01*
X38844D01*
X38829Y29202D01*
X38809Y29207D01*
X38788Y29214D01*
X38768Y29223D01*
X38747Y29234D01*
X38725Y29248D01*
X38704Y29264D01*
X38682Y29283D01*
X38667Y29297D01*
X38658Y29308D01*
X38579Y29369D01*
X38487Y29407D01*
X38387Y29420D01*
X38288Y29407D01*
X38196Y29369D01*
X38116Y29308D01*
X38087Y29269D01*
X38017Y29293D01*
Y29781D01*
X38087Y29804D01*
X38116Y29766D01*
X38196Y29705D01*
X38288Y29667D01*
X38387Y29653D01*
X38487Y29667D01*
X38579Y29705D01*
X38658Y29766D01*
X38719Y29845D01*
X38758Y29938D01*
X38771Y30037D01*
X38758Y30136D01*
X38719Y30228D01*
X38658Y30308D01*
X38579Y30369D01*
X38487Y30407D01*
X38387Y30420D01*
X38288Y30407D01*
X38196Y30369D01*
X38116Y30308D01*
X38087Y30269D01*
X38017Y30293D01*
Y30781D01*
X38087Y30804D01*
X38116Y30766D01*
X38196Y30705D01*
X38288Y30667D01*
X38387Y30653D01*
X38487Y30667D01*
X38579Y30705D01*
X38658Y30766D01*
X38719Y30845D01*
X38758Y30938D01*
X38771Y31037D01*
X38758Y31136D01*
X38719Y31228D01*
X38658Y31308D01*
X38579Y31369D01*
X38487Y31407D01*
X38387Y31420D01*
X38288Y31407D01*
X38196Y31369D01*
X38116Y31308D01*
X38087Y31269D01*
X38017Y31293D01*
Y31479D01*
X38145Y31607D01*
X38158Y31615D01*
X38174Y31624D01*
X38194Y31632D01*
X38217Y31639D01*
X38244Y31645D01*
X38273Y31650D01*
X38345Y31655D01*
X38374Y31655D01*
X38387Y31653D01*
X38487Y31667D01*
X38502Y31673D01*
X38533Y31681D01*
X38562Y31687D01*
X38589Y31691D01*
X38613Y31692D01*
X38634Y31690D01*
X38652Y31687D01*
X38668Y31682D01*
X38683Y31675D01*
X38695Y31667D01*
X38696Y31667D01*
X41398Y28965D01*
X41402Y28959D01*
X41408Y28950D01*
X41413Y28939D01*
X41418Y28928D01*
X41422Y28915D01*
X41425Y28902D01*
X41427Y28887D01*
X41428Y28870D01*
X41429Y28857D01*
X41428Y28850D01*
X41437Y28780D01*
X41464Y28714D01*
X41507Y28657D01*
X41564Y28614D01*
X41630Y28587D01*
X41700Y28578D01*
X41770Y28587D01*
X41836Y28614D01*
X41893Y28657D01*
X41936Y28714D01*
X41963Y28780D01*
X41972Y28850D01*
X41963Y28920D01*
X41936Y28986D01*
X41893Y29043D01*
X41836Y29086D01*
X41770Y29113D01*
X41700Y29122D01*
X41693Y29121D01*
X41680Y29122D01*
X41663Y29123D01*
X41648Y29125D01*
X41635Y29128D01*
X41622Y29132D01*
X41611Y29137D01*
X41600Y29142D01*
X41591Y29148D01*
X41585Y29152D01*
X38859Y31878D01*
X38852Y31888D01*
X38830Y31928D01*
X38819Y31952D01*
X38767Y32098D01*
X38759Y32125D01*
X38758Y32136D01*
X38719Y32228D01*
X38658Y32308D01*
X38579Y32369D01*
X38487Y32407D01*
X38387Y32420D01*
X38288Y32407D01*
X38196Y32369D01*
X38116Y32308D01*
X38056Y32228D01*
X38017Y32136D01*
X38004Y32037D01*
X38006Y32024D01*
X38004Y31956D01*
X38001Y31923D01*
X37996Y31893D01*
X37990Y31867D01*
X37983Y31843D01*
X37975Y31824D01*
X37966Y31807D01*
X37957Y31794D01*
X37791Y31627D01*
X37762Y31584D01*
X37752Y31534D01*
Y31301D01*
X37682Y31278D01*
X37659Y31308D01*
X37579Y31369D01*
X37487Y31407D01*
X37387Y31420D01*
X37288Y31407D01*
X37196Y31369D01*
X37116Y31308D01*
X37056Y31228D01*
X37017Y31136D01*
X37004Y31037D01*
X37017Y30938D01*
X37056Y30845D01*
X37116Y30766D01*
X37196Y30705D01*
X37288Y30667D01*
X37387Y30653D01*
X37487Y30667D01*
X37579Y30705D01*
X37659Y30766D01*
X37682Y30796D01*
X37752Y30772D01*
Y30301D01*
X37682Y30278D01*
X37659Y30308D01*
X37579Y30369D01*
X37487Y30407D01*
X37387Y30420D01*
X37288Y30407D01*
X37196Y30369D01*
X37116Y30308D01*
X37056Y30228D01*
X37017Y30136D01*
X37004Y30037D01*
X37017Y29938D01*
X37056Y29845D01*
X37116Y29766D01*
X37196Y29705D01*
X37288Y29667D01*
X37387Y29653D01*
X37487Y29667D01*
X37579Y29705D01*
X37659Y29766D01*
X37682Y29796D01*
X37752Y29772D01*
Y29301D01*
X37682Y29278D01*
X37659Y29308D01*
X37579Y29369D01*
X37487Y29407D01*
X37387Y29420D01*
X37288Y29407D01*
X37196Y29369D01*
X37116Y29308D01*
X37108Y29297D01*
X37090Y29279D01*
X37065Y29258D01*
X37042Y29239D01*
X37019Y29223D01*
X36997Y29210D01*
X36975Y29200D01*
X36955Y29192D01*
X36936Y29187D01*
X36920Y29185D01*
X35224D01*
X33264Y31145D01*
X33260Y31150D01*
X33254Y31159D01*
X33250Y31168D01*
X33246Y31176D01*
X33244Y31185D01*
X33243Y31193D01*
X33242Y31201D01*
X33243Y31209D01*
X33243Y31210D01*
X33244Y31213D01*
X33245Y31223D01*
X33245Y31226D01*
X33252Y31280D01*
X33243Y31350D01*
X33216Y31416D01*
X33173Y31473D01*
X33116Y31516D01*
X33050Y31543D01*
X32980Y31552D01*
X32910Y31543D01*
X32844Y31516D01*
X32787Y31473D01*
X32744Y31416D01*
X32717Y31350D01*
X32708Y31280D01*
X32717Y31210D01*
X32744Y31144D01*
X32787Y31087D01*
X32844Y31044D01*
X32910Y31017D01*
X32922Y31015D01*
X32923Y31015D01*
X32938Y31011D01*
X32951Y31007D01*
X32964Y31002D01*
X32976Y30997D01*
X32989Y30991D01*
X33000Y30984D01*
X33012Y30976D01*
X33023Y30967D01*
X33025Y30966D01*
X34508Y29483D01*
X34483Y29409D01*
X34474Y29407D01*
X34408Y29380D01*
X34352Y29337D01*
X34309Y29281D01*
X34281Y29215D01*
X34272Y29144D01*
X34281Y29074D01*
X34309Y29008D01*
X34352Y28952D01*
X34408Y28909D01*
X34445Y28893D01*
X34451Y28890D01*
X34464Y28884D01*
X34491Y28872D01*
X34502Y28866D01*
X34527Y28849D01*
X34538Y28841D01*
X34551Y28829D01*
X35449Y27932D01*
X35497Y27900D01*
X35553Y27889D01*
X36920D01*
X36936Y27886D01*
X36955Y27881D01*
X36975Y27873D01*
X36997Y27863D01*
X37019Y27850D01*
X37041Y27835D01*
X37091Y27794D01*
X37108Y27777D01*
X37116Y27766D01*
X37196Y27705D01*
X37288Y27667D01*
X37387Y27653D01*
X37487Y27667D01*
X37579Y27705D01*
X37659Y27766D01*
X37682Y27796D01*
X37752Y27772D01*
Y27301D01*
X37682Y27278D01*
X37659Y27308D01*
X37579Y27369D01*
X37487Y27407D01*
X37387Y27420D01*
X37288Y27407D01*
X37196Y27369D01*
X37116Y27308D01*
X37108Y27297D01*
X37090Y27279D01*
X37065Y27258D01*
X37042Y27239D01*
X37019Y27223D01*
X36997Y27210D01*
X36975Y27200D01*
X36955Y27192D01*
X36936Y27187D01*
X36920Y27185D01*
X35964D01*
X32293Y30856D01*
X32293Y30856D01*
X12455Y50695D01*
X12407Y50727D01*
X12350Y50738D01*
X5998D01*
X5974Y50808D01*
X6002Y50829D01*
X6061Y50906D01*
X6098Y50995D01*
X6110Y51090D01*
X6098Y51185D01*
X6061Y51274D01*
X6002Y51351D01*
X5926Y51409D01*
X5837Y51446D01*
X5742Y51458D01*
D02*
G37*
G36*
X2090Y51463D02*
X1995Y51451D01*
X1906Y51414D01*
X1829Y51355D01*
X1771Y51279D01*
X1734Y51190D01*
X1722Y51095D01*
Y51085D01*
X1734Y50990D01*
X1771Y50901D01*
X1829Y50825D01*
X1906Y50766D01*
X1995Y50729D01*
X2090Y50717D01*
X2185Y50729D01*
X2274Y50766D01*
X2351Y50825D01*
X2409Y50901D01*
X2446Y50990D01*
X2458Y51085D01*
Y51095D01*
X2446Y51190D01*
X2409Y51279D01*
X2351Y51355D01*
X2274Y51414D01*
X2185Y51451D01*
X2090Y51463D01*
D02*
G37*
G36*
Y50463D02*
X1995Y50451D01*
X1906Y50414D01*
X1829Y50355D01*
X1771Y50279D01*
X1734Y50190D01*
X1722Y50095D01*
Y50085D01*
X1734Y49990D01*
X1771Y49901D01*
X1829Y49825D01*
X1906Y49766D01*
X1995Y49729D01*
X2090Y49717D01*
X2185Y49729D01*
X2274Y49766D01*
X2351Y49825D01*
X2409Y49901D01*
X2446Y49990D01*
X2458Y50085D01*
Y50095D01*
X2446Y50190D01*
X2409Y50279D01*
X2351Y50355D01*
X2274Y50414D01*
X2185Y50451D01*
X2090Y50463D01*
D02*
G37*
G36*
X4802Y49961D02*
Y49650D01*
X5113D01*
X5108Y49688D01*
X5070Y49779D01*
X5010Y49858D01*
X4931Y49918D01*
X4840Y49956D01*
X4802Y49961D01*
D02*
G37*
G36*
X4682D02*
X4644Y49956D01*
X4553Y49918D01*
X4474Y49858D01*
X4414Y49779D01*
X4376Y49688D01*
X4371Y49650D01*
X4682D01*
Y49961D01*
D02*
G37*
G36*
X5113Y49530D02*
X4802D01*
Y49219D01*
X4840Y49224D01*
X4931Y49262D01*
X5010Y49322D01*
X5070Y49401D01*
X5108Y49492D01*
X5113Y49530D01*
D02*
G37*
G36*
X4682D02*
X4371D01*
X4376Y49492D01*
X4414Y49401D01*
X4474Y49322D01*
X4553Y49262D01*
X4644Y49224D01*
X4682Y49219D01*
Y49530D01*
D02*
G37*
G36*
X2150Y49486D02*
Y49150D01*
X2481D01*
X2475Y49198D01*
X2435Y49294D01*
X2372Y49377D01*
X2289Y49440D01*
X2193Y49480D01*
X2150Y49486D01*
D02*
G37*
G36*
X2030D02*
X1987Y49480D01*
X1891Y49440D01*
X1808Y49377D01*
X1745Y49294D01*
X1705Y49198D01*
X1699Y49150D01*
X2030D01*
Y49486D01*
D02*
G37*
G36*
X5742Y49439D02*
X5652Y49427D01*
X5568Y49392D01*
X5495Y49336D01*
X5440Y49264D01*
X5405Y49180D01*
X5393Y49090D01*
X5405Y49000D01*
X5440Y48916D01*
X5495Y48844D01*
X5568Y48788D01*
X5652Y48753D01*
X5742Y48741D01*
X5832Y48753D01*
X5916Y48788D01*
X5988Y48844D01*
X6044Y48916D01*
X6079Y49000D01*
X6091Y49090D01*
X6079Y49180D01*
X6044Y49264D01*
X5988Y49336D01*
X5916Y49392D01*
X5832Y49427D01*
X5742Y49439D01*
D02*
G37*
G36*
X2481Y49030D02*
X2150D01*
Y48694D01*
X2193Y48700D01*
X2289Y48740D01*
X2372Y48803D01*
X2435Y48886D01*
X2475Y48982D01*
X2481Y49030D01*
D02*
G37*
G36*
X2030D02*
X1699D01*
X1705Y48982D01*
X1745Y48886D01*
X1808Y48803D01*
X1891Y48740D01*
X1987Y48700D01*
X2030Y48694D01*
Y49030D01*
D02*
G37*
G36*
X5088Y48936D02*
X4396D01*
Y48244D01*
X5088D01*
Y48936D01*
D02*
G37*
G36*
X2090Y48463D02*
X1995Y48451D01*
X1906Y48414D01*
X1829Y48355D01*
X1771Y48279D01*
X1734Y48190D01*
X1722Y48095D01*
Y48085D01*
X1734Y47990D01*
X1771Y47901D01*
X1829Y47825D01*
X1906Y47766D01*
X1995Y47729D01*
X2090Y47717D01*
X2185Y47729D01*
X2274Y47766D01*
X2351Y47825D01*
X2409Y47901D01*
X2446Y47990D01*
X2458Y48085D01*
Y48095D01*
X2446Y48190D01*
X2409Y48279D01*
X2351Y48355D01*
X2274Y48414D01*
X2185Y48451D01*
X2090Y48463D01*
D02*
G37*
G36*
X8242Y48555D02*
X8103Y48541D01*
X7969Y48501D01*
X7846Y48435D01*
X7738Y48346D01*
X7649Y48238D01*
X7583Y48115D01*
X7542Y47981D01*
X7529Y47842D01*
X7542Y47703D01*
X7583Y47569D01*
X7649Y47446D01*
X7738Y47338D01*
X7846Y47249D01*
X7969Y47183D01*
X8103Y47142D01*
X8242Y47129D01*
X8381Y47142D01*
X8515Y47183D01*
X8638Y47249D01*
X8746Y47338D01*
X8835Y47446D01*
X8901Y47569D01*
X8941Y47703D01*
X8955Y47842D01*
X8941Y47981D01*
X8901Y48115D01*
X8835Y48238D01*
X8746Y48346D01*
X8638Y48435D01*
X8515Y48501D01*
X8381Y48541D01*
X8242Y48555D01*
D02*
G37*
G36*
X2460Y47460D02*
X1720D01*
Y46720D01*
X2460D01*
Y47460D01*
D02*
G37*
G36*
X58000Y37881D02*
X57828Y37864D01*
X57663Y37814D01*
X57510Y37733D01*
X57377Y37623D01*
X57267Y37490D01*
X57186Y37337D01*
X57136Y37172D01*
X57119Y37000D01*
X57136Y36828D01*
X57186Y36663D01*
X57267Y36510D01*
X57377Y36377D01*
X57510Y36267D01*
X57663Y36186D01*
X57828Y36136D01*
X58000Y36119D01*
X58172Y36136D01*
X58337Y36186D01*
X58490Y36267D01*
X58623Y36377D01*
X58733Y36510D01*
X58814Y36663D01*
X58864Y36828D01*
X58881Y37000D01*
X58864Y37172D01*
X58814Y37337D01*
X58733Y37490D01*
X58623Y37623D01*
X58490Y37733D01*
X58337Y37814D01*
X58172Y37864D01*
X58000Y37881D01*
D02*
G37*
G36*
X2000D02*
X1828Y37864D01*
X1663Y37814D01*
X1510Y37733D01*
X1377Y37623D01*
X1267Y37490D01*
X1186Y37337D01*
X1136Y37172D01*
X1119Y37000D01*
X1136Y36828D01*
X1186Y36663D01*
X1267Y36510D01*
X1377Y36377D01*
X1510Y36267D01*
X1663Y36186D01*
X1828Y36136D01*
X2000Y36119D01*
X2172Y36136D01*
X2337Y36186D01*
X2490Y36267D01*
X2623Y36377D01*
X2733Y36510D01*
X2814Y36663D01*
X2864Y36828D01*
X2881Y37000D01*
X2864Y37172D01*
X2814Y37337D01*
X2733Y37490D01*
X2623Y37623D01*
X2490Y37733D01*
X2337Y37814D01*
X2172Y37864D01*
X2000Y37881D01*
D02*
G37*
G36*
X12930Y36280D02*
X12170D01*
Y35520D01*
X12930D01*
Y36280D01*
D02*
G37*
G36*
X11550Y36283D02*
X11451Y36270D01*
X11358Y36232D01*
X11279Y36171D01*
X11218Y36092D01*
X11180Y35999D01*
X11167Y35900D01*
X11180Y35801D01*
X11218Y35708D01*
X11279Y35629D01*
X11358Y35568D01*
X11451Y35530D01*
X11550Y35517D01*
X11649Y35530D01*
X11742Y35568D01*
X11821Y35629D01*
X11882Y35708D01*
X11920Y35801D01*
X11933Y35900D01*
X11920Y35999D01*
X11882Y36092D01*
X11821Y36171D01*
X11742Y36232D01*
X11649Y36270D01*
X11550Y36283D01*
D02*
G37*
G36*
X11630Y35276D02*
Y34930D01*
X11976D01*
X11969Y34977D01*
X11928Y35077D01*
X11862Y35162D01*
X11777Y35228D01*
X11677Y35269D01*
X11630Y35276D01*
D02*
G37*
G36*
X11510D02*
X11463Y35269D01*
X11363Y35228D01*
X11278Y35162D01*
X11212Y35077D01*
X11171Y34977D01*
X11164Y34930D01*
X11510D01*
Y35276D01*
D02*
G37*
G36*
X31000Y36381D02*
X30828Y36364D01*
X30663Y36314D01*
X30510Y36233D01*
X30377Y36123D01*
X30267Y35990D01*
X30186Y35837D01*
X30136Y35672D01*
X30119Y35500D01*
X30136Y35328D01*
X30186Y35163D01*
X30267Y35010D01*
X30377Y34877D01*
X30510Y34767D01*
X30663Y34686D01*
X30828Y34636D01*
X31000Y34619D01*
X31172Y34636D01*
X31337Y34686D01*
X31490Y34767D01*
X31623Y34877D01*
X31733Y35010D01*
X31814Y35163D01*
X31864Y35328D01*
X31881Y35500D01*
X31864Y35672D01*
X31814Y35837D01*
X31733Y35990D01*
X31623Y36123D01*
X31490Y36233D01*
X31337Y36314D01*
X31172Y36364D01*
X31000Y36381D01*
D02*
G37*
G36*
X11976Y34810D02*
X11630D01*
Y34464D01*
X11677Y34471D01*
X11777Y34512D01*
X11862Y34578D01*
X11928Y34663D01*
X11969Y34763D01*
X11976Y34810D01*
D02*
G37*
G36*
X11510D02*
X11164D01*
X11171Y34763D01*
X11212Y34663D01*
X11278Y34578D01*
X11363Y34512D01*
X11463Y34471D01*
X11510Y34464D01*
Y34810D01*
D02*
G37*
G36*
X11630Y34276D02*
Y33930D01*
X11976D01*
X11969Y33977D01*
X11928Y34077D01*
X11862Y34163D01*
X11777Y34228D01*
X11677Y34270D01*
X11630Y34276D01*
D02*
G37*
G36*
X11510D02*
X11463Y34270D01*
X11363Y34228D01*
X11278Y34163D01*
X11212Y34077D01*
X11171Y33977D01*
X11164Y33930D01*
X11510D01*
Y34276D01*
D02*
G37*
G36*
X38767Y33417D02*
X38007D01*
Y32657D01*
X38767D01*
Y33417D01*
D02*
G37*
G36*
X37387Y33420D02*
X37288Y33407D01*
X37196Y33369D01*
X37116Y33308D01*
X37056Y33228D01*
X37017Y33136D01*
X37004Y33037D01*
X37017Y32938D01*
X37056Y32845D01*
X37116Y32766D01*
X37196Y32705D01*
X37288Y32667D01*
X37387Y32653D01*
X37487Y32667D01*
X37579Y32705D01*
X37659Y32766D01*
X37719Y32845D01*
X37758Y32938D01*
X37771Y33037D01*
X37758Y33136D01*
X37719Y33228D01*
X37659Y33308D01*
X37579Y33369D01*
X37487Y33407D01*
X37387Y33420D01*
D02*
G37*
G36*
X11976Y32810D02*
X11630D01*
Y32464D01*
X11677Y32471D01*
X11777Y32512D01*
X11862Y32578D01*
X11928Y32663D01*
X11969Y32763D01*
X11976Y32810D01*
D02*
G37*
G36*
X11510D02*
X11164D01*
X11171Y32763D01*
X11212Y32663D01*
X11278Y32578D01*
X11363Y32512D01*
X11463Y32471D01*
X11510Y32464D01*
Y32810D01*
D02*
G37*
G36*
X37387Y32420D02*
X37288Y32407D01*
X37196Y32369D01*
X37116Y32308D01*
X37056Y32228D01*
X37017Y32136D01*
X37004Y32037D01*
X37017Y31938D01*
X37056Y31845D01*
X37116Y31766D01*
X37196Y31705D01*
X37288Y31667D01*
X37387Y31653D01*
X37487Y31667D01*
X37579Y31705D01*
X37659Y31766D01*
X37719Y31845D01*
X37758Y31938D01*
X37771Y32037D01*
X37758Y32136D01*
X37719Y32228D01*
X37659Y32308D01*
X37579Y32369D01*
X37487Y32407D01*
X37387Y32420D01*
D02*
G37*
G36*
X38447Y28442D02*
Y28097D01*
X38793D01*
X38787Y28144D01*
X38746Y28244D01*
X38680Y28329D01*
X38594Y28395D01*
X38495Y28436D01*
X38447Y28442D01*
D02*
G37*
G36*
X38793Y27977D02*
X38447D01*
Y27631D01*
X38495Y27637D01*
X38594Y27679D01*
X38680Y27744D01*
X38746Y27830D01*
X38787Y27930D01*
X38793Y27977D01*
D02*
G37*
G36*
X33600Y26973D02*
X33503Y26960D01*
X33413Y26923D01*
X33336Y26864D01*
X33277Y26787D01*
X33240Y26697D01*
X33227Y26600D01*
X33240Y26503D01*
X33277Y26413D01*
X33336Y26336D01*
X33413Y26277D01*
X33503Y26240D01*
X33600Y26227D01*
X33697Y26240D01*
X33787Y26277D01*
X33864Y26336D01*
X33923Y26413D01*
X33960Y26503D01*
X33973Y26600D01*
X33960Y26697D01*
X33923Y26787D01*
X33864Y26864D01*
X33787Y26923D01*
X33697Y26960D01*
X33600Y26973D01*
D02*
G37*
G36*
X30600D02*
X30503Y26960D01*
X30413Y26923D01*
X30336Y26864D01*
X30277Y26787D01*
X30240Y26697D01*
X30227Y26600D01*
X30240Y26503D01*
X30277Y26413D01*
X30336Y26336D01*
X30413Y26277D01*
X30503Y26240D01*
X30600Y26227D01*
X30697Y26240D01*
X30787Y26277D01*
X30864Y26336D01*
X30923Y26413D01*
X30960Y26503D01*
X30973Y26600D01*
X30960Y26697D01*
X30923Y26787D01*
X30864Y26864D01*
X30787Y26923D01*
X30697Y26960D01*
X30600Y26973D01*
D02*
G37*
G36*
X29200Y26947D02*
X29103Y26934D01*
X29013Y26897D01*
X28936Y26837D01*
X28877Y26760D01*
X28840Y26670D01*
X28827Y26574D01*
X28840Y26477D01*
X28877Y26387D01*
X28936Y26310D01*
X29013Y26250D01*
X29103Y26213D01*
X29200Y26200D01*
X29297Y26213D01*
X29387Y26250D01*
X29464Y26310D01*
X29523Y26387D01*
X29560Y26477D01*
X29573Y26574D01*
X29560Y26670D01*
X29523Y26760D01*
X29464Y26837D01*
X29387Y26897D01*
X29297Y26934D01*
X29200Y26947D01*
D02*
G37*
G36*
X26200D02*
X26103Y26934D01*
X26013Y26897D01*
X25936Y26837D01*
X25877Y26760D01*
X25840Y26670D01*
X25827Y26574D01*
X25840Y26477D01*
X25877Y26387D01*
X25936Y26310D01*
X26013Y26250D01*
X26103Y26213D01*
X26200Y26200D01*
X26297Y26213D01*
X26387Y26250D01*
X26464Y26310D01*
X26523Y26387D01*
X26560Y26477D01*
X26573Y26574D01*
X26560Y26670D01*
X26523Y26760D01*
X26464Y26837D01*
X26387Y26897D01*
X26297Y26934D01*
X26200Y26947D01*
D02*
G37*
G36*
X38447Y26442D02*
Y26097D01*
X38793D01*
X38787Y26144D01*
X38746Y26244D01*
X38680Y26329D01*
X38594Y26395D01*
X38495Y26436D01*
X38447Y26442D01*
D02*
G37*
G36*
X38793Y25977D02*
X38447D01*
Y25631D01*
X38495Y25637D01*
X38594Y25679D01*
X38680Y25744D01*
X38746Y25830D01*
X38787Y25930D01*
X38793Y25977D01*
D02*
G37*
G36*
X30600Y25973D02*
X30503Y25960D01*
X30413Y25923D01*
X30336Y25864D01*
X30277Y25787D01*
X30240Y25697D01*
X30227Y25600D01*
X30240Y25503D01*
X30277Y25413D01*
X30336Y25336D01*
X30413Y25277D01*
X30503Y25240D01*
X30600Y25227D01*
X30697Y25240D01*
X30787Y25277D01*
X30864Y25336D01*
X30923Y25413D01*
X30960Y25503D01*
X30973Y25600D01*
X30960Y25697D01*
X30923Y25787D01*
X30864Y25864D01*
X30787Y25923D01*
X30697Y25960D01*
X30600Y25973D01*
D02*
G37*
G36*
X29200Y25947D02*
X29103Y25934D01*
X29013Y25897D01*
X28936Y25837D01*
X28877Y25760D01*
X28840Y25670D01*
X28827Y25574D01*
X28840Y25477D01*
X28877Y25387D01*
X28936Y25310D01*
X29013Y25250D01*
X29103Y25213D01*
X29200Y25200D01*
X29297Y25213D01*
X29387Y25250D01*
X29464Y25310D01*
X29523Y25387D01*
X29560Y25477D01*
X29573Y25574D01*
X29560Y25670D01*
X29523Y25760D01*
X29464Y25837D01*
X29387Y25897D01*
X29297Y25934D01*
X29200Y25947D01*
D02*
G37*
G36*
X26200D02*
X26103Y25934D01*
X26013Y25897D01*
X25936Y25837D01*
X25877Y25760D01*
X25840Y25670D01*
X25827Y25574D01*
X25840Y25477D01*
X25877Y25387D01*
X25936Y25310D01*
X26013Y25250D01*
X26103Y25213D01*
X26200Y25200D01*
X26297Y25213D01*
X26387Y25250D01*
X26464Y25310D01*
X26523Y25387D01*
X26560Y25477D01*
X26573Y25574D01*
X26560Y25670D01*
X26523Y25760D01*
X26464Y25837D01*
X26387Y25897D01*
X26297Y25934D01*
X26200Y25947D01*
D02*
G37*
G36*
X33600Y25973D02*
X33503Y25960D01*
X33413Y25923D01*
X33336Y25864D01*
X33277Y25787D01*
X33240Y25697D01*
X33227Y25600D01*
X33240Y25503D01*
X33277Y25413D01*
X33336Y25336D01*
X33340Y25333D01*
X33316Y25263D01*
X31100D01*
X31038Y25251D01*
X30985Y25215D01*
X30796Y25027D01*
X30784Y25018D01*
X30767Y25007D01*
X30749Y24998D01*
X30729Y24990D01*
X30707Y24983D01*
X30684Y24978D01*
X30659Y24974D01*
X30632Y24972D01*
X30612Y24972D01*
X30600Y24973D01*
X30503Y24960D01*
X30413Y24923D01*
X30336Y24864D01*
X30277Y24787D01*
X30240Y24697D01*
X30227Y24600D01*
X30240Y24503D01*
X30277Y24413D01*
X30336Y24336D01*
X30413Y24277D01*
X30503Y24240D01*
X30600Y24227D01*
X30697Y24240D01*
X30787Y24277D01*
X30864Y24336D01*
X30923Y24413D01*
X30960Y24503D01*
X30973Y24600D01*
X30972Y24612D01*
X30972Y24632D01*
X30974Y24659D01*
X30978Y24684D01*
X30983Y24707D01*
X30990Y24729D01*
X30998Y24749D01*
X31007Y24767D01*
X31018Y24785D01*
X31027Y24796D01*
X31168Y24937D01*
X33316D01*
X33340Y24867D01*
X33336Y24864D01*
X33277Y24787D01*
X33240Y24697D01*
X33227Y24600D01*
X33240Y24503D01*
X33277Y24413D01*
X33336Y24336D01*
X33413Y24277D01*
X33503Y24240D01*
X33600Y24227D01*
X33697Y24240D01*
X33787Y24277D01*
X33864Y24336D01*
X33872Y24346D01*
X33886Y24360D01*
X33906Y24377D01*
X33927Y24392D01*
X33947Y24405D01*
X33967Y24415D01*
X33987Y24424D01*
X34006Y24430D01*
X34026Y24435D01*
X34040Y24437D01*
X34432D01*
X39537Y19332D01*
Y18955D01*
X39536Y18947D01*
X39533Y18930D01*
X39528Y18914D01*
X39523Y18899D01*
X39516Y18884D01*
X39508Y18870D01*
X39498Y18856D01*
X39487Y18843D01*
X39479Y18834D01*
X39472Y18828D01*
X39420Y18761D01*
X39388Y18684D01*
X39377Y18600D01*
X39388Y18516D01*
X39420Y18439D01*
X39472Y18372D01*
X39539Y18320D01*
X39616Y18288D01*
X39700Y18277D01*
X39784Y18288D01*
X39861Y18320D01*
X39928Y18372D01*
X39980Y18439D01*
X40012Y18516D01*
X40023Y18600D01*
X40012Y18684D01*
X39980Y18761D01*
X39928Y18828D01*
X39921Y18834D01*
X39913Y18843D01*
X39902Y18856D01*
X39892Y18870D01*
X39884Y18884D01*
X39877Y18899D01*
X39872Y18914D01*
X39867Y18930D01*
X39864Y18947D01*
X39863Y18955D01*
Y19400D01*
X39863Y19400D01*
X39851Y19462D01*
X39815Y19515D01*
X34615Y24715D01*
X34562Y24751D01*
X34500Y24763D01*
X34040D01*
X34026Y24765D01*
X34006Y24770D01*
X33987Y24776D01*
X33967Y24785D01*
X33947Y24795D01*
X33927Y24808D01*
X33906Y24823D01*
X33886Y24840D01*
X33872Y24854D01*
X33864Y24864D01*
X33860Y24867D01*
X33884Y24937D01*
X34732D01*
X39284Y20385D01*
X39288Y20381D01*
X39299Y20366D01*
X39308Y20351D01*
X39317Y20335D01*
X39325Y20318D01*
X39332Y20301D01*
X39338Y20283D01*
X39343Y20265D01*
X39347Y20244D01*
X39348Y20240D01*
X39351Y20216D01*
X39384Y20139D01*
X39435Y20072D01*
X39502Y20020D01*
X39580Y19988D01*
X39663Y19977D01*
X39747Y19988D01*
X39825Y20020D01*
X39891Y20072D01*
X39943Y20139D01*
X39975Y20216D01*
X39986Y20300D01*
X39975Y20384D01*
X39943Y20461D01*
X39891Y20528D01*
X39825Y20580D01*
X39747Y20612D01*
X39663Y20623D01*
X39611Y20616D01*
X39606Y20616D01*
X39587Y20613D01*
X39572Y20613D01*
X39558Y20613D01*
X39545Y20616D01*
X39532Y20619D01*
X39519Y20624D01*
X39506Y20631D01*
X39493Y20639D01*
X39486Y20645D01*
X34915Y25215D01*
X34862Y25251D01*
X34800Y25263D01*
X33884D01*
X33860Y25333D01*
X33864Y25336D01*
X33923Y25413D01*
X33960Y25503D01*
X33973Y25600D01*
X33960Y25697D01*
X33923Y25787D01*
X33864Y25864D01*
X33787Y25923D01*
X33697Y25960D01*
X33600Y25973D01*
D02*
G37*
G36*
X29200Y24947D02*
X29103Y24934D01*
X29013Y24897D01*
X28936Y24837D01*
X28877Y24760D01*
X28840Y24670D01*
X28827Y24574D01*
X28840Y24477D01*
X28877Y24387D01*
X28936Y24310D01*
X29013Y24250D01*
X29103Y24213D01*
X29200Y24200D01*
X29297Y24213D01*
X29387Y24250D01*
X29464Y24310D01*
X29523Y24387D01*
X29560Y24477D01*
X29573Y24574D01*
X29560Y24670D01*
X29523Y24760D01*
X29464Y24837D01*
X29387Y24897D01*
X29297Y24934D01*
X29200Y24947D01*
D02*
G37*
G36*
X26200D02*
X26103Y24934D01*
X26013Y24897D01*
X25936Y24837D01*
X25877Y24760D01*
X25840Y24670D01*
X25827Y24574D01*
X25840Y24477D01*
X25877Y24387D01*
X25936Y24310D01*
X26013Y24250D01*
X26103Y24213D01*
X26200Y24200D01*
X26297Y24213D01*
X26387Y24250D01*
X26464Y24310D01*
X26523Y24387D01*
X26560Y24477D01*
X26573Y24574D01*
X26560Y24670D01*
X26523Y24760D01*
X26464Y24837D01*
X26387Y24897D01*
X26297Y24934D01*
X26200Y24947D01*
D02*
G37*
G36*
X33600Y23973D02*
X33503Y23960D01*
X33413Y23923D01*
X33336Y23864D01*
X33277Y23787D01*
X33240Y23697D01*
X33227Y23600D01*
X33240Y23503D01*
X33277Y23413D01*
X33336Y23336D01*
X33413Y23277D01*
X33503Y23240D01*
X33600Y23227D01*
X33697Y23240D01*
X33787Y23277D01*
X33864Y23336D01*
X33923Y23413D01*
X33960Y23503D01*
X33973Y23600D01*
X33960Y23697D01*
X33923Y23787D01*
X33864Y23864D01*
X33787Y23923D01*
X33697Y23960D01*
X33600Y23973D01*
D02*
G37*
G36*
X30600D02*
X30503Y23960D01*
X30413Y23923D01*
X30336Y23864D01*
X30277Y23787D01*
X30240Y23697D01*
X30227Y23600D01*
X30240Y23503D01*
X30277Y23413D01*
X30336Y23336D01*
X30413Y23277D01*
X30503Y23240D01*
X30600Y23227D01*
X30697Y23240D01*
X30787Y23277D01*
X30864Y23336D01*
X30923Y23413D01*
X30960Y23503D01*
X30973Y23600D01*
X30960Y23697D01*
X30923Y23787D01*
X30864Y23864D01*
X30787Y23923D01*
X30697Y23960D01*
X30600Y23973D01*
D02*
G37*
G36*
X29200Y23947D02*
X29103Y23934D01*
X29013Y23897D01*
X28936Y23837D01*
X28877Y23760D01*
X28840Y23670D01*
X28827Y23574D01*
X28840Y23477D01*
X28877Y23387D01*
X28936Y23310D01*
X29013Y23250D01*
X29103Y23213D01*
X29200Y23200D01*
X29297Y23213D01*
X29387Y23250D01*
X29464Y23310D01*
X29523Y23387D01*
X29560Y23477D01*
X29573Y23574D01*
X29560Y23670D01*
X29523Y23760D01*
X29464Y23837D01*
X29387Y23897D01*
X29297Y23934D01*
X29200Y23947D01*
D02*
G37*
G36*
X26200D02*
X26103Y23934D01*
X26013Y23897D01*
X25936Y23837D01*
X25877Y23760D01*
X25840Y23670D01*
X25827Y23574D01*
X25840Y23477D01*
X25877Y23387D01*
X25936Y23310D01*
X26013Y23250D01*
X26103Y23213D01*
X26200Y23200D01*
X26297Y23213D01*
X26387Y23250D01*
X26464Y23310D01*
X26523Y23387D01*
X26560Y23477D01*
X26573Y23574D01*
X26560Y23670D01*
X26523Y23760D01*
X26464Y23837D01*
X26387Y23897D01*
X26297Y23934D01*
X26200Y23947D01*
D02*
G37*
G36*
X30600Y22973D02*
X30503Y22960D01*
X30413Y22923D01*
X30336Y22864D01*
X30277Y22787D01*
X30240Y22697D01*
X30227Y22600D01*
X30240Y22503D01*
X30277Y22413D01*
X30336Y22336D01*
X30413Y22277D01*
X30503Y22240D01*
X30600Y22227D01*
X30697Y22240D01*
X30787Y22277D01*
X30864Y22336D01*
X30923Y22413D01*
X30960Y22503D01*
X30973Y22600D01*
X30960Y22697D01*
X30923Y22787D01*
X30864Y22864D01*
X30787Y22923D01*
X30697Y22960D01*
X30600Y22973D01*
D02*
G37*
G36*
X26200Y22947D02*
X26103Y22934D01*
X26013Y22897D01*
X25936Y22837D01*
X25877Y22760D01*
X25840Y22670D01*
X25827Y22574D01*
X25840Y22477D01*
X25877Y22387D01*
X25936Y22310D01*
X26013Y22250D01*
X26103Y22213D01*
X26200Y22200D01*
X26297Y22213D01*
X26387Y22250D01*
X26464Y22310D01*
X26523Y22387D01*
X26560Y22477D01*
X26573Y22574D01*
X26560Y22670D01*
X26523Y22760D01*
X26464Y22837D01*
X26387Y22897D01*
X26297Y22934D01*
X26200Y22947D01*
D02*
G37*
G36*
X12950Y35250D02*
X12190D01*
Y34490D01*
X12950D01*
Y34734D01*
X12952Y34735D01*
X12964Y34737D01*
X12972Y34737D01*
X13875D01*
X24767Y23845D01*
Y22678D01*
X24766Y22667D01*
X24762Y22653D01*
X24756Y22638D01*
X24748Y22622D01*
X24738Y22605D01*
X24727Y22588D01*
X24694Y22549D01*
X24680Y22534D01*
X24672Y22528D01*
X24620Y22461D01*
X24588Y22384D01*
X24577Y22300D01*
X24588Y22216D01*
X24620Y22139D01*
X24672Y22072D01*
X24739Y22020D01*
X24816Y21988D01*
X24900Y21977D01*
X24984Y21988D01*
X25061Y22020D01*
X25128Y22072D01*
X25180Y22139D01*
X25212Y22216D01*
X25223Y22300D01*
X25212Y22384D01*
X25180Y22461D01*
X25128Y22528D01*
X25120Y22534D01*
X25106Y22549D01*
X25088Y22569D01*
X25074Y22587D01*
X25062Y22605D01*
X25052Y22622D01*
X25044Y22638D01*
X25038Y22653D01*
X25034Y22667D01*
X25033Y22678D01*
Y23900D01*
X25022Y23951D01*
X24994Y23994D01*
X14024Y34964D01*
X13981Y34992D01*
X13930Y35003D01*
X12972D01*
X12964Y35003D01*
X12952Y35005D01*
X12950Y35006D01*
Y35250D01*
D02*
G37*
G36*
X33970Y22970D02*
X33230D01*
Y22585D01*
X33230Y22584D01*
X33230Y22583D01*
Y22497D01*
X33224Y22486D01*
X33205Y22459D01*
X33154Y22399D01*
X32678Y21923D01*
X30095D01*
X29656Y22363D01*
X29621Y22401D01*
X29596Y22432D01*
X29576Y22460D01*
X29570Y22471D01*
Y22557D01*
X29570Y22558D01*
X29570Y22558D01*
Y22944D01*
X28830D01*
Y22818D01*
X28830Y22816D01*
X28828Y22811D01*
X28825Y22806D01*
X28819Y22801D01*
X28807Y22794D01*
X28789Y22786D01*
X28764Y22780D01*
X28733Y22774D01*
X28709Y22772D01*
X28334D01*
X28257Y22757D01*
X28193Y22714D01*
X26118Y20639D01*
X23833D01*
X23815Y20709D01*
X23874Y20740D01*
X23976Y20824D01*
X24060Y20926D01*
X24122Y21042D01*
X24160Y21169D01*
X24173Y21300D01*
X24160Y21431D01*
X24122Y21558D01*
X24060Y21674D01*
X23976Y21776D01*
X23874Y21860D01*
X23758Y21922D01*
X23631Y21960D01*
X23500Y21973D01*
X23369Y21960D01*
X23242Y21922D01*
X23126Y21860D01*
X23024Y21776D01*
X22940Y21674D01*
X22878Y21558D01*
X22840Y21431D01*
X22827Y21300D01*
X22840Y21169D01*
X22878Y21042D01*
X22940Y20926D01*
X23024Y20824D01*
X23126Y20740D01*
X23185Y20709D01*
X23167Y20639D01*
X12800D01*
X12724Y20624D01*
X12659Y20581D01*
X4820Y12741D01*
X4771Y12696D01*
X4730Y12663D01*
X4694Y12637D01*
X4681Y12630D01*
X4195D01*
X4030Y12465D01*
Y12135D01*
X4195Y11970D01*
X4805D01*
X4970Y12135D01*
Y12297D01*
X4982Y12319D01*
X5007Y12354D01*
X5070Y12429D01*
X12882Y20241D01*
X23107D01*
X23136Y20171D01*
X23030Y20065D01*
Y19735D01*
X23195Y19570D01*
X23805D01*
X23970Y19735D01*
Y20065D01*
X23864Y20171D01*
X23893Y20241D01*
X26200D01*
X26276Y20256D01*
X26341Y20299D01*
X28416Y22375D01*
X28709D01*
X28733Y22373D01*
X28764Y22367D01*
X28789Y22361D01*
X28807Y22353D01*
X28819Y22346D01*
X28825Y22341D01*
X28828Y22336D01*
X28830Y22331D01*
X28830Y22330D01*
Y22204D01*
X29215D01*
X29216Y22203D01*
X29217Y22204D01*
X29303D01*
X29314Y22197D01*
X29341Y22178D01*
X29401Y22128D01*
X29901Y21627D01*
X29957Y21590D01*
X30024Y21577D01*
X32750D01*
X32816Y21590D01*
X32873Y21627D01*
X33390Y22144D01*
X33427Y22179D01*
X33458Y22204D01*
X33486Y22224D01*
X33497Y22230D01*
X33583D01*
X33584Y22230D01*
X33585Y22230D01*
X33614D01*
X33640Y22215D01*
X33683Y22185D01*
X33776Y22107D01*
X38441Y17441D01*
X38514Y17393D01*
X38600Y17376D01*
X39430D01*
X39457Y17373D01*
X39468Y17371D01*
X39475Y17369D01*
X39539Y17320D01*
X39616Y17288D01*
X39700Y17277D01*
X39784Y17288D01*
X39861Y17320D01*
X39928Y17372D01*
X39980Y17439D01*
X40012Y17516D01*
X40023Y17600D01*
X40012Y17684D01*
X39980Y17761D01*
X39928Y17828D01*
X39861Y17880D01*
X39784Y17912D01*
X39700Y17923D01*
X39616Y17912D01*
X39539Y17880D01*
X39475Y17831D01*
X39468Y17829D01*
X39458Y17827D01*
X39415Y17824D01*
X38693D01*
X34108Y22409D01*
X34055Y22467D01*
X34015Y22516D01*
X33985Y22560D01*
X33970Y22586D01*
Y22725D01*
X33970Y22725D01*
X33970Y22726D01*
Y22970D01*
D02*
G37*
G36*
X4500Y22473D02*
X4369Y22460D01*
X4242Y22422D01*
X4126Y22360D01*
X4024Y22276D01*
X3940Y22174D01*
X3878Y22058D01*
X3840Y21931D01*
X3827Y21800D01*
X3840Y21669D01*
X3878Y21542D01*
X3940Y21426D01*
X4024Y21324D01*
X4126Y21240D01*
X4242Y21178D01*
X4369Y21140D01*
X4500Y21127D01*
X4631Y21140D01*
X4758Y21178D01*
X4874Y21240D01*
X4976Y21324D01*
X5060Y21426D01*
X5122Y21542D01*
X5160Y21669D01*
X5173Y21800D01*
X5160Y21931D01*
X5122Y22058D01*
X5060Y22174D01*
X4976Y22276D01*
X4874Y22360D01*
X4758Y22422D01*
X4631Y22460D01*
X4500Y22473D01*
D02*
G37*
G36*
X23805Y19230D02*
X23195D01*
X23030Y19065D01*
Y18735D01*
X23195Y18570D01*
X23805D01*
X23970Y18735D01*
Y19065D01*
X23805Y19230D01*
D02*
G37*
G36*
Y18230D02*
X23195D01*
X23030Y18065D01*
Y17735D01*
X23195Y17570D01*
X23805D01*
X23970Y17735D01*
Y18065D01*
X23805Y18230D01*
D02*
G37*
G36*
X23820Y17260D02*
X23560D01*
Y16960D01*
X24000D01*
Y17080D01*
X23820Y17260D01*
D02*
G37*
G36*
X23440D02*
X23180D01*
X23000Y17080D01*
Y16960D01*
X23440D01*
Y17260D01*
D02*
G37*
G36*
X24000Y16840D02*
X23560D01*
Y16540D01*
X23820D01*
X24000Y16720D01*
Y16840D01*
D02*
G37*
G36*
X23440D02*
X23000D01*
Y16720D01*
X23180Y16540D01*
X23440D01*
Y16840D01*
D02*
G37*
G36*
X23805Y16230D02*
X23195D01*
X23030Y16065D01*
Y15735D01*
X23195Y15570D01*
X23805D01*
X23970Y15735D01*
Y16065D01*
X23805Y16230D01*
D02*
G37*
G36*
X4805Y15630D02*
X4195D01*
X4030Y15465D01*
Y15135D01*
X4195Y14970D01*
X4805D01*
X4970Y15135D01*
Y15465D01*
X4805Y15630D01*
D02*
G37*
G36*
X23805Y15230D02*
X23195D01*
X23030Y15065D01*
Y14735D01*
X23195Y14570D01*
X23805D01*
X23970Y14735D01*
Y15065D01*
X23805Y15230D01*
D02*
G37*
G36*
X4805Y14630D02*
X4195D01*
X4030Y14465D01*
Y14135D01*
X4195Y13970D01*
X4805D01*
X4970Y14135D01*
Y14465D01*
X4805Y14630D01*
D02*
G37*
G36*
X23805Y14230D02*
X23195D01*
X23030Y14065D01*
Y13735D01*
X23195Y13570D01*
X23805D01*
X23970Y13735D01*
Y14065D01*
X23805Y14230D01*
D02*
G37*
G36*
X4805Y13630D02*
X4195D01*
X4030Y13465D01*
Y13135D01*
X4195Y12970D01*
X4805D01*
X4970Y13135D01*
Y13465D01*
X4805Y13630D01*
D02*
G37*
G36*
X23805Y13230D02*
X23195D01*
X23030Y13065D01*
Y12735D01*
X23195Y12570D01*
X23805D01*
X23970Y12735D01*
Y13065D01*
X23805Y13230D01*
D02*
G37*
G36*
Y12230D02*
X23195D01*
X23030Y12065D01*
Y11735D01*
X23195Y11570D01*
X23805D01*
X23970Y11735D01*
Y12065D01*
X23805Y12230D01*
D02*
G37*
G36*
X4820Y11660D02*
X4560D01*
Y11360D01*
X5000D01*
Y11480D01*
X4820Y11660D01*
D02*
G37*
G36*
X4440D02*
X4180D01*
X4000Y11480D01*
Y11360D01*
X4440D01*
Y11660D01*
D02*
G37*
G36*
X5000Y11240D02*
X4560D01*
Y10940D01*
X4820D01*
X5000Y11120D01*
Y11240D01*
D02*
G37*
G36*
X4440D02*
X4000D01*
Y11120D01*
X4180Y10940D01*
X4440D01*
Y11240D01*
D02*
G37*
G36*
X23805Y11230D02*
X23195D01*
X23030Y11065D01*
Y10735D01*
X23195Y10570D01*
X23805D01*
X23970Y10735D01*
Y11065D01*
X23805Y11230D01*
D02*
G37*
G36*
X4820Y10660D02*
X4560D01*
Y10360D01*
X5000D01*
Y10480D01*
X4820Y10660D01*
D02*
G37*
G36*
X4440D02*
X4180D01*
X4000Y10480D01*
Y10360D01*
X4440D01*
Y10660D01*
D02*
G37*
G36*
X58649Y11198D02*
X58535Y11183D01*
X58430Y11139D01*
X58339Y11070D01*
X58269Y10979D01*
X58226Y10873D01*
X58211Y10760D01*
X58226Y10647D01*
X58269Y10541D01*
X58339Y10450D01*
X58430Y10381D01*
X58535Y10337D01*
X58649Y10322D01*
X58762Y10337D01*
X58868Y10381D01*
X58958Y10450D01*
X59028Y10541D01*
X59072Y10647D01*
X59087Y10760D01*
X59072Y10873D01*
X59028Y10979D01*
X58958Y11070D01*
X58868Y11139D01*
X58762Y11183D01*
X58649Y11198D01*
D02*
G37*
G36*
X41660Y20623D02*
X41576Y20612D01*
X41499Y20580D01*
X41432Y20528D01*
X41380Y20461D01*
X41348Y20384D01*
X41337Y20300D01*
X41348Y20216D01*
X41380Y20139D01*
X41432Y20072D01*
X41499Y20020D01*
X41576Y19988D01*
X41660Y19977D01*
X41744Y19988D01*
X41821Y20020D01*
X41888Y20072D01*
X41894Y20079D01*
X41906Y20091D01*
X41923Y20105D01*
X41939Y20117D01*
X41955Y20127D01*
X41971Y20136D01*
X41986Y20142D01*
X42002Y20147D01*
X42017Y20151D01*
X42028Y20152D01*
X50639D01*
X56501Y14290D01*
Y11315D01*
X56497Y11295D01*
X56490Y11273D01*
X56480Y11248D01*
X56467Y11222D01*
X56450Y11195D01*
X56429Y11166D01*
X56375Y11103D01*
X56353Y11080D01*
X56339Y11070D01*
X56269Y10979D01*
X56226Y10873D01*
X56211Y10760D01*
X56226Y10647D01*
X56269Y10541D01*
X56339Y10450D01*
X56430Y10381D01*
X56535Y10337D01*
X56649Y10322D01*
X56762Y10337D01*
X56868Y10381D01*
X56958Y10450D01*
X57028Y10541D01*
X57072Y10647D01*
X57087Y10760D01*
X57072Y10873D01*
X57028Y10979D01*
X56958Y11070D01*
X56946Y11079D01*
X56893Y11136D01*
X56869Y11166D01*
X56848Y11195D01*
X56831Y11222D01*
X56817Y11248D01*
X56807Y11273D01*
X56800Y11295D01*
X56796Y11315D01*
Y14351D01*
X56785Y14408D01*
X56753Y14456D01*
X50805Y20405D01*
X50757Y20437D01*
X50700Y20448D01*
X42028D01*
X42017Y20449D01*
X42002Y20453D01*
X41986Y20458D01*
X41971Y20465D01*
X41955Y20473D01*
X41939Y20483D01*
X41923Y20495D01*
X41906Y20509D01*
X41894Y20521D01*
X41888Y20528D01*
X41821Y20580D01*
X41744Y20612D01*
X41660Y20623D01*
D02*
G37*
G36*
X5000Y10240D02*
X4560D01*
Y9940D01*
X4820D01*
X5000Y10120D01*
Y10240D01*
D02*
G37*
G36*
X4440D02*
X4000D01*
Y10120D01*
X4180Y9940D01*
X4440D01*
Y10240D01*
D02*
G37*
G36*
X59083Y10194D02*
X58214D01*
Y9326D01*
X59083D01*
Y10194D01*
D02*
G37*
G36*
X41660Y18963D02*
X41576Y18952D01*
X41499Y18920D01*
X41432Y18868D01*
X41380Y18801D01*
X41348Y18724D01*
X41337Y18640D01*
X41348Y18556D01*
X41380Y18479D01*
X41432Y18412D01*
X41499Y18360D01*
X41576Y18328D01*
X41660Y18317D01*
X41744Y18328D01*
X41821Y18360D01*
X41888Y18412D01*
X41894Y18419D01*
X41903Y18427D01*
X41916Y18438D01*
X41930Y18448D01*
X41944Y18456D01*
X41959Y18463D01*
X41974Y18468D01*
X41990Y18473D01*
X42007Y18476D01*
X42015Y18477D01*
X51712D01*
X55657Y14532D01*
Y10589D01*
X55669Y10526D01*
X55705Y10473D01*
X56147Y10031D01*
X56159Y10014D01*
X56171Y9993D01*
X56182Y9969D01*
X56192Y9942D01*
X56199Y9913D01*
X56205Y9881D01*
X56213Y9805D01*
X56213Y9777D01*
X56211Y9760D01*
X56226Y9647D01*
X56269Y9541D01*
X56339Y9450D01*
X56430Y9381D01*
X56535Y9337D01*
X56649Y9322D01*
X56762Y9337D01*
X56868Y9381D01*
X56958Y9450D01*
X57028Y9541D01*
X57072Y9647D01*
X57087Y9760D01*
X57072Y9873D01*
X57028Y9979D01*
X56958Y10070D01*
X56868Y10139D01*
X56762Y10183D01*
X56649Y10198D01*
X56632Y10196D01*
X56603Y10196D01*
X56564Y10199D01*
X56529Y10203D01*
X56496Y10209D01*
X56466Y10217D01*
X56440Y10227D01*
X56416Y10237D01*
X56394Y10250D01*
X56378Y10262D01*
X55983Y10656D01*
Y14600D01*
X55971Y14662D01*
X55935Y14715D01*
X51895Y18755D01*
X51842Y18791D01*
X51780Y18803D01*
X42015D01*
X42007Y18804D01*
X41990Y18807D01*
X41974Y18812D01*
X41959Y18817D01*
X41944Y18824D01*
X41930Y18832D01*
X41916Y18842D01*
X41903Y18853D01*
X41894Y18861D01*
X41888Y18868D01*
X41821Y18920D01*
X41744Y18952D01*
X41660Y18963D01*
D02*
G37*
G36*
X31000Y10881D02*
X30828Y10864D01*
X30663Y10814D01*
X30510Y10733D01*
X30377Y10623D01*
X30267Y10490D01*
X30186Y10337D01*
X30136Y10172D01*
X30119Y10000D01*
X30136Y9828D01*
X30186Y9663D01*
X30267Y9510D01*
X30377Y9377D01*
X30510Y9267D01*
X30663Y9186D01*
X30828Y9136D01*
X31000Y9119D01*
X31172Y9136D01*
X31337Y9186D01*
X31490Y9267D01*
X31623Y9377D01*
X31733Y9510D01*
X31814Y9663D01*
X31864Y9828D01*
X31881Y10000D01*
X31864Y10172D01*
X31814Y10337D01*
X31733Y10490D01*
X31623Y10623D01*
X31490Y10733D01*
X31337Y10814D01*
X31172Y10864D01*
X31000Y10881D01*
D02*
G37*
G36*
X4805Y9630D02*
X4195D01*
X4030Y9465D01*
Y9135D01*
X4195Y8970D01*
X4805D01*
X4970Y9135D01*
Y9465D01*
X4805Y9630D01*
D02*
G37*
G36*
X23805Y8630D02*
X23195D01*
X23030Y8465D01*
Y8135D01*
X23195Y7970D01*
X23805D01*
X23970Y8135D01*
Y8465D01*
X23805Y8630D01*
D02*
G37*
G36*
X54670Y13733D02*
X54586Y13722D01*
X54509Y13690D01*
X54442Y13638D01*
X54390Y13571D01*
X54358Y13494D01*
X54348Y13414D01*
X54344Y13408D01*
X54338Y13399D01*
X54310Y13367D01*
X49761Y8819D01*
X49713Y8746D01*
X49696Y8660D01*
Y8230D01*
X49693Y8203D01*
X49691Y8192D01*
X49689Y8185D01*
X49640Y8121D01*
X49608Y8044D01*
X49597Y7960D01*
X49608Y7876D01*
X49640Y7799D01*
X49692Y7732D01*
X49759Y7680D01*
X49836Y7648D01*
X49920Y7637D01*
X50004Y7648D01*
X50081Y7680D01*
X50148Y7732D01*
X50200Y7799D01*
X50232Y7876D01*
X50243Y7960D01*
X50232Y8044D01*
X50200Y8121D01*
X50151Y8185D01*
X50149Y8192D01*
X50147Y8202D01*
X50144Y8245D01*
Y8567D01*
X54638Y13061D01*
X54658Y13077D01*
X54668Y13084D01*
X54674Y13088D01*
X54754Y13098D01*
X54831Y13130D01*
X54898Y13182D01*
X54950Y13249D01*
X54982Y13326D01*
X54993Y13410D01*
X54982Y13494D01*
X54950Y13571D01*
X54898Y13638D01*
X54831Y13690D01*
X54754Y13722D01*
X54670Y13733D01*
D02*
G37*
G36*
X23805Y9630D02*
X23195D01*
X23030Y9465D01*
Y9135D01*
X23195Y8970D01*
X23805D01*
X23970Y9135D01*
Y9147D01*
X23975Y9148D01*
X23995Y9151D01*
X24010Y9152D01*
X25603D01*
X27306Y7450D01*
X27312Y7441D01*
X27320Y7428D01*
X27328Y7413D01*
X27334Y7398D01*
X27339Y7381D01*
X27343Y7362D01*
X27346Y7342D01*
X27348Y7321D01*
X27348Y7304D01*
X27347Y7294D01*
X27358Y7211D01*
X27390Y7133D01*
X27442Y7066D01*
X27509Y7015D01*
X27586Y6982D01*
X27670Y6971D01*
X27754Y6982D01*
X27831Y7015D01*
X27898Y7066D01*
X27950Y7133D01*
X27982Y7211D01*
X27993Y7294D01*
X27982Y7378D01*
X27950Y7456D01*
X27898Y7522D01*
X27831Y7574D01*
X27754Y7606D01*
X27670Y7617D01*
X27660Y7616D01*
X27644Y7616D01*
X27622Y7618D01*
X27602Y7621D01*
X27584Y7625D01*
X27567Y7630D01*
X27551Y7637D01*
X27536Y7644D01*
X27523Y7652D01*
X27515Y7659D01*
X25769Y9405D01*
X25721Y9437D01*
X25664Y9448D01*
X24010D01*
X23995Y9449D01*
X23975Y9452D01*
X23970Y9453D01*
Y9465D01*
X23805Y9630D01*
D02*
G37*
G36*
Y7630D02*
X23195D01*
X23030Y7465D01*
Y7135D01*
X23195Y6970D01*
X23805D01*
X23970Y7135D01*
Y7465D01*
X23805Y7630D01*
D02*
G37*
G36*
X4805D02*
X4195D01*
X4030Y7465D01*
Y7135D01*
X4195Y6970D01*
X4805D01*
X4970Y7135D01*
Y7465D01*
X4805Y7630D01*
D02*
G37*
G36*
X32100Y7372D02*
X32030Y7363D01*
X31964Y7336D01*
X31907Y7293D01*
X31904Y7288D01*
X31897Y7282D01*
X31888Y7274D01*
X31878Y7268D01*
X31869Y7262D01*
X31858Y7258D01*
X31847Y7254D01*
X31835Y7251D01*
X31823Y7248D01*
X31818Y7248D01*
X31200D01*
X31143Y7237D01*
X31095Y7205D01*
X30339Y6448D01*
X24010D01*
X23995Y6449D01*
X23975Y6452D01*
X23970Y6453D01*
Y6465D01*
X23805Y6630D01*
X23195D01*
X23030Y6465D01*
Y6135D01*
X23195Y5970D01*
X23805D01*
X23970Y6135D01*
Y6147D01*
X23975Y6148D01*
X23995Y6151D01*
X24010Y6152D01*
X30400D01*
X30457Y6163D01*
X30505Y6195D01*
X31261Y6952D01*
X31818D01*
X31823Y6952D01*
X31835Y6949D01*
X31847Y6946D01*
X31858Y6942D01*
X31869Y6938D01*
X31878Y6932D01*
X31888Y6926D01*
X31897Y6918D01*
X31904Y6912D01*
X31907Y6907D01*
X31964Y6864D01*
X32030Y6837D01*
X32100Y6828D01*
X32170Y6837D01*
X32236Y6864D01*
X32293Y6907D01*
X32336Y6964D01*
X32363Y7030D01*
X32372Y7100D01*
X32363Y7170D01*
X32336Y7236D01*
X32293Y7293D01*
X32236Y7336D01*
X32170Y7363D01*
X32100Y7372D01*
D02*
G37*
G36*
X54040Y7635D02*
X53930Y7621D01*
X53828Y7579D01*
X53740Y7511D01*
X53673Y7424D01*
X53631Y7321D01*
X53616Y7212D01*
X53631Y7102D01*
X53673Y7000D01*
X53740Y6912D01*
X53828Y6845D01*
X53930Y6803D01*
X54040Y6788D01*
X54150Y6803D01*
X54252Y6845D01*
X54340Y6912D01*
X54407Y7000D01*
X54449Y7102D01*
X54464Y7212D01*
X54449Y7321D01*
X54407Y7424D01*
X54340Y7511D01*
X54252Y7579D01*
X54150Y7621D01*
X54040Y7635D01*
D02*
G37*
G36*
X52040D02*
X51930Y7621D01*
X51828Y7579D01*
X51740Y7511D01*
X51673Y7424D01*
X51631Y7321D01*
X51616Y7212D01*
X51631Y7102D01*
X51673Y7000D01*
X51740Y6912D01*
X51828Y6845D01*
X51930Y6803D01*
X52040Y6788D01*
X52150Y6803D01*
X52252Y6845D01*
X52340Y6912D01*
X52407Y7000D01*
X52449Y7102D01*
X52464Y7212D01*
X52449Y7321D01*
X52407Y7424D01*
X52340Y7511D01*
X52252Y7579D01*
X52150Y7621D01*
X52040Y7635D01*
D02*
G37*
G36*
X62550Y7024D02*
X62050D01*
X61914Y7007D01*
X61788Y6954D01*
X61679Y6871D01*
X61596Y6762D01*
X61543Y6636D01*
X61526Y6500D01*
X61543Y6364D01*
X61596Y6238D01*
X61679Y6129D01*
X61788Y6046D01*
X61914Y5993D01*
X62050Y5976D01*
X62550D01*
X62686Y5993D01*
X62812Y6046D01*
X62921Y6129D01*
X63004Y6238D01*
X63057Y6364D01*
X63074Y6500D01*
X63057Y6636D01*
X63004Y6762D01*
X62921Y6871D01*
X62812Y6954D01*
X62686Y7007D01*
X62550Y7024D01*
D02*
G37*
G36*
X23805Y5630D02*
X23195D01*
X23030Y5465D01*
Y5135D01*
X23195Y4970D01*
X23805D01*
X23970Y5135D01*
Y5465D01*
X23805Y5630D01*
D02*
G37*
G36*
Y4630D02*
X23195D01*
X23030Y4465D01*
Y4135D01*
X23195Y3970D01*
X23805D01*
X23970Y4135D01*
Y4465D01*
X23805Y4630D01*
D02*
G37*
G36*
X4805D02*
X4195D01*
X4030Y4465D01*
Y4135D01*
X4195Y3970D01*
X4805D01*
X4970Y4135D01*
Y4465D01*
X4805Y4630D01*
D02*
G37*
G36*
X61150Y5274D02*
X61014Y5257D01*
X60888Y5204D01*
X60779Y5121D01*
X60696Y5012D01*
X60643Y4886D01*
X60626Y4750D01*
Y4250D01*
X60643Y4114D01*
X60696Y3988D01*
X60779Y3879D01*
X60888Y3796D01*
X61014Y3743D01*
X61150Y3726D01*
X61286Y3743D01*
X61412Y3796D01*
X61521Y3879D01*
X61604Y3988D01*
X61657Y4114D01*
X61674Y4250D01*
Y4750D01*
X61657Y4886D01*
X61604Y5012D01*
X61521Y5121D01*
X61412Y5204D01*
X61286Y5257D01*
X61150Y5274D01*
D02*
G37*
G36*
X52836Y4256D02*
X52164D01*
Y3584D01*
X52836D01*
Y4256D01*
D02*
G37*
G36*
X23805Y3630D02*
X23195D01*
X23030Y3465D01*
Y3135D01*
X23195Y2970D01*
X23805D01*
X23970Y3135D01*
Y3465D01*
X23805Y3630D01*
D02*
G37*
G36*
X4805D02*
X4195D01*
X4030Y3465D01*
Y3135D01*
X4195Y2970D01*
X4805D01*
X4970Y3135D01*
Y3465D01*
X4805Y3630D01*
D02*
G37*
G36*
X58060Y3132D02*
Y2060D01*
X59132D01*
X59123Y2178D01*
X59081Y2351D01*
X59013Y2516D01*
X58920Y2668D01*
X58804Y2804D01*
X58668Y2920D01*
X58516Y3013D01*
X58351Y3081D01*
X58178Y3123D01*
X58060Y3132D01*
D02*
G37*
G36*
X57940D02*
X57822Y3123D01*
X57649Y3081D01*
X57484Y3013D01*
X57332Y2920D01*
X57196Y2804D01*
X57080Y2668D01*
X56987Y2516D01*
X56919Y2351D01*
X56877Y2178D01*
X56868Y2060D01*
X57940D01*
Y3132D01*
D02*
G37*
G36*
X52560Y2313D02*
Y2012D01*
X52861D01*
X52856Y2047D01*
X52819Y2136D01*
X52761Y2212D01*
X52684Y2271D01*
X52595Y2308D01*
X52560Y2313D01*
D02*
G37*
G36*
X52440Y2313D02*
X52405Y2308D01*
X52316Y2271D01*
X52239Y2212D01*
X52181Y2136D01*
X52144Y2047D01*
X52139Y2012D01*
X52440D01*
Y2313D01*
D02*
G37*
G36*
X23805Y2630D02*
X23195D01*
X23030Y2465D01*
Y2135D01*
X23195Y1970D01*
X23805D01*
X23970Y2135D01*
Y2465D01*
X23805Y2630D01*
D02*
G37*
G36*
X4805D02*
X4195D01*
X4030Y2465D01*
Y2135D01*
X4195Y1970D01*
X4805D01*
X4970Y2135D01*
Y2465D01*
X4805Y2630D01*
D02*
G37*
G36*
X52861Y1892D02*
X52560D01*
Y1590D01*
X52595Y1595D01*
X52684Y1632D01*
X52761Y1691D01*
X52819Y1767D01*
X52856Y1856D01*
X52861Y1892D01*
D02*
G37*
G36*
X52440D02*
X52139D01*
X52144Y1856D01*
X52181Y1767D01*
X52239Y1691D01*
X52316Y1632D01*
X52405Y1595D01*
X52440Y1590D01*
Y1892D01*
D02*
G37*
G36*
X2000Y2781D02*
X1828Y2764D01*
X1663Y2714D01*
X1510Y2633D01*
X1377Y2523D01*
X1267Y2390D01*
X1186Y2237D01*
X1136Y2072D01*
X1119Y1900D01*
X1136Y1728D01*
X1186Y1563D01*
X1267Y1410D01*
X1377Y1277D01*
X1510Y1167D01*
X1663Y1086D01*
X1828Y1036D01*
X2000Y1019D01*
X2172Y1036D01*
X2337Y1086D01*
X2490Y1167D01*
X2623Y1277D01*
X2733Y1410D01*
X2814Y1563D01*
X2864Y1728D01*
X2881Y1900D01*
X2864Y2072D01*
X2814Y2237D01*
X2733Y2390D01*
X2623Y2523D01*
X2490Y2633D01*
X2337Y2714D01*
X2172Y2764D01*
X2000Y2781D01*
D02*
G37*
G36*
X59132Y1940D02*
X58060D01*
Y868D01*
X58178Y877D01*
X58351Y919D01*
X58516Y987D01*
X58668Y1080D01*
X58804Y1196D01*
X58920Y1332D01*
X59013Y1484D01*
X59081Y1649D01*
X59123Y1822D01*
X59132Y1940D01*
D02*
G37*
G36*
X57940D02*
X56868D01*
X56877Y1822D01*
X56919Y1649D01*
X56987Y1484D01*
X57080Y1332D01*
X57196Y1196D01*
X57332Y1080D01*
X57484Y987D01*
X57649Y919D01*
X57822Y877D01*
X57940Y868D01*
Y1940D01*
D02*
G37*
G36*
X17500Y1973D02*
X17369Y1960D01*
X17242Y1922D01*
X17126Y1860D01*
X17024Y1776D01*
X16940Y1674D01*
X16878Y1558D01*
X16840Y1431D01*
X16827Y1300D01*
X16840Y1169D01*
X16878Y1042D01*
X16940Y926D01*
X17024Y824D01*
X17126Y740D01*
X17242Y678D01*
X17369Y640D01*
X17500Y627D01*
X17631Y640D01*
X17758Y678D01*
X17874Y740D01*
X17976Y824D01*
X18060Y926D01*
X18122Y1042D01*
X18160Y1169D01*
X18173Y1300D01*
X18160Y1431D01*
X18122Y1558D01*
X18060Y1674D01*
X17976Y1776D01*
X17874Y1860D01*
X17758Y1922D01*
X17631Y1960D01*
X17500Y1973D01*
D02*
G37*
G36*
X6500D02*
X6369Y1960D01*
X6242Y1922D01*
X6126Y1860D01*
X6024Y1776D01*
X5940Y1674D01*
X5878Y1558D01*
X5840Y1431D01*
X5827Y1300D01*
X5840Y1169D01*
X5878Y1042D01*
X5940Y926D01*
X6024Y824D01*
X6126Y740D01*
X6242Y678D01*
X6369Y640D01*
X6500Y627D01*
X6631Y640D01*
X6758Y678D01*
X6874Y740D01*
X6976Y824D01*
X7060Y926D01*
X7122Y1042D01*
X7160Y1169D01*
X7173Y1300D01*
X7160Y1431D01*
X7122Y1558D01*
X7060Y1674D01*
X6976Y1776D01*
X6874Y1860D01*
X6758Y1922D01*
X6631Y1960D01*
X6500Y1973D01*
D02*
G37*
%LPD*%
G36*
X4962Y50761D02*
X4985Y50740D01*
X5008Y50723D01*
X5032Y50707D01*
X5055Y50694D01*
X5078Y50684D01*
X5102Y50676D01*
X5125Y50670D01*
X5149Y50666D01*
X5173Y50665D01*
Y50515D01*
X5149Y50514D01*
X5125Y50510D01*
X5102Y50504D01*
X5078Y50496D01*
X5055Y50486D01*
X5032Y50473D01*
X5008Y50457D01*
X4985Y50440D01*
X4962Y50419D01*
X4939Y50397D01*
Y50783D01*
X4962Y50761D01*
D02*
G37*
G36*
X5962Y50261D02*
X5985Y50240D01*
X6008Y50223D01*
X6032Y50207D01*
X6055Y50194D01*
X6078Y50184D01*
X6102Y50176D01*
X6125Y50170D01*
X6149Y50166D01*
X6173Y50165D01*
Y50015D01*
X6149Y50014D01*
X6125Y50010D01*
X6102Y50004D01*
X6078Y49996D01*
X6055Y49986D01*
X6032Y49973D01*
X6008Y49957D01*
X5985Y49940D01*
X5962Y49919D01*
X5939Y49897D01*
Y50283D01*
X5962Y50261D01*
D02*
G37*
G36*
X38699Y32076D02*
X38753Y31925D01*
X38766Y31896D01*
X38792Y31850D01*
X38804Y31832D01*
X38817Y31818D01*
X38758Y31707D01*
X38738Y31724D01*
X38717Y31738D01*
X38694Y31749D01*
X38669Y31757D01*
X38642Y31761D01*
X38614Y31763D01*
X38583Y31762D01*
X38550Y31758D01*
X38516Y31751D01*
X38479Y31741D01*
X38685Y32123D01*
X38699Y32076D01*
D02*
G37*
G36*
X38384Y31727D02*
X38342Y31726D01*
X38265Y31721D01*
X38231Y31715D01*
X38199Y31708D01*
X38170Y31699D01*
X38145Y31689D01*
X38121Y31677D01*
X38101Y31663D01*
X38083Y31648D01*
X37998Y31733D01*
X38014Y31750D01*
X38028Y31771D01*
X38040Y31794D01*
X38050Y31820D01*
X38059Y31848D01*
X38066Y31880D01*
X38071Y31914D01*
X38075Y31951D01*
X38077Y32034D01*
X38384Y31727D01*
D02*
G37*
G36*
X33172Y31219D02*
X33171Y31202D01*
X33172Y31186D01*
X33174Y31170D01*
X33178Y31154D01*
X33185Y31138D01*
X33193Y31123D01*
X33202Y31108D01*
X33214Y31093D01*
X33227Y31079D01*
X33096Y30998D01*
X33082Y31011D01*
X33068Y31023D01*
X33054Y31034D01*
X33038Y31044D01*
X33023Y31053D01*
X33007Y31062D01*
X32991Y31069D01*
X32974Y31075D01*
X32957Y31080D01*
X32940Y31084D01*
X33175Y31236D01*
X33172Y31219D01*
D02*
G37*
G36*
X34726Y29057D02*
X34723Y29042D01*
X34722Y29026D01*
X34724Y29011D01*
X34727Y28996D01*
X34732Y28981D01*
X34740Y28966D01*
X34749Y28951D01*
X34761Y28936D01*
X34774Y28922D01*
X34624Y28860D01*
X34611Y28873D01*
X34583Y28897D01*
X34568Y28908D01*
X34539Y28927D01*
X34523Y28935D01*
X34492Y28950D01*
X34476Y28956D01*
X34731Y29073D01*
X34726Y29057D01*
D02*
G37*
G36*
X41536Y29100D02*
X41550Y29089D01*
X41565Y29080D01*
X41581Y29072D01*
X41598Y29065D01*
X41616Y29059D01*
X41635Y29055D01*
X41655Y29052D01*
X41676Y29050D01*
X41698Y29050D01*
X41500Y28852D01*
X41500Y28874D01*
X41498Y28895D01*
X41495Y28915D01*
X41491Y28934D01*
X41485Y28952D01*
X41478Y28969D01*
X41470Y28985D01*
X41461Y29000D01*
X41450Y29014D01*
X41438Y29027D01*
X41523Y29112D01*
X41536Y29100D01*
D02*
G37*
G36*
X38634Y29230D02*
X38659Y29208D01*
X38685Y29189D01*
X38710Y29172D01*
X38736Y29159D01*
X38763Y29147D01*
X38789Y29138D01*
X38816Y29132D01*
X38843Y29128D01*
X38870Y29127D01*
Y28947D01*
X38843Y28946D01*
X38816Y28942D01*
X38789Y28935D01*
X38763Y28926D01*
X38736Y28915D01*
X38710Y28901D01*
X38685Y28885D01*
X38659Y28865D01*
X38634Y28844D01*
X38609Y28820D01*
Y29254D01*
X38634Y29230D01*
D02*
G37*
G36*
X37166Y28820D02*
X37138Y28847D01*
X37084Y28892D01*
X37057Y28911D01*
X37030Y28926D01*
X37004Y28939D01*
X36978Y28949D01*
X36952Y28956D01*
X36926Y28960D01*
X36901Y28962D01*
Y29112D01*
X36926Y29113D01*
X36952Y29117D01*
X36978Y29125D01*
X37004Y29134D01*
X37030Y29147D01*
X37057Y29163D01*
X37084Y29181D01*
X37111Y29203D01*
X37138Y29227D01*
X37166Y29254D01*
Y28820D01*
D02*
G37*
G36*
X35059Y28932D02*
X35107Y28900D01*
X35163Y28889D01*
X36920D01*
X36936Y28886D01*
X36955Y28881D01*
X36975Y28873D01*
X36997Y28863D01*
X37019Y28850D01*
X37041Y28835D01*
X37091Y28794D01*
X37108Y28777D01*
X37116Y28766D01*
X37196Y28705D01*
X37288Y28667D01*
X37387Y28653D01*
X37487Y28667D01*
X37579Y28705D01*
X37659Y28766D01*
X37682Y28796D01*
X37752Y28772D01*
Y28301D01*
X37682Y28278D01*
X37659Y28308D01*
X37579Y28369D01*
X37487Y28407D01*
X37387Y28420D01*
X37288Y28407D01*
X37196Y28369D01*
X37116Y28308D01*
X37108Y28297D01*
X37090Y28279D01*
X37065Y28258D01*
X37042Y28239D01*
X37019Y28223D01*
X36997Y28210D01*
X36975Y28200D01*
X36955Y28192D01*
X36936Y28187D01*
X36920Y28185D01*
X35614D01*
X34811Y28988D01*
X34808Y28992D01*
X34802Y29001D01*
X34798Y29009D01*
X34796Y29016D01*
X34794Y29022D01*
X34794Y29027D01*
X34794Y29033D01*
X34795Y29040D01*
X34799Y29051D01*
X34800Y29055D01*
X34807Y29074D01*
X34809Y29083D01*
X34883Y29108D01*
X35059Y28932D01*
D02*
G37*
G36*
X37166Y27820D02*
X37138Y27847D01*
X37084Y27892D01*
X37057Y27911D01*
X37030Y27926D01*
X37004Y27939D01*
X36978Y27949D01*
X36952Y27956D01*
X36926Y27960D01*
X36901Y27962D01*
Y28112D01*
X36926Y28113D01*
X36952Y28117D01*
X36978Y28125D01*
X37004Y28134D01*
X37030Y28147D01*
X37057Y28163D01*
X37084Y28181D01*
X37111Y28203D01*
X37138Y28227D01*
X37166Y28254D01*
Y27820D01*
D02*
G37*
G36*
Y26820D02*
X37138Y26847D01*
X37084Y26892D01*
X37057Y26911D01*
X37030Y26926D01*
X37004Y26939D01*
X36978Y26949D01*
X36952Y26956D01*
X36926Y26960D01*
X36901Y26962D01*
Y27112D01*
X36926Y27113D01*
X36952Y27117D01*
X36978Y27125D01*
X37004Y27134D01*
X37030Y27147D01*
X37057Y27163D01*
X37084Y27181D01*
X37111Y27203D01*
X37138Y27227D01*
X37166Y27254D01*
Y26820D01*
D02*
G37*
G36*
X38698Y26995D02*
X38704Y26924D01*
X38710Y26892D01*
X38718Y26862D01*
X38728Y26835D01*
X38739Y26809D01*
X38753Y26786D01*
X38768Y26765D01*
X38785Y26746D01*
X38679Y26640D01*
X38660Y26656D01*
X38639Y26672D01*
X38615Y26685D01*
X38590Y26696D01*
X38562Y26706D01*
X38532Y26714D01*
X38500Y26720D01*
X38466Y26724D01*
X38429Y26726D01*
X38391Y26727D01*
X38697Y27034D01*
X38698Y26995D01*
D02*
G37*
G36*
X32084Y30647D02*
X32084Y30647D01*
X35799Y26932D01*
X35847Y26900D01*
X35903Y26889D01*
X36920D01*
X36936Y26886D01*
X36955Y26881D01*
X36975Y26873D01*
X36997Y26863D01*
X37019Y26850D01*
X37041Y26835D01*
X37091Y26794D01*
X37108Y26777D01*
X37116Y26766D01*
X37196Y26705D01*
X37288Y26667D01*
X37387Y26653D01*
X37487Y26667D01*
X37579Y26705D01*
X37659Y26766D01*
X37682Y26796D01*
X37752Y26772D01*
Y26301D01*
X37682Y26278D01*
X37659Y26308D01*
X37579Y26369D01*
X37487Y26407D01*
X37387Y26420D01*
X37288Y26407D01*
X37196Y26369D01*
X37116Y26308D01*
X37108Y26297D01*
X37090Y26279D01*
X37065Y26258D01*
X37042Y26239D01*
X37019Y26223D01*
X36997Y26210D01*
X36975Y26200D01*
X36955Y26192D01*
X36936Y26187D01*
X36920Y26185D01*
X35304D01*
X28395Y33095D01*
X28395Y33095D01*
X16745Y44745D01*
X11295Y50195D01*
X11247Y50227D01*
X11190Y50238D01*
X6152D01*
X6139Y50240D01*
X6122Y50244D01*
X6105Y50250D01*
X6087Y50258D01*
X6069Y50269D01*
X6050Y50281D01*
X6030Y50296D01*
X6010Y50313D01*
X5995Y50327D01*
X5988Y50336D01*
X5942Y50372D01*
X5966Y50442D01*
X12289D01*
X32084Y30647D01*
D02*
G37*
G36*
X40824Y26328D02*
X40828Y26290D01*
X40831Y26272D01*
X40836Y26256D01*
X40841Y26241D01*
X40848Y26227D01*
X40855Y26215D01*
X40864Y26203D01*
X40873Y26193D01*
X40593D01*
X40603Y26203D01*
X40611Y26215D01*
X40619Y26227D01*
X40625Y26241D01*
X40631Y26256D01*
X40635Y26272D01*
X40639Y26290D01*
X40641Y26308D01*
X40643Y26328D01*
X40643Y26349D01*
X40823D01*
X40824Y26328D01*
D02*
G37*
G36*
X37166Y25820D02*
X37138Y25847D01*
X37084Y25892D01*
X37057Y25911D01*
X37030Y25926D01*
X37004Y25939D01*
X36978Y25949D01*
X36952Y25956D01*
X36926Y25960D01*
X36901Y25962D01*
Y26112D01*
X36926Y26113D01*
X36952Y26117D01*
X36978Y26125D01*
X37004Y26134D01*
X37030Y26147D01*
X37057Y26163D01*
X37084Y26181D01*
X37111Y26203D01*
X37138Y26227D01*
X37166Y26254D01*
Y25820D01*
D02*
G37*
G36*
X40869Y25901D02*
X40861Y25889D01*
X40854Y25877D01*
X40847Y25863D01*
X40842Y25847D01*
X40838Y25831D01*
X40834Y25814D01*
X40832Y25795D01*
X40830Y25776D01*
X40830Y25755D01*
X40650Y25748D01*
X40649Y25769D01*
X40648Y25789D01*
X40645Y25807D01*
X40642Y25824D01*
X40637Y25840D01*
X40631Y25855D01*
X40625Y25869D01*
X40617Y25881D01*
X40608Y25893D01*
X40598Y25903D01*
X40878Y25912D01*
X40869Y25901D01*
D02*
G37*
G36*
X34800Y25816D02*
X34802Y25795D01*
X34805Y25775D01*
X34809Y25756D01*
X34815Y25738D01*
X34822Y25721D01*
X34830Y25705D01*
X34839Y25690D01*
X34850Y25676D01*
X34862Y25663D01*
X34777Y25578D01*
X34764Y25590D01*
X34750Y25601D01*
X34735Y25610D01*
X34719Y25618D01*
X34702Y25625D01*
X34684Y25631D01*
X34665Y25635D01*
X34645Y25638D01*
X34624Y25640D01*
X34602Y25640D01*
X34800Y25838D01*
X34800Y25816D01*
D02*
G37*
G36*
X39676Y25086D02*
X39678Y25067D01*
X39681Y25049D01*
X39685Y25032D01*
X39691Y25015D01*
X39698Y24999D01*
X39707Y24984D01*
X39717Y24970D01*
X39728Y24956D01*
X39740Y24943D01*
X39460D01*
X39472Y24956D01*
X39483Y24970D01*
X39493Y24984D01*
X39502Y24999D01*
X39509Y25015D01*
X39515Y25032D01*
X39519Y25049D01*
X39522Y25067D01*
X39524Y25086D01*
X39525Y25105D01*
X39675D01*
X39676Y25086D01*
D02*
G37*
G36*
X40831Y16359D02*
X40833Y16336D01*
X40838Y16314D01*
X40844Y16292D01*
X40851Y16271D01*
X40861Y16251D01*
X40872Y16232D01*
X40884Y16213D01*
X40899Y16196D01*
X40915Y16179D01*
X40565D01*
X40581Y16196D01*
X40596Y16213D01*
X40608Y16232D01*
X40619Y16251D01*
X40629Y16271D01*
X40636Y16292D01*
X40642Y16314D01*
X40647Y16336D01*
X40649Y16359D01*
X40650Y16383D01*
X40830D01*
X40831Y16359D01*
D02*
G37*
G36*
X30993Y24866D02*
X30975Y24846D01*
X30959Y24825D01*
X30945Y24802D01*
X30933Y24778D01*
X30922Y24753D01*
X30914Y24726D01*
X30908Y24697D01*
X30903Y24667D01*
X30901Y24636D01*
X30900Y24603D01*
X30603Y24900D01*
X30636Y24901D01*
X30667Y24903D01*
X30697Y24908D01*
X30726Y24914D01*
X30753Y24922D01*
X30778Y24933D01*
X30802Y24945D01*
X30825Y24959D01*
X30846Y24975D01*
X30866Y24993D01*
X30993Y24866D01*
D02*
G37*
G36*
X33838Y24787D02*
X33862Y24767D01*
X33886Y24749D01*
X33911Y24733D01*
X33936Y24720D01*
X33961Y24709D01*
X33987Y24701D01*
X34013Y24695D01*
X34039Y24691D01*
X34066Y24690D01*
Y24510D01*
X34039Y24509D01*
X34013Y24505D01*
X33987Y24499D01*
X33961Y24491D01*
X33936Y24480D01*
X33911Y24467D01*
X33886Y24451D01*
X33862Y24433D01*
X33838Y24413D01*
X33814Y24390D01*
Y24810D01*
X33838Y24787D01*
D02*
G37*
G36*
X39433Y20595D02*
X39452Y20581D01*
X39470Y20569D01*
X39490Y20559D01*
X39510Y20551D01*
X39530Y20546D01*
X39551Y20542D01*
X39572Y20541D01*
X39594Y20542D01*
X39616Y20546D01*
X39417Y20258D01*
X39412Y20281D01*
X39406Y20304D01*
X39399Y20326D01*
X39390Y20347D01*
X39381Y20367D01*
X39370Y20387D01*
X39357Y20406D01*
X39344Y20425D01*
X39329Y20443D01*
X39313Y20460D01*
X39415Y20612D01*
X39433Y20595D01*
D02*
G37*
G36*
X39791Y18959D02*
X39793Y18936D01*
X39798Y18914D01*
X39804Y18892D01*
X39811Y18871D01*
X39821Y18851D01*
X39832Y18832D01*
X39844Y18813D01*
X39859Y18796D01*
X39875Y18779D01*
X39525D01*
X39541Y18796D01*
X39556Y18813D01*
X39568Y18832D01*
X39579Y18851D01*
X39589Y18871D01*
X39596Y18892D01*
X39602Y18914D01*
X39607Y18936D01*
X39609Y18959D01*
X39610Y18983D01*
X39790D01*
X39791Y18959D01*
D02*
G37*
G36*
X12879Y34979D02*
X12882Y34968D01*
X12889Y34959D01*
X12897Y34952D01*
X12908Y34945D01*
X12921Y34940D01*
X12937Y34935D01*
X12955Y34932D01*
X12976Y34931D01*
X12999Y34930D01*
Y34810D01*
X12976Y34809D01*
X12955Y34808D01*
X12937Y34805D01*
X12921Y34800D01*
X12908Y34795D01*
X12897Y34788D01*
X12889Y34781D01*
X12882Y34772D01*
X12879Y34761D01*
X12878Y34750D01*
Y34990D01*
X12879Y34979D01*
D02*
G37*
G36*
X24961Y22672D02*
X24965Y22652D01*
X24970Y22631D01*
X24978Y22610D01*
X24989Y22588D01*
X25001Y22567D01*
X25016Y22545D01*
X25034Y22523D01*
X25053Y22501D01*
X25075Y22479D01*
X24725D01*
X24747Y22501D01*
X24784Y22545D01*
X24799Y22567D01*
X24811Y22588D01*
X24822Y22610D01*
X24830Y22631D01*
X24835Y22652D01*
X24839Y22672D01*
X24840Y22693D01*
X24960D01*
X24961Y22672D01*
D02*
G37*
G36*
X33882Y22702D02*
X33873Y22675D01*
Y22643D01*
X33882Y22607D01*
X33899Y22566D01*
X33924Y22522D01*
X33958Y22473D01*
X34001Y22420D01*
X34111Y22301D01*
X33899Y22089D01*
X33837Y22148D01*
X33727Y22242D01*
X33678Y22276D01*
X33634Y22301D01*
X33593Y22318D01*
X33559Y22326D01*
X33584Y22301D01*
X33568Y22313D01*
X33550Y22318D01*
X33529D01*
X33505Y22313D01*
X33478Y22301D01*
X33448Y22284D01*
X33416Y22262D01*
X33380Y22233D01*
X33301Y22160D01*
X33160Y22301D01*
X33199Y22342D01*
X33262Y22416D01*
X33284Y22448D01*
X33301Y22478D01*
X33313Y22505D01*
X33318Y22529D01*
Y22550D01*
X33313Y22568D01*
X33301Y22584D01*
X33369Y22516D01*
X33450Y22600D01*
X33600Y22450D01*
X33596Y22448D01*
X33588Y22442D01*
X33561Y22416D01*
X33514Y22371D01*
X33529Y22356D01*
X33899Y22725D01*
X33882Y22702D01*
D02*
G37*
G36*
X28902Y22324D02*
X28900Y22347D01*
X28892Y22369D01*
X28880Y22387D01*
X28862Y22404D01*
X28840Y22417D01*
X28812Y22429D01*
X28779Y22437D01*
X28742Y22444D01*
X28699Y22447D01*
X28651Y22449D01*
Y22699D01*
X28699Y22700D01*
X28742Y22704D01*
X28779Y22710D01*
X28812Y22719D01*
X28840Y22730D01*
X28862Y22744D01*
X28880Y22760D01*
X28892Y22779D01*
X28900Y22800D01*
X28902Y22824D01*
Y22324D01*
D02*
G37*
G36*
X29487Y22542D02*
X29482Y22524D01*
Y22502D01*
X29487Y22478D01*
X29499Y22452D01*
X29516Y22422D01*
X29538Y22389D01*
X29567Y22354D01*
X29640Y22275D01*
X29499Y22133D01*
X29458Y22173D01*
X29384Y22235D01*
X29352Y22258D01*
X29322Y22275D01*
X29295Y22286D01*
X29271Y22292D01*
X29250D01*
X29232Y22286D01*
X29216Y22275D01*
X29499Y22558D01*
X29487Y22542D01*
D02*
G37*
G36*
X39521Y17425D02*
X39515Y17430D01*
X39507Y17434D01*
X39496Y17438D01*
X39482Y17441D01*
X39466Y17444D01*
X39427Y17448D01*
X39378Y17450D01*
X39350Y17450D01*
Y17750D01*
X39378Y17750D01*
X39466Y17756D01*
X39482Y17759D01*
X39496Y17762D01*
X39507Y17766D01*
X39515Y17770D01*
X39521Y17775D01*
Y17425D01*
D02*
G37*
G36*
X5076Y12539D02*
X5027Y12488D01*
X4950Y12397D01*
X4922Y12357D01*
X4901Y12320D01*
X4886Y12286D01*
X4879Y12256D01*
X4878Y12229D01*
X4884Y12205D01*
X4898Y12185D01*
X4565Y12558D01*
X4584Y12543D01*
X4606Y12535D01*
X4632Y12535D01*
X4662Y12542D01*
X4695Y12556D01*
X4732Y12577D01*
X4773Y12606D01*
X4818Y12642D01*
X4919Y12736D01*
X5076Y12539D01*
D02*
G37*
G36*
X41858Y20456D02*
X41878Y20439D01*
X41899Y20424D01*
X41919Y20411D01*
X41940Y20400D01*
X41961Y20391D01*
X41983Y20384D01*
X42004Y20379D01*
X42026Y20376D01*
X42048Y20375D01*
Y20225D01*
X42026Y20224D01*
X42004Y20221D01*
X41983Y20216D01*
X41961Y20209D01*
X41940Y20200D01*
X41919Y20189D01*
X41899Y20176D01*
X41878Y20161D01*
X41858Y20144D01*
X41839Y20125D01*
Y20475D01*
X41858Y20456D01*
D02*
G37*
G36*
X56725Y11307D02*
X56731Y11278D01*
X56740Y11248D01*
X56752Y11218D01*
X56769Y11187D01*
X56788Y11155D01*
X56812Y11122D01*
X56839Y11089D01*
X56904Y11020D01*
X56394D01*
X56428Y11055D01*
X56486Y11122D01*
X56509Y11155D01*
X56529Y11187D01*
X56545Y11218D01*
X56557Y11248D01*
X56566Y11278D01*
X56572Y11307D01*
X56574Y11335D01*
X56724D01*
X56725Y11307D01*
D02*
G37*
G36*
X41856Y18799D02*
X41873Y18784D01*
X41892Y18772D01*
X41911Y18761D01*
X41931Y18751D01*
X41952Y18744D01*
X41974Y18738D01*
X41996Y18733D01*
X42019Y18731D01*
X42043Y18730D01*
Y18550D01*
X42019Y18549D01*
X41996Y18547D01*
X41974Y18542D01*
X41952Y18536D01*
X41931Y18529D01*
X41911Y18519D01*
X41892Y18508D01*
X41873Y18496D01*
X41856Y18481D01*
X41839Y18465D01*
Y18815D01*
X41856Y18799D01*
D02*
G37*
G36*
X56331Y10208D02*
X56356Y10190D01*
X56383Y10174D01*
X56413Y10160D01*
X56445Y10149D01*
X56480Y10140D01*
X56518Y10132D01*
X56558Y10128D01*
X56600Y10125D01*
X56645Y10124D01*
X56284Y9764D01*
X56284Y9809D01*
X56276Y9891D01*
X56269Y9928D01*
X56260Y9963D01*
X56248Y9996D01*
X56235Y10026D01*
X56219Y10053D01*
X56201Y10078D01*
X56181Y10100D01*
X56308Y10228D01*
X56331Y10208D01*
D02*
G37*
G36*
X54668Y13160D02*
X54660Y13159D01*
X54651Y13156D01*
X54640Y13151D01*
X54628Y13144D01*
X54615Y13134D01*
X54585Y13109D01*
X54549Y13076D01*
X54529Y13056D01*
X54316Y13269D01*
X54336Y13289D01*
X54394Y13355D01*
X54404Y13368D01*
X54411Y13380D01*
X54416Y13391D01*
X54419Y13400D01*
X54420Y13407D01*
X54668Y13160D01*
D02*
G37*
G36*
X50070Y8282D02*
X50076Y8194D01*
X50079Y8178D01*
X50082Y8164D01*
X50086Y8153D01*
X50090Y8145D01*
X50095Y8139D01*
X49745D01*
X49750Y8145D01*
X49754Y8153D01*
X49758Y8164D01*
X49761Y8178D01*
X49764Y8194D01*
X49768Y8233D01*
X49770Y8282D01*
X49770Y8310D01*
X50070D01*
X50070Y8282D01*
D02*
G37*
G36*
X23880Y9436D02*
X23885Y9423D01*
X23894Y9412D01*
X23905Y9402D01*
X23921Y9394D01*
X23940Y9387D01*
X23962Y9382D01*
X23987Y9378D01*
X24016Y9376D01*
X24049Y9375D01*
Y9225D01*
X24016Y9224D01*
X23987Y9222D01*
X23962Y9218D01*
X23940Y9213D01*
X23921Y9206D01*
X23905Y9198D01*
X23894Y9188D01*
X23885Y9177D01*
X23880Y9164D01*
X23878Y9150D01*
Y9450D01*
X23880Y9436D01*
D02*
G37*
G36*
X27465Y7607D02*
X27482Y7594D01*
X27501Y7582D01*
X27521Y7572D01*
X27543Y7563D01*
X27565Y7556D01*
X27589Y7551D01*
X27614Y7547D01*
X27640Y7545D01*
X27668Y7544D01*
X27420Y7297D01*
X27419Y7324D01*
X27417Y7350D01*
X27414Y7375D01*
X27408Y7399D01*
X27401Y7422D01*
X27393Y7443D01*
X27383Y7463D01*
X27371Y7482D01*
X27357Y7499D01*
X27342Y7516D01*
X27448Y7622D01*
X27465Y7607D01*
D02*
G37*
G36*
X31957Y6960D02*
X31944Y6972D01*
X31930Y6983D01*
X31916Y6993D01*
X31901Y7002D01*
X31885Y7009D01*
X31868Y7015D01*
X31851Y7019D01*
X31833Y7022D01*
X31814Y7024D01*
X31795Y7025D01*
Y7175D01*
X31814Y7176D01*
X31833Y7178D01*
X31851Y7181D01*
X31868Y7185D01*
X31885Y7191D01*
X31901Y7198D01*
X31916Y7207D01*
X31930Y7217D01*
X31944Y7228D01*
X31957Y7240D01*
Y6960D01*
D02*
G37*
G36*
X23880Y6436D02*
X23885Y6423D01*
X23894Y6412D01*
X23905Y6402D01*
X23921Y6394D01*
X23940Y6387D01*
X23962Y6382D01*
X23987Y6378D01*
X24016Y6376D01*
X24049Y6375D01*
Y6225D01*
X24016Y6224D01*
X23987Y6222D01*
X23962Y6218D01*
X23940Y6213D01*
X23921Y6206D01*
X23905Y6198D01*
X23894Y6188D01*
X23885Y6177D01*
X23880Y6164D01*
X23878Y6150D01*
Y6450D01*
X23880Y6436D01*
D02*
G37*
D12*
X56649Y10760D02*
Y14351D01*
X50700Y20300D02*
X56649Y14351D01*
X41660Y20300D02*
X50700D01*
X11190Y50090D02*
X16640Y44640D01*
X5742Y50090D02*
X11190D01*
X35903Y27037D02*
X37387D01*
X35553Y28037D02*
X37387D01*
X32189Y30751D02*
X35903Y27037D01*
X32189Y30751D02*
Y30751D01*
X12350Y50590D02*
X32189Y30751D01*
X4742Y50590D02*
X12350D01*
X32980Y31220D02*
Y31280D01*
Y31220D02*
X35163Y29037D01*
X35243Y26037D02*
X37387D01*
X28290Y32990D02*
X35243Y26037D01*
X16640Y44640D02*
X28290Y32990D01*
X34544Y29134D02*
Y29144D01*
X34500Y29090D02*
X34544Y29134D01*
X39600Y24800D02*
Y25824D01*
X38387Y27037D02*
X39600Y25824D01*
X25664Y9300D02*
X27670Y7294D01*
X31200Y7100D02*
X32100D01*
X30400Y6300D02*
X31200Y7100D01*
X34500Y29090D02*
X35553Y28037D01*
X35163Y29037D02*
X37387D01*
X23500Y6300D02*
X30400D01*
X37387Y26037D02*
X37475Y26125D01*
X23500Y9300D02*
X25664D01*
D15*
X32750Y21750D02*
X33600Y22600D01*
X30024Y21750D02*
X32750D01*
X29200Y22574D02*
X30024Y21750D01*
D18*
X34600Y25840D02*
X35200Y25240D01*
X37510D01*
X6800Y33400D02*
X12100D01*
X1480Y28080D02*
X6800Y33400D01*
X1480Y5800D02*
Y28080D01*
X12100Y33400D02*
X12570Y33870D01*
Y34870D02*
X13930D01*
X24900Y23900D01*
Y22300D02*
Y23900D01*
X37510Y25240D02*
X37884Y25614D01*
Y31534D01*
X38387Y32037D01*
X38513D02*
X41700Y28850D01*
X38387Y32037D02*
X38513D01*
D77*
X49920Y7960D02*
Y8660D01*
X54670Y13410D01*
X33600Y22600D02*
X38600Y17600D01*
X21500Y400D02*
X25870D01*
X16100Y5800D02*
X21500Y400D01*
X1480Y5800D02*
X16100D01*
X38600Y17600D02*
X39700D01*
D78*
X12800Y20440D02*
X26200D01*
X4660Y12300D02*
X12800Y20440D01*
X26200D02*
X28334Y22574D01*
X4500Y12300D02*
X4660D01*
X4300D02*
X4500D01*
X28334Y22574D02*
X29200D01*
D79*
X40740Y16000D02*
Y25963D01*
X39700Y18600D02*
Y19400D01*
X34500Y24600D02*
X39700Y19400D01*
X40740Y25963D02*
X40780Y26003D01*
X41660Y18640D02*
X51780D01*
X55820Y14600D01*
Y10589D02*
Y14600D01*
Y10589D02*
X56649Y9760D01*
X40733Y26050D02*
X40780Y26003D01*
X40733Y26050D02*
Y27967D01*
X33600Y24600D02*
X34500D01*
X34800Y25100D02*
X39600Y20300D01*
X39663D01*
X31100Y25100D02*
X34800D01*
X30600Y24600D02*
X31100Y25100D01*
X38387Y29037D02*
X39663D01*
X40733Y27967D01*
D81*
X33600Y26600D02*
D03*
Y25600D02*
D03*
Y23600D02*
D03*
X30600Y26600D02*
D03*
Y25600D02*
D03*
Y23600D02*
D03*
Y22600D02*
D03*
X33600Y24600D02*
D03*
X30600D02*
D03*
X29200Y26574D02*
D03*
Y25574D02*
D03*
Y23574D02*
D03*
X26200Y26574D02*
D03*
Y25574D02*
D03*
Y23574D02*
D03*
Y22574D02*
D03*
X29200Y24574D02*
D03*
X26200D02*
D03*
D82*
X33600Y22600D02*
D03*
X29200Y22574D02*
D03*
D83*
X54040Y7212D02*
D03*
X52040D02*
D03*
D84*
X23500Y19900D02*
D03*
Y18900D02*
D03*
Y17900D02*
D03*
Y16900D02*
D03*
Y15900D02*
D03*
Y14900D02*
D03*
Y10900D02*
D03*
Y11900D02*
D03*
Y12900D02*
D03*
Y13900D02*
D03*
Y5300D02*
D03*
Y4300D02*
D03*
Y3300D02*
D03*
Y2300D02*
D03*
Y6300D02*
D03*
Y7300D02*
D03*
Y8300D02*
D03*
Y9300D02*
D03*
X4500Y12300D02*
D03*
Y11300D02*
D03*
Y10300D02*
D03*
Y9300D02*
D03*
Y13300D02*
D03*
Y14300D02*
D03*
Y3300D02*
D03*
Y2300D02*
D03*
Y4300D02*
D03*
Y5300D02*
D03*
Y6300D02*
D03*
Y7300D02*
D03*
Y15300D02*
D03*
D85*
Y21800D02*
D03*
X6500Y1300D02*
D03*
X17500D02*
D03*
X23500Y21300D02*
D03*
D86*
X52500Y1952D02*
D03*
D87*
X52500Y3920D02*
D03*
D88*
X37387Y26037D02*
D03*
X38387D02*
D03*
X37387Y27037D02*
D03*
X38387D02*
D03*
X37387Y28037D02*
D03*
X38387D02*
D03*
X37387Y29037D02*
D03*
X38387D02*
D03*
X37387Y30037D02*
D03*
X38387D02*
D03*
X37387Y31037D02*
D03*
X38387D02*
D03*
X37387Y32037D02*
D03*
X38387D02*
D03*
X37387Y33037D02*
D03*
X11550Y35900D02*
D03*
X11570Y32870D02*
D03*
Y33870D02*
D03*
Y34870D02*
D03*
D89*
X38387Y33037D02*
D03*
D90*
X12550Y35900D02*
D03*
X12570Y32870D02*
D03*
Y33870D02*
D03*
Y34870D02*
D03*
D91*
X63400Y4500D02*
D03*
X61150D02*
D03*
D92*
X62300Y6500D02*
D03*
D93*
X58000Y2000D02*
D03*
D94*
X58649Y10760D02*
D03*
X56649D02*
D03*
Y9760D02*
D03*
D95*
X58649D02*
D03*
D96*
X2090Y47090D02*
D03*
D97*
Y48090D02*
D03*
Y49090D02*
D03*
Y50090D02*
D03*
Y51090D02*
D03*
Y52090D02*
D03*
D98*
X4742Y48590D02*
D03*
D99*
X5742Y49090D02*
D03*
X4742Y49590D02*
D03*
X5742Y50090D02*
D03*
X4742Y50590D02*
D03*
D100*
X5742Y51090D02*
D03*
D101*
X8242Y51842D02*
D03*
Y47842D02*
D03*
D102*
X49920Y7960D02*
D03*
X54670Y13410D02*
D03*
X41660Y20300D02*
D03*
Y18640D02*
D03*
X24900Y22300D02*
D03*
X39700Y17600D02*
D03*
X27670Y7294D02*
D03*
X1480Y5800D02*
D03*
X25870Y400D02*
D03*
X40740Y16000D02*
D03*
X39700Y18600D02*
D03*
X39663Y20300D02*
D03*
D103*
X47940Y10700D02*
D03*
X28120Y34120D02*
D03*
X32980Y31280D02*
D03*
X34544Y29144D02*
D03*
X34600Y25840D02*
D03*
X36620Y28540D02*
D03*
X36380Y27580D02*
D03*
X27850Y31938D02*
D03*
X29800Y20700D02*
D03*
X47040Y11510D02*
D03*
X46160Y12320D02*
D03*
X47060D02*
D03*
X47040Y10700D02*
D03*
X47960Y12320D02*
D03*
Y11510D02*
D03*
X46160D02*
D03*
Y10700D02*
D03*
X40733Y26050D02*
D03*
X62400Y17760D02*
D03*
Y16950D02*
D03*
X60600D02*
D03*
Y16140D02*
D03*
X60620Y17760D02*
D03*
X61520D02*
D03*
X61500Y16140D02*
D03*
X62400D02*
D03*
X61520Y16950D02*
D03*
X42300Y5050D02*
D03*
X32307Y47100D02*
D03*
X34350Y12900D02*
D03*
X17000Y23000D02*
D03*
X3240Y45090D02*
D03*
X36450Y34900D02*
D03*
X36171Y30550D02*
D03*
X41700Y28850D02*
D03*
X39600Y24800D02*
D03*
X32100Y7100D02*
D03*
X27534Y26100D02*
D03*
X27900Y16950D02*
D03*
X34740Y22740D02*
D03*
X37040Y24230D02*
D03*
X3498Y47640D02*
D03*
X3600Y31700D02*
D03*
X13200Y4650D02*
D03*
X33700Y2410D02*
D03*
M02*
