G04*
G04 #@! TF.GenerationSoftware,Altium Limited,Altium Designer,18.0.11 (651)*
G04*
G04 Layer_Color=8388736*
%FSLAX24Y24*%
%MOIN*%
G70*
G01*
G75*
%ADD37R,0.0276X0.0611*%
%ADD38R,0.1418X0.0670*%
%ADD39R,0.4843X0.3879*%
G04:AMPARAMS|DCode=40|XSize=39mil|YSize=54mil|CornerRadius=6.4mil|HoleSize=0mil|Usage=FLASHONLY|Rotation=0.000|XOffset=0mil|YOffset=0mil|HoleType=Round|Shape=RoundedRectangle|*
%AMROUNDEDRECTD40*
21,1,0.0390,0.0413,0,0,0.0*
21,1,0.0263,0.0540,0,0,0.0*
1,1,0.0128,0.0131,-0.0206*
1,1,0.0128,-0.0131,-0.0206*
1,1,0.0128,-0.0131,0.0206*
1,1,0.0128,0.0131,0.0206*
%
%ADD40ROUNDEDRECTD40*%
%ADD41R,0.0750X0.0740*%
%ADD42R,0.0740X0.0750*%
%ADD43R,0.0572X0.0788*%
%ADD44R,0.0540X0.0640*%
%ADD45O,0.0316X0.1024*%
%ADD46R,0.0611X0.0276*%
%ADD47R,0.0788X0.0572*%
%ADD48R,0.1103X0.1339*%
%ADD49R,0.1103X0.0434*%
%ADD50R,0.0729X0.0898*%
%ADD51O,0.0906X0.0276*%
%ADD52P,0.0693X8X112.5*%
%ADD53C,0.0640*%
%ADD54R,0.0640X0.0640*%
%ADD55C,0.0690*%
G04:AMPARAMS|DCode=56|XSize=84mil|YSize=56mil|CornerRadius=0mil|HoleSize=0mil|Usage=FLASHONLY|Rotation=0.000|XOffset=0mil|YOffset=0mil|HoleType=Round|Shape=Octagon|*
%AMOCTAGOND56*
4,1,8,0.0420,-0.0140,0.0420,0.0140,0.0280,0.0280,-0.0280,0.0280,-0.0420,0.0140,-0.0420,-0.0140,-0.0280,-0.0280,0.0280,-0.0280,0.0420,-0.0140,0.0*
%
%ADD56OCTAGOND56*%

%ADD57C,0.1300*%
%ADD58O,0.0631X0.0640*%
%ADD59C,0.1221*%
%ADD60C,0.0631*%
%ADD61C,0.0591*%
%ADD62R,0.0591X0.0591*%
%ADD63R,0.0640X0.0640*%
%ADD64C,0.0740*%
%ADD65C,0.0572*%
%ADD66R,0.0572X0.0572*%
%ADD67C,0.0660*%
%ADD68R,0.0660X0.0660*%
%ADD69R,0.0660X0.0660*%
%ADD70O,0.0940X0.1440*%
%ADD71O,0.1440X0.0940*%
%ADD72C,0.0040*%
%ADD73C,0.2107*%
%ADD74C,0.0768*%
%ADD75R,0.0768X0.0768*%
%ADD76C,0.0440*%
%ADD77C,0.0540*%
D37*
X55956Y46835D02*
D03*
X56704D02*
D03*
X56330Y47760D02*
D03*
X55966Y52465D02*
D03*
X56714D02*
D03*
X56340Y53390D02*
D03*
X40359Y6007D02*
D03*
X41107D02*
D03*
X40733Y6933D02*
D03*
D38*
X49560Y12500D02*
D03*
Y10500D02*
D03*
X58300Y15910D02*
D03*
Y17910D02*
D03*
D39*
X45515Y11500D02*
D03*
X62345Y16910D02*
D03*
D40*
X43500Y30300D02*
D03*
X44200D02*
D03*
Y27400D02*
D03*
X43500D02*
D03*
Y28850D02*
D03*
X44200D02*
D03*
Y31750D02*
D03*
X43500D02*
D03*
D41*
X32520Y20520D02*
D03*
X30906D02*
D03*
X27066Y20500D02*
D03*
X28680D02*
D03*
X43486Y4550D02*
D03*
X45100D02*
D03*
D42*
X47150Y1390D02*
D03*
Y3004D02*
D03*
X1460Y8670D02*
D03*
Y7056D02*
D03*
X56800Y16116D02*
D03*
Y17730D02*
D03*
D43*
X49910Y9405D02*
D03*
X48690D02*
D03*
X49910Y13580D02*
D03*
X48690D02*
D03*
X58050Y14750D02*
D03*
X59270D02*
D03*
X58140Y19080D02*
D03*
X59360D02*
D03*
X45680Y27600D02*
D03*
X46900D02*
D03*
X45680Y29000D02*
D03*
X46900D02*
D03*
X45680Y31800D02*
D03*
X46900D02*
D03*
X45680Y30400D02*
D03*
X46900D02*
D03*
X33990Y6140D02*
D03*
X35210D02*
D03*
X37618Y3117D02*
D03*
X36397D02*
D03*
X37618Y4317D02*
D03*
X36397D02*
D03*
X45080Y6460D02*
D03*
X43860D02*
D03*
X39887Y4817D02*
D03*
X41107D02*
D03*
X39848Y3617D02*
D03*
X41107D02*
D03*
Y2417D02*
D03*
X39848D02*
D03*
X41107Y1217D02*
D03*
X39848D02*
D03*
D44*
X59380Y6310D02*
D03*
X55880D02*
D03*
X59380Y4310D02*
D03*
X55880D02*
D03*
D45*
X34357Y17981D02*
D03*
X33857D02*
D03*
X33357D02*
D03*
X32857D02*
D03*
X32357D02*
D03*
X31857D02*
D03*
X31357D02*
D03*
X30857D02*
D03*
X34357Y16052D02*
D03*
X33857D02*
D03*
X33357D02*
D03*
X32857D02*
D03*
X32357D02*
D03*
X31857D02*
D03*
X31357D02*
D03*
X30857D02*
D03*
D46*
X36482Y6191D02*
D03*
Y5443D02*
D03*
X37407Y5817D02*
D03*
D47*
X1500Y16610D02*
D03*
Y15390D02*
D03*
X27457Y1057D02*
D03*
Y2277D02*
D03*
X28650Y3707D02*
D03*
Y4927D02*
D03*
X30557D02*
D03*
Y3707D02*
D03*
D48*
X45030Y2222D02*
D03*
D49*
X42707Y1317D02*
D03*
Y2222D02*
D03*
Y3128D02*
D03*
D50*
X7890Y44540D02*
D03*
X6229D02*
D03*
D51*
X28650Y2400D02*
D03*
Y1900D02*
D03*
Y1400D02*
D03*
Y900D02*
D03*
X30540Y2400D02*
D03*
Y1900D02*
D03*
Y1400D02*
D03*
Y900D02*
D03*
D52*
X59750Y54260D02*
D03*
X60750D02*
D03*
X61760D02*
D03*
X59750Y49460D02*
D03*
X60750D02*
D03*
X61760D02*
D03*
X59720Y48600D02*
D03*
X60720D02*
D03*
X61730D02*
D03*
X61720Y43720D02*
D03*
X60710D02*
D03*
X59710D02*
D03*
D53*
X62750Y50310D02*
D03*
X61750D02*
D03*
X59750D02*
D03*
X62750Y53310D02*
D03*
X61750D02*
D03*
X59750D02*
D03*
X58750D02*
D03*
X60750Y50310D02*
D03*
Y53310D02*
D03*
X62720Y44750D02*
D03*
X61720D02*
D03*
X59720D02*
D03*
X62720Y47750D02*
D03*
X61720D02*
D03*
X59720D02*
D03*
X58720D02*
D03*
X60720Y44750D02*
D03*
Y47750D02*
D03*
X33600Y26600D02*
D03*
Y25600D02*
D03*
Y23600D02*
D03*
X30600Y26600D02*
D03*
Y25600D02*
D03*
Y23600D02*
D03*
Y22600D02*
D03*
X33600Y24600D02*
D03*
X30600D02*
D03*
X29200Y26574D02*
D03*
Y25574D02*
D03*
Y23574D02*
D03*
X26200Y26574D02*
D03*
Y25574D02*
D03*
Y23574D02*
D03*
Y22574D02*
D03*
X29200Y24574D02*
D03*
X26200D02*
D03*
D54*
X58750Y50310D02*
D03*
X58720Y44750D02*
D03*
X2090Y47090D02*
D03*
D55*
X20580Y2280D02*
D03*
X14580D02*
D03*
Y3280D02*
D03*
Y4280D02*
D03*
Y5280D02*
D03*
Y6280D02*
D03*
Y7280D02*
D03*
Y8280D02*
D03*
Y9280D02*
D03*
Y10280D02*
D03*
Y11280D02*
D03*
Y12280D02*
D03*
Y13280D02*
D03*
Y14280D02*
D03*
Y15280D02*
D03*
X20580Y3280D02*
D03*
Y4280D02*
D03*
Y5280D02*
D03*
Y6280D02*
D03*
Y7280D02*
D03*
Y8280D02*
D03*
Y9280D02*
D03*
Y10280D02*
D03*
Y11280D02*
D03*
Y12280D02*
D03*
Y13280D02*
D03*
Y14280D02*
D03*
Y15280D02*
D03*
D56*
X4500Y15300D02*
D03*
Y7300D02*
D03*
Y6300D02*
D03*
Y5300D02*
D03*
Y4300D02*
D03*
Y2300D02*
D03*
Y3300D02*
D03*
Y14300D02*
D03*
Y13300D02*
D03*
Y9300D02*
D03*
Y10300D02*
D03*
Y11300D02*
D03*
Y12300D02*
D03*
X23500Y9300D02*
D03*
Y8300D02*
D03*
Y7300D02*
D03*
Y6300D02*
D03*
Y2300D02*
D03*
Y3300D02*
D03*
Y4300D02*
D03*
Y5300D02*
D03*
Y13900D02*
D03*
Y12900D02*
D03*
Y11900D02*
D03*
Y10900D02*
D03*
Y14900D02*
D03*
Y15900D02*
D03*
Y16900D02*
D03*
Y17900D02*
D03*
Y18900D02*
D03*
Y19900D02*
D03*
D57*
Y21300D02*
D03*
X17500Y1300D02*
D03*
X6500D02*
D03*
X4500Y21800D02*
D03*
D58*
X2090Y52090D02*
D03*
Y51090D02*
D03*
Y50090D02*
D03*
Y49090D02*
D03*
Y48090D02*
D03*
D59*
X8242Y47842D02*
D03*
Y51842D02*
D03*
D60*
X5742Y51090D02*
D03*
D61*
X4742Y50590D02*
D03*
X5742Y50090D02*
D03*
X4742Y49590D02*
D03*
X5742Y49090D02*
D03*
D62*
X4742Y48590D02*
D03*
D63*
X33600Y22600D02*
D03*
X29200Y22574D02*
D03*
D64*
X54040Y7212D02*
D03*
X52040D02*
D03*
D65*
X52500Y1952D02*
D03*
D66*
X52500Y3920D02*
D03*
D67*
X37387Y26037D02*
D03*
X38387D02*
D03*
X37387Y27037D02*
D03*
X38387D02*
D03*
X37387Y28037D02*
D03*
X38387D02*
D03*
X37387Y29037D02*
D03*
X38387D02*
D03*
X37387Y30037D02*
D03*
X38387D02*
D03*
X37387Y31037D02*
D03*
X38387D02*
D03*
X37387Y32037D02*
D03*
X38387D02*
D03*
X37387Y33037D02*
D03*
X11550Y35900D02*
D03*
X11570Y32870D02*
D03*
Y33870D02*
D03*
Y34870D02*
D03*
D68*
X38387Y33037D02*
D03*
D69*
X12550Y35900D02*
D03*
X12570Y32870D02*
D03*
Y33870D02*
D03*
Y34870D02*
D03*
D70*
X63400Y4500D02*
D03*
X61150D02*
D03*
D71*
X62300Y6500D02*
D03*
D72*
X31000Y10000D02*
D03*
X2000Y1900D02*
D03*
Y37000D02*
D03*
X7400Y55600D02*
D03*
X58000D02*
D03*
X31000D02*
D03*
X58000Y37000D02*
D03*
X31000Y35500D02*
D03*
D73*
X58000Y2000D02*
D03*
D74*
X58649Y10760D02*
D03*
X56649D02*
D03*
Y9760D02*
D03*
D75*
X58649D02*
D03*
D76*
X47440Y10590D02*
D03*
X46540Y11400D02*
D03*
X45660Y12210D02*
D03*
X46560D02*
D03*
X46540Y10590D02*
D03*
X47460Y12210D02*
D03*
Y11400D02*
D03*
X45660D02*
D03*
Y10590D02*
D03*
X62400Y17760D02*
D03*
Y16950D02*
D03*
X60600D02*
D03*
Y16140D02*
D03*
X60620Y17760D02*
D03*
X61520D02*
D03*
X61500Y16140D02*
D03*
X62400D02*
D03*
X61520Y16950D02*
D03*
D77*
X27670Y7294D02*
D03*
X1480Y5800D02*
D03*
X40740Y16000D02*
D03*
M02*
