G04*
G04 #@! TF.GenerationSoftware,Altium Limited,Altium Designer,18.0.11 (651)*
G04*
G04 Layer_Color=5206513*
%FSLAX24Y24*%
%MOIN*%
G70*
G01*
G75*
%ADD11C,0.0070*%
%ADD12C,0.0050*%
%ADD13C,0.0150*%
%ADD15C,0.0100*%
%ADD80C,0.0250*%
%ADD107C,0.0020*%
%ADD108C,0.0160*%
D11*
X88650Y3239D02*
X88717Y3272D01*
X88817Y3372D01*
Y2672D01*
X89363Y3372D02*
X89263Y3339D01*
X89197Y3239D01*
X89163Y3072D01*
Y2972D01*
X89197Y2806D01*
X89263Y2706D01*
X89363Y2672D01*
X89430D01*
X89530Y2706D01*
X89596Y2806D01*
X89630Y2972D01*
Y3072D01*
X89596Y3239D01*
X89530Y3339D01*
X89430Y3372D01*
X89363D01*
X90186D02*
X89853D01*
X89820Y3072D01*
X89853Y3106D01*
X89953Y3139D01*
X90053D01*
X90153Y3106D01*
X90220Y3039D01*
X90253Y2939D01*
Y2872D01*
X90220Y2772D01*
X90153Y2706D01*
X90053Y2672D01*
X89953D01*
X89853Y2706D01*
X89820Y2739D01*
X89786Y2806D01*
X90576Y3372D02*
X90476Y3339D01*
X90443Y3272D01*
Y3206D01*
X90476Y3139D01*
X90543Y3106D01*
X90676Y3072D01*
X90776Y3039D01*
X90843Y2972D01*
X90876Y2906D01*
Y2806D01*
X90843Y2739D01*
X90810Y2706D01*
X90710Y2672D01*
X90576D01*
X90476Y2706D01*
X90443Y2739D01*
X90410Y2806D01*
Y2906D01*
X90443Y2972D01*
X90510Y3039D01*
X90610Y3072D01*
X90743Y3106D01*
X90810Y3139D01*
X90843Y3206D01*
Y3272D01*
X90810Y3339D01*
X90710Y3372D01*
X90576D01*
X91366D02*
X91033Y2906D01*
X91533D01*
X91366Y3372D02*
Y2672D01*
X91823Y3372D02*
X91723Y3339D01*
X91689Y3272D01*
Y3206D01*
X91723Y3139D01*
X91789Y3106D01*
X91923Y3072D01*
X92023Y3039D01*
X92089Y2972D01*
X92123Y2906D01*
Y2806D01*
X92089Y2739D01*
X92056Y2706D01*
X91956Y2672D01*
X91823D01*
X91723Y2706D01*
X91689Y2739D01*
X91656Y2806D01*
Y2906D01*
X91689Y2972D01*
X91756Y3039D01*
X91856Y3072D01*
X91989Y3106D01*
X92056Y3139D01*
X92089Y3206D01*
Y3272D01*
X92056Y3339D01*
X91956Y3372D01*
X91823D01*
X92313Y2739D02*
X92279Y2706D01*
X92313Y2672D01*
X92346Y2706D01*
X92313Y2739D01*
X92499Y3006D02*
X92799D01*
X92899Y3039D01*
X92932Y3072D01*
X92966Y3139D01*
Y3239D01*
X92932Y3306D01*
X92899Y3339D01*
X92799Y3372D01*
X92499D01*
Y2672D01*
X93522Y3039D02*
X93456Y3106D01*
X93389Y3139D01*
X93289D01*
X93222Y3106D01*
X93156Y3039D01*
X93122Y2939D01*
Y2872D01*
X93156Y2772D01*
X93222Y2706D01*
X93289Y2672D01*
X93389D01*
X93456Y2706D01*
X93522Y2772D01*
X93672Y3372D02*
Y2672D01*
Y3039D02*
X93739Y3106D01*
X93806Y3139D01*
X93906D01*
X93972Y3106D01*
X94039Y3039D01*
X94072Y2939D01*
Y2872D01*
X94039Y2772D01*
X93972Y2706D01*
X93906Y2672D01*
X93806D01*
X93739Y2706D01*
X93672Y2772D01*
X94222Y3372D02*
Y2672D01*
Y3372D02*
X94455D01*
X94555Y3339D01*
X94622Y3272D01*
X94655Y3206D01*
X94689Y3106D01*
Y2939D01*
X94655Y2839D01*
X94622Y2772D01*
X94555Y2706D01*
X94455Y2672D01*
X94222D01*
X95012Y3139D02*
X94945Y3106D01*
X94879Y3039D01*
X94845Y2939D01*
Y2872D01*
X94879Y2772D01*
X94945Y2706D01*
X95012Y2672D01*
X95112D01*
X95179Y2706D01*
X95245Y2772D01*
X95279Y2872D01*
Y2939D01*
X95245Y3039D01*
X95179Y3106D01*
X95112Y3139D01*
X95012D01*
X95832Y3039D02*
X95765Y3106D01*
X95698Y3139D01*
X95599D01*
X95532Y3106D01*
X95465Y3039D01*
X95432Y2939D01*
Y2872D01*
X95465Y2772D01*
X95532Y2706D01*
X95599Y2672D01*
X95698D01*
X95765Y2706D01*
X95832Y2772D01*
X88683Y6206D02*
Y6239D01*
X88717Y6306D01*
X88750Y6339D01*
X88817Y6372D01*
X88950D01*
X89017Y6339D01*
X89050Y6306D01*
X89083Y6239D01*
Y6172D01*
X89050Y6106D01*
X88983Y6006D01*
X88650Y5672D01*
X89117D01*
X89273Y5572D02*
X89740Y6372D01*
X89820Y6206D02*
Y6239D01*
X89853Y6306D01*
X89886Y6339D01*
X89953Y6372D01*
X90086D01*
X90153Y6339D01*
X90186Y6306D01*
X90220Y6239D01*
Y6172D01*
X90186Y6106D01*
X90120Y6006D01*
X89786Y5672D01*
X90253D01*
X90576Y6372D02*
X90476Y6339D01*
X90443Y6272D01*
Y6206D01*
X90476Y6139D01*
X90543Y6106D01*
X90676Y6072D01*
X90776Y6039D01*
X90843Y5972D01*
X90876Y5906D01*
Y5806D01*
X90843Y5739D01*
X90810Y5706D01*
X90710Y5672D01*
X90576D01*
X90476Y5706D01*
X90443Y5739D01*
X90410Y5806D01*
Y5906D01*
X90443Y5972D01*
X90510Y6039D01*
X90610Y6072D01*
X90743Y6106D01*
X90810Y6139D01*
X90843Y6206D01*
Y6272D01*
X90810Y6339D01*
X90710Y6372D01*
X90576D01*
X91033Y5572D02*
X91499Y6372D01*
X91579Y6206D02*
Y6239D01*
X91613Y6306D01*
X91646Y6339D01*
X91713Y6372D01*
X91846D01*
X91913Y6339D01*
X91946Y6306D01*
X91979Y6239D01*
Y6172D01*
X91946Y6106D01*
X91879Y6006D01*
X91546Y5672D01*
X92013D01*
X92369Y6372D02*
X92269Y6339D01*
X92203Y6239D01*
X92169Y6072D01*
Y5972D01*
X92203Y5806D01*
X92269Y5706D01*
X92369Y5672D01*
X92436D01*
X92536Y5706D01*
X92602Y5806D01*
X92636Y5972D01*
Y6072D01*
X92602Y6239D01*
X92536Y6339D01*
X92436Y6372D01*
X92369D01*
X92792Y6239D02*
X92859Y6272D01*
X92959Y6372D01*
Y5672D01*
X93472Y6372D02*
X93372Y6339D01*
X93339Y6272D01*
Y6206D01*
X93372Y6139D01*
X93439Y6106D01*
X93572Y6072D01*
X93672Y6039D01*
X93739Y5972D01*
X93772Y5906D01*
Y5806D01*
X93739Y5739D01*
X93706Y5706D01*
X93606Y5672D01*
X93472D01*
X93372Y5706D01*
X93339Y5739D01*
X93306Y5806D01*
Y5906D01*
X93339Y5972D01*
X93406Y6039D01*
X93506Y6072D01*
X93639Y6106D01*
X93706Y6139D01*
X93739Y6206D01*
Y6272D01*
X93706Y6339D01*
X93606Y6372D01*
X93472D01*
X103600Y3362D02*
Y2662D01*
Y3362D02*
X104067Y2662D01*
Y3362D02*
Y2662D01*
X104260Y2562D02*
X104726Y3362D01*
X105306Y2662D02*
X105040Y3362D01*
X104773Y2662D01*
X104873Y2896D02*
X105206D01*
X103500Y6129D02*
X103567Y6162D01*
X103667Y6262D01*
Y5562D01*
X104213Y6262D02*
X104113Y6229D01*
X104047Y6129D01*
X104013Y5962D01*
Y5862D01*
X104047Y5696D01*
X104113Y5596D01*
X104213Y5562D01*
X104280D01*
X104380Y5596D01*
X104446Y5696D01*
X104480Y5862D01*
Y5962D01*
X104446Y6129D01*
X104380Y6229D01*
X104280Y6262D01*
X104213D01*
X105036D02*
X104703D01*
X104670Y5962D01*
X104703Y5996D01*
X104803Y6029D01*
X104903D01*
X105003Y5996D01*
X105070Y5929D01*
X105103Y5829D01*
Y5762D01*
X105070Y5662D01*
X105003Y5596D01*
X104903Y5562D01*
X104803D01*
X104703Y5596D01*
X104670Y5629D01*
X104636Y5696D01*
X105426Y6262D02*
X105326Y6229D01*
X105293Y6162D01*
Y6096D01*
X105326Y6029D01*
X105393Y5996D01*
X105526Y5962D01*
X105626Y5929D01*
X105693Y5862D01*
X105726Y5796D01*
Y5696D01*
X105693Y5629D01*
X105660Y5596D01*
X105560Y5562D01*
X105426D01*
X105326Y5596D01*
X105293Y5629D01*
X105260Y5696D01*
Y5796D01*
X105293Y5862D01*
X105360Y5929D01*
X105460Y5962D01*
X105593Y5996D01*
X105660Y6029D01*
X105693Y6096D01*
Y6162D01*
X105660Y6229D01*
X105560Y6262D01*
X105426D01*
X106216D02*
X105883Y5796D01*
X106383D01*
X106216Y6262D02*
Y5562D01*
X106673Y6262D02*
X106573Y6229D01*
X106539Y6162D01*
Y6096D01*
X106573Y6029D01*
X106639Y5996D01*
X106773Y5962D01*
X106873Y5929D01*
X106939Y5862D01*
X106973Y5796D01*
Y5696D01*
X106939Y5629D01*
X106906Y5596D01*
X106806Y5562D01*
X106673D01*
X106573Y5596D01*
X106539Y5629D01*
X106506Y5696D01*
Y5796D01*
X106539Y5862D01*
X106606Y5929D01*
X106706Y5962D01*
X106839Y5996D01*
X106906Y6029D01*
X106939Y6096D01*
Y6162D01*
X106906Y6229D01*
X106806Y6262D01*
X106673D01*
X88650Y9322D02*
Y8622D01*
Y9322D02*
X88883D01*
X88983Y9289D01*
X89050Y9222D01*
X89083Y9156D01*
X89117Y9056D01*
Y8889D01*
X89083Y8789D01*
X89050Y8722D01*
X88983Y8656D01*
X88883Y8622D01*
X88650D01*
X89273Y9322D02*
Y8622D01*
Y9322D02*
X89540Y8622D01*
X89806Y9322D02*
X89540Y8622D01*
X89806Y9322D02*
Y8622D01*
X90006Y9322D02*
Y8622D01*
X90473Y9322D02*
Y8622D01*
X90006Y8989D02*
X90473D01*
X88650Y12372D02*
Y11672D01*
Y12372D02*
X88883D01*
X88983Y12339D01*
X89050Y12272D01*
X89083Y12206D01*
X89117Y12106D01*
Y11939D01*
X89083Y11839D01*
X89050Y11772D01*
X88983Y11706D01*
X88883Y11672D01*
X88650D01*
X89273Y12372D02*
Y11672D01*
Y12372D02*
X89540Y11672D01*
X89806Y12372D02*
X89540Y11672D01*
X89806Y12372D02*
Y11672D01*
X90006Y12372D02*
Y11672D01*
X90473Y12372D02*
Y11672D01*
X90006Y12039D02*
X90473D01*
X124750Y6312D02*
Y5612D01*
Y6312D02*
X124983D01*
X125083Y6279D01*
X125150Y6212D01*
X125183Y6146D01*
X125217Y6046D01*
Y5879D01*
X125183Y5779D01*
X125150Y5712D01*
X125083Y5646D01*
X124983Y5612D01*
X124750D01*
X125706Y6312D02*
X125373Y5846D01*
X125873D01*
X125706Y6312D02*
Y5612D01*
X124700Y3029D02*
X124767Y3062D01*
X124867Y3162D01*
Y2462D01*
X125247Y2929D02*
X125213Y2896D01*
X125247Y2862D01*
X125280Y2896D01*
X125247Y2929D01*
Y2529D02*
X125213Y2496D01*
X125247Y2462D01*
X125280Y2496D01*
X125247Y2529D01*
X125433Y3029D02*
X125500Y3062D01*
X125600Y3162D01*
Y2462D01*
D12*
X102600Y1862D02*
Y7862D01*
X123600Y1862D02*
Y7862D01*
X87600Y1862D02*
Y13862D01*
X132600Y1862D02*
Y13862D01*
X102600D02*
X132600D01*
X102600Y7862D02*
Y13862D01*
X87600D02*
X102600D01*
X87600Y7862D02*
X132600D01*
X87600Y4862D02*
X132600D01*
X87600Y1862D02*
X132600D01*
X87600Y10862D02*
X102600D01*
X73600Y13862D02*
X87600D01*
X73600Y1862D02*
Y13862D01*
Y1862D02*
X87600D01*
X0Y0D02*
Y57000D01*
X65000D01*
Y0D02*
Y57000D01*
X0Y0D02*
X65000D01*
X124400Y4248D02*
X124357Y4291D01*
X124293Y4312D01*
X124207D01*
X124143Y4291D01*
X124100Y4248D01*
Y4205D01*
X124121Y4162D01*
X124143Y4141D01*
X124186Y4119D01*
X124314Y4077D01*
X124357Y4055D01*
X124379Y4034D01*
X124400Y3991D01*
Y3927D01*
X124357Y3884D01*
X124293Y3862D01*
X124207D01*
X124143Y3884D01*
X124100Y3927D01*
X124822Y4205D02*
X124801Y4248D01*
X124758Y4291D01*
X124715Y4312D01*
X124629D01*
X124586Y4291D01*
X124543Y4248D01*
X124522Y4205D01*
X124501Y4141D01*
Y4034D01*
X124522Y3969D01*
X124543Y3927D01*
X124586Y3884D01*
X124629Y3862D01*
X124715D01*
X124758Y3884D01*
X124801Y3927D01*
X124822Y3969D01*
X125291Y3862D02*
X125120Y4312D01*
X124948Y3862D01*
X125013Y4012D02*
X125227D01*
X125396Y4312D02*
Y3862D01*
X125653D01*
X125981Y4312D02*
X125703D01*
Y3862D01*
X125981D01*
X125703Y4098D02*
X125874D01*
X126077Y4162D02*
X126056Y4141D01*
X126077Y4119D01*
X126099Y4141D01*
X126077Y4162D01*
Y3905D02*
X126056Y3884D01*
X126077Y3862D01*
X126099Y3884D01*
X126077Y3905D01*
X88100Y4312D02*
Y3862D01*
Y4312D02*
X88379D01*
X88100Y4098D02*
X88271D01*
X88430Y4312D02*
Y3862D01*
X88524Y4312D02*
Y3862D01*
X88781D01*
X89109Y4312D02*
X88831D01*
Y3862D01*
X89109D01*
X88831Y4098D02*
X89002D01*
X89538Y4312D02*
Y3862D01*
Y4312D02*
X89837Y3862D01*
Y4312D02*
Y3862D01*
X90305D02*
X90133Y4312D01*
X89962Y3862D01*
X90026Y4012D02*
X90240D01*
X90410Y4312D02*
Y3862D01*
Y4312D02*
X90581Y3862D01*
X90752Y4312D02*
X90581Y3862D01*
X90752Y4312D02*
Y3862D01*
X91159Y4312D02*
X90881D01*
Y3862D01*
X91159D01*
X90881Y4098D02*
X91052D01*
X91256Y4162D02*
X91234Y4141D01*
X91256Y4119D01*
X91277Y4141D01*
X91256Y4162D01*
Y3905D02*
X91234Y3884D01*
X91256Y3862D01*
X91277Y3884D01*
X91256Y3905D01*
X88100Y10127D02*
X88293D01*
X88357Y10148D01*
X88379Y10169D01*
X88400Y10212D01*
Y10277D01*
X88379Y10319D01*
X88357Y10341D01*
X88293Y10362D01*
X88100D01*
Y9912D01*
X88822Y10255D02*
X88801Y10298D01*
X88758Y10341D01*
X88715Y10362D01*
X88629D01*
X88586Y10341D01*
X88543Y10298D01*
X88522Y10255D01*
X88501Y10191D01*
Y10084D01*
X88522Y10019D01*
X88543Y9977D01*
X88586Y9934D01*
X88629Y9912D01*
X88715D01*
X88758Y9934D01*
X88801Y9977D01*
X88822Y10019D01*
X88948Y10362D02*
Y9912D01*
Y10362D02*
X89141D01*
X89205Y10341D01*
X89227Y10319D01*
X89248Y10277D01*
Y10234D01*
X89227Y10191D01*
X89205Y10169D01*
X89141Y10148D01*
X88948D02*
X89141D01*
X89205Y10127D01*
X89227Y10105D01*
X89248Y10062D01*
Y9998D01*
X89227Y9955D01*
X89205Y9934D01*
X89141Y9912D01*
X88948D01*
X89703Y10362D02*
Y9912D01*
Y10362D02*
X89852D01*
X89917Y10341D01*
X89960Y10298D01*
X89981Y10255D01*
X90002Y10191D01*
Y10084D01*
X89981Y10019D01*
X89960Y9977D01*
X89917Y9934D01*
X89852Y9912D01*
X89703D01*
X90382Y10362D02*
X90103D01*
Y9912D01*
X90382D01*
X90103Y10148D02*
X90275D01*
X90757Y10298D02*
X90714Y10341D01*
X90649Y10362D01*
X90564D01*
X90499Y10341D01*
X90457Y10298D01*
Y10255D01*
X90478Y10212D01*
X90499Y10191D01*
X90542Y10169D01*
X90671Y10127D01*
X90714Y10105D01*
X90735Y10084D01*
X90757Y10041D01*
Y9977D01*
X90714Y9934D01*
X90649Y9912D01*
X90564D01*
X90499Y9934D01*
X90457Y9977D01*
X90857Y10362D02*
Y9912D01*
X91273Y10255D02*
X91251Y10298D01*
X91209Y10341D01*
X91166Y10362D01*
X91080D01*
X91037Y10341D01*
X90994Y10298D01*
X90973Y10255D01*
X90952Y10191D01*
Y10084D01*
X90973Y10019D01*
X90994Y9977D01*
X91037Y9934D01*
X91080Y9912D01*
X91166D01*
X91209Y9934D01*
X91251Y9977D01*
X91273Y10019D01*
Y10084D01*
X91166D02*
X91273D01*
X91376Y10362D02*
Y9912D01*
Y10362D02*
X91676Y9912D01*
Y10362D02*
Y9912D01*
X92078Y10362D02*
X91800D01*
Y9912D01*
X92078D01*
X91800Y10148D02*
X91971D01*
X92153Y10362D02*
Y9912D01*
Y10362D02*
X92346D01*
X92410Y10341D01*
X92432Y10319D01*
X92453Y10277D01*
Y10234D01*
X92432Y10191D01*
X92410Y10169D01*
X92346Y10148D01*
X92153D01*
X92303D02*
X92453Y9912D01*
X92575Y10212D02*
X92554Y10191D01*
X92575Y10169D01*
X92597Y10191D01*
X92575Y10212D01*
Y9955D02*
X92554Y9934D01*
X92575Y9912D01*
X92597Y9934D01*
X92575Y9955D01*
X103250Y13312D02*
Y12862D01*
X103100Y13312D02*
X103400D01*
X103454D02*
Y12862D01*
X103698Y13312D02*
Y12862D01*
X103548Y13312D02*
X103848D01*
X103901D02*
Y12862D01*
X104158D01*
X104486Y13312D02*
X104208D01*
Y12862D01*
X104486D01*
X104208Y13098D02*
X104379D01*
X104583Y13162D02*
X104561Y13141D01*
X104583Y13119D01*
X104604Y13141D01*
X104583Y13162D01*
Y12905D02*
X104561Y12884D01*
X104583Y12862D01*
X104604Y12884D01*
X104583Y12905D01*
X103100Y7077D02*
X103293D01*
X103357Y7098D01*
X103379Y7119D01*
X103400Y7162D01*
Y7227D01*
X103379Y7269D01*
X103357Y7291D01*
X103293Y7312D01*
X103100D01*
Y6862D01*
X103843D02*
X103672Y7312D01*
X103501Y6862D01*
X103565Y7012D02*
X103779D01*
X103948Y7312D02*
Y6862D01*
Y7312D02*
X104141D01*
X104205Y7291D01*
X104227Y7269D01*
X104248Y7227D01*
Y7184D01*
X104227Y7141D01*
X104205Y7119D01*
X104141Y7098D01*
X103948D01*
X104098D02*
X104248Y6862D01*
X104499Y7312D02*
Y6862D01*
X104349Y7312D02*
X104649D01*
X105056D02*
Y6862D01*
Y7312D02*
X105356Y6862D01*
Y7312D02*
Y6862D01*
X105609Y7312D02*
X105566Y7291D01*
X105523Y7248D01*
X105502Y7205D01*
X105480Y7141D01*
Y7034D01*
X105502Y6969D01*
X105523Y6927D01*
X105566Y6884D01*
X105609Y6862D01*
X105694D01*
X105737Y6884D01*
X105780Y6927D01*
X105802Y6969D01*
X105823Y7034D01*
Y7141D01*
X105802Y7205D01*
X105780Y7248D01*
X105737Y7291D01*
X105694Y7312D01*
X105609D01*
X105949Y6905D02*
X105928Y6884D01*
X105949Y6862D01*
X105971Y6884D01*
X105949Y6905D01*
X106091Y7162D02*
X106069Y7141D01*
X106091Y7119D01*
X106112Y7141D01*
X106091Y7162D01*
Y6905D02*
X106069Y6884D01*
X106091Y6862D01*
X106112Y6884D01*
X106091Y6905D01*
X88379Y13312D02*
X88100D01*
Y12862D01*
X88379D01*
X88100Y13098D02*
X88271D01*
X88454Y13312D02*
Y12862D01*
Y13312D02*
X88753Y12862D01*
Y13312D02*
Y12862D01*
X89199Y13205D02*
X89178Y13248D01*
X89135Y13291D01*
X89092Y13312D01*
X89006D01*
X88963Y13291D01*
X88921Y13248D01*
X88899Y13205D01*
X88878Y13141D01*
Y13034D01*
X88899Y12969D01*
X88921Y12927D01*
X88963Y12884D01*
X89006Y12862D01*
X89092D01*
X89135Y12884D01*
X89178Y12927D01*
X89199Y12969D01*
Y13034D01*
X89092D02*
X89199D01*
X89302Y13312D02*
Y12862D01*
X89396Y13312D02*
Y12862D01*
Y13312D02*
X89696Y12862D01*
Y13312D02*
Y12862D01*
X90099Y13312D02*
X89820D01*
Y12862D01*
X90099D01*
X89820Y13098D02*
X89992D01*
X90452Y13312D02*
X90174D01*
Y12862D01*
X90452D01*
X90174Y13098D02*
X90345D01*
X90527Y13312D02*
Y12862D01*
Y13312D02*
X90720D01*
X90784Y13291D01*
X90806Y13269D01*
X90827Y13227D01*
Y13184D01*
X90806Y13141D01*
X90784Y13119D01*
X90720Y13098D01*
X90527D01*
X90677D02*
X90827Y12862D01*
X90949Y13162D02*
X90928Y13141D01*
X90949Y13119D01*
X90971Y13141D01*
X90949Y13162D01*
Y12905D02*
X90928Y12884D01*
X90949Y12862D01*
X90971Y12884D01*
X90949Y12905D01*
X103100Y4312D02*
Y3862D01*
Y4312D02*
X103250D01*
X103314Y4291D01*
X103357Y4248D01*
X103379Y4205D01*
X103400Y4141D01*
Y4034D01*
X103379Y3969D01*
X103357Y3927D01*
X103314Y3884D01*
X103250Y3862D01*
X103100D01*
X103501Y4312D02*
X103608Y3862D01*
X103715Y4312D02*
X103608Y3862D01*
X103715Y4312D02*
X103822Y3862D01*
X103929Y4312D02*
X103822Y3862D01*
X104340Y4205D02*
X104319Y4248D01*
X104276Y4291D01*
X104233Y4312D01*
X104148D01*
X104105Y4291D01*
X104062Y4248D01*
X104041Y4205D01*
X104019Y4141D01*
Y4034D01*
X104041Y3969D01*
X104062Y3927D01*
X104105Y3884D01*
X104148Y3862D01*
X104233D01*
X104276Y3884D01*
X104319Y3927D01*
X104340Y3969D01*
Y4034D01*
X104233D02*
X104340D01*
X104797Y4312D02*
Y3862D01*
Y4312D02*
X105097Y3862D01*
Y4312D02*
Y3862D01*
X105350Y4312D02*
X105307Y4291D01*
X105264Y4248D01*
X105242Y4205D01*
X105221Y4141D01*
Y4034D01*
X105242Y3969D01*
X105264Y3927D01*
X105307Y3884D01*
X105350Y3862D01*
X105435D01*
X105478Y3884D01*
X105521Y3927D01*
X105542Y3969D01*
X105564Y4034D01*
Y4141D01*
X105542Y4205D01*
X105521Y4248D01*
X105478Y4291D01*
X105435Y4312D01*
X105350D01*
X105690Y4162D02*
X105669Y4141D01*
X105690Y4119D01*
X105712Y4141D01*
X105690Y4162D01*
Y3905D02*
X105669Y3884D01*
X105690Y3862D01*
X105712Y3884D01*
X105690Y3905D01*
X124100Y7312D02*
Y6862D01*
Y7312D02*
X124293D01*
X124357Y7291D01*
X124379Y7269D01*
X124400Y7227D01*
Y7184D01*
X124379Y7141D01*
X124357Y7119D01*
X124293Y7098D01*
X124100D01*
X124250D02*
X124400Y6862D01*
X124779Y7312D02*
X124501D01*
Y6862D01*
X124779D01*
X124501Y7098D02*
X124672D01*
X124854Y7312D02*
X125026Y6862D01*
X125197Y7312D02*
X125026Y6862D01*
X125276Y7162D02*
X125255Y7141D01*
X125276Y7119D01*
X125298Y7141D01*
X125276Y7162D01*
Y6905D02*
X125255Y6884D01*
X125276Y6862D01*
X125298Y6884D01*
X125276Y6905D01*
X88100Y7312D02*
Y6862D01*
Y7312D02*
X88250D01*
X88314Y7291D01*
X88357Y7248D01*
X88379Y7205D01*
X88400Y7141D01*
Y7034D01*
X88379Y6969D01*
X88357Y6927D01*
X88314Y6884D01*
X88250Y6862D01*
X88100D01*
X88843D02*
X88672Y7312D01*
X88501Y6862D01*
X88565Y7012D02*
X88779D01*
X89098Y7312D02*
Y6862D01*
X88948Y7312D02*
X89248D01*
X89580D02*
X89302D01*
Y6862D01*
X89580D01*
X89302Y7098D02*
X89473D01*
X89677Y7162D02*
X89655Y7141D01*
X89677Y7119D01*
X89698Y7141D01*
X89677Y7162D01*
Y6905D02*
X89655Y6884D01*
X89677Y6862D01*
X89698Y6884D01*
X89677Y6905D01*
D13*
X73660Y55762D02*
X160312D01*
X73660Y18096D02*
X160312D01*
X73660Y15584D02*
X160312D01*
Y58274D01*
X73660D02*
X160312D01*
X73660Y15584D02*
Y58274D01*
X141666Y15584D02*
Y58274D01*
X132007Y15584D02*
Y58274D01*
X119938Y15584D02*
Y58274D01*
X111685Y15584D02*
Y58274D01*
X92574Y15584D02*
Y58274D01*
X82667Y15584D02*
Y58274D01*
X28318Y-2390D02*
X27985Y-2557D01*
X27651Y-2890D01*
Y-3223D01*
X27818Y-3390D01*
X28151D01*
X28318Y-3223D01*
Y-3057D01*
X28151Y-2890D01*
X27651D01*
X29318Y-2390D02*
X28651D01*
Y-2890D01*
X28984Y-2723D01*
X29151D01*
X29318Y-2890D01*
Y-3223D01*
X29151Y-3390D01*
X28818D01*
X28651Y-3223D01*
X29651Y-2557D02*
X29817Y-2390D01*
X30151D01*
X30317Y-2557D01*
Y-3223D01*
X30151Y-3390D01*
X29817D01*
X29651Y-3223D01*
Y-2557D01*
X30650D02*
X30817Y-2390D01*
X31150D01*
X31317Y-2557D01*
Y-3223D01*
X31150Y-3390D01*
X30817D01*
X30650Y-3223D01*
Y-2557D01*
X31650Y-3390D02*
Y-3223D01*
X31817D01*
Y-3390D01*
X31650D01*
X32483Y-2557D02*
X32650Y-2390D01*
X32983D01*
X33150Y-2557D01*
Y-3223D01*
X32983Y-3390D01*
X32650D01*
X32483Y-3223D01*
Y-2557D01*
X33483D02*
X33650Y-2390D01*
X33983D01*
X34149Y-2557D01*
Y-3223D01*
X33983Y-3390D01*
X33650D01*
X33483Y-3223D01*
Y-2557D01*
X34483Y-3390D02*
Y-2723D01*
X34649D01*
X34816Y-2890D01*
Y-3390D01*
Y-2890D01*
X34982Y-2723D01*
X35149Y-2890D01*
Y-3390D01*
X35482D02*
X35815D01*
X35649D01*
Y-2723D01*
X35482D01*
X36315Y-3390D02*
X36649D01*
X36482D01*
Y-2390D01*
X36315D01*
X-3550Y24318D02*
Y23651D01*
X-3050D01*
X-3217Y23985D01*
Y24151D01*
X-3050Y24318D01*
X-2717D01*
X-2550Y24151D01*
Y23818D01*
X-2717Y23651D01*
X-3550Y24651D02*
Y25318D01*
X-3383D01*
X-2717Y24651D01*
X-2550D01*
X-3383Y25651D02*
X-3550Y25817D01*
Y26151D01*
X-3383Y26317D01*
X-2717D01*
X-2550Y26151D01*
Y25817D01*
X-2717Y25651D01*
X-3383D01*
Y26650D02*
X-3550Y26817D01*
Y27150D01*
X-3383Y27317D01*
X-2717D01*
X-2550Y27150D01*
Y26817D01*
X-2717Y26650D01*
X-3383D01*
X-2550Y27650D02*
X-2717D01*
Y27817D01*
X-2550D01*
Y27650D01*
X-3383Y28483D02*
X-3550Y28650D01*
Y28983D01*
X-3383Y29150D01*
X-2717D01*
X-2550Y28983D01*
Y28650D01*
X-2717Y28483D01*
X-3383D01*
Y29483D02*
X-3550Y29650D01*
Y29983D01*
X-3383Y30149D01*
X-2717D01*
X-2550Y29983D01*
Y29650D01*
X-2717Y29483D01*
X-3383D01*
X-2550Y30483D02*
X-3217D01*
Y30649D01*
X-3050Y30816D01*
X-2550D01*
X-3050D01*
X-3217Y30982D01*
X-3050Y31149D01*
X-2550D01*
Y31482D02*
Y31815D01*
Y31649D01*
X-3217D01*
Y31482D01*
X-2550Y32315D02*
Y32649D01*
Y32482D01*
X-3550D01*
Y32315D01*
D15*
X75756Y47029D02*
G03*
X75756Y47029I-558J0D01*
G01*
X74640Y36427D02*
X75756D01*
Y37543D01*
X74640D02*
X75756D01*
X74640Y36427D02*
Y37543D01*
X74919Y31684D02*
X75198Y31405D01*
X74640Y31684D02*
X74919D01*
X74640D02*
X74919Y31963D01*
X74640Y32242D02*
X74919Y31963D01*
X74640Y32242D02*
X74919D01*
X75198Y32521D01*
X75477Y32242D01*
X75756D01*
X75477Y31963D02*
X75756Y32242D01*
X75477Y31963D02*
X75756Y31684D01*
X75477D02*
X75756D01*
X75198Y31405D02*
X75477Y31684D01*
X0Y-2740D02*
X600Y-2540D01*
X0Y-2740D02*
X600Y-2940D01*
X64400D02*
X65000Y-2740D01*
X64400Y-2540D02*
X65000Y-2740D01*
X0D02*
X27301D01*
X36999D02*
X65000D01*
X0Y-2840D02*
Y0D01*
X65000Y-2840D02*
Y0D01*
X-3400Y600D02*
X-3200Y0D01*
X-3000Y600D01*
X-3200Y57000D02*
X-3000Y56400D01*
X-3400D02*
X-3200Y57000D01*
Y0D02*
Y23301D01*
Y32999D02*
Y57000D01*
X-3300Y0D02*
X0D01*
X-3300Y57000D02*
X0D01*
X142419Y54507D02*
X143089D01*
X142754Y54841D02*
Y54172D01*
X143423Y54005D02*
X144093Y54674D01*
X144428Y54507D02*
X145097D01*
X145432Y54841D02*
X145599Y55009D01*
X145934D01*
X146101Y54841D01*
Y54674D01*
X145934Y54507D01*
X145766D01*
X145934D01*
X146101Y54339D01*
Y54172D01*
X145934Y54005D01*
X145599D01*
X145432Y54172D01*
X146436Y54005D02*
Y54172D01*
X146603D01*
Y54005D01*
X146436D01*
X147273Y54841D02*
X147440Y55009D01*
X147775D01*
X147942Y54841D01*
Y54172D01*
X147775Y54005D01*
X147440D01*
X147273Y54172D01*
Y54841D01*
X148277D02*
X148444Y55009D01*
X148779D01*
X148946Y54841D01*
Y54172D01*
X148779Y54005D01*
X148444D01*
X148277Y54172D01*
Y54841D01*
X149281Y54005D02*
Y54674D01*
X149448D01*
X149616Y54507D01*
Y54005D01*
Y54507D01*
X149783Y54674D01*
X149950Y54507D01*
Y54005D01*
X150285D02*
X150620D01*
X150452D01*
Y54674D01*
X150285D01*
X151122Y54005D02*
X151456D01*
X151289D01*
Y55009D01*
X151122D01*
X142419Y51996D02*
X143089D01*
X142754Y52330D02*
Y51661D01*
X143423Y51494D02*
X144093Y52163D01*
X144428Y51996D02*
X145097D01*
X145432Y52330D02*
X145599Y52498D01*
X145934D01*
X146101Y52330D01*
Y52163D01*
X145934Y51996D01*
X145766D01*
X145934D01*
X146101Y51828D01*
Y51661D01*
X145934Y51494D01*
X145599D01*
X145432Y51661D01*
X146436Y51494D02*
Y51661D01*
X146603D01*
Y51494D01*
X146436D01*
X147273Y52330D02*
X147440Y52498D01*
X147775D01*
X147942Y52330D01*
Y51661D01*
X147775Y51494D01*
X147440D01*
X147273Y51661D01*
Y52330D01*
X148277D02*
X148444Y52498D01*
X148779D01*
X148946Y52330D01*
Y51661D01*
X148779Y51494D01*
X148444D01*
X148277Y51661D01*
Y52330D01*
X149281Y51494D02*
Y52163D01*
X149448D01*
X149616Y51996D01*
Y51494D01*
Y51996D01*
X149783Y52163D01*
X149950Y51996D01*
Y51494D01*
X150285D02*
X150620D01*
X150452D01*
Y52163D01*
X150285D01*
X151122Y51494D02*
X151456D01*
X151289D01*
Y52498D01*
X151122D01*
X142419Y49484D02*
X143089D01*
X142754Y49819D02*
Y49150D01*
X143423Y48982D02*
X144093Y49652D01*
X144428Y49484D02*
X145097D01*
X145432Y49819D02*
X145599Y49987D01*
X145934D01*
X146101Y49819D01*
Y49652D01*
X145934Y49484D01*
X145766D01*
X145934D01*
X146101Y49317D01*
Y49150D01*
X145934Y48982D01*
X145599D01*
X145432Y49150D01*
X146436Y48982D02*
Y49150D01*
X146603D01*
Y48982D01*
X146436D01*
X147273Y49819D02*
X147440Y49987D01*
X147775D01*
X147942Y49819D01*
Y49150D01*
X147775Y48982D01*
X147440D01*
X147273Y49150D01*
Y49819D01*
X148277D02*
X148444Y49987D01*
X148779D01*
X148946Y49819D01*
Y49150D01*
X148779Y48982D01*
X148444D01*
X148277Y49150D01*
Y49819D01*
X149281Y48982D02*
Y49652D01*
X149448D01*
X149616Y49484D01*
Y48982D01*
Y49484D01*
X149783Y49652D01*
X149950Y49484D01*
Y48982D01*
X150285D02*
X150620D01*
X150452D01*
Y49652D01*
X150285D01*
X151122Y48982D02*
X151456D01*
X151289D01*
Y49987D01*
X151122D01*
X142419Y46973D02*
X143089D01*
X142754Y47308D02*
Y46639D01*
X143423Y46471D02*
X144093Y47141D01*
X144428Y46973D02*
X145097D01*
X145432Y47308D02*
X145599Y47475D01*
X145934D01*
X146101Y47308D01*
Y47141D01*
X145934Y46973D01*
X145766D01*
X145934D01*
X146101Y46806D01*
Y46639D01*
X145934Y46471D01*
X145599D01*
X145432Y46639D01*
X146436Y46471D02*
Y46639D01*
X146603D01*
Y46471D01*
X146436D01*
X147273Y47308D02*
X147440Y47475D01*
X147775D01*
X147942Y47308D01*
Y46639D01*
X147775Y46471D01*
X147440D01*
X147273Y46639D01*
Y47308D01*
X148277D02*
X148444Y47475D01*
X148779D01*
X148946Y47308D01*
Y46639D01*
X148779Y46471D01*
X148444D01*
X148277Y46639D01*
Y47308D01*
X149281Y46471D02*
Y47141D01*
X149448D01*
X149616Y46973D01*
Y46471D01*
Y46973D01*
X149783Y47141D01*
X149950Y46973D01*
Y46471D01*
X150285D02*
X150620D01*
X150452D01*
Y47141D01*
X150285D01*
X151122Y46471D02*
X151456D01*
X151289D01*
Y47475D01*
X151122D01*
X142419Y44462D02*
X143089D01*
X142754Y44797D02*
Y44128D01*
X143423Y43960D02*
X144093Y44630D01*
X144428Y44462D02*
X145097D01*
X145432Y44797D02*
X145599Y44964D01*
X145934D01*
X146101Y44797D01*
Y44630D01*
X145934Y44462D01*
X145766D01*
X145934D01*
X146101Y44295D01*
Y44128D01*
X145934Y43960D01*
X145599D01*
X145432Y44128D01*
X146436Y43960D02*
Y44128D01*
X146603D01*
Y43960D01*
X146436D01*
X147273Y44797D02*
X147440Y44964D01*
X147775D01*
X147942Y44797D01*
Y44128D01*
X147775Y43960D01*
X147440D01*
X147273Y44128D01*
Y44797D01*
X148277D02*
X148444Y44964D01*
X148779D01*
X148946Y44797D01*
Y44128D01*
X148779Y43960D01*
X148444D01*
X148277Y44128D01*
Y44797D01*
X149281Y43960D02*
Y44630D01*
X149448D01*
X149616Y44462D01*
Y43960D01*
Y44462D01*
X149783Y44630D01*
X149950Y44462D01*
Y43960D01*
X150285D02*
X150620D01*
X150452D01*
Y44630D01*
X150285D01*
X151122Y43960D02*
X151456D01*
X151289D01*
Y44964D01*
X151122D01*
X142419Y41951D02*
X143089D01*
X142754Y42286D02*
Y41616D01*
X143423Y41449D02*
X144093Y42118D01*
X144428Y41951D02*
X145097D01*
X145432Y42286D02*
X145599Y42453D01*
X145934D01*
X146101Y42286D01*
Y42118D01*
X145934Y41951D01*
X145766D01*
X145934D01*
X146101Y41784D01*
Y41616D01*
X145934Y41449D01*
X145599D01*
X145432Y41616D01*
X146436Y41449D02*
Y41616D01*
X146603D01*
Y41449D01*
X146436D01*
X147273Y42286D02*
X147440Y42453D01*
X147775D01*
X147942Y42286D01*
Y41616D01*
X147775Y41449D01*
X147440D01*
X147273Y41616D01*
Y42286D01*
X148277D02*
X148444Y42453D01*
X148779D01*
X148946Y42286D01*
Y41616D01*
X148779Y41449D01*
X148444D01*
X148277Y41616D01*
Y42286D01*
X149281Y41449D02*
Y42118D01*
X149448D01*
X149616Y41951D01*
Y41449D01*
Y41951D01*
X149783Y42118D01*
X149950Y41951D01*
Y41449D01*
X150285D02*
X150620D01*
X150452D01*
Y42118D01*
X150285D01*
X151122Y41449D02*
X151456D01*
X151289D01*
Y42453D01*
X151122D01*
X142419Y39440D02*
X143089D01*
X142754Y39775D02*
Y39105D01*
X143423Y38938D02*
X144093Y39607D01*
X144428Y39440D02*
X145097D01*
X145432Y39775D02*
X145599Y39942D01*
X145934D01*
X146101Y39775D01*
Y39607D01*
X145934Y39440D01*
X145766D01*
X145934D01*
X146101Y39273D01*
Y39105D01*
X145934Y38938D01*
X145599D01*
X145432Y39105D01*
X146436Y38938D02*
Y39105D01*
X146603D01*
Y38938D01*
X146436D01*
X147273Y39775D02*
X147440Y39942D01*
X147775D01*
X147942Y39775D01*
Y39105D01*
X147775Y38938D01*
X147440D01*
X147273Y39105D01*
Y39775D01*
X148277D02*
X148444Y39942D01*
X148779D01*
X148946Y39775D01*
Y39105D01*
X148779Y38938D01*
X148444D01*
X148277Y39105D01*
Y39775D01*
X149281Y38938D02*
Y39607D01*
X149448D01*
X149616Y39440D01*
Y38938D01*
Y39440D01*
X149783Y39607D01*
X149950Y39440D01*
Y38938D01*
X150285D02*
X150620D01*
X150452D01*
Y39607D01*
X150285D01*
X151122Y38938D02*
X151456D01*
X151289D01*
Y39942D01*
X151122D01*
X142419Y36929D02*
X143089D01*
X142754Y37264D02*
Y36594D01*
X143423Y36427D02*
X144093Y37096D01*
X144428Y36929D02*
X145097D01*
X145432Y37264D02*
X145599Y37431D01*
X145934D01*
X146101Y37264D01*
Y37096D01*
X145934Y36929D01*
X145766D01*
X145934D01*
X146101Y36761D01*
Y36594D01*
X145934Y36427D01*
X145599D01*
X145432Y36594D01*
X146436Y36427D02*
Y36594D01*
X146603D01*
Y36427D01*
X146436D01*
X147273Y37264D02*
X147440Y37431D01*
X147775D01*
X147942Y37264D01*
Y36594D01*
X147775Y36427D01*
X147440D01*
X147273Y36594D01*
Y37264D01*
X148277D02*
X148444Y37431D01*
X148779D01*
X148946Y37264D01*
Y36594D01*
X148779Y36427D01*
X148444D01*
X148277Y36594D01*
Y37264D01*
X149281Y36427D02*
Y37096D01*
X149448D01*
X149616Y36929D01*
Y36427D01*
Y36929D01*
X149783Y37096D01*
X149950Y36929D01*
Y36427D01*
X150285D02*
X150620D01*
X150452D01*
Y37096D01*
X150285D01*
X151122Y36427D02*
X151456D01*
X151289D01*
Y37431D01*
X151122D01*
X142419Y34418D02*
X143089D01*
X142754Y34752D02*
Y34083D01*
X143423Y33916D02*
X144093Y34585D01*
X144428Y34418D02*
X145097D01*
X145432Y34752D02*
X145599Y34920D01*
X145934D01*
X146101Y34752D01*
Y34585D01*
X145934Y34418D01*
X145766D01*
X145934D01*
X146101Y34250D01*
Y34083D01*
X145934Y33916D01*
X145599D01*
X145432Y34083D01*
X146436Y33916D02*
Y34083D01*
X146603D01*
Y33916D01*
X146436D01*
X147273Y34752D02*
X147440Y34920D01*
X147775D01*
X147942Y34752D01*
Y34083D01*
X147775Y33916D01*
X147440D01*
X147273Y34083D01*
Y34752D01*
X148277D02*
X148444Y34920D01*
X148779D01*
X148946Y34752D01*
Y34083D01*
X148779Y33916D01*
X148444D01*
X148277Y34083D01*
Y34752D01*
X149281Y33916D02*
Y34585D01*
X149448D01*
X149616Y34418D01*
Y33916D01*
Y34418D01*
X149783Y34585D01*
X149950Y34418D01*
Y33916D01*
X150285D02*
X150620D01*
X150452D01*
Y34585D01*
X150285D01*
X151122Y33916D02*
X151456D01*
X151289D01*
Y34920D01*
X151122D01*
X142419Y29395D02*
X143089D01*
X142754Y29730D02*
Y29061D01*
X143423Y28893D02*
X144093Y29563D01*
X144428Y29395D02*
X145097D01*
X145432Y29730D02*
X145599Y29898D01*
X145934D01*
X146101Y29730D01*
Y29563D01*
X145934Y29395D01*
X145766D01*
X145934D01*
X146101Y29228D01*
Y29061D01*
X145934Y28893D01*
X145599D01*
X145432Y29061D01*
X146436Y28893D02*
Y29061D01*
X146603D01*
Y28893D01*
X146436D01*
X147273Y29730D02*
X147440Y29898D01*
X147775D01*
X147942Y29730D01*
Y29061D01*
X147775Y28893D01*
X147440D01*
X147273Y29061D01*
Y29730D01*
X148277D02*
X148444Y29898D01*
X148779D01*
X148946Y29730D01*
Y29061D01*
X148779Y28893D01*
X148444D01*
X148277Y29061D01*
Y29730D01*
X149281Y28893D02*
Y29563D01*
X149448D01*
X149616Y29395D01*
Y28893D01*
Y29395D01*
X149783Y29563D01*
X149950Y29395D01*
Y28893D01*
X150285D02*
X150620D01*
X150452D01*
Y29563D01*
X150285D01*
X151122Y28893D02*
X151456D01*
X151289D01*
Y29898D01*
X151122D01*
X142419Y26884D02*
X143089D01*
X142754Y27219D02*
Y26550D01*
X143423Y26382D02*
X144093Y27052D01*
X144428Y26884D02*
X145097D01*
X145432Y27219D02*
X145599Y27386D01*
X145934D01*
X146101Y27219D01*
Y27052D01*
X145934Y26884D01*
X145766D01*
X145934D01*
X146101Y26717D01*
Y26550D01*
X145934Y26382D01*
X145599D01*
X145432Y26550D01*
X146436Y26382D02*
Y26550D01*
X146603D01*
Y26382D01*
X146436D01*
X147273Y27219D02*
X147440Y27386D01*
X147775D01*
X147942Y27219D01*
Y26550D01*
X147775Y26382D01*
X147440D01*
X147273Y26550D01*
Y27219D01*
X148277D02*
X148444Y27386D01*
X148779D01*
X148946Y27219D01*
Y26550D01*
X148779Y26382D01*
X148444D01*
X148277Y26550D01*
Y27219D01*
X149281Y26382D02*
Y27052D01*
X149448D01*
X149616Y26884D01*
Y26382D01*
Y26884D01*
X149783Y27052D01*
X149950Y26884D01*
Y26382D01*
X150285D02*
X150620D01*
X150452D01*
Y27052D01*
X150285D01*
X151122Y26382D02*
X151456D01*
X151289D01*
Y27386D01*
X151122D01*
X142419Y24373D02*
X143089D01*
X142754Y24708D02*
Y24038D01*
X143423Y23871D02*
X144093Y24541D01*
X144428Y24373D02*
X145097D01*
X145432Y24708D02*
X145599Y24875D01*
X145934D01*
X146101Y24708D01*
Y24541D01*
X145934Y24373D01*
X145766D01*
X145934D01*
X146101Y24206D01*
Y24038D01*
X145934Y23871D01*
X145599D01*
X145432Y24038D01*
X146436Y23871D02*
Y24038D01*
X146603D01*
Y23871D01*
X146436D01*
X147273Y24708D02*
X147440Y24875D01*
X147775D01*
X147942Y24708D01*
Y24038D01*
X147775Y23871D01*
X147440D01*
X147273Y24038D01*
Y24708D01*
X148277D02*
X148444Y24875D01*
X148779D01*
X148946Y24708D01*
Y24038D01*
X148779Y23871D01*
X148444D01*
X148277Y24038D01*
Y24708D01*
X149281Y23871D02*
Y24541D01*
X149448D01*
X149616Y24373D01*
Y23871D01*
Y24373D01*
X149783Y24541D01*
X149950Y24373D01*
Y23871D01*
X150285D02*
X150620D01*
X150452D01*
Y24541D01*
X150285D01*
X151122Y23871D02*
X151456D01*
X151289D01*
Y24875D01*
X151122D01*
X142419Y21862D02*
X143089D01*
X142754Y22197D02*
Y21527D01*
X143423Y21360D02*
X144093Y22029D01*
X144428Y21862D02*
X145097D01*
X145432Y22197D02*
X145599Y22364D01*
X145934D01*
X146101Y22197D01*
Y22029D01*
X145934Y21862D01*
X145766D01*
X145934D01*
X146101Y21695D01*
Y21527D01*
X145934Y21360D01*
X145599D01*
X145432Y21527D01*
X146436Y21360D02*
Y21527D01*
X146603D01*
Y21360D01*
X146436D01*
X147273Y22197D02*
X147440Y22364D01*
X147775D01*
X147942Y22197D01*
Y21527D01*
X147775Y21360D01*
X147440D01*
X147273Y21527D01*
Y22197D01*
X148277D02*
X148444Y22364D01*
X148779D01*
X148946Y22197D01*
Y21527D01*
X148779Y21360D01*
X148444D01*
X148277Y21527D01*
Y22197D01*
X149281Y21360D02*
Y22029D01*
X149448D01*
X149616Y21862D01*
Y21360D01*
Y21862D01*
X149783Y22029D01*
X149950Y21862D01*
Y21360D01*
X150285D02*
X150620D01*
X150452D01*
Y22029D01*
X150285D01*
X151122Y21360D02*
X151456D01*
X151289D01*
Y22364D01*
X151122D01*
X142419Y19351D02*
X143089D01*
X142754Y19686D02*
Y19016D01*
X143423Y18849D02*
X144093Y19518D01*
X144428Y19351D02*
X145097D01*
X145432Y19686D02*
X145599Y19853D01*
X145934D01*
X146101Y19686D01*
Y19518D01*
X145934Y19351D01*
X145766D01*
X145934D01*
X146101Y19184D01*
Y19016D01*
X145934Y18849D01*
X145599D01*
X145432Y19016D01*
X146436Y18849D02*
Y19016D01*
X146603D01*
Y18849D01*
X146436D01*
X147273Y19686D02*
X147440Y19853D01*
X147775D01*
X147942Y19686D01*
Y19016D01*
X147775Y18849D01*
X147440D01*
X147273Y19016D01*
Y19686D01*
X148277D02*
X148444Y19853D01*
X148779D01*
X148946Y19686D01*
Y19016D01*
X148779Y18849D01*
X148444D01*
X148277Y19016D01*
Y19686D01*
X149281Y18849D02*
Y19518D01*
X149448D01*
X149616Y19351D01*
Y18849D01*
Y19351D01*
X149783Y19518D01*
X149950Y19351D01*
Y18849D01*
X150285D02*
X150620D01*
X150452D01*
Y19518D01*
X150285D01*
X151122Y18849D02*
X151456D01*
X151289D01*
Y19853D01*
X151122D01*
X132760Y54005D02*
Y55009D01*
X133263D01*
X133430Y54841D01*
Y54507D01*
X133263Y54339D01*
X132760D01*
X133932Y54674D02*
X134267D01*
X134434Y54507D01*
Y54005D01*
X133932D01*
X133765Y54172D01*
X133932Y54339D01*
X134434D01*
X135438Y55009D02*
Y54005D01*
X134936D01*
X134769Y54172D01*
Y54507D01*
X134936Y54674D01*
X135438D01*
X132760Y51494D02*
Y52498D01*
X133263D01*
X133430Y52330D01*
Y51996D01*
X133263Y51828D01*
X132760D01*
X133932Y52163D02*
X134267D01*
X134434Y51996D01*
Y51494D01*
X133932D01*
X133765Y51661D01*
X133932Y51828D01*
X134434D01*
X135438Y52498D02*
Y51494D01*
X134936D01*
X134769Y51661D01*
Y51996D01*
X134936Y52163D01*
X135438D01*
X132760Y48982D02*
Y49987D01*
X133263D01*
X133430Y49819D01*
Y49484D01*
X133263Y49317D01*
X132760D01*
X133932Y49652D02*
X134267D01*
X134434Y49484D01*
Y48982D01*
X133932D01*
X133765Y49150D01*
X133932Y49317D01*
X134434D01*
X135438Y49987D02*
Y48982D01*
X134936D01*
X134769Y49150D01*
Y49484D01*
X134936Y49652D01*
X135438D01*
X132760Y46471D02*
Y47475D01*
X133263D01*
X133430Y47308D01*
Y46973D01*
X133263Y46806D01*
X132760D01*
X133932Y47141D02*
X134267D01*
X134434Y46973D01*
Y46471D01*
X133932D01*
X133765Y46639D01*
X133932Y46806D01*
X134434D01*
X135438Y47475D02*
Y46471D01*
X134936D01*
X134769Y46639D01*
Y46973D01*
X134936Y47141D01*
X135438D01*
X132760Y43960D02*
Y44964D01*
X133263D01*
X133430Y44797D01*
Y44462D01*
X133263Y44295D01*
X132760D01*
X133932Y44630D02*
X134267D01*
X134434Y44462D01*
Y43960D01*
X133932D01*
X133765Y44128D01*
X133932Y44295D01*
X134434D01*
X135438Y44964D02*
Y43960D01*
X134936D01*
X134769Y44128D01*
Y44462D01*
X134936Y44630D01*
X135438D01*
X132760Y41449D02*
Y42453D01*
X133263D01*
X133430Y42286D01*
Y41951D01*
X133263Y41784D01*
X132760D01*
X133932Y42118D02*
X134267D01*
X134434Y41951D01*
Y41449D01*
X133932D01*
X133765Y41616D01*
X133932Y41784D01*
X134434D01*
X135438Y42453D02*
Y41449D01*
X134936D01*
X134769Y41616D01*
Y41951D01*
X134936Y42118D01*
X135438D01*
X132760Y38938D02*
Y39942D01*
X133263D01*
X133430Y39775D01*
Y39440D01*
X133263Y39273D01*
X132760D01*
X133932Y39607D02*
X134267D01*
X134434Y39440D01*
Y38938D01*
X133932D01*
X133765Y39105D01*
X133932Y39273D01*
X134434D01*
X135438Y39942D02*
Y38938D01*
X134936D01*
X134769Y39105D01*
Y39440D01*
X134936Y39607D01*
X135438D01*
X132760Y36427D02*
Y37431D01*
X133263D01*
X133430Y37264D01*
Y36929D01*
X133263Y36761D01*
X132760D01*
X133932Y37096D02*
X134267D01*
X134434Y36929D01*
Y36427D01*
X133932D01*
X133765Y36594D01*
X133932Y36761D01*
X134434D01*
X135438Y37431D02*
Y36427D01*
X134936D01*
X134769Y36594D01*
Y36929D01*
X134936Y37096D01*
X135438D01*
X132760Y33916D02*
Y34920D01*
X133263D01*
X133430Y34752D01*
Y34418D01*
X133263Y34250D01*
X132760D01*
X133932Y34585D02*
X134267D01*
X134434Y34418D01*
Y33916D01*
X133932D01*
X133765Y34083D01*
X133932Y34250D01*
X134434D01*
X135438Y34920D02*
Y33916D01*
X134936D01*
X134769Y34083D01*
Y34418D01*
X134936Y34585D01*
X135438D01*
X132760Y32409D02*
Y31739D01*
X133095Y31405D01*
X133430Y31739D01*
Y32409D01*
X133765Y31405D02*
X134099D01*
X133932D01*
Y32074D01*
X133765D01*
X134769D02*
X135103D01*
X135271Y31907D01*
Y31405D01*
X134769D01*
X134601Y31572D01*
X134769Y31739D01*
X135271D01*
X132760Y28893D02*
Y29898D01*
X133263D01*
X133430Y29730D01*
Y29395D01*
X133263Y29228D01*
X132760D01*
X133932Y29563D02*
X134267D01*
X134434Y29395D01*
Y28893D01*
X133932D01*
X133765Y29061D01*
X133932Y29228D01*
X134434D01*
X135438Y29898D02*
Y28893D01*
X134936D01*
X134769Y29061D01*
Y29395D01*
X134936Y29563D01*
X135438D01*
X132760Y27386D02*
Y26717D01*
X133095Y26382D01*
X133430Y26717D01*
Y27386D01*
X133765Y26382D02*
X134099D01*
X133932D01*
Y27052D01*
X133765D01*
X134769D02*
X135103D01*
X135271Y26884D01*
Y26382D01*
X134769D01*
X134601Y26550D01*
X134769Y26717D01*
X135271D01*
X132760Y24875D02*
Y24206D01*
X133095Y23871D01*
X133430Y24206D01*
Y24875D01*
X133765Y23871D02*
X134099D01*
X133932D01*
Y24541D01*
X133765D01*
X134769D02*
X135103D01*
X135271Y24373D01*
Y23871D01*
X134769D01*
X134601Y24038D01*
X134769Y24206D01*
X135271D01*
X132760Y21360D02*
Y22364D01*
X133263D01*
X133430Y22197D01*
Y21862D01*
X133263Y21695D01*
X132760D01*
X133932Y22029D02*
X134267D01*
X134434Y21862D01*
Y21360D01*
X133932D01*
X133765Y21527D01*
X133932Y21695D01*
X134434D01*
X135438Y22364D02*
Y21360D01*
X134936D01*
X134769Y21527D01*
Y21862D01*
X134936Y22029D01*
X135438D01*
X132760Y18849D02*
Y19853D01*
X133263D01*
X133430Y19686D01*
Y19351D01*
X133263Y19184D01*
X132760D01*
X133932Y19518D02*
X134267D01*
X134434Y19351D01*
Y18849D01*
X133932D01*
X133765Y19016D01*
X133932Y19184D01*
X134434D01*
X135438Y19853D02*
Y18849D01*
X134936D01*
X134769Y19016D01*
Y19351D01*
X134936Y19518D01*
X135438D01*
X120692Y54005D02*
Y55009D01*
X121194D01*
X121361Y54841D01*
Y54507D01*
X121194Y54339D01*
X120692D01*
X121026D02*
X121361Y54005D01*
X121863D02*
X122198D01*
X122365Y54172D01*
Y54507D01*
X122198Y54674D01*
X121863D01*
X121696Y54507D01*
Y54172D01*
X121863Y54005D01*
X122700Y54674D02*
Y54172D01*
X122867Y54005D01*
X123369D01*
Y54674D01*
X123704Y54005D02*
Y54674D01*
X124206D01*
X124373Y54507D01*
Y54005D01*
X125378Y55009D02*
Y54005D01*
X124876D01*
X124708Y54172D01*
Y54507D01*
X124876Y54674D01*
X125378D01*
X120692Y51494D02*
Y52498D01*
X121194D01*
X121361Y52330D01*
Y51996D01*
X121194Y51828D01*
X120692D01*
X121026D02*
X121361Y51494D01*
X121863D02*
X122198D01*
X122365Y51661D01*
Y51996D01*
X122198Y52163D01*
X121863D01*
X121696Y51996D01*
Y51661D01*
X121863Y51494D01*
X122700Y52163D02*
Y51661D01*
X122867Y51494D01*
X123369D01*
Y52163D01*
X123704Y51494D02*
Y52163D01*
X124206D01*
X124373Y51996D01*
Y51494D01*
X125378Y52498D02*
Y51494D01*
X124876D01*
X124708Y51661D01*
Y51996D01*
X124876Y52163D01*
X125378D01*
X120692Y48982D02*
Y49987D01*
X121194D01*
X121361Y49819D01*
Y49484D01*
X121194Y49317D01*
X120692D01*
X121026D02*
X121361Y48982D01*
X121863D02*
X122198D01*
X122365Y49150D01*
Y49484D01*
X122198Y49652D01*
X121863D01*
X121696Y49484D01*
Y49150D01*
X121863Y48982D01*
X122700Y49652D02*
Y49150D01*
X122867Y48982D01*
X123369D01*
Y49652D01*
X123704Y48982D02*
Y49652D01*
X124206D01*
X124373Y49484D01*
Y48982D01*
X125378Y49987D02*
Y48982D01*
X124876D01*
X124708Y49150D01*
Y49484D01*
X124876Y49652D01*
X125378D01*
X120692Y46471D02*
Y47475D01*
X121194D01*
X121361Y47308D01*
Y46973D01*
X121194Y46806D01*
X120692D01*
X121026D02*
X121361Y46471D01*
X121863D02*
X122198D01*
X122365Y46639D01*
Y46973D01*
X122198Y47141D01*
X121863D01*
X121696Y46973D01*
Y46639D01*
X121863Y46471D01*
X122700Y47141D02*
Y46639D01*
X122867Y46471D01*
X123369D01*
Y47141D01*
X123704Y46471D02*
Y47141D01*
X124206D01*
X124373Y46973D01*
Y46471D01*
X125378Y47475D02*
Y46471D01*
X124876D01*
X124708Y46639D01*
Y46973D01*
X124876Y47141D01*
X125378D01*
X120692Y43960D02*
Y44964D01*
X121194D01*
X121361Y44797D01*
Y44462D01*
X121194Y44295D01*
X120692D01*
X121026D02*
X121361Y43960D01*
X121863D02*
X122198D01*
X122365Y44128D01*
Y44462D01*
X122198Y44630D01*
X121863D01*
X121696Y44462D01*
Y44128D01*
X121863Y43960D01*
X122700Y44630D02*
Y44128D01*
X122867Y43960D01*
X123369D01*
Y44630D01*
X123704Y43960D02*
Y44630D01*
X124206D01*
X124373Y44462D01*
Y43960D01*
X125378Y44964D02*
Y43960D01*
X124876D01*
X124708Y44128D01*
Y44462D01*
X124876Y44630D01*
X125378D01*
X120692Y41449D02*
Y42453D01*
X121194D01*
X121361Y42286D01*
Y41951D01*
X121194Y41784D01*
X120692D01*
X121026D02*
X121361Y41449D01*
X121863D02*
X122198D01*
X122365Y41616D01*
Y41951D01*
X122198Y42118D01*
X121863D01*
X121696Y41951D01*
Y41616D01*
X121863Y41449D01*
X122700Y42118D02*
Y41616D01*
X122867Y41449D01*
X123369D01*
Y42118D01*
X123704Y41449D02*
Y42118D01*
X124206D01*
X124373Y41951D01*
Y41449D01*
X125378Y42453D02*
Y41449D01*
X124876D01*
X124708Y41616D01*
Y41951D01*
X124876Y42118D01*
X125378D01*
X120692Y38938D02*
Y39942D01*
X121194D01*
X121361Y39775D01*
Y39440D01*
X121194Y39273D01*
X120692D01*
X121026D02*
X121361Y38938D01*
X121863D02*
X122198D01*
X122365Y39105D01*
Y39440D01*
X122198Y39607D01*
X121863D01*
X121696Y39440D01*
Y39105D01*
X121863Y38938D01*
X122700Y39607D02*
Y39105D01*
X122867Y38938D01*
X123369D01*
Y39607D01*
X123704Y38938D02*
Y39607D01*
X124206D01*
X124373Y39440D01*
Y38938D01*
X125378Y39942D02*
Y38938D01*
X124876D01*
X124708Y39105D01*
Y39440D01*
X124876Y39607D01*
X125378D01*
X120692Y36427D02*
Y37431D01*
X121194D01*
X121361Y37264D01*
Y36929D01*
X121194Y36761D01*
X120692D01*
X121026D02*
X121361Y36427D01*
X121863D02*
X122198D01*
X122365Y36594D01*
Y36929D01*
X122198Y37096D01*
X121863D01*
X121696Y36929D01*
Y36594D01*
X121863Y36427D01*
X122700Y37096D02*
Y36594D01*
X122867Y36427D01*
X123369D01*
Y37096D01*
X123704Y36427D02*
Y37096D01*
X124206D01*
X124373Y36929D01*
Y36427D01*
X125378Y37431D02*
Y36427D01*
X124876D01*
X124708Y36594D01*
Y36929D01*
X124876Y37096D01*
X125378D01*
X120692Y33916D02*
Y34920D01*
X121194D01*
X121361Y34752D01*
Y34418D01*
X121194Y34250D01*
X120692D01*
X121026D02*
X121361Y33916D01*
X121863D02*
X122198D01*
X122365Y34083D01*
Y34418D01*
X122198Y34585D01*
X121863D01*
X121696Y34418D01*
Y34083D01*
X121863Y33916D01*
X122700Y34585D02*
Y34083D01*
X122867Y33916D01*
X123369D01*
Y34585D01*
X123704Y33916D02*
Y34585D01*
X124206D01*
X124373Y34418D01*
Y33916D01*
X125378Y34920D02*
Y33916D01*
X124876D01*
X124708Y34083D01*
Y34418D01*
X124876Y34585D01*
X125378D01*
X120692Y31405D02*
Y32409D01*
X121194D01*
X121361Y32241D01*
Y31907D01*
X121194Y31739D01*
X120692D01*
X121026D02*
X121361Y31405D01*
X121863D02*
X122198D01*
X122365Y31572D01*
Y31907D01*
X122198Y32074D01*
X121863D01*
X121696Y31907D01*
Y31572D01*
X121863Y31405D01*
X122700Y32074D02*
Y31572D01*
X122867Y31405D01*
X123369D01*
Y32074D01*
X123704Y31405D02*
Y32074D01*
X124206D01*
X124373Y31907D01*
Y31405D01*
X125378Y32409D02*
Y31405D01*
X124876D01*
X124708Y31572D01*
Y31907D01*
X124876Y32074D01*
X125378D01*
X120692Y28893D02*
Y29898D01*
X121194D01*
X121361Y29730D01*
Y29395D01*
X121194Y29228D01*
X120692D01*
X121026D02*
X121361Y28893D01*
X121863D02*
X122198D01*
X122365Y29061D01*
Y29395D01*
X122198Y29563D01*
X121863D01*
X121696Y29395D01*
Y29061D01*
X121863Y28893D01*
X122700Y29563D02*
Y29061D01*
X122867Y28893D01*
X123369D01*
Y29563D01*
X123704Y28893D02*
Y29563D01*
X124206D01*
X124373Y29395D01*
Y28893D01*
X125378Y29898D02*
Y28893D01*
X124876D01*
X124708Y29061D01*
Y29395D01*
X124876Y29563D01*
X125378D01*
X120692Y26382D02*
Y27386D01*
X121194D01*
X121361Y27219D01*
Y26884D01*
X121194Y26717D01*
X120692D01*
X121026D02*
X121361Y26382D01*
X121863D02*
X122198D01*
X122365Y26550D01*
Y26884D01*
X122198Y27052D01*
X121863D01*
X121696Y26884D01*
Y26550D01*
X121863Y26382D01*
X122700Y27052D02*
Y26550D01*
X122867Y26382D01*
X123369D01*
Y27052D01*
X123704Y26382D02*
Y27052D01*
X124206D01*
X124373Y26884D01*
Y26382D01*
X125378Y27386D02*
Y26382D01*
X124876D01*
X124708Y26550D01*
Y26884D01*
X124876Y27052D01*
X125378D01*
X120692Y23871D02*
Y24875D01*
X121194D01*
X121361Y24708D01*
Y24373D01*
X121194Y24206D01*
X120692D01*
X121026D02*
X121361Y23871D01*
X121863D02*
X122198D01*
X122365Y24038D01*
Y24373D01*
X122198Y24541D01*
X121863D01*
X121696Y24373D01*
Y24038D01*
X121863Y23871D01*
X122700Y24541D02*
Y24038D01*
X122867Y23871D01*
X123369D01*
Y24541D01*
X123704Y23871D02*
Y24541D01*
X124206D01*
X124373Y24373D01*
Y23871D01*
X125378Y24875D02*
Y23871D01*
X124876D01*
X124708Y24038D01*
Y24373D01*
X124876Y24541D01*
X125378D01*
X120692Y21360D02*
Y22364D01*
X121194D01*
X121361Y22197D01*
Y21862D01*
X121194Y21695D01*
X120692D01*
X121026D02*
X121361Y21360D01*
X121863D02*
X122198D01*
X122365Y21527D01*
Y21862D01*
X122198Y22029D01*
X121863D01*
X121696Y21862D01*
Y21527D01*
X121863Y21360D01*
X122700Y22029D02*
Y21527D01*
X122867Y21360D01*
X123369D01*
Y22029D01*
X123704Y21360D02*
Y22029D01*
X124206D01*
X124373Y21862D01*
Y21360D01*
X125378Y22364D02*
Y21360D01*
X124876D01*
X124708Y21527D01*
Y21862D01*
X124876Y22029D01*
X125378D01*
X120692Y18849D02*
Y19853D01*
X121194D01*
X121361Y19686D01*
Y19351D01*
X121194Y19184D01*
X120692D01*
X121026D02*
X121361Y18849D01*
X121863D02*
X122198D01*
X122365Y19016D01*
Y19351D01*
X122198Y19518D01*
X121863D01*
X121696Y19351D01*
Y19016D01*
X121863Y18849D01*
X122700Y19518D02*
Y19016D01*
X122867Y18849D01*
X123369D01*
Y19518D01*
X123704Y18849D02*
Y19518D01*
X124206D01*
X124373Y19351D01*
Y18849D01*
X125378Y19853D02*
Y18849D01*
X124876D01*
X124708Y19016D01*
Y19351D01*
X124876Y19518D01*
X125378D01*
X112439Y54005D02*
Y55009D01*
X112941D01*
X113108Y54841D01*
Y54507D01*
X112941Y54339D01*
X112439D01*
X113443Y55009D02*
X114112D01*
X113777D01*
Y54005D01*
X114447Y55009D02*
Y54005D01*
Y54507D01*
X115116D01*
Y55009D01*
Y54005D01*
X112439Y51494D02*
Y52498D01*
X112941D01*
X113108Y52330D01*
Y51996D01*
X112941Y51828D01*
X112439D01*
X113443Y52498D02*
X114112D01*
X113777D01*
Y51494D01*
X114447Y52498D02*
Y51494D01*
Y51996D01*
X115116D01*
Y52498D01*
Y51494D01*
X112439Y48982D02*
Y49987D01*
X112941D01*
X113108Y49819D01*
Y49484D01*
X112941Y49317D01*
X112439D01*
X113443Y49987D02*
X114112D01*
X113777D01*
Y48982D01*
X114447Y49987D02*
Y48982D01*
Y49484D01*
X115116D01*
Y49987D01*
Y48982D01*
X112439Y46471D02*
Y47475D01*
X112941D01*
X113108Y47308D01*
Y46973D01*
X112941Y46806D01*
X112439D01*
X113443Y47475D02*
X114112D01*
X113777D01*
Y46471D01*
X114447Y47475D02*
Y46471D01*
Y46973D01*
X115116D01*
Y47475D01*
Y46471D01*
X112439Y43960D02*
Y44964D01*
X113108Y43960D01*
Y44964D01*
X113443Y43960D02*
Y44964D01*
X113945D01*
X114112Y44797D01*
Y44462D01*
X113945Y44295D01*
X113443D01*
X114447Y44964D02*
X115116D01*
X114782D01*
Y43960D01*
X115451Y44964D02*
Y43960D01*
Y44462D01*
X116120D01*
Y44964D01*
Y43960D01*
X112439Y41449D02*
Y42453D01*
X112941D01*
X113108Y42286D01*
Y41951D01*
X112941Y41784D01*
X112439D01*
X113443Y42453D02*
X114112D01*
X113777D01*
Y41449D01*
X114447Y42453D02*
Y41449D01*
Y41951D01*
X115116D01*
Y42453D01*
Y41449D01*
X112439Y38938D02*
Y39942D01*
X112941D01*
X113108Y39775D01*
Y39440D01*
X112941Y39273D01*
X112439D01*
X113443Y39942D02*
X114112D01*
X113777D01*
Y38938D01*
X114447Y39942D02*
Y38938D01*
Y39440D01*
X115116D01*
Y39942D01*
Y38938D01*
X112439Y36427D02*
Y37431D01*
X113108Y36427D01*
Y37431D01*
X113443Y36427D02*
Y37431D01*
X113945D01*
X114112Y37264D01*
Y36929D01*
X113945Y36761D01*
X113443D01*
X114447Y37431D02*
X115116D01*
X114782D01*
Y36427D01*
X115451Y37431D02*
Y36427D01*
Y36929D01*
X116120D01*
Y37431D01*
Y36427D01*
X112439Y33916D02*
Y34920D01*
X112941D01*
X113108Y34752D01*
Y34418D01*
X112941Y34250D01*
X112439D01*
X113443Y34920D02*
X114112D01*
X113777D01*
Y33916D01*
X114447Y34920D02*
Y33916D01*
Y34418D01*
X115116D01*
Y34920D01*
Y33916D01*
X112439Y31405D02*
Y32409D01*
X112941D01*
X113108Y32241D01*
Y31907D01*
X112941Y31739D01*
X112439D01*
X113443Y32409D02*
X114112D01*
X113777D01*
Y31405D01*
X114447Y32409D02*
Y31405D01*
Y31907D01*
X115116D01*
Y32409D01*
Y31405D01*
X112439Y28893D02*
Y29898D01*
X113108Y28893D01*
Y29898D01*
X113443Y28893D02*
Y29898D01*
X113945D01*
X114112Y29730D01*
Y29395D01*
X113945Y29228D01*
X113443D01*
X114447Y29898D02*
X115116D01*
X114782D01*
Y28893D01*
X115451Y29898D02*
Y28893D01*
Y29395D01*
X116120D01*
Y29898D01*
Y28893D01*
X112439Y26382D02*
Y27386D01*
X112941D01*
X113108Y27219D01*
Y26884D01*
X112941Y26717D01*
X112439D01*
X113443Y27386D02*
X114112D01*
X113777D01*
Y26382D01*
X114447Y27386D02*
Y26382D01*
Y26884D01*
X115116D01*
Y27386D01*
Y26382D01*
X112439Y23871D02*
Y24875D01*
X112941D01*
X113108Y24708D01*
Y24373D01*
X112941Y24206D01*
X112439D01*
X113443Y24875D02*
X114112D01*
X113777D01*
Y23871D01*
X114447Y24875D02*
Y23871D01*
Y24373D01*
X115116D01*
Y24875D01*
Y23871D01*
X112439Y21360D02*
Y22364D01*
X112941D01*
X113108Y22197D01*
Y21862D01*
X112941Y21695D01*
X112439D01*
X113443Y22364D02*
X114112D01*
X113777D01*
Y21360D01*
X114447Y22364D02*
Y21360D01*
Y21862D01*
X115116D01*
Y22364D01*
Y21360D01*
X112439Y18849D02*
Y19853D01*
X112941D01*
X113108Y19686D01*
Y19351D01*
X112941Y19184D01*
X112439D01*
X113443Y19853D02*
X114112D01*
X113777D01*
Y18849D01*
X114447Y19853D02*
Y18849D01*
Y19351D01*
X115116D01*
Y19853D01*
Y18849D01*
X93327Y54841D02*
X93494Y55009D01*
X93829D01*
X93996Y54841D01*
Y54674D01*
X93829Y54507D01*
X93662D01*
X93829D01*
X93996Y54339D01*
Y54172D01*
X93829Y54005D01*
X93494D01*
X93327Y54172D01*
X94331D02*
X94499Y54005D01*
X94833D01*
X95001Y54172D01*
Y54841D01*
X94833Y55009D01*
X94499D01*
X94331Y54841D01*
Y54674D01*
X94499Y54507D01*
X95001D01*
X95335Y54005D02*
Y54172D01*
X95503D01*
Y54005D01*
X95335D01*
X96172Y54841D02*
X96339Y55009D01*
X96674D01*
X96841Y54841D01*
Y54674D01*
X96674Y54507D01*
X96507D01*
X96674D01*
X96841Y54339D01*
Y54172D01*
X96674Y54005D01*
X96339D01*
X96172Y54172D01*
X97176Y55009D02*
X97846D01*
Y54841D01*
X97176Y54172D01*
Y54005D01*
X98180D02*
Y54674D01*
X98348D01*
X98515Y54507D01*
Y54005D01*
Y54507D01*
X98682Y54674D01*
X98850Y54507D01*
Y54005D01*
X99184D02*
X99519D01*
X99352D01*
Y54674D01*
X99184D01*
X100021Y54005D02*
X100356D01*
X100189D01*
Y55009D01*
X100021D01*
X102197Y54005D02*
X101862Y54339D01*
Y54674D01*
X102197Y55009D01*
X102699Y54005D02*
X103034D01*
X102866D01*
Y55009D01*
X102699Y54841D01*
X103536Y54005D02*
Y54172D01*
X103703D01*
Y54005D01*
X103536D01*
X104372Y54841D02*
X104540Y55009D01*
X104875D01*
X105042Y54841D01*
Y54172D01*
X104875Y54005D01*
X104540D01*
X104372Y54172D01*
Y54841D01*
X105377D02*
X105544Y55009D01*
X105879D01*
X106046Y54841D01*
Y54172D01*
X105879Y54005D01*
X105544D01*
X105377Y54172D01*
Y54841D01*
X106381D02*
X106548Y55009D01*
X106883D01*
X107050Y54841D01*
Y54172D01*
X106883Y54005D01*
X106548D01*
X106381Y54172D01*
Y54841D01*
X107385Y54005D02*
Y54674D01*
X107552D01*
X107720Y54507D01*
Y54005D01*
Y54507D01*
X107887Y54674D01*
X108054Y54507D01*
Y54005D01*
X108389D02*
Y54674D01*
X108556D01*
X108724Y54507D01*
Y54005D01*
Y54507D01*
X108891Y54674D01*
X109058Y54507D01*
Y54005D01*
X109393D02*
X109728Y54339D01*
Y54674D01*
X109393Y55009D01*
X93327Y51494D02*
X93662D01*
X93494D01*
Y52498D01*
X93327Y52330D01*
X94833Y52498D02*
X94499Y52330D01*
X94164Y51996D01*
Y51661D01*
X94331Y51494D01*
X94666D01*
X94833Y51661D01*
Y51828D01*
X94666Y51996D01*
X94164D01*
X95837Y52498D02*
X95168D01*
Y51996D01*
X95503Y52163D01*
X95670D01*
X95837Y51996D01*
Y51661D01*
X95670Y51494D01*
X95335D01*
X95168Y51661D01*
X96172Y51494D02*
Y51661D01*
X96339D01*
Y51494D01*
X96172D01*
X97009Y52330D02*
X97176Y52498D01*
X97511D01*
X97678Y52330D01*
Y52163D01*
X97511Y51996D01*
X97344D01*
X97511D01*
X97678Y51828D01*
Y51661D01*
X97511Y51494D01*
X97176D01*
X97009Y51661D01*
X98682Y52498D02*
X98013D01*
Y51996D01*
X98348Y52163D01*
X98515D01*
X98682Y51996D01*
Y51661D01*
X98515Y51494D01*
X98180D01*
X98013Y51661D01*
X99017Y51494D02*
Y52163D01*
X99184D01*
X99352Y51996D01*
Y51494D01*
Y51996D01*
X99519Y52163D01*
X99687Y51996D01*
Y51494D01*
X100021D02*
X100356D01*
X100189D01*
Y52163D01*
X100021D01*
X100858Y51494D02*
X101193D01*
X101025D01*
Y52498D01*
X100858D01*
X103034Y51494D02*
X102699Y51828D01*
Y52163D01*
X103034Y52498D01*
X104038Y51494D02*
Y52498D01*
X103536Y51996D01*
X104205D01*
X104540Y51494D02*
Y51661D01*
X104707D01*
Y51494D01*
X104540D01*
X106046D02*
X105377D01*
X106046Y52163D01*
Y52330D01*
X105879Y52498D01*
X105544D01*
X105377Y52330D01*
X106381D02*
X106548Y52498D01*
X106883D01*
X107050Y52330D01*
Y51661D01*
X106883Y51494D01*
X106548D01*
X106381Y51661D01*
Y52330D01*
X107385D02*
X107552Y52498D01*
X107887D01*
X108054Y52330D01*
Y51661D01*
X107887Y51494D01*
X107552D01*
X107385Y51661D01*
Y52330D01*
X108389Y51494D02*
Y52163D01*
X108556D01*
X108724Y51996D01*
Y51494D01*
Y51996D01*
X108891Y52163D01*
X109058Y51996D01*
Y51494D01*
X109393D02*
Y52163D01*
X109560D01*
X109728Y51996D01*
Y51494D01*
Y51996D01*
X109895Y52163D01*
X110063Y51996D01*
Y51494D01*
X110397D02*
X110732Y51828D01*
Y52163D01*
X110397Y52498D01*
X93327Y49819D02*
X93494Y49987D01*
X93829D01*
X93996Y49819D01*
Y49652D01*
X93829Y49484D01*
X93662D01*
X93829D01*
X93996Y49317D01*
Y49150D01*
X93829Y48982D01*
X93494D01*
X93327Y49150D01*
X94331Y48982D02*
X94666D01*
X94499D01*
Y49987D01*
X94331Y49819D01*
X95168Y48982D02*
Y49150D01*
X95335D01*
Y48982D01*
X95168D01*
X96674Y49987D02*
X96005D01*
Y49484D01*
X96339Y49652D01*
X96507D01*
X96674Y49484D01*
Y49150D01*
X96507Y48982D01*
X96172D01*
X96005Y49150D01*
X97009Y49819D02*
X97176Y49987D01*
X97511D01*
X97678Y49819D01*
Y49150D01*
X97511Y48982D01*
X97176D01*
X97009Y49150D01*
Y49819D01*
X98013Y48982D02*
Y49652D01*
X98180D01*
X98348Y49484D01*
Y48982D01*
Y49484D01*
X98515Y49652D01*
X98682Y49484D01*
Y48982D01*
X99017D02*
X99352D01*
X99184D01*
Y49652D01*
X99017D01*
X99854Y48982D02*
X100189D01*
X100021D01*
Y49987D01*
X99854D01*
X102029Y48982D02*
X101695Y49317D01*
Y49652D01*
X102029Y49987D01*
X102532Y49819D02*
X102699Y49987D01*
X103034D01*
X103201Y49819D01*
Y49150D01*
X103034Y48982D01*
X102699D01*
X102532Y49150D01*
Y49819D01*
X103536Y48982D02*
Y49150D01*
X103703D01*
Y48982D01*
X103536D01*
X104372Y49819D02*
X104540Y49987D01*
X104875D01*
X105042Y49819D01*
Y49652D01*
X104875Y49484D01*
X105042Y49317D01*
Y49150D01*
X104875Y48982D01*
X104540D01*
X104372Y49150D01*
Y49317D01*
X104540Y49484D01*
X104372Y49652D01*
Y49819D01*
X104540Y49484D02*
X104875D01*
X105377Y49819D02*
X105544Y49987D01*
X105879D01*
X106046Y49819D01*
Y49150D01*
X105879Y48982D01*
X105544D01*
X105377Y49150D01*
Y49819D01*
X106381D02*
X106548Y49987D01*
X106883D01*
X107050Y49819D01*
Y49150D01*
X106883Y48982D01*
X106548D01*
X106381Y49150D01*
Y49819D01*
X107385Y48982D02*
Y49652D01*
X107552D01*
X107720Y49484D01*
Y48982D01*
Y49484D01*
X107887Y49652D01*
X108054Y49484D01*
Y48982D01*
X108389D02*
Y49652D01*
X108556D01*
X108724Y49484D01*
Y48982D01*
Y49484D01*
X108891Y49652D01*
X109058Y49484D01*
Y48982D01*
X109393D02*
X109728Y49317D01*
Y49652D01*
X109393Y49987D01*
X93829Y46471D02*
Y47475D01*
X93327Y46973D01*
X93996D01*
X95001Y47475D02*
X94666Y47308D01*
X94331Y46973D01*
Y46639D01*
X94499Y46471D01*
X94833D01*
X95001Y46639D01*
Y46806D01*
X94833Y46973D01*
X94331D01*
X95335Y46471D02*
Y46639D01*
X95503D01*
Y46471D01*
X95335D01*
X96172Y47308D02*
X96339Y47475D01*
X96674D01*
X96841Y47308D01*
Y46639D01*
X96674Y46471D01*
X96339D01*
X96172Y46639D01*
Y47308D01*
X97176D02*
X97344Y47475D01*
X97678D01*
X97846Y47308D01*
Y46639D01*
X97678Y46471D01*
X97344D01*
X97176Y46639D01*
Y47308D01*
X98180Y46471D02*
Y47141D01*
X98348D01*
X98515Y46973D01*
Y46471D01*
Y46973D01*
X98682Y47141D01*
X98850Y46973D01*
Y46471D01*
X99184D02*
X99519D01*
X99352D01*
Y47141D01*
X99184D01*
X100021Y46471D02*
X100356D01*
X100189D01*
Y47475D01*
X100021D01*
X102197Y46471D02*
X101862Y46806D01*
Y47141D01*
X102197Y47475D01*
X102699Y46471D02*
X103034D01*
X102866D01*
Y47475D01*
X102699Y47308D01*
X103536Y46471D02*
Y46639D01*
X103703D01*
Y46471D01*
X103536D01*
X104372D02*
X104707D01*
X104540D01*
Y47475D01*
X104372Y47308D01*
X105879Y47475D02*
X105544Y47308D01*
X105209Y46973D01*
Y46639D01*
X105377Y46471D01*
X105711D01*
X105879Y46639D01*
Y46806D01*
X105711Y46973D01*
X105209D01*
X106213Y47308D02*
X106381Y47475D01*
X106715D01*
X106883Y47308D01*
Y47141D01*
X106715Y46973D01*
X106883Y46806D01*
Y46639D01*
X106715Y46471D01*
X106381D01*
X106213Y46639D01*
Y46806D01*
X106381Y46973D01*
X106213Y47141D01*
Y47308D01*
X106381Y46973D02*
X106715D01*
X107217Y46471D02*
Y47141D01*
X107385D01*
X107552Y46973D01*
Y46471D01*
Y46973D01*
X107720Y47141D01*
X107887Y46973D01*
Y46471D01*
X108222D02*
Y47141D01*
X108389D01*
X108556Y46973D01*
Y46471D01*
Y46973D01*
X108724Y47141D01*
X108891Y46973D01*
Y46471D01*
X109226D02*
X109560Y46806D01*
Y47141D01*
X109226Y47475D01*
X93327Y43960D02*
X93662D01*
X93494D01*
Y44964D01*
X93327Y44797D01*
X94833Y43960D02*
X94164D01*
X94833Y44630D01*
Y44797D01*
X94666Y44964D01*
X94331D01*
X94164Y44797D01*
X95168Y44964D02*
X95837D01*
Y44797D01*
X95168Y44128D01*
Y43960D01*
X96172D02*
Y44128D01*
X96339D01*
Y43960D01*
X96172D01*
X97009Y44128D02*
X97176Y43960D01*
X97511D01*
X97678Y44128D01*
Y44797D01*
X97511Y44964D01*
X97176D01*
X97009Y44797D01*
Y44630D01*
X97176Y44462D01*
X97678D01*
X98682Y44964D02*
X98013D01*
Y44462D01*
X98348Y44630D01*
X98515D01*
X98682Y44462D01*
Y44128D01*
X98515Y43960D01*
X98180D01*
X98013Y44128D01*
X99017Y43960D02*
Y44630D01*
X99184D01*
X99352Y44462D01*
Y43960D01*
Y44462D01*
X99519Y44630D01*
X99687Y44462D01*
Y43960D01*
X100021D02*
X100356D01*
X100189D01*
Y44630D01*
X100021D01*
X100858Y43960D02*
X101193D01*
X101025D01*
Y44964D01*
X100858D01*
X103034Y43960D02*
X102699Y44295D01*
Y44630D01*
X103034Y44964D01*
X103536Y44797D02*
X103703Y44964D01*
X104038D01*
X104205Y44797D01*
Y44630D01*
X104038Y44462D01*
X103870D01*
X104038D01*
X104205Y44295D01*
Y44128D01*
X104038Y43960D01*
X103703D01*
X103536Y44128D01*
X104540Y43960D02*
Y44128D01*
X104707D01*
Y43960D01*
X104540D01*
X106046D02*
X105377D01*
X106046Y44630D01*
Y44797D01*
X105879Y44964D01*
X105544D01*
X105377Y44797D01*
X107050Y44964D02*
X106381D01*
Y44462D01*
X106715Y44630D01*
X106883D01*
X107050Y44462D01*
Y44128D01*
X106883Y43960D01*
X106548D01*
X106381Y44128D01*
X107385Y44797D02*
X107552Y44964D01*
X107887D01*
X108054Y44797D01*
Y44128D01*
X107887Y43960D01*
X107552D01*
X107385Y44128D01*
Y44797D01*
X108389Y43960D02*
Y44630D01*
X108556D01*
X108724Y44462D01*
Y43960D01*
Y44462D01*
X108891Y44630D01*
X109058Y44462D01*
Y43960D01*
X109393D02*
Y44630D01*
X109560D01*
X109728Y44462D01*
Y43960D01*
Y44462D01*
X109895Y44630D01*
X110063Y44462D01*
Y43960D01*
X110397D02*
X110732Y44295D01*
Y44630D01*
X110397Y44964D01*
X93996Y42453D02*
X93662Y42286D01*
X93327Y41951D01*
Y41616D01*
X93494Y41449D01*
X93829D01*
X93996Y41616D01*
Y41784D01*
X93829Y41951D01*
X93327D01*
X94331Y42453D02*
X95001D01*
Y42286D01*
X94331Y41616D01*
Y41449D01*
X95335D02*
Y41616D01*
X95503D01*
Y41449D01*
X95335D01*
X96172Y42286D02*
X96339Y42453D01*
X96674D01*
X96841Y42286D01*
Y41616D01*
X96674Y41449D01*
X96339D01*
X96172Y41616D01*
Y42286D01*
X97176D02*
X97344Y42453D01*
X97678D01*
X97846Y42286D01*
Y41616D01*
X97678Y41449D01*
X97344D01*
X97176Y41616D01*
Y42286D01*
X98180Y41449D02*
Y42118D01*
X98348D01*
X98515Y41951D01*
Y41449D01*
Y41951D01*
X98682Y42118D01*
X98850Y41951D01*
Y41449D01*
X99184D02*
X99519D01*
X99352D01*
Y42118D01*
X99184D01*
X100021Y41449D02*
X100356D01*
X100189D01*
Y42453D01*
X100021D01*
X102197Y41449D02*
X101862Y41784D01*
Y42118D01*
X102197Y42453D01*
X102699Y41449D02*
X103034D01*
X102866D01*
Y42453D01*
X102699Y42286D01*
X103536Y41449D02*
Y41616D01*
X103703D01*
Y41449D01*
X103536D01*
X104372Y42453D02*
X105042D01*
Y42286D01*
X104372Y41616D01*
Y41449D01*
X105377Y42286D02*
X105544Y42453D01*
X105879D01*
X106046Y42286D01*
Y41616D01*
X105879Y41449D01*
X105544D01*
X105377Y41616D01*
Y42286D01*
X107050Y41449D02*
X106381D01*
X107050Y42118D01*
Y42286D01*
X106883Y42453D01*
X106548D01*
X106381Y42286D01*
X107385Y41449D02*
Y42118D01*
X107552D01*
X107720Y41951D01*
Y41449D01*
Y41951D01*
X107887Y42118D01*
X108054Y41951D01*
Y41449D01*
X108389D02*
Y42118D01*
X108556D01*
X108724Y41951D01*
Y41449D01*
Y41951D01*
X108891Y42118D01*
X109058Y41951D01*
Y41449D01*
X109393D02*
X109728Y41784D01*
Y42118D01*
X109393Y42453D01*
X93829Y38938D02*
Y39942D01*
X93327Y39440D01*
X93996D01*
X94331Y39775D02*
X94499Y39942D01*
X94833D01*
X95001Y39775D01*
Y39607D01*
X94833Y39440D01*
X94666D01*
X94833D01*
X95001Y39273D01*
Y39105D01*
X94833Y38938D01*
X94499D01*
X94331Y39105D01*
X95335Y38938D02*
Y39105D01*
X95503D01*
Y38938D01*
X95335D01*
X96172Y39775D02*
X96339Y39942D01*
X96674D01*
X96841Y39775D01*
Y39607D01*
X96674Y39440D01*
X96507D01*
X96674D01*
X96841Y39273D01*
Y39105D01*
X96674Y38938D01*
X96339D01*
X96172Y39105D01*
X97176Y38938D02*
X97511D01*
X97344D01*
Y39942D01*
X97176Y39775D01*
X98013Y38938D02*
Y39607D01*
X98180D01*
X98348Y39440D01*
Y38938D01*
Y39440D01*
X98515Y39607D01*
X98682Y39440D01*
Y38938D01*
X99017D02*
X99352D01*
X99184D01*
Y39607D01*
X99017D01*
X99854Y38938D02*
X100189D01*
X100021D01*
Y39942D01*
X99854D01*
X102029Y38938D02*
X101695Y39273D01*
Y39607D01*
X102029Y39942D01*
X102532Y38938D02*
X102866D01*
X102699D01*
Y39942D01*
X102532Y39775D01*
X103368Y38938D02*
Y39105D01*
X103536D01*
Y38938D01*
X103368D01*
X104205D02*
X104540D01*
X104372D01*
Y39942D01*
X104205Y39775D01*
X105042D02*
X105209Y39942D01*
X105544D01*
X105711Y39775D01*
Y39105D01*
X105544Y38938D01*
X105209D01*
X105042Y39105D01*
Y39775D01*
X106046D02*
X106213Y39942D01*
X106548D01*
X106715Y39775D01*
Y39105D01*
X106548Y38938D01*
X106213D01*
X106046Y39105D01*
Y39775D01*
X107050Y38938D02*
Y39607D01*
X107217D01*
X107385Y39440D01*
Y38938D01*
Y39440D01*
X107552Y39607D01*
X107720Y39440D01*
Y38938D01*
X108054D02*
Y39607D01*
X108222D01*
X108389Y39440D01*
Y38938D01*
Y39440D01*
X108556Y39607D01*
X108724Y39440D01*
Y38938D01*
X109058D02*
X109393Y39273D01*
Y39607D01*
X109058Y39942D01*
X93327Y36427D02*
X93662D01*
X93494D01*
Y37431D01*
X93327Y37264D01*
X94833Y36427D02*
X94164D01*
X94833Y37096D01*
Y37264D01*
X94666Y37431D01*
X94331D01*
X94164Y37264D01*
X95168D02*
X95335Y37431D01*
X95670D01*
X95837Y37264D01*
Y36594D01*
X95670Y36427D01*
X95335D01*
X95168Y36594D01*
Y37264D01*
X96172Y36427D02*
Y36594D01*
X96339D01*
Y36427D01*
X96172D01*
X97009Y37264D02*
X97176Y37431D01*
X97511D01*
X97678Y37264D01*
Y36594D01*
X97511Y36427D01*
X97176D01*
X97009Y36594D01*
Y37264D01*
X98013D02*
X98180Y37431D01*
X98515D01*
X98682Y37264D01*
Y36594D01*
X98515Y36427D01*
X98180D01*
X98013Y36594D01*
Y37264D01*
X99017Y36427D02*
Y37096D01*
X99184D01*
X99352Y36929D01*
Y36427D01*
Y36929D01*
X99519Y37096D01*
X99687Y36929D01*
Y36427D01*
X100021D02*
X100356D01*
X100189D01*
Y37096D01*
X100021D01*
X100858Y36427D02*
X101193D01*
X101025D01*
Y37431D01*
X100858D01*
X103034Y36427D02*
X102699Y36761D01*
Y37096D01*
X103034Y37431D01*
X103536Y37264D02*
X103703Y37431D01*
X104038D01*
X104205Y37264D01*
Y37096D01*
X104038Y36929D01*
X103870D01*
X104038D01*
X104205Y36761D01*
Y36594D01*
X104038Y36427D01*
X103703D01*
X103536Y36594D01*
X104540Y36427D02*
Y36594D01*
X104707D01*
Y36427D01*
X104540D01*
X105377Y37264D02*
X105544Y37431D01*
X105879D01*
X106046Y37264D01*
Y36594D01*
X105879Y36427D01*
X105544D01*
X105377Y36594D01*
Y37264D01*
X106883Y36427D02*
Y37431D01*
X106381Y36929D01*
X107050D01*
X107385Y37264D02*
X107552Y37431D01*
X107887D01*
X108054Y37264D01*
Y37096D01*
X107887Y36929D01*
X108054Y36761D01*
Y36594D01*
X107887Y36427D01*
X107552D01*
X107385Y36594D01*
Y36761D01*
X107552Y36929D01*
X107385Y37096D01*
Y37264D01*
X107552Y36929D02*
X107887D01*
X108389Y36427D02*
Y37096D01*
X108556D01*
X108724Y36929D01*
Y36427D01*
Y36929D01*
X108891Y37096D01*
X109058Y36929D01*
Y36427D01*
X109393D02*
Y37096D01*
X109560D01*
X109728Y36929D01*
Y36427D01*
Y36929D01*
X109895Y37096D01*
X110063Y36929D01*
Y36427D01*
X110397D02*
X110732Y36761D01*
Y37096D01*
X110397Y37431D01*
X93327Y34752D02*
X93494Y34920D01*
X93829D01*
X93996Y34752D01*
Y34585D01*
X93829Y34418D01*
X93662D01*
X93829D01*
X93996Y34250D01*
Y34083D01*
X93829Y33916D01*
X93494D01*
X93327Y34083D01*
X95001Y34920D02*
X94331D01*
Y34418D01*
X94666Y34585D01*
X94833D01*
X95001Y34418D01*
Y34083D01*
X94833Y33916D01*
X94499D01*
X94331Y34083D01*
X95335Y33916D02*
Y34083D01*
X95503D01*
Y33916D01*
X95335D01*
X96172Y34752D02*
X96339Y34920D01*
X96674D01*
X96841Y34752D01*
Y34083D01*
X96674Y33916D01*
X96339D01*
X96172Y34083D01*
Y34752D01*
X97678Y33916D02*
Y34920D01*
X97176Y34418D01*
X97846D01*
X98180Y33916D02*
Y34585D01*
X98348D01*
X98515Y34418D01*
Y33916D01*
Y34418D01*
X98682Y34585D01*
X98850Y34418D01*
Y33916D01*
X99184D02*
X99519D01*
X99352D01*
Y34585D01*
X99184D01*
X100021Y33916D02*
X100356D01*
X100189D01*
Y34920D01*
X100021D01*
X102197Y33916D02*
X101862Y34250D01*
Y34585D01*
X102197Y34920D01*
X102699Y34752D02*
X102866Y34920D01*
X103201D01*
X103368Y34752D01*
Y34083D01*
X103201Y33916D01*
X102866D01*
X102699Y34083D01*
Y34752D01*
X103703Y33916D02*
Y34083D01*
X103870D01*
Y33916D01*
X103703D01*
X104540Y34752D02*
X104707Y34920D01*
X105042D01*
X105209Y34752D01*
Y34585D01*
X105042Y34418D01*
X105209Y34250D01*
Y34083D01*
X105042Y33916D01*
X104707D01*
X104540Y34083D01*
Y34250D01*
X104707Y34418D01*
X104540Y34585D01*
Y34752D01*
X104707Y34418D02*
X105042D01*
X105544Y34083D02*
X105711Y33916D01*
X106046D01*
X106213Y34083D01*
Y34752D01*
X106046Y34920D01*
X105711D01*
X105544Y34752D01*
Y34585D01*
X105711Y34418D01*
X106213D01*
X106548Y34752D02*
X106715Y34920D01*
X107050D01*
X107217Y34752D01*
Y34083D01*
X107050Y33916D01*
X106715D01*
X106548Y34083D01*
Y34752D01*
X107552Y33916D02*
Y34585D01*
X107720D01*
X107887Y34418D01*
Y33916D01*
Y34418D01*
X108054Y34585D01*
X108222Y34418D01*
Y33916D01*
X108556D02*
Y34585D01*
X108724D01*
X108891Y34418D01*
Y33916D01*
Y34418D01*
X109058Y34585D01*
X109226Y34418D01*
Y33916D01*
X109560D02*
X109895Y34250D01*
Y34585D01*
X109560Y34920D01*
X93996Y31405D02*
X93327D01*
X93996Y32074D01*
Y32241D01*
X93829Y32409D01*
X93494D01*
X93327Y32241D01*
X94331D02*
X94499Y32409D01*
X94833D01*
X95001Y32241D01*
Y32074D01*
X94833Y31907D01*
X95001Y31739D01*
Y31572D01*
X94833Y31405D01*
X94499D01*
X94331Y31572D01*
Y31739D01*
X94499Y31907D01*
X94331Y32074D01*
Y32241D01*
X94499Y31907D02*
X94833D01*
X95335Y31405D02*
Y31572D01*
X95503D01*
Y31405D01*
X95335D01*
X96172Y32241D02*
X96339Y32409D01*
X96674D01*
X96841Y32241D01*
Y31572D01*
X96674Y31405D01*
X96339D01*
X96172Y31572D01*
Y32241D01*
X97176D02*
X97344Y32409D01*
X97678D01*
X97846Y32241D01*
Y31572D01*
X97678Y31405D01*
X97344D01*
X97176Y31572D01*
Y32241D01*
X98180Y31405D02*
Y32074D01*
X98348D01*
X98515Y31907D01*
Y31405D01*
Y31907D01*
X98682Y32074D01*
X98850Y31907D01*
Y31405D01*
X99184D02*
X99519D01*
X99352D01*
Y32074D01*
X99184D01*
X100021Y31405D02*
X100356D01*
X100189D01*
Y32409D01*
X100021D01*
X102197Y31405D02*
X101862Y31739D01*
Y32074D01*
X102197Y32409D01*
X102699Y32241D02*
X102866Y32409D01*
X103201D01*
X103368Y32241D01*
Y31572D01*
X103201Y31405D01*
X102866D01*
X102699Y31572D01*
Y32241D01*
X103703Y31405D02*
Y31572D01*
X103870D01*
Y31405D01*
X103703D01*
X104540Y32409D02*
X105209D01*
Y32241D01*
X104540Y31572D01*
Y31405D01*
X105544D02*
X105879D01*
X105711D01*
Y32409D01*
X105544Y32241D01*
X106381Y31405D02*
X106715D01*
X106548D01*
Y32409D01*
X106381Y32241D01*
X107217Y31405D02*
Y32074D01*
X107385D01*
X107552Y31907D01*
Y31405D01*
Y31907D01*
X107720Y32074D01*
X107887Y31907D01*
Y31405D01*
X108222D02*
Y32074D01*
X108389D01*
X108556Y31907D01*
Y31405D01*
Y31907D01*
X108724Y32074D01*
X108891Y31907D01*
Y31405D01*
X109226D02*
X109560Y31739D01*
Y32074D01*
X109226Y32409D01*
X93327Y28893D02*
X93662D01*
X93494D01*
Y29898D01*
X93327Y29730D01*
X94833Y29898D02*
X94499Y29730D01*
X94164Y29395D01*
Y29061D01*
X94331Y28893D01*
X94666D01*
X94833Y29061D01*
Y29228D01*
X94666Y29395D01*
X94164D01*
X95168Y28893D02*
X95503D01*
X95335D01*
Y29898D01*
X95168Y29730D01*
X96005Y28893D02*
Y29061D01*
X96172D01*
Y28893D01*
X96005D01*
X97344D02*
Y29898D01*
X96841Y29395D01*
X97511D01*
X98515Y28893D02*
X97846D01*
X98515Y29563D01*
Y29730D01*
X98348Y29898D01*
X98013D01*
X97846Y29730D01*
X98850Y28893D02*
Y29563D01*
X99017D01*
X99184Y29395D01*
Y28893D01*
Y29395D01*
X99352Y29563D01*
X99519Y29395D01*
Y28893D01*
X99854D02*
X100189D01*
X100021D01*
Y29563D01*
X99854D01*
X100691Y28893D02*
X101025D01*
X100858D01*
Y29898D01*
X100691D01*
X102866Y28893D02*
X102532Y29228D01*
Y29563D01*
X102866Y29898D01*
X103870Y28893D02*
Y29898D01*
X103368Y29395D01*
X104038D01*
X104372Y28893D02*
Y29061D01*
X104540D01*
Y28893D01*
X104372D01*
X105209D02*
X105544D01*
X105377D01*
Y29898D01*
X105209Y29730D01*
X106046D02*
X106213Y29898D01*
X106548D01*
X106715Y29730D01*
Y29061D01*
X106548Y28893D01*
X106213D01*
X106046Y29061D01*
Y29730D01*
X107050D02*
X107217Y29898D01*
X107552D01*
X107720Y29730D01*
Y29061D01*
X107552Y28893D01*
X107217D01*
X107050Y29061D01*
Y29730D01*
X108054Y28893D02*
Y29563D01*
X108222D01*
X108389Y29395D01*
Y28893D01*
Y29395D01*
X108556Y29563D01*
X108724Y29395D01*
Y28893D01*
X109058D02*
Y29563D01*
X109226D01*
X109393Y29395D01*
Y28893D01*
Y29395D01*
X109560Y29563D01*
X109728Y29395D01*
Y28893D01*
X110063D02*
X110397Y29228D01*
Y29563D01*
X110063Y29898D01*
X93996Y26382D02*
X93327D01*
X93996Y27052D01*
Y27219D01*
X93829Y27386D01*
X93494D01*
X93327Y27219D01*
X94331D02*
X94499Y27386D01*
X94833D01*
X95001Y27219D01*
Y27052D01*
X94833Y26884D01*
X95001Y26717D01*
Y26550D01*
X94833Y26382D01*
X94499D01*
X94331Y26550D01*
Y26717D01*
X94499Y26884D01*
X94331Y27052D01*
Y27219D01*
X94499Y26884D02*
X94833D01*
X95335Y26382D02*
Y26550D01*
X95503D01*
Y26382D01*
X95335D01*
X96172Y27219D02*
X96339Y27386D01*
X96674D01*
X96841Y27219D01*
Y26550D01*
X96674Y26382D01*
X96339D01*
X96172Y26550D01*
Y27219D01*
X97176D02*
X97344Y27386D01*
X97678D01*
X97846Y27219D01*
Y26550D01*
X97678Y26382D01*
X97344D01*
X97176Y26550D01*
Y27219D01*
X98180Y26382D02*
Y27052D01*
X98348D01*
X98515Y26884D01*
Y26382D01*
Y26884D01*
X98682Y27052D01*
X98850Y26884D01*
Y26382D01*
X99184D02*
X99519D01*
X99352D01*
Y27052D01*
X99184D01*
X100021Y26382D02*
X100356D01*
X100189D01*
Y27386D01*
X100021D01*
X102197Y26382D02*
X101862Y26717D01*
Y27052D01*
X102197Y27386D01*
X102699Y27219D02*
X102866Y27386D01*
X103201D01*
X103368Y27219D01*
Y26550D01*
X103201Y26382D01*
X102866D01*
X102699Y26550D01*
Y27219D01*
X103703Y26382D02*
Y26550D01*
X103870D01*
Y26382D01*
X103703D01*
X104540Y27386D02*
X105209D01*
Y27219D01*
X104540Y26550D01*
Y26382D01*
X105544D02*
X105879D01*
X105711D01*
Y27386D01*
X105544Y27219D01*
X106381Y26382D02*
X106715D01*
X106548D01*
Y27386D01*
X106381Y27219D01*
X107217Y26382D02*
Y27052D01*
X107385D01*
X107552Y26884D01*
Y26382D01*
Y26884D01*
X107720Y27052D01*
X107887Y26884D01*
Y26382D01*
X108222D02*
Y27052D01*
X108389D01*
X108556Y26884D01*
Y26382D01*
Y26884D01*
X108724Y27052D01*
X108891Y26884D01*
Y26382D01*
X109226D02*
X109560Y26717D01*
Y27052D01*
X109226Y27386D01*
X93996Y23871D02*
X93327D01*
X93996Y24541D01*
Y24708D01*
X93829Y24875D01*
X93494D01*
X93327Y24708D01*
X94331D02*
X94499Y24875D01*
X94833D01*
X95001Y24708D01*
Y24038D01*
X94833Y23871D01*
X94499D01*
X94331Y24038D01*
Y24708D01*
X95335Y23871D02*
Y24038D01*
X95503D01*
Y23871D01*
X95335D01*
X96172Y24708D02*
X96339Y24875D01*
X96674D01*
X96841Y24708D01*
Y24038D01*
X96674Y23871D01*
X96339D01*
X96172Y24038D01*
Y24708D01*
X97176D02*
X97344Y24875D01*
X97678D01*
X97846Y24708D01*
Y24038D01*
X97678Y23871D01*
X97344D01*
X97176Y24038D01*
Y24708D01*
X98180Y23871D02*
Y24541D01*
X98348D01*
X98515Y24373D01*
Y23871D01*
Y24373D01*
X98682Y24541D01*
X98850Y24373D01*
Y23871D01*
X99184D02*
X99519D01*
X99352D01*
Y24541D01*
X99184D01*
X100021Y23871D02*
X100356D01*
X100189D01*
Y24875D01*
X100021D01*
X102197Y23871D02*
X101862Y24206D01*
Y24541D01*
X102197Y24875D01*
X102699Y24708D02*
X102866Y24875D01*
X103201D01*
X103368Y24708D01*
Y24038D01*
X103201Y23871D01*
X102866D01*
X102699Y24038D01*
Y24708D01*
X103703Y23871D02*
Y24038D01*
X103870D01*
Y23871D01*
X103703D01*
X105209Y24875D02*
X104540D01*
Y24373D01*
X104875Y24541D01*
X105042D01*
X105209Y24373D01*
Y24038D01*
X105042Y23871D01*
X104707D01*
X104540Y24038D01*
X105544Y24708D02*
X105711Y24875D01*
X106046D01*
X106213Y24708D01*
Y24038D01*
X106046Y23871D01*
X105711D01*
X105544Y24038D01*
Y24708D01*
X106548D02*
X106715Y24875D01*
X107050D01*
X107217Y24708D01*
Y24541D01*
X107050Y24373D01*
X107217Y24206D01*
Y24038D01*
X107050Y23871D01*
X106715D01*
X106548Y24038D01*
Y24206D01*
X106715Y24373D01*
X106548Y24541D01*
Y24708D01*
X106715Y24373D02*
X107050D01*
X107552Y23871D02*
Y24541D01*
X107720D01*
X107887Y24373D01*
Y23871D01*
Y24373D01*
X108054Y24541D01*
X108222Y24373D01*
Y23871D01*
X108556D02*
Y24541D01*
X108724D01*
X108891Y24373D01*
Y23871D01*
Y24373D01*
X109058Y24541D01*
X109226Y24373D01*
Y23871D01*
X109560D02*
X109895Y24206D01*
Y24541D01*
X109560Y24875D01*
X93327Y22197D02*
X93494Y22364D01*
X93829D01*
X93996Y22197D01*
Y22029D01*
X93829Y21862D01*
X93662D01*
X93829D01*
X93996Y21695D01*
Y21527D01*
X93829Y21360D01*
X93494D01*
X93327Y21527D01*
X94331Y22197D02*
X94499Y22364D01*
X94833D01*
X95001Y22197D01*
Y22029D01*
X94833Y21862D01*
X95001Y21695D01*
Y21527D01*
X94833Y21360D01*
X94499D01*
X94331Y21527D01*
Y21695D01*
X94499Y21862D01*
X94331Y22029D01*
Y22197D01*
X94499Y21862D02*
X94833D01*
X95335Y21360D02*
Y21527D01*
X95503D01*
Y21360D01*
X95335D01*
X96172Y22197D02*
X96339Y22364D01*
X96674D01*
X96841Y22197D01*
Y21527D01*
X96674Y21360D01*
X96339D01*
X96172Y21527D01*
Y22197D01*
X97176D02*
X97344Y22364D01*
X97678D01*
X97846Y22197D01*
Y21527D01*
X97678Y21360D01*
X97344D01*
X97176Y21527D01*
Y22197D01*
X98180Y21360D02*
Y22029D01*
X98348D01*
X98515Y21862D01*
Y21360D01*
Y21862D01*
X98682Y22029D01*
X98850Y21862D01*
Y21360D01*
X99184D02*
X99519D01*
X99352D01*
Y22029D01*
X99184D01*
X100021Y21360D02*
X100356D01*
X100189D01*
Y22364D01*
X100021D01*
X102197Y21360D02*
X101862Y21695D01*
Y22029D01*
X102197Y22364D01*
X102699Y22197D02*
X102866Y22364D01*
X103201D01*
X103368Y22197D01*
Y21527D01*
X103201Y21360D01*
X102866D01*
X102699Y21527D01*
Y22197D01*
X103703Y21360D02*
Y21527D01*
X103870D01*
Y21360D01*
X103703D01*
X104540Y21527D02*
X104707Y21360D01*
X105042D01*
X105209Y21527D01*
Y22197D01*
X105042Y22364D01*
X104707D01*
X104540Y22197D01*
Y22029D01*
X104707Y21862D01*
X105209D01*
X106213Y22364D02*
X105879Y22197D01*
X105544Y21862D01*
Y21527D01*
X105711Y21360D01*
X106046D01*
X106213Y21527D01*
Y21695D01*
X106046Y21862D01*
X105544D01*
X107217Y22364D02*
X106548D01*
Y21862D01*
X106883Y22029D01*
X107050D01*
X107217Y21862D01*
Y21527D01*
X107050Y21360D01*
X106715D01*
X106548Y21527D01*
X107552Y21360D02*
Y22029D01*
X107720D01*
X107887Y21862D01*
Y21360D01*
Y21862D01*
X108054Y22029D01*
X108222Y21862D01*
Y21360D01*
X108556D02*
Y22029D01*
X108724D01*
X108891Y21862D01*
Y21360D01*
Y21862D01*
X109058Y22029D01*
X109226Y21862D01*
Y21360D01*
X109560D02*
X109895Y21695D01*
Y22029D01*
X109560Y22364D01*
X93327Y19686D02*
X93494Y19853D01*
X93829D01*
X93996Y19686D01*
Y19518D01*
X93829Y19351D01*
X93662D01*
X93829D01*
X93996Y19184D01*
Y19016D01*
X93829Y18849D01*
X93494D01*
X93327Y19016D01*
X94331Y19853D02*
X95001D01*
Y19686D01*
X94331Y19016D01*
Y18849D01*
X95335D02*
Y19016D01*
X95503D01*
Y18849D01*
X95335D01*
X96172Y19686D02*
X96339Y19853D01*
X96674D01*
X96841Y19686D01*
Y19016D01*
X96674Y18849D01*
X96339D01*
X96172Y19016D01*
Y19686D01*
X97176D02*
X97344Y19853D01*
X97678D01*
X97846Y19686D01*
Y19016D01*
X97678Y18849D01*
X97344D01*
X97176Y19016D01*
Y19686D01*
X98180Y18849D02*
Y19518D01*
X98348D01*
X98515Y19351D01*
Y18849D01*
Y19351D01*
X98682Y19518D01*
X98850Y19351D01*
Y18849D01*
X99184D02*
X99519D01*
X99352D01*
Y19518D01*
X99184D01*
X100021Y18849D02*
X100356D01*
X100189D01*
Y19853D01*
X100021D01*
X102197Y18849D02*
X101862Y19184D01*
Y19518D01*
X102197Y19853D01*
X102699Y19686D02*
X102866Y19853D01*
X103201D01*
X103368Y19686D01*
Y19016D01*
X103201Y18849D01*
X102866D01*
X102699Y19016D01*
Y19686D01*
X103703Y18849D02*
Y19016D01*
X103870D01*
Y18849D01*
X103703D01*
X104540Y19016D02*
X104707Y18849D01*
X105042D01*
X105209Y19016D01*
Y19686D01*
X105042Y19853D01*
X104707D01*
X104540Y19686D01*
Y19518D01*
X104707Y19351D01*
X105209D01*
X106046Y18849D02*
Y19853D01*
X105544Y19351D01*
X106213D01*
X106548Y19686D02*
X106715Y19853D01*
X107050D01*
X107217Y19686D01*
Y19016D01*
X107050Y18849D01*
X106715D01*
X106548Y19016D01*
Y19686D01*
X107552Y18849D02*
Y19518D01*
X107720D01*
X107887Y19351D01*
Y18849D01*
Y19351D01*
X108054Y19518D01*
X108222Y19351D01*
Y18849D01*
X108556D02*
Y19518D01*
X108724D01*
X108891Y19351D01*
Y18849D01*
Y19351D01*
X109058Y19518D01*
X109226Y19351D01*
Y18849D01*
X109560D02*
X109895Y19184D01*
Y19518D01*
X109560Y19853D01*
X84089Y16338D02*
X83420D01*
X84089Y17007D01*
Y17175D01*
X83922Y17342D01*
X83587D01*
X83420Y17175D01*
X84424D02*
X84591Y17342D01*
X84926D01*
X85094Y17175D01*
Y17007D01*
X84926Y16840D01*
X84759D01*
X84926D01*
X85094Y16672D01*
Y16505D01*
X84926Y16338D01*
X84591D01*
X84424Y16505D01*
X85428Y17175D02*
X85596Y17342D01*
X85930D01*
X86098Y17175D01*
Y17007D01*
X85930Y16840D01*
X86098Y16672D01*
Y16505D01*
X85930Y16338D01*
X85596D01*
X85428Y16505D01*
Y16672D01*
X85596Y16840D01*
X85428Y17007D01*
Y17175D01*
X85596Y16840D02*
X85930D01*
X87437Y17342D02*
X88106D01*
X87771D01*
Y16338D01*
X88608D02*
X88943D01*
X89110Y16505D01*
Y16840D01*
X88943Y17007D01*
X88608D01*
X88441Y16840D01*
Y16505D01*
X88608Y16338D01*
X89612Y17175D02*
Y17007D01*
X89445D01*
X89779D01*
X89612D01*
Y16505D01*
X89779Y16338D01*
X90449Y17007D02*
X90784D01*
X90951Y16840D01*
Y16338D01*
X90449D01*
X90282Y16505D01*
X90449Y16672D01*
X90951D01*
X91286Y16338D02*
X91620D01*
X91453D01*
Y17342D01*
X91286D01*
X83420Y54005D02*
X83755D01*
X83587D01*
Y55009D01*
X83420Y54841D01*
Y51494D02*
X83755D01*
X83587D01*
Y52498D01*
X83420Y52330D01*
X84089Y48982D02*
X83420D01*
X84089Y49652D01*
Y49819D01*
X83922Y49987D01*
X83587D01*
X83420Y49819D01*
X84089Y46471D02*
X83420D01*
X84089Y47141D01*
Y47308D01*
X83922Y47475D01*
X83587D01*
X83420Y47308D01*
X84089Y43960D02*
X83420D01*
X84089Y44630D01*
Y44797D01*
X83922Y44964D01*
X83587D01*
X83420Y44797D01*
Y42286D02*
X83587Y42453D01*
X83922D01*
X84089Y42286D01*
Y42118D01*
X83922Y41951D01*
X83755D01*
X83922D01*
X84089Y41784D01*
Y41616D01*
X83922Y41449D01*
X83587D01*
X83420Y41616D01*
X83922Y38938D02*
Y39942D01*
X83420Y39440D01*
X84089D01*
X83922Y36427D02*
Y37431D01*
X83420Y36929D01*
X84089D01*
Y34920D02*
X83420D01*
Y34418D01*
X83755Y34585D01*
X83922D01*
X84089Y34418D01*
Y34083D01*
X83922Y33916D01*
X83587D01*
X83420Y34083D01*
Y32241D02*
X83587Y32409D01*
X83922D01*
X84089Y32241D01*
Y32074D01*
X83922Y31907D01*
X84089Y31739D01*
Y31572D01*
X83922Y31405D01*
X83587D01*
X83420Y31572D01*
Y31739D01*
X83587Y31907D01*
X83420Y32074D01*
Y32241D01*
X83587Y31907D02*
X83922D01*
X83420Y29730D02*
X83587Y29898D01*
X83922D01*
X84089Y29730D01*
Y29563D01*
X83922Y29395D01*
X84089Y29228D01*
Y29061D01*
X83922Y28893D01*
X83587D01*
X83420Y29061D01*
Y29228D01*
X83587Y29395D01*
X83420Y29563D01*
Y29730D01*
X83587Y29395D02*
X83922D01*
X83420Y26382D02*
X83755D01*
X83587D01*
Y27386D01*
X83420Y27219D01*
X84926Y26382D02*
X84257D01*
X84926Y27052D01*
Y27219D01*
X84759Y27386D01*
X84424D01*
X84257Y27219D01*
X83922Y23871D02*
Y24875D01*
X83420Y24373D01*
X84089D01*
X85094Y24875D02*
X84424D01*
Y24373D01*
X84759Y24541D01*
X84926D01*
X85094Y24373D01*
Y24038D01*
X84926Y23871D01*
X84591D01*
X84424Y24038D01*
X83922Y21360D02*
Y22364D01*
X83420Y21862D01*
X84089D01*
X84424Y22197D02*
X84591Y22364D01*
X84926D01*
X85094Y22197D01*
Y22029D01*
X84926Y21862D01*
X85094Y21695D01*
Y21527D01*
X84926Y21360D01*
X84591D01*
X84424Y21527D01*
Y21695D01*
X84591Y21862D01*
X84424Y22029D01*
Y22197D01*
X84591Y21862D02*
X84926D01*
X83420Y19016D02*
X83587Y18849D01*
X83922D01*
X84089Y19016D01*
Y19686D01*
X83922Y19853D01*
X83587D01*
X83420Y19686D01*
Y19518D01*
X83587Y19351D01*
X84089D01*
X84424Y19686D02*
X84591Y19853D01*
X84926D01*
X85094Y19686D01*
Y19518D01*
X84926Y19351D01*
X84759D01*
X84926D01*
X85094Y19184D01*
Y19016D01*
X84926Y18849D01*
X84591D01*
X84424Y19016D01*
X74726Y55021D02*
Y53905D01*
X75470D01*
X74726Y52509D02*
Y51394D01*
Y51952D01*
X75470D01*
Y52509D01*
Y51394D01*
X74726Y48883D02*
Y49626D01*
X75098Y49998D01*
X75470Y49626D01*
Y48883D01*
Y49440D01*
X74726D01*
Y43860D02*
Y44976D01*
X75098Y44604D01*
X75470Y44976D01*
Y43860D01*
Y42465D02*
X74726D01*
Y41907D01*
X75098D01*
X74726D01*
Y41349D01*
X74912Y39954D02*
X75284D01*
X75098D01*
Y38838D01*
X74912D01*
X75284D01*
X74726Y34932D02*
Y33816D01*
Y34188D01*
X75470Y34932D01*
X74912Y34374D01*
X75470Y33816D01*
Y29723D02*
X75284Y29909D01*
X74912D01*
X74726Y29723D01*
Y28980D01*
X74912Y28794D01*
X75284D01*
X75470Y28980D01*
Y29351D01*
X75098D01*
X75284Y27398D02*
X74912D01*
X74726Y27212D01*
Y26468D01*
X74912Y26282D01*
X75284D01*
X75470Y26468D01*
Y27212D01*
X75284Y27398D01*
X74726Y23771D02*
Y24887D01*
X75470Y23771D01*
Y24887D01*
X74726Y22376D02*
Y21260D01*
X75284D01*
X75470Y21446D01*
Y21632D01*
X75284Y21818D01*
X74726D01*
X75284D01*
X75470Y22004D01*
Y22190D01*
X75284Y22376D01*
X74726D01*
X75470Y19679D02*
X75284Y19865D01*
X74912D01*
X74726Y19679D01*
Y18935D01*
X74912Y18749D01*
X75284D01*
X75470Y18935D01*
X74130Y7690D02*
Y6940D01*
Y7690D02*
X74380D01*
X74487Y7654D01*
X74558Y7583D01*
X74594Y7511D01*
X74630Y7404D01*
Y7226D01*
X74594Y7119D01*
X74558Y7047D01*
X74487Y6976D01*
X74380Y6940D01*
X74130D01*
X75226Y7440D02*
Y6940D01*
Y7333D02*
X75155Y7404D01*
X75083Y7440D01*
X74976D01*
X74905Y7404D01*
X74833Y7333D01*
X74798Y7226D01*
Y7154D01*
X74833Y7047D01*
X74905Y6976D01*
X74976Y6940D01*
X75083D01*
X75155Y6976D01*
X75226Y7047D01*
X75426Y7440D02*
Y6940D01*
Y7297D02*
X75533Y7404D01*
X75605Y7440D01*
X75712D01*
X75783Y7404D01*
X75819Y7297D01*
Y6940D01*
X76087Y7690D02*
X76122Y7654D01*
X76158Y7690D01*
X76122Y7726D01*
X76087Y7690D01*
X76122Y7440D02*
Y6940D01*
X76290Y7226D02*
X76719D01*
Y7297D01*
X76683Y7368D01*
X76647Y7404D01*
X76576Y7440D01*
X76469D01*
X76397Y7404D01*
X76326Y7333D01*
X76290Y7226D01*
Y7154D01*
X76326Y7047D01*
X76397Y6976D01*
X76469Y6940D01*
X76576D01*
X76647Y6976D01*
X76719Y7047D01*
X76879Y7690D02*
Y6940D01*
X77626Y7690D02*
Y6940D01*
X78126Y7690D02*
Y6940D01*
X77626Y7333D02*
X78126D01*
X78761Y7440D02*
Y6940D01*
Y7333D02*
X78690Y7404D01*
X78618Y7440D01*
X78511D01*
X78440Y7404D01*
X78368Y7333D01*
X78333Y7226D01*
Y7154D01*
X78368Y7047D01*
X78440Y6976D01*
X78511Y6940D01*
X78618D01*
X78690Y6976D01*
X78761Y7047D01*
X78961Y7690D02*
Y6940D01*
Y7297D02*
X79068Y7404D01*
X79140Y7440D01*
X79247D01*
X79318Y7404D01*
X79354Y7297D01*
Y6940D01*
X79979Y7440D02*
Y6940D01*
Y7333D02*
X79907Y7404D01*
X79836Y7440D01*
X79729D01*
X79657Y7404D01*
X79586Y7333D01*
X79550Y7226D01*
Y7154D01*
X79586Y7047D01*
X79657Y6976D01*
X79729Y6940D01*
X79836D01*
X79907Y6976D01*
X79979Y7047D01*
X80322Y7690D02*
X80357Y7654D01*
X80393Y7690D01*
X80357Y7726D01*
X80322Y7690D01*
X80357Y7440D02*
Y6833D01*
X80322Y6726D01*
X80250Y6690D01*
X80179D01*
X74130Y6532D02*
Y5782D01*
Y6532D02*
X74380D01*
X74487Y6496D01*
X74558Y6425D01*
X74594Y6354D01*
X74630Y6247D01*
Y6068D01*
X74594Y5961D01*
X74558Y5889D01*
X74487Y5818D01*
X74380Y5782D01*
X74130D01*
X74798Y6068D02*
X75226D01*
Y6139D01*
X75190Y6211D01*
X75155Y6247D01*
X75083Y6282D01*
X74976D01*
X74905Y6247D01*
X74833Y6175D01*
X74798Y6068D01*
Y5997D01*
X74833Y5889D01*
X74905Y5818D01*
X74976Y5782D01*
X75083D01*
X75155Y5818D01*
X75226Y5889D01*
X75494Y6532D02*
Y5925D01*
X75530Y5818D01*
X75601Y5782D01*
X75673D01*
X75387Y6282D02*
X75637D01*
X75780Y6068D02*
X76208D01*
Y6139D01*
X76172Y6211D01*
X76137Y6247D01*
X76065Y6282D01*
X75958D01*
X75887Y6247D01*
X75815Y6175D01*
X75780Y6068D01*
Y5997D01*
X75815Y5889D01*
X75887Y5818D01*
X75958Y5782D01*
X76065D01*
X76137Y5818D01*
X76208Y5889D01*
X76369Y6282D02*
X76762Y5782D01*
Y6282D02*
X76369Y5782D01*
X78043Y6354D02*
X78008Y6425D01*
X77936Y6496D01*
X77865Y6532D01*
X77722D01*
X77651Y6496D01*
X77579Y6425D01*
X77544Y6354D01*
X77508Y6247D01*
Y6068D01*
X77544Y5961D01*
X77579Y5889D01*
X77651Y5818D01*
X77722Y5782D01*
X77865D01*
X77936Y5818D01*
X78008Y5889D01*
X78043Y5961D01*
X78433Y6282D02*
X78361Y6247D01*
X78290Y6175D01*
X78254Y6068D01*
Y5997D01*
X78290Y5889D01*
X78361Y5818D01*
X78433Y5782D01*
X78540D01*
X78611Y5818D01*
X78683Y5889D01*
X78718Y5997D01*
Y6068D01*
X78683Y6175D01*
X78611Y6247D01*
X78540Y6282D01*
X78433D01*
X78883D02*
Y5782D01*
Y6068D02*
X78918Y6175D01*
X78990Y6247D01*
X79061Y6282D01*
X79168D01*
X79236D02*
Y5532D01*
Y6175D02*
X79307Y6247D01*
X79379Y6282D01*
X79486D01*
X79557Y6247D01*
X79629Y6175D01*
X79665Y6068D01*
Y5997D01*
X79629Y5889D01*
X79557Y5818D01*
X79486Y5782D01*
X79379D01*
X79307Y5818D01*
X79236Y5889D01*
X74201Y5452D02*
X74594D01*
X74380Y5167D01*
X74487D01*
X74558Y5131D01*
X74594Y5095D01*
X74630Y4988D01*
Y4917D01*
X74594Y4809D01*
X74523Y4738D01*
X74416Y4702D01*
X74309D01*
X74201Y4738D01*
X74166Y4774D01*
X74130Y4845D01*
X75012Y5452D02*
X74905Y5416D01*
X74833Y5309D01*
X74798Y5131D01*
Y5024D01*
X74833Y4845D01*
X74905Y4738D01*
X75012Y4702D01*
X75083D01*
X75190Y4738D01*
X75262Y4845D01*
X75298Y5024D01*
Y5131D01*
X75262Y5309D01*
X75190Y5416D01*
X75083Y5452D01*
X75012D01*
X75501Y5274D02*
Y5309D01*
X75537Y5381D01*
X75573Y5416D01*
X75644Y5452D01*
X75787D01*
X75858Y5416D01*
X75894Y5381D01*
X75930Y5309D01*
Y5238D01*
X75894Y5167D01*
X75822Y5059D01*
X75465Y4702D01*
X75965D01*
X76722Y5452D02*
Y4702D01*
Y5452D02*
X76972D01*
X77079Y5416D01*
X77151Y5345D01*
X77186Y5274D01*
X77222Y5167D01*
Y4988D01*
X77186Y4881D01*
X77151Y4809D01*
X77079Y4738D01*
X76972Y4702D01*
X76722D01*
X77390Y4988D02*
X77818D01*
Y5059D01*
X77783Y5131D01*
X77747Y5167D01*
X77676Y5202D01*
X77569D01*
X77497Y5167D01*
X77426Y5095D01*
X77390Y4988D01*
Y4917D01*
X77426Y4809D01*
X77497Y4738D01*
X77569Y4702D01*
X77676D01*
X77747Y4738D01*
X77818Y4809D01*
X78086Y5452D02*
Y4845D01*
X78122Y4738D01*
X78193Y4702D01*
X78265D01*
X77979Y5202D02*
X78229D01*
X78372Y4988D02*
X78800D01*
Y5059D01*
X78765Y5131D01*
X78729Y5167D01*
X78658Y5202D01*
X78550D01*
X78479Y5167D01*
X78408Y5095D01*
X78372Y4988D01*
Y4917D01*
X78408Y4809D01*
X78479Y4738D01*
X78550Y4702D01*
X78658D01*
X78729Y4738D01*
X78800Y4809D01*
X78961Y5202D02*
X79354Y4702D01*
Y5202D02*
X78961Y4702D01*
X80100Y5452D02*
Y4702D01*
Y5452D02*
X80350D01*
X80457Y5416D01*
X80529Y5345D01*
X80564Y5274D01*
X80600Y5167D01*
Y4988D01*
X80564Y4881D01*
X80529Y4809D01*
X80457Y4738D01*
X80350Y4702D01*
X80100D01*
X80768Y5202D02*
Y4702D01*
Y4988D02*
X80804Y5095D01*
X80875Y5167D01*
X80946Y5202D01*
X81054D01*
X74130Y4372D02*
Y3622D01*
Y4372D02*
X74630Y3622D01*
Y4372D02*
Y3622D01*
X74837Y3908D02*
X75265D01*
Y3979D01*
X75230Y4051D01*
X75194Y4087D01*
X75123Y4122D01*
X75016D01*
X74944Y4087D01*
X74873Y4015D01*
X74837Y3908D01*
Y3837D01*
X74873Y3729D01*
X74944Y3658D01*
X75016Y3622D01*
X75123D01*
X75194Y3658D01*
X75265Y3729D01*
X75426Y4122D02*
X75569Y3622D01*
X75712Y4122D02*
X75569Y3622D01*
X75712Y4122D02*
X75855Y3622D01*
X75997Y4122D02*
X75855Y3622D01*
X76762Y4372D02*
Y3622D01*
Y4372D02*
X77083D01*
X77190Y4336D01*
X77226Y4301D01*
X77261Y4229D01*
Y4158D01*
X77226Y4087D01*
X77190Y4051D01*
X77083Y4015D01*
X76762D02*
X77083D01*
X77190Y3979D01*
X77226Y3944D01*
X77261Y3872D01*
Y3765D01*
X77226Y3694D01*
X77190Y3658D01*
X77083Y3622D01*
X76762D01*
X77429Y4122D02*
Y3622D01*
Y3908D02*
X77465Y4015D01*
X77536Y4087D01*
X77608Y4122D01*
X77715D01*
X78211D02*
Y3622D01*
Y4015D02*
X78140Y4087D01*
X78068Y4122D01*
X77961D01*
X77890Y4087D01*
X77818Y4015D01*
X77783Y3908D01*
Y3837D01*
X77818Y3729D01*
X77890Y3658D01*
X77961Y3622D01*
X78068D01*
X78140Y3658D01*
X78211Y3729D01*
X78411Y4122D02*
Y3765D01*
X78447Y3658D01*
X78518Y3622D01*
X78625D01*
X78697Y3658D01*
X78804Y3765D01*
Y4122D02*
Y3622D01*
X79000Y4122D02*
Y3622D01*
Y3979D02*
X79107Y4087D01*
X79179Y4122D01*
X79286D01*
X79357Y4087D01*
X79393Y3979D01*
Y3622D01*
X79875Y4372D02*
X79804D01*
X79732Y4336D01*
X79697Y4229D01*
Y3622D01*
X79590Y4122D02*
X79839D01*
X79982Y3908D02*
X80411D01*
Y3979D01*
X80375Y4051D01*
X80339Y4087D01*
X80268Y4122D01*
X80161D01*
X80089Y4087D01*
X80018Y4015D01*
X79982Y3908D01*
Y3837D01*
X80018Y3729D01*
X80089Y3658D01*
X80161Y3622D01*
X80268D01*
X80339Y3658D01*
X80411Y3729D01*
X80571Y4372D02*
Y3622D01*
X81121Y4015D02*
X81086Y4087D01*
X80979Y4122D01*
X80871D01*
X80764Y4087D01*
X80729Y4015D01*
X80764Y3944D01*
X80836Y3908D01*
X81014Y3872D01*
X81086Y3837D01*
X81121Y3765D01*
Y3729D01*
X81086Y3658D01*
X80979Y3622D01*
X80871D01*
X80764Y3658D01*
X80729Y3729D01*
X81350Y3658D02*
X81314Y3622D01*
X81278Y3658D01*
X81314Y3694D01*
X81350Y3658D01*
Y3587D01*
X81314Y3515D01*
X81278Y3480D01*
X82353Y4372D02*
Y3622D01*
X82103Y4372D02*
X82603D01*
X82692D02*
X83192Y3622D01*
Y4372D02*
X82692Y3622D01*
X84449Y4372D02*
X84092Y3622D01*
X83949Y4372D02*
X84449D01*
X84796D02*
X84688Y4336D01*
X84653Y4265D01*
Y4194D01*
X84688Y4122D01*
X84760Y4087D01*
X84903Y4051D01*
X85010Y4015D01*
X85081Y3944D01*
X85117Y3872D01*
Y3765D01*
X85081Y3694D01*
X85046Y3658D01*
X84938Y3622D01*
X84796D01*
X84688Y3658D01*
X84653Y3694D01*
X84617Y3765D01*
Y3872D01*
X84653Y3944D01*
X84724Y4015D01*
X84831Y4051D01*
X84974Y4087D01*
X85046Y4122D01*
X85081Y4194D01*
Y4265D01*
X85046Y4336D01*
X84938Y4372D01*
X84796D01*
X85285Y4229D02*
X85356Y4265D01*
X85463Y4372D01*
Y3622D01*
X85906Y4372D02*
X86299D01*
X86085Y4087D01*
X86192D01*
X86263Y4051D01*
X86299Y4015D01*
X86335Y3908D01*
Y3837D01*
X86299Y3729D01*
X86227Y3658D01*
X86120Y3622D01*
X86013D01*
X85906Y3658D01*
X85870Y3694D01*
X85835Y3765D01*
X86717Y4372D02*
X86609Y4336D01*
X86538Y4229D01*
X86502Y4051D01*
Y3944D01*
X86538Y3765D01*
X86609Y3658D01*
X86717Y3622D01*
X86788D01*
X86895Y3658D01*
X86967Y3765D01*
X87002Y3944D01*
Y4051D01*
X86967Y4229D01*
X86895Y4336D01*
X86788Y4372D01*
X86717D01*
X74380Y3305D02*
X74309Y3234D01*
X74237Y3126D01*
X74166Y2984D01*
X74130Y2805D01*
Y2662D01*
X74166Y2484D01*
X74237Y2341D01*
X74309Y2234D01*
X74380Y2162D01*
X74309Y3234D02*
X74237Y3091D01*
X74201Y2984D01*
X74166Y2805D01*
Y2662D01*
X74201Y2484D01*
X74237Y2377D01*
X74309Y2234D01*
X74701Y3162D02*
X74594Y3126D01*
X74558Y3055D01*
Y2984D01*
X74594Y2912D01*
X74666Y2877D01*
X74808Y2841D01*
X74916Y2805D01*
X74987Y2734D01*
X75023Y2662D01*
Y2555D01*
X74987Y2484D01*
X74951Y2448D01*
X74844Y2412D01*
X74701D01*
X74594Y2448D01*
X74558Y2484D01*
X74523Y2555D01*
Y2662D01*
X74558Y2734D01*
X74630Y2805D01*
X74737Y2841D01*
X74880Y2877D01*
X74951Y2912D01*
X74987Y2984D01*
Y3055D01*
X74951Y3126D01*
X74844Y3162D01*
X74701D01*
X75262D02*
X75655D01*
X75440Y2877D01*
X75548D01*
X75619Y2841D01*
X75655Y2805D01*
X75690Y2698D01*
Y2627D01*
X75655Y2519D01*
X75583Y2448D01*
X75476Y2412D01*
X75369D01*
X75262Y2448D01*
X75226Y2484D01*
X75190Y2555D01*
X76072Y3162D02*
X75965Y3126D01*
X75894Y3019D01*
X75858Y2841D01*
Y2734D01*
X75894Y2555D01*
X75965Y2448D01*
X76072Y2412D01*
X76144D01*
X76251Y2448D01*
X76322Y2555D01*
X76358Y2734D01*
Y2841D01*
X76322Y3019D01*
X76251Y3126D01*
X76144Y3162D01*
X76072D01*
X76526Y3305D02*
X76597Y3234D01*
X76669Y3126D01*
X76740Y2984D01*
X76776Y2805D01*
Y2662D01*
X76740Y2484D01*
X76669Y2341D01*
X76597Y2234D01*
X76526Y2162D01*
X76597Y3234D02*
X76669Y3091D01*
X76704Y2984D01*
X76740Y2805D01*
Y2662D01*
X76704Y2484D01*
X76669Y2377D01*
X76597Y2234D01*
X77976Y3055D02*
X77940Y3126D01*
X77833Y3162D01*
X77761D01*
X77654Y3126D01*
X77583Y3019D01*
X77547Y2841D01*
Y2662D01*
X77583Y2519D01*
X77654Y2448D01*
X77761Y2412D01*
X77797D01*
X77904Y2448D01*
X77976Y2519D01*
X78011Y2627D01*
Y2662D01*
X77976Y2769D01*
X77904Y2841D01*
X77797Y2877D01*
X77761D01*
X77654Y2841D01*
X77583Y2769D01*
X77547Y2662D01*
X78211Y2984D02*
Y3019D01*
X78247Y3091D01*
X78283Y3126D01*
X78354Y3162D01*
X78497D01*
X78568Y3126D01*
X78604Y3091D01*
X78640Y3019D01*
Y2948D01*
X78604Y2877D01*
X78533Y2769D01*
X78176Y2412D01*
X78675D01*
X79307Y2912D02*
X79272Y2805D01*
X79200Y2734D01*
X79093Y2698D01*
X79058D01*
X78950Y2734D01*
X78879Y2805D01*
X78843Y2912D01*
Y2948D01*
X78879Y3055D01*
X78950Y3126D01*
X79058Y3162D01*
X79093D01*
X79200Y3126D01*
X79272Y3055D01*
X79307Y2912D01*
Y2734D01*
X79272Y2555D01*
X79200Y2448D01*
X79093Y2412D01*
X79022D01*
X78915Y2448D01*
X78879Y2519D01*
X79511Y2734D02*
X80154D01*
X80411Y2984D02*
Y3019D01*
X80447Y3091D01*
X80482Y3126D01*
X80554Y3162D01*
X80696D01*
X80768Y3126D01*
X80804Y3091D01*
X80839Y3019D01*
Y2948D01*
X80804Y2877D01*
X80732Y2769D01*
X80375Y2412D01*
X80875D01*
X81507Y2912D02*
X81471Y2805D01*
X81400Y2734D01*
X81293Y2698D01*
X81257D01*
X81150Y2734D01*
X81079Y2805D01*
X81043Y2912D01*
Y2948D01*
X81079Y3055D01*
X81150Y3126D01*
X81257Y3162D01*
X81293D01*
X81400Y3126D01*
X81471Y3055D01*
X81507Y2912D01*
Y2734D01*
X81471Y2555D01*
X81400Y2448D01*
X81293Y2412D01*
X81221D01*
X81114Y2448D01*
X81079Y2519D01*
X81925Y3162D02*
X81818Y3126D01*
X81746Y3019D01*
X81711Y2841D01*
Y2734D01*
X81746Y2555D01*
X81818Y2448D01*
X81925Y2412D01*
X81996D01*
X82103Y2448D01*
X82175Y2555D01*
X82210Y2734D01*
Y2841D01*
X82175Y3019D01*
X82103Y3126D01*
X81996Y3162D01*
X81925D01*
X82592D02*
X82485Y3126D01*
X82414Y3019D01*
X82378Y2841D01*
Y2734D01*
X82414Y2555D01*
X82485Y2448D01*
X82592Y2412D01*
X82664D01*
X82771Y2448D01*
X82842Y2555D01*
X82878Y2734D01*
Y2841D01*
X82842Y3019D01*
X82771Y3126D01*
X82664Y3162D01*
X82592D01*
X83635Y2912D02*
X84028Y2412D01*
Y2912D02*
X83635Y2412D01*
X84542Y3162D02*
X84185Y2662D01*
X84721D01*
X84542Y3162D02*
Y2412D01*
X84924Y3162D02*
X85317D01*
X85103Y2877D01*
X85210D01*
X85281Y2841D01*
X85317Y2805D01*
X85353Y2698D01*
Y2627D01*
X85317Y2519D01*
X85245Y2448D01*
X85138Y2412D01*
X85031D01*
X84924Y2448D01*
X84888Y2484D01*
X84853Y2555D01*
X86020Y3162D02*
X85663Y2412D01*
X85520Y3162D02*
X86020D01*
X86652Y2912D02*
X86617Y2805D01*
X86545Y2734D01*
X86438Y2698D01*
X86402D01*
X86295Y2734D01*
X86224Y2805D01*
X86188Y2912D01*
Y2948D01*
X86224Y3055D01*
X86295Y3126D01*
X86402Y3162D01*
X86438D01*
X86545Y3126D01*
X86617Y3055D01*
X86652Y2912D01*
Y2734D01*
X86617Y2555D01*
X86545Y2448D01*
X86438Y2412D01*
X86367D01*
X86260Y2448D01*
X86224Y2519D01*
D80*
X107700Y11912D02*
Y10412D01*
X107200Y11912D02*
X108200D01*
X108378Y10984D02*
X109235D01*
Y11126D01*
X109164Y11269D01*
X109092Y11341D01*
X108950Y11412D01*
X108735D01*
X108593Y11341D01*
X108450Y11198D01*
X108378Y10984D01*
Y10841D01*
X108450Y10627D01*
X108593Y10484D01*
X108735Y10412D01*
X108950D01*
X109092Y10484D01*
X109235Y10627D01*
X110342Y11198D02*
X110271Y11341D01*
X110057Y11412D01*
X109842D01*
X109628Y11341D01*
X109557Y11198D01*
X109628Y11055D01*
X109771Y10984D01*
X110128Y10912D01*
X110271Y10841D01*
X110342Y10698D01*
Y10627D01*
X110271Y10484D01*
X110057Y10412D01*
X109842D01*
X109628Y10484D01*
X109557Y10627D01*
X110871Y11912D02*
Y10698D01*
X110942Y10484D01*
X111085Y10412D01*
X111228D01*
X110656Y11412D02*
X111156D01*
X111442Y10984D02*
X112299D01*
Y11126D01*
X112227Y11269D01*
X112156Y11341D01*
X112013Y11412D01*
X111799D01*
X111656Y11341D01*
X111513Y11198D01*
X111442Y10984D01*
Y10841D01*
X111513Y10627D01*
X111656Y10484D01*
X111799Y10412D01*
X112013D01*
X112156Y10484D01*
X112299Y10627D01*
X112620Y11412D02*
Y10412D01*
Y10984D02*
X112692Y11198D01*
X112835Y11341D01*
X112977Y11412D01*
X113192D01*
X115577Y11555D02*
X115505Y11698D01*
X115363Y11841D01*
X115220Y11912D01*
X114934D01*
X114791Y11841D01*
X114648Y11698D01*
X114577Y11555D01*
X114506Y11341D01*
Y10984D01*
X114577Y10769D01*
X114648Y10627D01*
X114791Y10484D01*
X114934Y10412D01*
X115220D01*
X115363Y10484D01*
X115505Y10627D01*
X115577Y10769D01*
X116355Y11412D02*
X116212Y11341D01*
X116070Y11198D01*
X115998Y10984D01*
Y10841D01*
X116070Y10627D01*
X116212Y10484D01*
X116355Y10412D01*
X116569D01*
X116712Y10484D01*
X116855Y10627D01*
X116926Y10841D01*
Y10984D01*
X116855Y11198D01*
X116712Y11341D01*
X116569Y11412D01*
X116355D01*
X117255D02*
Y10412D01*
Y11126D02*
X117469Y11341D01*
X117612Y11412D01*
X117826D01*
X117969Y11341D01*
X118041Y11126D01*
Y10412D01*
X118648Y11912D02*
Y10698D01*
X118719Y10484D01*
X118862Y10412D01*
X119005D01*
X118433Y11412D02*
X118933D01*
X119219D02*
Y10412D01*
Y10984D02*
X119290Y11198D01*
X119433Y11341D01*
X119576Y11412D01*
X119790D01*
X120283D02*
X120140Y11341D01*
X119997Y11198D01*
X119926Y10984D01*
Y10841D01*
X119997Y10627D01*
X120140Y10484D01*
X120283Y10412D01*
X120497D01*
X120640Y10484D01*
X120783Y10627D01*
X120854Y10841D01*
Y10984D01*
X120783Y11198D01*
X120640Y11341D01*
X120497Y11412D01*
X120283D01*
X121183Y11912D02*
Y10412D01*
X122675Y11912D02*
Y10412D01*
Y11912D02*
X123318D01*
X123532Y11841D01*
X123604Y11769D01*
X123675Y11626D01*
Y11484D01*
X123604Y11341D01*
X123532Y11269D01*
X123318Y11198D01*
X122675D02*
X123318D01*
X123532Y11126D01*
X123604Y11055D01*
X123675Y10912D01*
Y10698D01*
X123604Y10555D01*
X123532Y10484D01*
X123318Y10412D01*
X122675D01*
X124368Y11412D02*
X124225Y11341D01*
X124082Y11198D01*
X124011Y10984D01*
Y10841D01*
X124082Y10627D01*
X124225Y10484D01*
X124368Y10412D01*
X124582D01*
X124725Y10484D01*
X124868Y10627D01*
X124939Y10841D01*
Y10984D01*
X124868Y11198D01*
X124725Y11341D01*
X124582Y11412D01*
X124368D01*
X126125D02*
Y10412D01*
Y11198D02*
X125982Y11341D01*
X125839Y11412D01*
X125625D01*
X125482Y11341D01*
X125339Y11198D01*
X125268Y10984D01*
Y10841D01*
X125339Y10627D01*
X125482Y10484D01*
X125625Y10412D01*
X125839D01*
X125982Y10484D01*
X126125Y10627D01*
X126524Y11412D02*
Y10412D01*
Y10984D02*
X126596Y11198D01*
X126739Y11341D01*
X126881Y11412D01*
X127096D01*
X128088Y11912D02*
Y10412D01*
Y11198D02*
X127946Y11341D01*
X127803Y11412D01*
X127588D01*
X127446Y11341D01*
X127303Y11198D01*
X127231Y10984D01*
Y10841D01*
X127303Y10627D01*
X127446Y10484D01*
X127588Y10412D01*
X127803D01*
X127946Y10484D01*
X128088Y10627D01*
D107*
X52140Y7212D02*
G03*
X52140Y7212I-100J0D01*
G01*
X54140D02*
G03*
X54140Y7212I-100J0D01*
G01*
X21810Y27960D02*
X21860Y27910D01*
X21760Y27960D02*
X21810D01*
X21760D02*
X21810Y28010D01*
X21760Y28060D02*
X21810Y28010D01*
X21760Y28060D02*
X21810D01*
X21860Y28110D01*
X21910Y28060D01*
X21960D01*
X21910Y28010D02*
X21960Y28060D01*
X21910Y28010D02*
X21960Y27960D01*
X21910D02*
X21960D01*
X21860Y27910D02*
X21910Y27960D01*
X24380Y35380D02*
X24430Y35330D01*
X24330Y35380D02*
X24380D01*
X24330D02*
X24380Y35430D01*
X24330Y35480D02*
X24380Y35430D01*
X24330Y35480D02*
X24380D01*
X24430Y35530D01*
X24480Y35480D01*
X24530D01*
X24480Y35430D02*
X24530Y35480D01*
X24480Y35430D02*
X24530Y35380D01*
X24480D02*
X24530D01*
X24430Y35330D02*
X24480Y35380D01*
X28900Y39900D02*
X28950Y39850D01*
X28850Y39900D02*
X28900D01*
X28850D02*
X28900Y39950D01*
X28850Y40000D02*
X28900Y39950D01*
X28850Y40000D02*
X28900D01*
X28950Y40050D01*
X29000Y40000D01*
X29050D01*
X29000Y39950D02*
X29050Y40000D01*
X29000Y39950D02*
X29050Y39900D01*
X29000D02*
X29050D01*
X28950Y39850D02*
X29000Y39900D01*
X54700Y46150D02*
X54750Y46100D01*
X54650Y46150D02*
X54700D01*
X54650D02*
X54700Y46200D01*
X54650Y46250D02*
X54700Y46200D01*
X54650Y46250D02*
X54700D01*
X54750Y46300D01*
X54800Y46250D01*
X54850D01*
X54800Y46200D02*
X54850Y46250D01*
X54800Y46200D02*
X54850Y46150D01*
X54800D02*
X54850D01*
X54750Y46100D02*
X54800Y46150D01*
X20730Y29160D02*
X20780Y29110D01*
X20680Y29160D02*
X20730D01*
X20680D02*
X20730Y29210D01*
X20680Y29260D02*
X20730Y29210D01*
X20680Y29260D02*
X20730D01*
X20780Y29310D01*
X20830Y29260D01*
X20880D01*
X20830Y29210D02*
X20880Y29260D01*
X20830Y29210D02*
X20880Y29160D01*
X20830D02*
X20880D01*
X20780Y29110D02*
X20830Y29160D01*
X23160Y36530D02*
X23210Y36480D01*
X23110Y36530D02*
X23160D01*
X23110D02*
X23160Y36580D01*
X23110Y36630D02*
X23160Y36580D01*
X23110Y36630D02*
X23160D01*
X23210Y36680D01*
X23260Y36630D01*
X23310D01*
X23260Y36580D02*
X23310Y36630D01*
X23260Y36580D02*
X23310Y36530D01*
X23260D02*
X23310D01*
X23210Y36480D02*
X23260Y36530D01*
X27660Y41030D02*
X27710Y40980D01*
X27610Y41030D02*
X27660D01*
X27610D02*
X27660Y41080D01*
X27610Y41130D02*
X27660Y41080D01*
X27610Y41130D02*
X27660D01*
X27710Y41180D01*
X27760Y41130D01*
X27810D01*
X27760Y41080D02*
X27810Y41130D01*
X27760Y41080D02*
X27810Y41030D01*
X27760D02*
X27810D01*
X27710Y40980D02*
X27760Y41030D01*
X54140Y52415D02*
X54190Y52365D01*
X54090Y52415D02*
X54140D01*
X54090D02*
X54140Y52465D01*
X54090Y52515D02*
X54140Y52465D01*
X54090Y52515D02*
X54140D01*
X54190Y52565D01*
X54240Y52515D01*
X54290D01*
X54240Y52465D02*
X54290Y52515D01*
X54240Y52465D02*
X54290Y52415D01*
X54240D02*
X54290D01*
X54190Y52365D02*
X54240Y52415D01*
X4400Y21700D02*
X4600D01*
Y21900D01*
X4400D02*
X4600D01*
X4400Y21700D02*
Y21900D01*
X6400Y1200D02*
X6600D01*
Y1400D01*
X6400D02*
X6600D01*
X6400Y1200D02*
Y1400D01*
X17400Y1200D02*
X17600D01*
Y1400D01*
X17400D02*
X17600D01*
X17400Y1200D02*
Y1400D01*
X23400Y21200D02*
X23600D01*
Y21400D01*
X23400D02*
X23600D01*
X23400Y21200D02*
Y21400D01*
X74540Y8402D02*
X85840D01*
X74540Y8422D02*
X85880D01*
X74540Y8442D02*
X85920D01*
X74540Y8462D02*
X85960D01*
X74540Y8482D02*
X85980D01*
X74540Y8502D02*
X86020D01*
X74540Y8522D02*
X86040D01*
X74540Y8542D02*
X86060D01*
X74540Y8562D02*
X86080D01*
X74540Y8582D02*
X86100D01*
X74540Y8602D02*
X86120D01*
X74540Y8622D02*
X86140D01*
X74540Y8642D02*
X86160D01*
X74540Y8662D02*
X86180D01*
X74540Y8682D02*
X86200D01*
X74540Y8702D02*
X86220D01*
X74540Y8722D02*
X86220D01*
X74540Y8742D02*
X86240D01*
X74540Y8762D02*
X86260D01*
X74540Y8782D02*
X86260D01*
X74540Y8802D02*
X86280D01*
X74540Y8822D02*
X86280D01*
X74540Y8842D02*
X86300D01*
X74540Y8862D02*
X86300D01*
X74540Y8882D02*
X86300D01*
X74540Y8902D02*
X86320D01*
X74540Y8922D02*
X86320D01*
X74540Y8942D02*
X86320D01*
X74540Y8962D02*
X86340D01*
X74540Y8982D02*
X86340D01*
X74540Y9002D02*
X86340D01*
X74540Y9022D02*
X86340D01*
X74540Y9042D02*
X86340D01*
X74540Y9062D02*
X86340D01*
X74540Y9082D02*
X86340D01*
X74540Y9102D02*
X86340D01*
X74540Y9122D02*
X86340D01*
X74540Y9142D02*
X86340D01*
X74540Y9162D02*
X86340D01*
X74540Y9182D02*
X86340D01*
X74540Y9202D02*
X86340D01*
X74540Y9222D02*
X86340D01*
X82600Y9242D02*
X86340D01*
X77440D02*
X82440D01*
X74540D02*
X77260D01*
X82620Y9262D02*
X86340D01*
X77460D02*
X82420D01*
X74540D02*
X77240D01*
X82640Y9282D02*
X86340D01*
X77480D02*
X82420D01*
X74540D02*
X77240D01*
X82660Y9302D02*
X86340D01*
X82460D02*
X82560D01*
X77480D02*
X82420D01*
X77280D02*
X77380D01*
X74540D02*
X77240D01*
X82660Y9322D02*
X86340D01*
X77500D02*
X82580D01*
X74540D02*
X77400D01*
X82660Y9342D02*
X86340D01*
X77500D02*
X82580D01*
X74540D02*
X77420D01*
X84940Y9362D02*
X86340D01*
X84720D02*
X84860D01*
X84400D02*
X84560D01*
X84180D02*
X84320D01*
X83940D02*
X84020D01*
X83840D02*
X83860D01*
X83580D02*
X83720D01*
X83040D02*
X83340D01*
X82860D02*
X82980D01*
X82680D02*
X82780D01*
X82540D02*
X82600D01*
X82300D02*
X82460D01*
X82080D02*
X82220D01*
X81800D02*
X81920D01*
X81360D02*
X81640D01*
X80820D02*
X81160D01*
X80600D02*
X80660D01*
X80280D02*
X80460D01*
X80100D02*
X80200D01*
X79900D02*
X80020D01*
X79660D02*
X79820D01*
X79280D02*
X79520D01*
X79140D02*
X79220D01*
X78880D02*
X79020D01*
X78560D02*
X78740D01*
X78220D02*
X78400D01*
X78040D02*
X78140D01*
X77500D02*
X77800D01*
X77380D02*
X77420D01*
X77120D02*
X77280D01*
X76940D02*
X77040D01*
X76740D02*
X76860D01*
X76600D02*
X76660D01*
X76400D02*
X76500D01*
X76220D02*
X76320D01*
X76120D02*
X76160D01*
X75860D02*
X76000D01*
X75680D02*
X75780D01*
X75500D02*
X75600D01*
X74540D02*
X75420D01*
X84940Y9382D02*
X86340D01*
X84740D02*
X84860D01*
X84400D02*
X84540D01*
X84200D02*
X84320D01*
X83940D02*
X84020D01*
X83580D02*
X83680D01*
X83040D02*
X83340D01*
X82860D02*
X82980D01*
X82680D02*
X82780D01*
X82580D02*
X82600D01*
X82300D02*
X82420D01*
X82100D02*
X82220D01*
X81820D02*
X81920D01*
X81400D02*
X81620D01*
X80840D02*
X81160D01*
X80600D02*
X80660D01*
X80280D02*
X80420D01*
X80100D02*
X80200D01*
X79900D02*
X80020D01*
X79700D02*
X79820D01*
X79280D02*
X79480D01*
X79140D02*
X79220D01*
X78880D02*
X79000D01*
X78560D02*
X78700D01*
X78220D02*
X78360D01*
X78040D02*
X78140D01*
X77500D02*
X77800D01*
X77120D02*
X77260D01*
X76940D02*
X77040D01*
X76740D02*
X76860D01*
X76580D02*
X76660D01*
X76400D02*
X76480D01*
X76220D02*
X76320D01*
X75860D02*
X75980D01*
X75680D02*
X75780D01*
X75500D02*
X75580D01*
X74540D02*
X75420D01*
X84940Y9402D02*
X86340D01*
X84740D02*
X84860D01*
X84400D02*
X84520D01*
X84220D02*
X84320D01*
X83940D02*
X84020D01*
X83580D02*
X83680D01*
X83040D02*
X83340D01*
X82860D02*
X82980D01*
X82680D02*
X82780D01*
X82300D02*
X82400D01*
X82120D02*
X82220D01*
X81820D02*
X81920D01*
X81440D02*
X81600D01*
X80860D02*
X81160D01*
X80600D02*
X80660D01*
X80280D02*
X80400D01*
X80100D02*
X80200D01*
X79900D02*
X80020D01*
X79700D02*
X79820D01*
X79280D02*
X79460D01*
X79140D02*
X79220D01*
X78880D02*
X78980D01*
X78560D02*
X78680D01*
X78220D02*
X78340D01*
X78040D02*
X78140D01*
X77500D02*
X77800D01*
X77120D02*
X77240D01*
X76940D02*
X77040D01*
X76740D02*
X76860D01*
X76560D02*
X76660D01*
X76400D02*
X76460D01*
X76220D02*
X76320D01*
X75860D02*
X75960D01*
X75700D02*
X75780D01*
X75500D02*
X75580D01*
X74540D02*
X75420D01*
X84940Y9422D02*
X86340D01*
X84740D02*
X84860D01*
X84600D02*
X84720D01*
X84400D02*
X84500D01*
X84220D02*
X84320D01*
X83940D02*
X84140D01*
X83760D02*
X83840D01*
X83440D02*
X83680D01*
X83040D02*
X83340D01*
X82860D02*
X82980D01*
X82680D02*
X82780D01*
X82500D02*
X82560D01*
X82300D02*
X82400D01*
X82120D02*
X82220D01*
X81820D02*
X82040D01*
X81680D02*
X81800D01*
X81460D02*
X81580D01*
X81240D02*
X81300D01*
X80860D02*
X81160D01*
X80500D02*
X80780D01*
X80280D02*
X80380D01*
X80100D02*
X80200D01*
X79900D02*
X80020D01*
X79720D02*
X79820D01*
X79540D02*
X79620D01*
X79280D02*
X79440D01*
X79080D02*
X79220D01*
X78780D02*
X78980D01*
X78560D02*
X78680D01*
X78420D02*
X78540D01*
X78220D02*
X78320D01*
X77880D02*
X78140D01*
X77500D02*
X77800D01*
X77340D02*
X77380D01*
X77120D02*
X77220D01*
X76940D02*
X77040D01*
X76740D02*
X76860D01*
X76540D02*
X76660D01*
X76400D02*
X76460D01*
X76220D02*
X76320D01*
X76040D02*
X76120D01*
X75860D02*
X75960D01*
X75700D02*
X75780D01*
X75500D02*
X75580D01*
X74540D02*
X75420D01*
X84940Y9442D02*
X86340D01*
X84580D02*
X84860D01*
X84400D02*
X84500D01*
X84240D02*
X84320D01*
X83940D02*
X84140D01*
X83740D02*
X83860D01*
X83440D02*
X83680D01*
X83040D02*
X83340D01*
X82860D02*
X82980D01*
X82680D02*
X82780D01*
X82480D02*
X82580D01*
X82300D02*
X82380D01*
X82120D02*
X82220D01*
X81660D02*
X82040D01*
X81460D02*
X81580D01*
X81240D02*
X81340D01*
X80860D02*
X81160D01*
X80480D02*
X80780D01*
X80280D02*
X80380D01*
X80100D02*
X80200D01*
X79900D02*
X80020D01*
X79740D02*
X79820D01*
X79520D02*
X79640D01*
X79280D02*
X79440D01*
X79060D02*
X79220D01*
X78760D02*
X78980D01*
X78400D02*
X78660D01*
X78220D02*
X78320D01*
X77880D02*
X78140D01*
X77500D02*
X77800D01*
X77320D02*
X77400D01*
X77120D02*
X77220D01*
X76940D02*
X77040D01*
X76740D02*
X76860D01*
X76540D02*
X76660D01*
X76400D02*
X76440D01*
X76220D02*
X76320D01*
X76040D02*
X76140D01*
X75860D02*
X75960D01*
X75700D02*
X75780D01*
X75500D02*
X75560D01*
X74540D02*
X75420D01*
X84940Y9462D02*
X86340D01*
X84560D02*
X84860D01*
X84400D02*
X84480D01*
X84220D02*
X84320D01*
X83940D02*
X84140D01*
X83760D02*
X83860D01*
X83440D02*
X83680D01*
X83040D02*
X83340D01*
X82860D02*
X82980D01*
X82680D02*
X82780D01*
X82480D02*
X82580D01*
X82300D02*
X82380D01*
X82120D02*
X82220D01*
X81640D02*
X82040D01*
X81480D02*
X81560D01*
X81240D02*
X81380D01*
X80860D02*
X81160D01*
X80460D02*
X80780D01*
X80280D02*
X80380D01*
X80100D02*
X80200D01*
X79900D02*
X80020D01*
X79740D02*
X79820D01*
X79520D02*
X79660D01*
X79280D02*
X79440D01*
X79060D02*
X79220D01*
X78740D02*
X78980D01*
X78380D02*
X78660D01*
X78220D02*
X78320D01*
X77880D02*
X78140D01*
X77500D02*
X77800D01*
X77300D02*
X77420D01*
X77120D02*
X77220D01*
X76940D02*
X77040D01*
X76740D02*
X76860D01*
X76520D02*
X76660D01*
X76400D02*
X76420D01*
X76220D02*
X76320D01*
X76040D02*
X76140D01*
X75860D02*
X75960D01*
X75720D02*
X75780D01*
X75500D02*
X75560D01*
X74540D02*
X75420D01*
X84940Y9482D02*
X86340D01*
X84760D02*
X84860D01*
X84400D02*
X84480D01*
X84220D02*
X84320D01*
X83940D02*
X84100D01*
X83780D02*
X83860D01*
X83440D02*
X83680D01*
X83040D02*
X83340D01*
X82860D02*
X82980D01*
X82680D02*
X82780D01*
X82460D02*
X82600D01*
X82300D02*
X82380D01*
X82120D02*
X82220D01*
X81840D02*
X81980D01*
X81480D02*
X81560D01*
X81240D02*
X81380D01*
X80860D02*
X81160D01*
X80460D02*
X80720D01*
X80280D02*
X80380D01*
X80100D02*
X80200D01*
X79900D02*
X80020D01*
X79740D02*
X79820D01*
X79520D02*
X79660D01*
X79280D02*
X79440D01*
X79060D02*
X79220D01*
X78740D02*
X78980D01*
X78580D02*
X78660D01*
X78220D02*
X78320D01*
X77880D02*
X78140D01*
X77500D02*
X77800D01*
X77300D02*
X77420D01*
X77120D02*
X77220D01*
X76940D02*
X77040D01*
X76740D02*
X76860D01*
X76500D02*
X76660D01*
X76220D02*
X76320D01*
X76060D02*
X76140D01*
X75860D02*
X75960D01*
X75720D02*
X75780D01*
X75620D02*
X75640D01*
X75500D02*
X75560D01*
X74540D02*
X75420D01*
X84940Y9502D02*
X86340D01*
X84760D02*
X84860D01*
X84400D02*
X84480D01*
X84220D02*
X84320D01*
X83940D02*
X84040D01*
X83440D02*
X83700D01*
X83040D02*
X83340D01*
X82860D02*
X82980D01*
X82680D02*
X82780D01*
X82460D02*
X82600D01*
X82300D02*
X82380D01*
X82100D02*
X82220D01*
X81840D02*
X81940D01*
X81480D02*
X81560D01*
X81240D02*
X81400D01*
X80860D02*
X81160D01*
X80460D02*
X80680D01*
X80280D02*
X80380D01*
X80100D02*
X80200D01*
X79900D02*
X80020D01*
X79740D02*
X79820D01*
X79520D02*
X79660D01*
X79300D02*
X79440D01*
X79060D02*
X79220D01*
X78740D02*
X78980D01*
X78580D02*
X78660D01*
X78220D02*
X78320D01*
X77880D02*
X78140D01*
X77500D02*
X77800D01*
X77300D02*
X77420D01*
X77120D02*
X77220D01*
X76940D02*
X77040D01*
X76740D02*
X76860D01*
X76480D02*
X76660D01*
X76220D02*
X76320D01*
X75860D02*
X75980D01*
X75720D02*
X75780D01*
X75620D02*
X75660D01*
X75500D02*
X75540D01*
X74540D02*
X75420D01*
X84940Y9522D02*
X86340D01*
X84760D02*
X84860D01*
X84400D02*
X84480D01*
X84180D02*
X84320D01*
X83940D02*
X84020D01*
X83440D02*
X83720D01*
X83040D02*
X83340D01*
X82860D02*
X82980D01*
X82680D02*
X82780D01*
X82460D02*
X82600D01*
X82300D02*
X82380D01*
X82080D02*
X82220D01*
X81840D02*
X81920D01*
X81500D02*
X81560D01*
X81240D02*
X81400D01*
X80820D02*
X81160D01*
X80460D02*
X80660D01*
X80280D02*
X80380D01*
X80100D02*
X80200D01*
X79900D02*
X80020D01*
X79740D02*
X79820D01*
X79520D02*
X79660D01*
X79300D02*
X79440D01*
X79060D02*
X79220D01*
X78740D02*
X78980D01*
X78580D02*
X78660D01*
X78220D02*
X78320D01*
X77880D02*
X78140D01*
X77500D02*
X77800D01*
X77300D02*
X77420D01*
X77120D02*
X77220D01*
X76940D02*
X77040D01*
X76740D02*
X76860D01*
X76480D02*
X76660D01*
X76220D02*
X76320D01*
X75860D02*
X76000D01*
X75740D02*
X75780D01*
X75620D02*
X75660D01*
X75500D02*
X75540D01*
X74540D02*
X75420D01*
X84940Y9542D02*
X86340D01*
X84760D02*
X84860D01*
X84560D02*
X84680D01*
X84400D02*
X84480D01*
X84120D02*
X84320D01*
X83940D02*
X84020D01*
X83580D02*
X83860D01*
X83040D02*
X83340D01*
X82860D02*
X82960D01*
X82680D02*
X82780D01*
X82460D02*
X82580D01*
X82300D02*
X82380D01*
X82020D02*
X82220D01*
X81840D02*
X81920D01*
X81640D02*
X81760D01*
X81500D02*
X81560D01*
X81240D02*
X81400D01*
X80760D02*
X81160D01*
X80460D02*
X80660D01*
X80280D02*
X80380D01*
X80100D02*
X80200D01*
X79920D02*
X80020D01*
X79740D02*
X79820D01*
X79520D02*
X79660D01*
X79300D02*
X79440D01*
X79060D02*
X79220D01*
X78740D02*
X78980D01*
X78580D02*
X78660D01*
X78380D02*
X78520D01*
X78220D02*
X78320D01*
X78020D02*
X78140D01*
X77500D02*
X77800D01*
X77300D02*
X77420D01*
X77120D02*
X77220D01*
X76940D02*
X77040D01*
X76740D02*
X76860D01*
X76500D02*
X76660D01*
X76220D02*
X76320D01*
X75860D02*
X76140D01*
X75740D02*
X75780D01*
X75620D02*
X75660D01*
X75500D02*
X75540D01*
X74540D02*
X75420D01*
X84960Y9562D02*
X86340D01*
X84760D02*
X84860D01*
X84560D02*
X84680D01*
X84400D02*
X84500D01*
X84100D02*
X84320D01*
X83940D02*
X84020D01*
X83580D02*
X83860D01*
X83040D02*
X83340D01*
X82880D02*
X82960D01*
X82680D02*
X82780D01*
X82480D02*
X82580D01*
X82300D02*
X82380D01*
X82000D02*
X82220D01*
X81840D02*
X81920D01*
X81640D02*
X81760D01*
X81500D02*
X81580D01*
X81240D02*
X81400D01*
X80740D02*
X81160D01*
X80480D02*
X80660D01*
X80280D02*
X80380D01*
X80100D02*
X80200D01*
X79920D02*
X80020D01*
X79740D02*
X79820D01*
X79520D02*
X79640D01*
X79300D02*
X79440D01*
X79060D02*
X79220D01*
X78760D02*
X78980D01*
X78580D02*
X78660D01*
X78400D02*
X78500D01*
X78220D02*
X78320D01*
X78020D02*
X78140D01*
X77500D02*
X77800D01*
X77300D02*
X77420D01*
X77120D02*
X77220D01*
X76940D02*
X77040D01*
X76740D02*
X76860D01*
X76520D02*
X76660D01*
X76400D02*
X76420D01*
X76220D02*
X76320D01*
X75860D02*
X76140D01*
X75740D02*
X75780D01*
X75600D02*
X75680D01*
X75500D02*
X75540D01*
X74540D02*
X75420D01*
X85020Y9582D02*
X86340D01*
X84740D02*
X84860D01*
X84580D02*
X84680D01*
X84400D02*
X84500D01*
X84100D02*
X84320D01*
X83920D02*
X84020D01*
X83740D02*
X83840D01*
X83580D02*
X83700D01*
X83040D02*
X83340D01*
X82880D02*
X82960D01*
X82680D02*
X82780D01*
X82500D02*
X82560D01*
X82300D02*
X82400D01*
X82000D02*
X82220D01*
X81820D02*
X81920D01*
X81660D02*
X81760D01*
X81500D02*
X81580D01*
X81240D02*
X81400D01*
X80740D02*
X81160D01*
X80480D02*
X80660D01*
X80280D02*
X80380D01*
X80100D02*
X80200D01*
X79940D02*
X80000D01*
X79720D02*
X79820D01*
X79540D02*
X79620D01*
X79380D02*
X79440D01*
X79060D02*
X79220D01*
X78780D02*
X78980D01*
X78580D02*
X78680D01*
X78400D02*
X78500D01*
X78220D02*
X78320D01*
X78020D02*
X78140D01*
X77500D02*
X77800D01*
X77320D02*
X77400D01*
X77120D02*
X77220D01*
X76960D02*
X77040D01*
X76740D02*
X76860D01*
X76520D02*
X76660D01*
X76400D02*
X76440D01*
X76220D02*
X76320D01*
X76020D02*
X76140D01*
X75860D02*
X75980D01*
X75760D02*
X75780D01*
X75600D02*
X75680D01*
X75500D02*
X75520D01*
X74540D02*
X75420D01*
X85020Y9602D02*
X86340D01*
X84740D02*
X84860D01*
X84400D02*
X84520D01*
X84220D02*
X84320D01*
X83920D02*
X84020D01*
X83440D02*
X83700D01*
X83040D02*
X83340D01*
X82680D02*
X82780D01*
X82300D02*
X82400D01*
X82100D02*
X82220D01*
X81820D02*
X81920D01*
X81480D02*
X81600D01*
X81240D02*
X81400D01*
X80860D02*
X81160D01*
X80580D02*
X80660D01*
X80280D02*
X80400D01*
X80080D02*
X80200D01*
X79700D02*
X79820D01*
X79380D02*
X79460D01*
X79120D02*
X79220D01*
X78880D02*
X78920D01*
X78560D02*
X78680D01*
X78220D02*
X78340D01*
X77880D02*
X78140D01*
X77500D02*
X77800D01*
X77120D02*
X77240D01*
X76740D02*
X76860D01*
X76540D02*
X76660D01*
X76400D02*
X76460D01*
X76200D02*
X76320D01*
X75860D02*
X75980D01*
X75760D02*
X75780D01*
X75600D02*
X75680D01*
X75500D02*
X75520D01*
X74540D02*
X75420D01*
X85020Y9622D02*
X86340D01*
X84920D02*
X84940D01*
X84720D02*
X84860D01*
X84400D02*
X84540D01*
X84220D02*
X84320D01*
X83900D02*
X84040D01*
X83440D02*
X83700D01*
X83020D02*
X83340D01*
X82680D02*
X82780D01*
X82300D02*
X82420D01*
X82120D02*
X82220D01*
X81800D02*
X81940D01*
X81480D02*
X81600D01*
X81240D02*
X81380D01*
X80860D02*
X81160D01*
X80580D02*
X80680D01*
X80280D02*
X80420D01*
X80080D02*
X80200D01*
X79700D02*
X79820D01*
X79380D02*
X79480D01*
X79280D02*
X79300D01*
X79120D02*
X79220D01*
X78880D02*
X78920D01*
X78540D02*
X78700D01*
X78220D02*
X78360D01*
X77880D02*
X78140D01*
X77500D02*
X77800D01*
X77100D02*
X77260D01*
X76740D02*
X76860D01*
X76560D02*
X76660D01*
X76400D02*
X76460D01*
X76200D02*
X76320D01*
X75860D02*
X75980D01*
X75760D02*
X75780D01*
X75580D02*
X75680D01*
X74540D02*
X75420D01*
X85520Y9642D02*
X86340D01*
X85440D02*
X85500D01*
X85360D02*
X85400D01*
X85240D02*
X85320D01*
X85020D02*
X85220D01*
X84920D02*
X84960D01*
X84700D02*
X84860D01*
X84400D02*
X84560D01*
X84220D02*
X84320D01*
X83880D02*
X84060D01*
X83440D02*
X83720D01*
X83000D02*
X83340D01*
X82860D02*
X82880D01*
X82680D02*
X82780D01*
X82560D02*
X82600D01*
X82300D02*
X82440D01*
X82120D02*
X82220D01*
X81780D02*
X81960D01*
X81480D02*
X81640D01*
X81240D02*
X81380D01*
X80860D02*
X81160D01*
X80600D02*
X80700D01*
X80280D02*
X80440D01*
X80060D02*
X80200D01*
X79900D02*
X79940D01*
X79660D02*
X79820D01*
X79380D02*
X79520D01*
X79280D02*
X79320D01*
X79120D02*
X79220D01*
X78880D02*
X78920D01*
X78520D02*
X78740D01*
X78220D02*
X78380D01*
X77880D02*
X78140D01*
X77500D02*
X77800D01*
X77400D02*
X77420D01*
X77080D02*
X77280D01*
X76920D02*
X76960D01*
X76740D02*
X76860D01*
X76580D02*
X76660D01*
X76400D02*
X76480D01*
X76180D02*
X76320D01*
X75860D02*
X76000D01*
X75580D02*
X75700D01*
X74540D02*
X75420D01*
X85520Y9662D02*
X86340D01*
X85460D02*
X85500D01*
X85360D02*
X85400D01*
X85240D02*
X85320D01*
X83440D02*
X85220D01*
X81460D02*
X83340D01*
X81240D02*
X81360D01*
X79060D02*
X81160D01*
X78220D02*
X78980D01*
X77880D02*
X78140D01*
X76400D02*
X77800D01*
X75860D02*
X76320D01*
X75580D02*
X75700D01*
X74540D02*
X75420D01*
X85520Y9682D02*
X86340D01*
X85460D02*
X85500D01*
X85360D02*
X85380D01*
X85240D02*
X85320D01*
X83440D02*
X85220D01*
X81460D02*
X83340D01*
X81240D02*
X81320D01*
X79060D02*
X81160D01*
X78220D02*
X78980D01*
X77880D02*
X78140D01*
X76400D02*
X77800D01*
X75860D02*
X76320D01*
X75560D02*
X75700D01*
X74540D02*
X75420D01*
X85520Y9702D02*
X86340D01*
X85480D02*
X85500D01*
X85420D02*
X85440D01*
X85360D02*
X85380D01*
X85240D02*
X85320D01*
X83580D02*
X85220D01*
X81440D02*
X83340D01*
X79060D02*
X81160D01*
X78220D02*
X78980D01*
X78040D02*
X78140D01*
X76400D02*
X77800D01*
X75860D02*
X76320D01*
X75560D02*
X75720D01*
X74540D02*
X75420D01*
X85520Y9722D02*
X86340D01*
X85480D02*
X85500D01*
X85400D02*
X85440D01*
X85240D02*
X85320D01*
X84400D02*
X85220D01*
X83580D02*
X84320D01*
X82300D02*
X83340D01*
X81420D02*
X82220D01*
X80280D02*
X81160D01*
X79060D02*
X80200D01*
X78220D02*
X79020D01*
X78040D02*
X78140D01*
X76740D02*
X77800D01*
X76400D02*
X76660D01*
X75860D02*
X76320D01*
X75560D02*
X75720D01*
X74540D02*
X75420D01*
X85520Y9742D02*
X86340D01*
X85400D02*
X85460D01*
X85240D02*
X85320D01*
X84400D02*
X85220D01*
X83580D02*
X84320D01*
X82300D02*
X83340D01*
X81360D02*
X82220D01*
X80280D02*
X81160D01*
X78220D02*
X80200D01*
X78040D02*
X78140D01*
X76740D02*
X77800D01*
X76400D02*
X76660D01*
X75860D02*
X76320D01*
X75540D02*
X75720D01*
X74540D02*
X75420D01*
X85520Y9762D02*
X86340D01*
X85380D02*
X85460D01*
X85240D02*
X85320D01*
X84400D02*
X85220D01*
X82300D02*
X84320D01*
X80280D02*
X82220D01*
X78220D02*
X80200D01*
X76740D02*
X78140D01*
X76400D02*
X76660D01*
X74540D02*
X76320D01*
X85520Y9782D02*
X86340D01*
X85380D02*
X85480D01*
X85300D02*
X85320D01*
X78220D02*
X85160D01*
X76400D02*
X78140D01*
X74540D02*
X76320D01*
X74540Y9802D02*
X86340D01*
X74540Y9822D02*
X86340D01*
X74540Y9842D02*
X86340D01*
X74540Y9862D02*
X86340D01*
X74540Y9882D02*
X86340D01*
X74540Y9902D02*
X86340D01*
X74540Y9922D02*
X86340D01*
X74540Y9942D02*
X86340D01*
X74540Y9962D02*
X86340D01*
X74540Y9982D02*
X86340D01*
X74540Y10002D02*
X86340D01*
X74540Y10022D02*
X86340D01*
X74540Y10042D02*
X86340D01*
X74540Y10062D02*
X86340D01*
X74540Y10082D02*
X86340D01*
X74540Y10102D02*
X86340D01*
X74540Y10122D02*
X86340D01*
X74540Y10142D02*
X86340D01*
X74540Y10162D02*
X86340D01*
X74540Y10182D02*
X86340D01*
X74540Y10202D02*
X86340D01*
X81140Y10222D02*
X86340D01*
X74540D02*
X80920D01*
X81240Y10242D02*
X86340D01*
X79240D02*
X80820D01*
X74540D02*
X79000D01*
X85520Y10262D02*
X86340D01*
X85440D02*
X85500D01*
X85360D02*
X85400D01*
X85240D02*
X85320D01*
X84700D02*
X85200D01*
X84000D02*
X84340D01*
X83040D02*
X83380D01*
X82120D02*
X82420D01*
X81300D02*
X81500D01*
X80260D02*
X80780D01*
X79420D02*
X79660D01*
X78260D02*
X78820D01*
X77520D02*
X77660D01*
X76160D02*
X76820D01*
X74540D02*
X75440D01*
X85520Y10282D02*
X86340D01*
X85460D02*
X85500D01*
X85360D02*
X85400D01*
X85240D02*
X85320D01*
X84780D02*
X85200D01*
X84000D02*
X84360D01*
X83040D02*
X83380D01*
X82120D02*
X82420D01*
X81340D02*
X81520D01*
X80280D02*
X80740D01*
X79440D02*
X79660D01*
X78280D02*
X78760D01*
X77520D02*
X77660D01*
X76160D02*
X76820D01*
X74540D02*
X75460D01*
X85520Y10302D02*
X86340D01*
X85460D02*
X85500D01*
X85360D02*
X85400D01*
X85240D02*
X85320D01*
X84820D02*
X85200D01*
X84000D02*
X84360D01*
X83040D02*
X83400D01*
X82120D02*
X82420D01*
X81380D02*
X81520D01*
X80280D02*
X80700D01*
X79440D02*
X79660D01*
X78280D02*
X78720D01*
X77520D02*
X77660D01*
X76180D02*
X76820D01*
X74540D02*
X75460D01*
X85520Y10322D02*
X86340D01*
X85460D02*
X85500D01*
X85420D02*
X85440D01*
X85360D02*
X85380D01*
X85240D02*
X85320D01*
X84860D02*
X85200D01*
X84000D02*
X84360D01*
X83040D02*
X83400D01*
X82140D02*
X82440D01*
X81400D02*
X81520D01*
X80280D02*
X80680D01*
X79440D02*
X79660D01*
X78280D02*
X78680D01*
X77520D02*
X77680D01*
X76180D02*
X76820D01*
X74540D02*
X75480D01*
X85520Y10342D02*
X86340D01*
X85480D02*
X85500D01*
X85400D02*
X85440D01*
X85360D02*
X85380D01*
X85240D02*
X85320D01*
X84880D02*
X85200D01*
X84020D02*
X84360D01*
X83060D02*
X83400D01*
X82140D02*
X82440D01*
X81440D02*
X81520D01*
X80280D02*
X80660D01*
X79440D02*
X79680D01*
X78280D02*
X78660D01*
X77520D02*
X77680D01*
X76180D02*
X76820D01*
X74540D02*
X75480D01*
X85520Y10362D02*
X86340D01*
X85480D02*
X85500D01*
X85400D02*
X85460D01*
X85240D02*
X85320D01*
X84920D02*
X85200D01*
X84020D02*
X84380D01*
X83060D02*
X83400D01*
X82140D02*
X82440D01*
X81460D02*
X81540D01*
X80300D02*
X80660D01*
X79460D02*
X79680D01*
X78300D02*
X78660D01*
X77520D02*
X77680D01*
X76200D02*
X76820D01*
X74540D02*
X75500D01*
X85520Y10382D02*
X86340D01*
X85400D02*
X85460D01*
X85240D02*
X85320D01*
X84940D02*
X85200D01*
X84020D02*
X84380D01*
X83060D02*
X83420D01*
X82140D02*
X82440D01*
X81480D02*
X81540D01*
X80300D02*
X80640D01*
X79460D02*
X79680D01*
X78300D02*
X78640D01*
X77520D02*
X77680D01*
X76200D02*
X76820D01*
X74540D02*
X75500D01*
X85520Y10402D02*
X86340D01*
X85380D02*
X85460D01*
X85240D02*
X85320D01*
X84960D02*
X85200D01*
X84020D02*
X84380D01*
X83060D02*
X83420D01*
X82160D02*
X82460D01*
X81500D02*
X81540D01*
X80300D02*
X80640D01*
X79460D02*
X79680D01*
X78300D02*
X78640D01*
X77520D02*
X77700D01*
X76220D02*
X76820D01*
X74540D02*
X75520D01*
X85520Y10422D02*
X86340D01*
X85380D02*
X85480D01*
X85300D02*
X85320D01*
X84960D02*
X85160D01*
X84040D02*
X84380D01*
X83080D02*
X83420D01*
X82160D02*
X82460D01*
X81520D02*
X81540D01*
X80300D02*
X80640D01*
X79460D02*
X79700D01*
X78300D02*
X78640D01*
X77520D02*
X77700D01*
X76220D02*
X76820D01*
X74540D02*
X75540D01*
X84980Y10442D02*
X86340D01*
X84040D02*
X84400D01*
X83080D02*
X83420D01*
X82160D02*
X82460D01*
X80320D02*
X80620D01*
X79480D02*
X79700D01*
X78320D02*
X78640D01*
X77520D02*
X77700D01*
X76240D02*
X76820D01*
X74540D02*
X75540D01*
X85000Y10462D02*
X86340D01*
X84040D02*
X84400D01*
X83080D02*
X83440D01*
X82160D02*
X82460D01*
X80320D02*
X80620D01*
X79480D02*
X79700D01*
X78320D02*
X78640D01*
X77520D02*
X77700D01*
X76240D02*
X76840D01*
X74540D02*
X75560D01*
X85000Y10482D02*
X86340D01*
X84040D02*
X84400D01*
X83080D02*
X83440D01*
X82180D02*
X82480D01*
X80320D02*
X80620D01*
X79480D02*
X79700D01*
X78320D02*
X78640D01*
X77520D02*
X77720D01*
X76240D02*
X76840D01*
X74540D02*
X75560D01*
X85020Y10502D02*
X86340D01*
X84060D02*
X84400D01*
X83100D02*
X83440D01*
X82180D02*
X82480D01*
X80320D02*
X80620D01*
X79480D02*
X79720D01*
X78320D02*
X78640D01*
X77520D02*
X77720D01*
X76260D02*
X76840D01*
X74540D02*
X75580D01*
X85020Y10522D02*
X86340D01*
X84060D02*
X84420D01*
X83100D02*
X83440D01*
X82180D02*
X82480D01*
X80340D02*
X80620D01*
X79500D02*
X79720D01*
X78340D02*
X78640D01*
X77520D02*
X77720D01*
X76260D02*
X76840D01*
X74540D02*
X75580D01*
X85040Y10542D02*
X86340D01*
X84060D02*
X84420D01*
X83100D02*
X83460D01*
X82180D02*
X82480D01*
X80340D02*
X80620D01*
X79500D02*
X79720D01*
X78340D02*
X78640D01*
X77520D02*
X77720D01*
X76280D02*
X76840D01*
X74540D02*
X75600D01*
X85040Y10562D02*
X86340D01*
X84060D02*
X84420D01*
X83100D02*
X83460D01*
X82200D02*
X82500D01*
X80340D02*
X80620D01*
X79500D02*
X79720D01*
X78340D02*
X78640D01*
X77520D02*
X77740D01*
X76280D02*
X76840D01*
X74540D02*
X75600D01*
X85040Y10582D02*
X86340D01*
X84080D02*
X84420D01*
X83120D02*
X83460D01*
X82200D02*
X82500D01*
X80340D02*
X80620D01*
X79500D02*
X79740D01*
X78340D02*
X78640D01*
X77520D02*
X77740D01*
X76300D02*
X76840D01*
X74540D02*
X75620D01*
X85040Y10602D02*
X86340D01*
X84080D02*
X84440D01*
X83120D02*
X83460D01*
X82200D02*
X82500D01*
X80360D02*
X80620D01*
X79520D02*
X79740D01*
X78360D02*
X78640D01*
X77520D02*
X77740D01*
X76300D02*
X76840D01*
X74540D02*
X75620D01*
X85060Y10622D02*
X86340D01*
X84080D02*
X84440D01*
X83120D02*
X83480D01*
X82200D02*
X82500D01*
X80360D02*
X80640D01*
X79520D02*
X79740D01*
X78360D02*
X78640D01*
X77520D02*
X77740D01*
X76320D02*
X76840D01*
X74540D02*
X75640D01*
X85060Y10642D02*
X86340D01*
X84080D02*
X84440D01*
X83120D02*
X83480D01*
X82220D02*
X82520D01*
X81320D02*
X81520D01*
X80360D02*
X80640D01*
X79320D02*
X79740D01*
X78360D02*
X78660D01*
X77520D02*
X77760D01*
X74540D02*
X75640D01*
X85060Y10662D02*
X86340D01*
X84100D02*
X84440D01*
X83140D02*
X83480D01*
X82220D02*
X82520D01*
X81300D02*
X81560D01*
X80360D02*
X80640D01*
X79300D02*
X79760D01*
X78360D02*
X78660D01*
X77520D02*
X77760D01*
X74540D02*
X75660D01*
X85060Y10682D02*
X86340D01*
X84100D02*
X84460D01*
X83140D02*
X83480D01*
X82220D02*
X82520D01*
X81300D02*
X81580D01*
X80380D02*
X80640D01*
X79300D02*
X79760D01*
X78380D02*
X78660D01*
X77520D02*
X77760D01*
X74540D02*
X75680D01*
X85080Y10702D02*
X86340D01*
X84100D02*
X84460D01*
X83140D02*
X83500D01*
X82220D02*
X82520D01*
X81280D02*
X81600D01*
X80380D02*
X80660D01*
X79280D02*
X79760D01*
X78380D02*
X78660D01*
X77520D02*
X77760D01*
X74540D02*
X75680D01*
X85080Y10722D02*
X86340D01*
X84100D02*
X84460D01*
X83140D02*
X83500D01*
X82240D02*
X82540D01*
X81280D02*
X81600D01*
X80380D02*
X80660D01*
X79300D02*
X79760D01*
X78380D02*
X78680D01*
X77500D02*
X77780D01*
X74540D02*
X75700D01*
X85080Y10742D02*
X86340D01*
X84120D02*
X84460D01*
X83160D02*
X83500D01*
X82240D02*
X82540D01*
X81280D02*
X81620D01*
X80380D02*
X80660D01*
X79300D02*
X79780D01*
X78380D02*
X78680D01*
X77500D02*
X77780D01*
X74540D02*
X75700D01*
X85080Y10762D02*
X86340D01*
X84120D02*
X84480D01*
X83160D02*
X83500D01*
X82240D02*
X82540D01*
X81280D02*
X81620D01*
X80400D02*
X80660D01*
X79300D02*
X79780D01*
X78400D02*
X78680D01*
X77500D02*
X77780D01*
X74540D02*
X75720D01*
X85100Y10782D02*
X86340D01*
X84120D02*
X84480D01*
X83160D02*
X83520D01*
X82240D02*
X82540D01*
X81280D02*
X81640D01*
X80400D02*
X80680D01*
X79300D02*
X79780D01*
X78400D02*
X78680D01*
X77500D02*
X77780D01*
X74540D02*
X75720D01*
X85100Y10802D02*
X86340D01*
X84120D02*
X84480D01*
X83160D02*
X83520D01*
X82260D02*
X82560D01*
X81300D02*
X81640D01*
X80400D02*
X80680D01*
X79300D02*
X79780D01*
X78400D02*
X78700D01*
X77500D02*
X77800D01*
X74540D02*
X75740D01*
X85100Y10822D02*
X86340D01*
X84140D02*
X84480D01*
X83180D02*
X83520D01*
X82260D02*
X82560D01*
X81300D02*
X81640D01*
X80400D02*
X80680D01*
X79320D02*
X79800D01*
X78400D02*
X78700D01*
X77500D02*
X77800D01*
X74540D02*
X75740D01*
X85100Y10842D02*
X86340D01*
X84140D02*
X84500D01*
X83180D02*
X83520D01*
X82260D02*
X82560D01*
X81300D02*
X81640D01*
X80420D02*
X80680D01*
X79320D02*
X79800D01*
X78420D02*
X78700D01*
X77500D02*
X77800D01*
X74540D02*
X75760D01*
X85120Y10862D02*
X86340D01*
X84140D02*
X84500D01*
X83180D02*
X83540D01*
X82260D02*
X82560D01*
X81300D02*
X81660D01*
X80420D02*
X80700D01*
X79320D02*
X79800D01*
X78420D02*
X78700D01*
X77500D02*
X77800D01*
X74540D02*
X75760D01*
X85120Y10882D02*
X86340D01*
X84140D02*
X84500D01*
X83180D02*
X83540D01*
X82280D02*
X82580D01*
X81320D02*
X81660D01*
X80420D02*
X80700D01*
X79320D02*
X79800D01*
X78420D02*
X78720D01*
X77500D02*
X77820D01*
X74540D02*
X75780D01*
X85120Y10902D02*
X86340D01*
X84160D02*
X84500D01*
X83200D02*
X83540D01*
X82280D02*
X82580D01*
X81320D02*
X81660D01*
X80420D02*
X80700D01*
X79340D02*
X79820D01*
X78420D02*
X78720D01*
X77500D02*
X77820D01*
X74540D02*
X75780D01*
X85120Y10922D02*
X86340D01*
X84160D02*
X84520D01*
X83200D02*
X83540D01*
X82280D02*
X82580D01*
X81320D02*
X81660D01*
X80440D02*
X80700D01*
X79340D02*
X79820D01*
X78440D02*
X78720D01*
X77500D02*
X77820D01*
X74540D02*
X75800D01*
X85140Y10942D02*
X86340D01*
X84160D02*
X84520D01*
X83200D02*
X83560D01*
X82280D02*
X82580D01*
X81320D02*
X81680D01*
X80440D02*
X80720D01*
X79340D02*
X79820D01*
X78440D02*
X78720D01*
X77500D02*
X77820D01*
X74540D02*
X75800D01*
X85140Y10962D02*
X86340D01*
X84160D02*
X84520D01*
X83200D02*
X83560D01*
X82300D02*
X82600D01*
X81340D02*
X81680D01*
X80440D02*
X80720D01*
X79340D02*
X79820D01*
X78440D02*
X78740D01*
X77500D02*
X77840D01*
X74540D02*
X75820D01*
X85140Y10982D02*
X86340D01*
X84180D02*
X84520D01*
X83220D02*
X83560D01*
X82300D02*
X82600D01*
X81340D02*
X81680D01*
X80440D02*
X80720D01*
X79360D02*
X79840D01*
X78440D02*
X78740D01*
X77500D02*
X77840D01*
X74540D02*
X75840D01*
X85140Y11002D02*
X86340D01*
X84180D02*
X84540D01*
X83220D02*
X83560D01*
X82300D02*
X82600D01*
X81340D02*
X81680D01*
X80460D02*
X80720D01*
X79360D02*
X79840D01*
X78460D02*
X78740D01*
X77500D02*
X77840D01*
X74540D02*
X75840D01*
X85160Y11022D02*
X86340D01*
X84180D02*
X84540D01*
X83220D02*
X83580D01*
X82300D02*
X82600D01*
X81340D02*
X81700D01*
X80460D02*
X80740D01*
X79360D02*
X79840D01*
X78460D02*
X78740D01*
X77500D02*
X77840D01*
X74540D02*
X75860D01*
X85160Y11042D02*
X86340D01*
X84180D02*
X84540D01*
X83220D02*
X83580D01*
X82320D02*
X82620D01*
X81360D02*
X81700D01*
X80460D02*
X80740D01*
X79360D02*
X79840D01*
X78460D02*
X78760D01*
X77500D02*
X77860D01*
X74540D02*
X75860D01*
X85160Y11062D02*
X86340D01*
X84200D02*
X84540D01*
X83240D02*
X83580D01*
X82320D02*
X82620D01*
X81360D02*
X81700D01*
X80460D02*
X80740D01*
X79380D02*
X79860D01*
X78460D02*
X78760D01*
X77500D02*
X77860D01*
X76500D02*
X76860D01*
X74540D02*
X75880D01*
X85160Y11082D02*
X86340D01*
X84200D02*
X84560D01*
X83240D02*
X83580D01*
X82320D02*
X82620D01*
X81360D02*
X81700D01*
X80480D02*
X80740D01*
X79380D02*
X79860D01*
X78480D02*
X78760D01*
X77500D02*
X77860D01*
X76520D02*
X76860D01*
X74540D02*
X75880D01*
X85180Y11102D02*
X86340D01*
X84200D02*
X84560D01*
X83240D02*
X83600D01*
X82320D02*
X82620D01*
X81360D02*
X81720D01*
X80480D02*
X80760D01*
X79380D02*
X79860D01*
X78480D02*
X78760D01*
X77500D02*
X77860D01*
X76520D02*
X76860D01*
X74540D02*
X75900D01*
X85180Y11122D02*
X86340D01*
X84200D02*
X84560D01*
X83240D02*
X83600D01*
X82340D02*
X82640D01*
X81380D02*
X81720D01*
X80480D02*
X80760D01*
X79380D02*
X79860D01*
X78480D02*
X78780D01*
X77500D02*
X77880D01*
X76540D02*
X76860D01*
X74540D02*
X75900D01*
X85180Y11142D02*
X86340D01*
X84220D02*
X84560D01*
X83260D02*
X83600D01*
X82340D02*
X82640D01*
X81380D02*
X81720D01*
X80480D02*
X80760D01*
X79400D02*
X79880D01*
X78480D02*
X78780D01*
X77500D02*
X77880D01*
X76540D02*
X76860D01*
X74540D02*
X75920D01*
X85180Y11162D02*
X86340D01*
X84220D02*
X84580D01*
X83260D02*
X83600D01*
X82340D02*
X82640D01*
X81380D02*
X81720D01*
X80500D02*
X80760D01*
X79400D02*
X79880D01*
X78500D02*
X78780D01*
X77500D02*
X77880D01*
X76560D02*
X76860D01*
X74540D02*
X75920D01*
X85200Y11182D02*
X86340D01*
X84220D02*
X84580D01*
X83260D02*
X83620D01*
X82340D02*
X82640D01*
X81380D02*
X81740D01*
X80500D02*
X80780D01*
X79400D02*
X79880D01*
X78500D02*
X78780D01*
X77500D02*
X77880D01*
X76560D02*
X76860D01*
X74540D02*
X75940D01*
X85200Y11202D02*
X86340D01*
X84220D02*
X84580D01*
X83260D02*
X83620D01*
X82360D02*
X82660D01*
X81400D02*
X81740D01*
X80500D02*
X80780D01*
X79400D02*
X79880D01*
X78500D02*
X78800D01*
X77500D02*
X77900D01*
X76560D02*
X76880D01*
X74540D02*
X75940D01*
X85200Y11222D02*
X86340D01*
X84240D02*
X84580D01*
X83280D02*
X83620D01*
X82360D02*
X82660D01*
X81400D02*
X81740D01*
X80500D02*
X80780D01*
X79420D02*
X79900D01*
X78500D02*
X78800D01*
X77500D02*
X77900D01*
X76580D02*
X76880D01*
X74540D02*
X75960D01*
X85200Y11242D02*
X86340D01*
X84240D02*
X84600D01*
X83280D02*
X83620D01*
X82360D02*
X82660D01*
X81400D02*
X81740D01*
X80520D02*
X80780D01*
X79420D02*
X79900D01*
X78520D02*
X78800D01*
X77480D02*
X77900D01*
X76580D02*
X76880D01*
X74540D02*
X75980D01*
X85220Y11262D02*
X86340D01*
X84240D02*
X84600D01*
X83280D02*
X83640D01*
X82360D02*
X82660D01*
X81400D02*
X81760D01*
X80520D02*
X80800D01*
X79420D02*
X79900D01*
X78520D02*
X78800D01*
X77480D02*
X77900D01*
X76600D02*
X76880D01*
X74540D02*
X75980D01*
X85220Y11282D02*
X86340D01*
X84240D02*
X84600D01*
X83280D02*
X83640D01*
X82380D02*
X82680D01*
X81420D02*
X81760D01*
X80520D02*
X80800D01*
X79420D02*
X79900D01*
X78520D02*
X78820D01*
X77480D02*
X77920D01*
X76600D02*
X76880D01*
X74540D02*
X76000D01*
X85220Y11302D02*
X86340D01*
X84260D02*
X84600D01*
X83300D02*
X83640D01*
X82380D02*
X82680D01*
X81420D02*
X81760D01*
X80520D02*
X80800D01*
X79440D02*
X79920D01*
X78520D02*
X78820D01*
X77480D02*
X77920D01*
X76620D02*
X76880D01*
X74540D02*
X76000D01*
X85220Y11322D02*
X86340D01*
X84260D02*
X84620D01*
X83300D02*
X83640D01*
X82380D02*
X82680D01*
X81420D02*
X81760D01*
X80540D02*
X80800D01*
X79440D02*
X79920D01*
X78540D02*
X78820D01*
X77480D02*
X77920D01*
X76620D02*
X76880D01*
X74540D02*
X76020D01*
X85240Y11342D02*
X86340D01*
X84260D02*
X84620D01*
X83300D02*
X83660D01*
X82380D02*
X82680D01*
X81420D02*
X81780D01*
X80540D02*
X80820D01*
X79440D02*
X79920D01*
X78540D02*
X78840D01*
X77480D02*
X77920D01*
X76640D02*
X76880D01*
X74540D02*
X76020D01*
X85240Y11362D02*
X86340D01*
X84280D02*
X84620D01*
X83300D02*
X83660D01*
X82400D02*
X82700D01*
X81440D02*
X81780D01*
X80540D02*
X80820D01*
X79440D02*
X79920D01*
X78540D02*
X78840D01*
X77480D02*
X77940D01*
X76640D02*
X76880D01*
X74540D02*
X76040D01*
X85240Y11382D02*
X86340D01*
X84280D02*
X84620D01*
X83320D02*
X83660D01*
X82400D02*
X82700D01*
X81440D02*
X81780D01*
X80540D02*
X80820D01*
X79460D02*
X79940D01*
X78540D02*
X78840D01*
X77480D02*
X77940D01*
X76660D02*
X76880D01*
X74540D02*
X76040D01*
X85240Y11402D02*
X86340D01*
X84280D02*
X84620D01*
X83320D02*
X83660D01*
X82400D02*
X82700D01*
X81440D02*
X81780D01*
X80560D02*
X80820D01*
X79460D02*
X79940D01*
X78560D02*
X78840D01*
X77480D02*
X77940D01*
X76660D02*
X76880D01*
X74540D02*
X76060D01*
X85260Y11422D02*
X86340D01*
X84300D02*
X84640D01*
X83340D02*
X83660D01*
X82400D02*
X82700D01*
X81440D02*
X81800D01*
X80560D02*
X80840D01*
X79460D02*
X79940D01*
X78560D02*
X78860D01*
X77480D02*
X77940D01*
X76680D02*
X76880D01*
X74540D02*
X76060D01*
X85260Y11442D02*
X86340D01*
X84300D02*
X84620D01*
X83340D02*
X83660D01*
X82420D02*
X82720D01*
X81460D02*
X81800D01*
X80560D02*
X80840D01*
X79460D02*
X79940D01*
X78560D02*
X78860D01*
X77480D02*
X77960D01*
X76680D02*
X76880D01*
X74540D02*
X76080D01*
X85260Y11462D02*
X86340D01*
X84320D02*
X84620D01*
X83360D02*
X83660D01*
X82420D02*
X82720D01*
X81460D02*
X81800D01*
X80560D02*
X80840D01*
X79480D02*
X79960D01*
X78560D02*
X78860D01*
X77480D02*
X77960D01*
X76680D02*
X76880D01*
X74540D02*
X76080D01*
X85260Y11482D02*
X86340D01*
X84340D02*
X84620D01*
X83380D02*
X83660D01*
X82420D02*
X82720D01*
X81460D02*
X81800D01*
X80580D02*
X80840D01*
X79480D02*
X79960D01*
X78580D02*
X78860D01*
X77480D02*
X77960D01*
X76700D02*
X76880D01*
X74540D02*
X76100D01*
X85280Y11502D02*
X86340D01*
X84360D02*
X84600D01*
X83400D02*
X83640D01*
X82420D02*
X82720D01*
X81460D02*
X81820D01*
X80580D02*
X80860D01*
X79480D02*
X79960D01*
X78580D02*
X78880D01*
X77480D02*
X77960D01*
X76700D02*
X76880D01*
X74540D02*
X76100D01*
X85280Y11522D02*
X86340D01*
X84400D02*
X84580D01*
X83440D02*
X83620D01*
X82440D02*
X82740D01*
X81480D02*
X81820D01*
X80580D02*
X80860D01*
X79480D02*
X79960D01*
X78580D02*
X78880D01*
X77480D02*
X77980D01*
X76720D02*
X76880D01*
X74540D02*
X76120D01*
X85280Y11542D02*
X86340D01*
X82440D02*
X82740D01*
X81480D02*
X81820D01*
X80580D02*
X80860D01*
X79740D02*
X79980D01*
X78580D02*
X78880D01*
X77480D02*
X77980D01*
X76720D02*
X76880D01*
X74540D02*
X76140D01*
X85280Y11562D02*
X86340D01*
X82440D02*
X82740D01*
X81480D02*
X81820D01*
X80600D02*
X80860D01*
X79760D02*
X79980D01*
X78600D02*
X78880D01*
X77480D02*
X77980D01*
X76740D02*
X76900D01*
X74540D02*
X76140D01*
X85280Y11582D02*
X86340D01*
X82440D02*
X82740D01*
X81480D02*
X81840D01*
X80600D02*
X80880D01*
X79760D02*
X79980D01*
X78600D02*
X78900D01*
X77480D02*
X77980D01*
X76740D02*
X76900D01*
X74540D02*
X76160D01*
X85300Y11602D02*
X86340D01*
X82460D02*
X82760D01*
X81500D02*
X81840D01*
X80600D02*
X80880D01*
X79760D02*
X79980D01*
X78600D02*
X78900D01*
X77480D02*
X78000D01*
X76760D02*
X76900D01*
X74540D02*
X76160D01*
X85300Y11622D02*
X86340D01*
X82460D02*
X82760D01*
X81500D02*
X81840D01*
X80600D02*
X80880D01*
X79760D02*
X80000D01*
X78600D02*
X78900D01*
X77480D02*
X78000D01*
X76760D02*
X76900D01*
X74540D02*
X76180D01*
X85300Y11642D02*
X86340D01*
X82460D02*
X82760D01*
X81500D02*
X81840D01*
X80620D02*
X80880D01*
X79780D02*
X80000D01*
X78620D02*
X78900D01*
X77480D02*
X78000D01*
X76780D02*
X76900D01*
X74540D02*
X76180D01*
X85300Y11662D02*
X86340D01*
X82460D02*
X82760D01*
X81500D02*
X81860D01*
X80620D02*
X80900D01*
X79780D02*
X80000D01*
X78620D02*
X78920D01*
X77480D02*
X78000D01*
X76780D02*
X76900D01*
X74540D02*
X76200D01*
X85300Y11682D02*
X86340D01*
X82480D02*
X82780D01*
X81520D02*
X81860D01*
X80620D02*
X80900D01*
X79780D02*
X80000D01*
X78620D02*
X78920D01*
X77480D02*
X78020D01*
X76780D02*
X76900D01*
X74540D02*
X76200D01*
X85300Y11702D02*
X86340D01*
X82480D02*
X82780D01*
X81520D02*
X81860D01*
X80620D02*
X80900D01*
X79780D02*
X80020D01*
X78620D02*
X78920D01*
X77480D02*
X78020D01*
X76800D02*
X76900D01*
X74540D02*
X76220D01*
X85280Y11722D02*
X86340D01*
X84340D02*
X84360D01*
X83400D02*
X83420D01*
X82480D02*
X82780D01*
X81520D02*
X81860D01*
X80640D02*
X80900D01*
X79800D02*
X80020D01*
X78640D02*
X78920D01*
X77480D02*
X78020D01*
X76800D02*
X76900D01*
X74540D02*
X76220D01*
X85280Y11742D02*
X86340D01*
X84320D02*
X84380D01*
X83400D02*
X83440D01*
X82480D02*
X82780D01*
X81520D02*
X81880D01*
X80640D02*
X80920D01*
X79800D02*
X80020D01*
X78640D02*
X78940D01*
X77480D02*
X78020D01*
X76820D02*
X76900D01*
X74540D02*
X76240D01*
X85280Y11762D02*
X86340D01*
X84320D02*
X84400D01*
X83420D02*
X83460D01*
X82500D02*
X82800D01*
X81540D02*
X81880D01*
X80640D02*
X80920D01*
X79800D02*
X80020D01*
X78640D02*
X78940D01*
X77480D02*
X78040D01*
X76820D02*
X76900D01*
X74540D02*
X76240D01*
X85280Y11782D02*
X86340D01*
X84320D02*
X84420D01*
X83420D02*
X83480D01*
X82500D02*
X82800D01*
X81540D02*
X81880D01*
X80640D02*
X80920D01*
X79800D02*
X80040D01*
X78640D02*
X78940D01*
X77460D02*
X78040D01*
X76840D02*
X76900D01*
X74540D02*
X76260D01*
X85260Y11802D02*
X86340D01*
X84300D02*
X84440D01*
X83420D02*
X83500D01*
X82500D02*
X82800D01*
X81540D02*
X81880D01*
X80660D02*
X80920D01*
X79820D02*
X80040D01*
X78660D02*
X78940D01*
X77460D02*
X78040D01*
X76840D02*
X76900D01*
X74540D02*
X76280D01*
X85260Y11822D02*
X86340D01*
X84280D02*
X84460D01*
X83420D02*
X83520D01*
X82500D02*
X82800D01*
X81540D02*
X81900D01*
X80660D02*
X80940D01*
X79820D02*
X80040D01*
X78660D02*
X78960D01*
X77460D02*
X78040D01*
X76860D02*
X76900D01*
X74540D02*
X76280D01*
X85240Y11842D02*
X86340D01*
X84280D02*
X84500D01*
X83440D02*
X83560D01*
X82520D02*
X82820D01*
X81560D02*
X81900D01*
X80660D02*
X80940D01*
X79820D02*
X80040D01*
X78660D02*
X78960D01*
X77460D02*
X78060D01*
X76860D02*
X76900D01*
X74540D02*
X76300D01*
X85220Y11862D02*
X86340D01*
X84260D02*
X84540D01*
X83440D02*
X83580D01*
X82520D02*
X82820D01*
X81560D02*
X81900D01*
X80660D02*
X80940D01*
X79820D02*
X80060D01*
X78680D02*
X78960D01*
X77460D02*
X78060D01*
X76880D02*
X76900D01*
X74540D02*
X76300D01*
X85180Y11882D02*
X86340D01*
X84220D02*
X84580D01*
X83440D02*
X83620D01*
X82520D02*
X82820D01*
X81560D02*
X81900D01*
X80680D02*
X80940D01*
X79840D02*
X80060D01*
X78680D02*
X78960D01*
X77460D02*
X78060D01*
X76880D02*
X76900D01*
X74540D02*
X76320D01*
X85140Y11902D02*
X86340D01*
X84200D02*
X84620D01*
X79840D02*
X83660D01*
X78680D02*
X78980D01*
X77460D02*
X78060D01*
X74540D02*
X76320D01*
X85100Y11922D02*
X86340D01*
X84140D02*
X84680D01*
X79580D02*
X83720D01*
X78680D02*
X78980D01*
X77460D02*
X78080D01*
X74540D02*
X76340D01*
X85000Y11942D02*
X86340D01*
X84060D02*
X84800D01*
X79600D02*
X83840D01*
X78700D02*
X78980D01*
X77460D02*
X78080D01*
X74540D02*
X76340D01*
X79600Y11962D02*
X86340D01*
X78700D02*
X78980D01*
X77460D02*
X78080D01*
X74540D02*
X76360D01*
X79600Y11982D02*
X86340D01*
X78700D02*
X79000D01*
X77460D02*
X78080D01*
X74540D02*
X76360D01*
X79600Y12002D02*
X86340D01*
X78700D02*
X79000D01*
X77460D02*
X78100D01*
X74540D02*
X76380D01*
X79620Y12022D02*
X86340D01*
X78720D02*
X79000D01*
X77460D02*
X78100D01*
X74540D02*
X76380D01*
X79620Y12042D02*
X86340D01*
X78720D02*
X79000D01*
X77460D02*
X78100D01*
X74540D02*
X76400D01*
X79620Y12062D02*
X86340D01*
X78720D02*
X79020D01*
X77460D02*
X78100D01*
X74540D02*
X76420D01*
X79620Y12082D02*
X86340D01*
X78720D02*
X79020D01*
X77460D02*
X78100D01*
X74540D02*
X76420D01*
X79640Y12102D02*
X86340D01*
X78740D02*
X79020D01*
X77460D02*
X78120D01*
X74540D02*
X76440D01*
X79640Y12122D02*
X86340D01*
X78740D02*
X79020D01*
X77460D02*
X78120D01*
X74540D02*
X76460D01*
X79640Y12142D02*
X86340D01*
X78740D02*
X79040D01*
X77460D02*
X78120D01*
X74540D02*
X76480D01*
X79660Y12162D02*
X86340D01*
X78740D02*
X79040D01*
X77460D02*
X78120D01*
X74540D02*
X76500D01*
X79660Y12182D02*
X86340D01*
X78760D02*
X79040D01*
X77460D02*
X78140D01*
X74540D02*
X76520D01*
X79660Y12202D02*
X86340D01*
X78760D02*
X79040D01*
X77460D02*
X78140D01*
X74540D02*
X76540D01*
X79660Y12222D02*
X86340D01*
X78760D02*
X79060D01*
X77460D02*
X78140D01*
X74540D02*
X76560D01*
X79680Y12242D02*
X86340D01*
X78760D02*
X79060D01*
X77460D02*
X78140D01*
X74540D02*
X76580D01*
X79680Y12262D02*
X86340D01*
X78780D02*
X79060D01*
X77460D02*
X78160D01*
X74540D02*
X76600D01*
X79680Y12282D02*
X86340D01*
X78780D02*
X79060D01*
X77460D02*
X78160D01*
X74540D02*
X76640D01*
X79680Y12302D02*
X86340D01*
X78780D02*
X79080D01*
X77440D02*
X78160D01*
X74540D02*
X76660D01*
X79700Y12322D02*
X86340D01*
X78780D02*
X79080D01*
X77440D02*
X78160D01*
X74540D02*
X76700D01*
X79700Y12342D02*
X86340D01*
X78800D02*
X79080D01*
X77440D02*
X78180D01*
X74540D02*
X76740D01*
X79700Y12362D02*
X86340D01*
X78800D02*
X79080D01*
X77440D02*
X78180D01*
X74540D02*
X76780D01*
X79700Y12382D02*
X86340D01*
X78800D02*
X79100D01*
X77440D02*
X78180D01*
X74540D02*
X76840D01*
X79720Y12402D02*
X86340D01*
X78800D02*
X79100D01*
X77440D02*
X78180D01*
X74540D02*
X76900D01*
X78820Y12422D02*
X86340D01*
X77440D02*
X78200D01*
X74540D02*
X77020D01*
X74540Y12442D02*
X86340D01*
X74560Y12462D02*
X86340D01*
X74560Y12482D02*
X86340D01*
X74560Y12502D02*
X86340D01*
X74560Y12522D02*
X86340D01*
X74580Y12542D02*
X86340D01*
X74580Y12562D02*
X86340D01*
X74580Y12582D02*
X86340D01*
X74600Y12602D02*
X86340D01*
X74600Y12622D02*
X86340D01*
X74620Y12642D02*
X86340D01*
X74620Y12662D02*
X86340D01*
X74640Y12682D02*
X86340D01*
X74640Y12702D02*
X86340D01*
X74640Y12722D02*
X86340D01*
X74660Y12742D02*
X86340D01*
X74680Y12762D02*
X86340D01*
X74680Y12782D02*
X86340D01*
X74700Y12802D02*
X86340D01*
X74700Y12822D02*
X86340D01*
X74720Y12842D02*
X86340D01*
X74740Y12862D02*
X86340D01*
X74760Y12882D02*
X86340D01*
X74760Y12902D02*
X86340D01*
X74780Y12922D02*
X86340D01*
X74800Y12942D02*
X86340D01*
X74820Y12962D02*
X86340D01*
X74840Y12982D02*
X86340D01*
X74840Y13002D02*
X86340D01*
X74860Y13022D02*
X86340D01*
X74880Y13042D02*
X86340D01*
X74900Y13062D02*
X86340D01*
X74920Y13082D02*
X86340D01*
X74940Y13102D02*
X86340D01*
X74980Y13122D02*
X86340D01*
X75000Y13142D02*
X86340D01*
X75020Y13162D02*
X86340D01*
X75040Y13182D02*
X86340D01*
X75080Y13202D02*
X86340D01*
X75100Y13222D02*
X86340D01*
X75140Y13242D02*
X86340D01*
X75180Y13262D02*
X86340D01*
X75220Y13282D02*
X86340D01*
X75260Y13302D02*
X86340D01*
X75300Y13322D02*
X86340D01*
X75360Y13342D02*
X86340D01*
X75420Y13362D02*
X86340D01*
X75480Y13382D02*
X86340D01*
X75600Y13402D02*
X86340D01*
X33613Y2290D02*
Y2490D01*
X33747Y2290D01*
Y2490D01*
X13113Y4530D02*
Y4730D01*
X13247Y4530D01*
Y4730D01*
X3513Y31580D02*
Y31780D01*
X3647Y31580D01*
Y31780D01*
X3412Y47520D02*
Y47720D01*
X3545Y47520D01*
Y47720D01*
X36953Y24110D02*
Y24310D01*
X37087Y24110D01*
Y24310D01*
X34653Y22620D02*
Y22820D01*
X34787Y22620D01*
Y22820D01*
X27813Y16830D02*
Y17030D01*
X27947Y16830D01*
Y17030D01*
X27447Y25980D02*
Y26180D01*
X27580Y25980D01*
Y26180D01*
X32013Y6980D02*
Y7180D01*
X32147Y6980D01*
Y7180D01*
X39513Y24680D02*
Y24880D01*
X39647Y24680D01*
Y24880D01*
X39677Y20380D02*
X39610D01*
X39577Y20347D01*
Y20213D01*
X39610Y20180D01*
X39677D01*
X39710Y20213D01*
Y20347D01*
X39677Y20380D01*
X39713Y18680D02*
X39647D01*
X39613Y18647D01*
Y18513D01*
X39647Y18480D01*
X39713D01*
X39747Y18513D01*
Y18647D01*
X39713Y18680D01*
X41613Y28730D02*
Y28930D01*
X41747Y28730D01*
Y28930D01*
X36084Y30430D02*
Y30630D01*
X36217Y30430D01*
Y30630D01*
X36363Y34780D02*
Y34980D01*
X36497Y34780D01*
Y34980D01*
X3153Y44970D02*
Y45170D01*
X3287Y44970D01*
Y45170D01*
X19113Y23460D02*
Y23660D01*
X19247Y23460D01*
Y23660D01*
X34263Y12780D02*
Y12980D01*
X34397Y12780D01*
Y12980D01*
X32221Y46980D02*
Y47180D01*
X32354Y46980D01*
Y47180D01*
X42213Y4930D02*
Y5130D01*
X42347Y4930D01*
Y5130D01*
X40753Y16080D02*
X40687D01*
X40653Y16047D01*
Y15913D01*
X40687Y15880D01*
X40753D01*
X40787Y15913D01*
Y16047D01*
X40753Y16080D01*
X61433Y16830D02*
Y17030D01*
X61567Y16830D01*
Y17030D01*
X62313Y16020D02*
Y16220D01*
X62447Y16020D01*
Y16220D01*
X61413Y16020D02*
Y16220D01*
X61547Y16020D01*
Y16220D01*
X61433Y17640D02*
Y17840D01*
X61567Y17640D01*
Y17840D01*
X60533Y17640D02*
Y17840D01*
X60667Y17640D01*
Y17840D01*
X60513Y16020D02*
Y16220D01*
X60647Y16020D01*
Y16220D01*
X60513Y16830D02*
Y17030D01*
X60647Y16830D01*
Y17030D01*
X62313Y16830D02*
Y17030D01*
X62447Y16830D01*
Y17030D01*
X62313Y17640D02*
Y17840D01*
X62447Y17640D01*
Y17840D01*
X25883Y480D02*
X25817D01*
X25783Y447D01*
Y313D01*
X25817Y280D01*
X25883D01*
X25917Y313D01*
Y447D01*
X25883Y480D01*
X1493Y5880D02*
X1427D01*
X1393Y5847D01*
Y5713D01*
X1427Y5680D01*
X1493D01*
X1527Y5713D01*
Y5847D01*
X1493Y5880D01*
X27683Y7374D02*
X27617D01*
X27583Y7341D01*
Y7208D01*
X27617Y7174D01*
X27683D01*
X27717Y7208D01*
Y7341D01*
X27683Y7374D01*
X40647Y25930D02*
Y26130D01*
X40780Y25930D01*
Y26130D01*
X45573Y10470D02*
Y10670D01*
X45707Y10470D01*
Y10670D01*
X45573Y11280D02*
Y11480D01*
X45707Y11280D01*
Y11480D01*
X47373Y11280D02*
Y11480D01*
X47507Y11280D01*
Y11480D01*
X47373Y12090D02*
Y12290D01*
X47507Y12090D01*
Y12290D01*
X46453Y10470D02*
Y10670D01*
X46587Y10470D01*
Y10670D01*
X46473Y12090D02*
Y12290D01*
X46607Y12090D01*
Y12290D01*
X45573Y12090D02*
Y12290D01*
X45707Y12090D01*
Y12290D01*
X46453Y11280D02*
Y11480D01*
X46587Y11280D01*
Y11480D01*
X39713Y17680D02*
X39647D01*
X39613Y17647D01*
Y17513D01*
X39647Y17480D01*
X39713D01*
X39747Y17513D01*
Y17647D01*
X39713Y17680D01*
X29713Y20580D02*
Y20780D01*
X29847Y20580D01*
Y20780D01*
X27763Y31818D02*
Y32018D01*
X27897Y31818D01*
Y32018D01*
X36293Y27460D02*
Y27660D01*
X36427Y27460D01*
Y27660D01*
X36533Y28420D02*
Y28620D01*
X36667Y28420D01*
Y28620D01*
X34513Y25720D02*
Y25920D01*
X34647Y25720D01*
Y25920D01*
X34458Y29024D02*
Y29224D01*
X34591Y29024D01*
Y29224D01*
X32893Y31160D02*
Y31360D01*
X33027Y31160D01*
Y31360D01*
X28033Y34000D02*
Y34200D01*
X28167Y34000D01*
Y34200D01*
X41673Y18720D02*
X41607D01*
X41573Y18687D01*
Y18553D01*
X41607Y18520D01*
X41673D01*
X41707Y18553D01*
Y18687D01*
X41673Y18720D01*
Y20380D02*
X41607D01*
X41573Y20347D01*
Y20213D01*
X41607Y20180D01*
X41673D01*
X41707Y20213D01*
Y20347D01*
X41673Y20380D01*
X54683Y13490D02*
X54617D01*
X54583Y13457D01*
Y13323D01*
X54617Y13290D01*
X54683D01*
X54717Y13323D01*
Y13457D01*
X54683Y13490D01*
X49933Y8040D02*
X49867D01*
X49833Y8007D01*
Y7873D01*
X49867Y7840D01*
X49933D01*
X49967Y7873D01*
Y8007D01*
X49933Y8040D01*
X47353Y10470D02*
Y10670D01*
X47487Y10470D01*
Y10670D01*
X25013Y23880D02*
X24947D01*
X24913Y23847D01*
Y23713D01*
X24947Y23680D01*
X25013D01*
X25047Y23713D01*
Y23847D01*
X25013Y23880D01*
X58595Y9840D02*
X58662D01*
X58629D01*
Y9640D01*
X58595D01*
X58662D01*
X56595Y9840D02*
X56662D01*
X56629D01*
Y9640D01*
X56595D01*
X56662D01*
X56595Y10840D02*
X56662D01*
X56629D01*
Y10640D01*
X56595D01*
X56662D01*
X58595Y10840D02*
X58662D01*
X58629D01*
Y10640D01*
X58595D01*
X58662D01*
X57913Y2080D02*
Y1880D01*
Y1980D01*
X58047D01*
Y2080D01*
Y1880D01*
X31047Y35547D02*
X31013Y35580D01*
X30947D01*
X30913Y35547D01*
Y35413D01*
X30947Y35380D01*
X31013D01*
X31047Y35413D01*
Y35480D01*
X30980D01*
X58047Y37047D02*
X58013Y37080D01*
X57947D01*
X57913Y37047D01*
Y36913D01*
X57947Y36880D01*
X58013D01*
X58047Y36913D01*
Y36980D01*
X57980D01*
X31047Y55647D02*
X31013Y55680D01*
X30947D01*
X30913Y55647D01*
Y55513D01*
X30947Y55480D01*
X31013D01*
X31047Y55513D01*
Y55580D01*
X30980D01*
X58047Y55647D02*
X58013Y55680D01*
X57947D01*
X57913Y55647D01*
Y55513D01*
X57947Y55480D01*
X58013D01*
X58047Y55513D01*
Y55580D01*
X57980D01*
X7447Y55647D02*
X7413Y55680D01*
X7347D01*
X7313Y55647D01*
Y55513D01*
X7347Y55480D01*
X7413D01*
X7447Y55513D01*
Y55580D01*
X7380D01*
X2047Y37047D02*
X2013Y37080D01*
X1947D01*
X1913Y37047D01*
Y36913D01*
X1947Y36880D01*
X2013D01*
X2047Y36913D01*
Y36980D01*
X1980D01*
X2047Y1947D02*
X2013Y1980D01*
X1947D01*
X1913Y1947D01*
Y1813D01*
X1947Y1780D01*
X2013D01*
X2047Y1813D01*
Y1880D01*
X1980D01*
X31047Y10047D02*
X31013Y10080D01*
X30947D01*
X30913Y10047D01*
Y9913D01*
X30947Y9880D01*
X31013D01*
X31047Y9913D01*
Y9980D01*
X30980D01*
X61197Y4580D02*
X61063D01*
Y4480D01*
X61130D01*
X61063D01*
Y4380D01*
X62347Y6580D02*
X62213D01*
Y6480D01*
X62280D01*
X62213D01*
Y6380D01*
X63447Y4580D02*
X63313D01*
Y4480D01*
X63380D01*
X63313D01*
Y4380D01*
X12483Y34950D02*
Y34750D01*
X12583D01*
X12617Y34783D01*
Y34817D01*
X12583Y34850D01*
X12483D01*
X12583D01*
X12617Y34883D01*
Y34917D01*
X12583Y34950D01*
X12483D01*
X11483D02*
Y34750D01*
X11583D01*
X11617Y34783D01*
Y34817D01*
X11583Y34850D01*
X11483D01*
X11583D01*
X11617Y34883D01*
Y34917D01*
X11583Y34950D01*
X11483D01*
X12483Y33950D02*
Y33750D01*
X12583D01*
X12617Y33784D01*
Y33817D01*
X12583Y33850D01*
X12483D01*
X12583D01*
X12617Y33884D01*
Y33917D01*
X12583Y33950D01*
X12483D01*
X11483D02*
Y33750D01*
X11583D01*
X11617Y33784D01*
Y33817D01*
X11583Y33850D01*
X11483D01*
X11583D01*
X11617Y33884D01*
Y33917D01*
X11583Y33950D01*
X11483D01*
X12483Y32950D02*
Y32750D01*
X12583D01*
X12617Y32783D01*
Y32817D01*
X12583Y32850D01*
X12483D01*
X12583D01*
X12617Y32883D01*
Y32917D01*
X12583Y32950D01*
X12483D01*
X11483D02*
Y32750D01*
X11583D01*
X11617Y32783D01*
Y32817D01*
X11583Y32850D01*
X11483D01*
X11583D01*
X11617Y32883D01*
Y32917D01*
X11583Y32950D01*
X11483D01*
X12463Y35980D02*
Y35780D01*
X12563D01*
X12597Y35813D01*
Y35847D01*
X12563Y35880D01*
X12463D01*
X12563D01*
X12597Y35913D01*
Y35947D01*
X12563Y35980D01*
X12463D01*
X11463D02*
Y35780D01*
X11563D01*
X11597Y35813D01*
Y35847D01*
X11563Y35880D01*
X11463D01*
X11563D01*
X11597Y35913D01*
Y35947D01*
X11563Y35980D01*
X11463D01*
X38434Y33083D02*
X38401Y33117D01*
X38334D01*
X38301Y33083D01*
Y32950D01*
X38334Y32917D01*
X38401D01*
X38434Y32950D01*
X37434Y33083D02*
X37401Y33117D01*
X37334D01*
X37301Y33083D01*
Y32950D01*
X37334Y32917D01*
X37401D01*
X37434Y32950D01*
X38434Y32083D02*
X38401Y32117D01*
X38334D01*
X38301Y32083D01*
Y31950D01*
X38334Y31917D01*
X38401D01*
X38434Y31950D01*
X37434Y32083D02*
X37401Y32117D01*
X37334D01*
X37301Y32083D01*
Y31950D01*
X37334Y31917D01*
X37401D01*
X37434Y31950D01*
X38434Y31083D02*
X38401Y31117D01*
X38334D01*
X38301Y31083D01*
Y30950D01*
X38334Y30917D01*
X38401D01*
X38434Y30950D01*
X37434Y31083D02*
X37401Y31117D01*
X37334D01*
X37301Y31083D01*
Y30950D01*
X37334Y30917D01*
X37401D01*
X37434Y30950D01*
X38434Y30083D02*
X38401Y30117D01*
X38334D01*
X38301Y30083D01*
Y29950D01*
X38334Y29917D01*
X38401D01*
X38434Y29950D01*
X37434Y30083D02*
X37401Y30117D01*
X37334D01*
X37301Y30083D01*
Y29950D01*
X37334Y29917D01*
X37401D01*
X37434Y29950D01*
X38434Y29083D02*
X38401Y29117D01*
X38334D01*
X38301Y29083D01*
Y28950D01*
X38334Y28917D01*
X38401D01*
X38434Y28950D01*
X37434Y29083D02*
X37401Y29117D01*
X37334D01*
X37301Y29083D01*
Y28950D01*
X37334Y28917D01*
X37401D01*
X37434Y28950D01*
X38434Y28083D02*
X38401Y28117D01*
X38334D01*
X38301Y28083D01*
Y27950D01*
X38334Y27917D01*
X38401D01*
X38434Y27950D01*
X37434Y28083D02*
X37401Y28117D01*
X37334D01*
X37301Y28083D01*
Y27950D01*
X37334Y27917D01*
X37401D01*
X37434Y27950D01*
X38434Y27083D02*
X38401Y27117D01*
X38334D01*
X38301Y27083D01*
Y26950D01*
X38334Y26917D01*
X38401D01*
X38434Y26950D01*
X37434Y27083D02*
X37401Y27117D01*
X37334D01*
X37301Y27083D01*
Y26950D01*
X37334Y26917D01*
X37401D01*
X37434Y26950D01*
X38434Y26083D02*
X38401Y26117D01*
X38334D01*
X38301Y26083D01*
Y25950D01*
X38334Y25917D01*
X38401D01*
X38434Y25950D01*
X37434Y26083D02*
X37401Y26117D01*
X37334D01*
X37301Y26083D01*
Y25950D01*
X37334Y25917D01*
X37401D01*
X37434Y25950D01*
X52413Y3800D02*
Y3933D01*
X52480Y4000D01*
X52547Y3933D01*
Y3800D01*
Y3900D01*
X52413D01*
X52413Y1832D02*
Y1965D01*
X52480Y2031D01*
X52547Y1965D01*
Y1832D01*
Y1931D01*
X52413D01*
X26113Y24654D02*
Y24454D01*
X26213D01*
X26247Y24487D01*
Y24520D01*
X26213Y24554D01*
X26113D01*
X26213D01*
X26247Y24587D01*
Y24620D01*
X26213Y24654D01*
X26113D01*
X29113D02*
Y24454D01*
X29213D01*
X29247Y24487D01*
Y24520D01*
X29213Y24554D01*
X29113D01*
X29213D01*
X29247Y24587D01*
Y24620D01*
X29213Y24654D01*
X29113D01*
X26113Y22654D02*
Y22454D01*
X26213D01*
X26247Y22487D01*
Y22520D01*
X26213Y22554D01*
X26113D01*
X26213D01*
X26247Y22587D01*
Y22620D01*
X26213Y22654D01*
X26113D01*
Y23654D02*
Y23454D01*
X26213D01*
X26247Y23487D01*
Y23520D01*
X26213Y23554D01*
X26113D01*
X26213D01*
X26247Y23587D01*
Y23620D01*
X26213Y23654D01*
X26113D01*
Y25654D02*
Y25454D01*
X26213D01*
X26247Y25487D01*
Y25520D01*
X26213Y25554D01*
X26113D01*
X26213D01*
X26247Y25587D01*
Y25620D01*
X26213Y25654D01*
X26113D01*
Y26654D02*
Y26454D01*
X26213D01*
X26247Y26487D01*
Y26520D01*
X26213Y26554D01*
X26113D01*
X26213D01*
X26247Y26587D01*
Y26620D01*
X26213Y26654D01*
X26113D01*
X29113Y22654D02*
Y22454D01*
X29213D01*
X29247Y22487D01*
Y22520D01*
X29213Y22554D01*
X29113D01*
X29213D01*
X29247Y22587D01*
Y22620D01*
X29213Y22654D01*
X29113D01*
Y23654D02*
Y23454D01*
X29213D01*
X29247Y23487D01*
Y23520D01*
X29213Y23554D01*
X29113D01*
X29213D01*
X29247Y23587D01*
Y23620D01*
X29213Y23654D01*
X29113D01*
Y25654D02*
Y25454D01*
X29213D01*
X29247Y25487D01*
Y25520D01*
X29213Y25554D01*
X29113D01*
X29213D01*
X29247Y25587D01*
Y25620D01*
X29213Y25654D01*
X29113D01*
Y26654D02*
Y26454D01*
X29213D01*
X29247Y26487D01*
Y26520D01*
X29213Y26554D01*
X29113D01*
X29213D01*
X29247Y26587D01*
Y26620D01*
X29213Y26654D01*
X29113D01*
X30513Y24680D02*
Y24480D01*
X30613D01*
X30647Y24513D01*
Y24547D01*
X30613Y24580D01*
X30513D01*
X30613D01*
X30647Y24613D01*
Y24647D01*
X30613Y24680D01*
X30513D01*
X33513D02*
Y24480D01*
X33613D01*
X33647Y24513D01*
Y24547D01*
X33613Y24580D01*
X33513D01*
X33613D01*
X33647Y24613D01*
Y24647D01*
X33613Y24680D01*
X33513D01*
X30513Y22680D02*
Y22480D01*
X30613D01*
X30647Y22513D01*
Y22547D01*
X30613Y22580D01*
X30513D01*
X30613D01*
X30647Y22613D01*
Y22647D01*
X30613Y22680D01*
X30513D01*
Y23680D02*
Y23480D01*
X30613D01*
X30647Y23513D01*
Y23547D01*
X30613Y23580D01*
X30513D01*
X30613D01*
X30647Y23613D01*
Y23647D01*
X30613Y23680D01*
X30513D01*
Y25680D02*
Y25480D01*
X30613D01*
X30647Y25513D01*
Y25547D01*
X30613Y25580D01*
X30513D01*
X30613D01*
X30647Y25613D01*
Y25647D01*
X30613Y25680D01*
X30513D01*
Y26680D02*
Y26480D01*
X30613D01*
X30647Y26513D01*
Y26547D01*
X30613Y26580D01*
X30513D01*
X30613D01*
X30647Y26613D01*
Y26647D01*
X30613Y26680D01*
X30513D01*
X33513Y22680D02*
Y22480D01*
X33613D01*
X33647Y22513D01*
Y22547D01*
X33613Y22580D01*
X33513D01*
X33613D01*
X33647Y22613D01*
Y22647D01*
X33613Y22680D01*
X33513D01*
Y23680D02*
Y23480D01*
X33613D01*
X33647Y23513D01*
Y23547D01*
X33613Y23580D01*
X33513D01*
X33613D01*
X33647Y23613D01*
Y23647D01*
X33613Y23680D01*
X33513D01*
Y25680D02*
Y25480D01*
X33613D01*
X33647Y25513D01*
Y25547D01*
X33613Y25580D01*
X33513D01*
X33613D01*
X33647Y25613D01*
Y25647D01*
X33613Y25680D01*
X33513D01*
Y26680D02*
Y26480D01*
X33613D01*
X33647Y26513D01*
Y26547D01*
X33613Y26580D01*
X33513D01*
X33613D01*
X33647Y26613D01*
Y26647D01*
X33613Y26680D01*
X33513D01*
X4655Y48670D02*
Y48470D01*
Y48537D01*
X4789Y48670D01*
X4689Y48570D01*
X4789Y48470D01*
X5655Y49170D02*
Y48970D01*
Y49037D01*
X5789Y49170D01*
X5689Y49070D01*
X5789Y48970D01*
X4655Y49670D02*
Y49470D01*
Y49537D01*
X4789Y49670D01*
X4689Y49570D01*
X4789Y49470D01*
X5655Y50170D02*
Y49970D01*
Y50037D01*
X5789Y50170D01*
X5689Y50070D01*
X5789Y49970D01*
X4655Y50670D02*
Y50470D01*
Y50537D01*
X4789Y50670D01*
X4689Y50570D01*
X4789Y50470D01*
X5655Y51170D02*
Y50970D01*
X5789D01*
X8155Y51722D02*
Y51922D01*
X8222Y51855D01*
X8289Y51922D01*
Y51722D01*
X8155Y47722D02*
Y47922D01*
X8222Y47855D01*
X8289Y47922D01*
Y47722D01*
X2137Y47137D02*
X2103Y47170D01*
X2037D01*
X2003Y47137D01*
Y47003D01*
X2037Y46970D01*
X2103D01*
X2137Y47003D01*
Y48137D02*
X2103Y48170D01*
X2037D01*
X2003Y48137D01*
Y48003D01*
X2037Y47970D01*
X2103D01*
X2137Y48003D01*
Y49137D02*
X2103Y49170D01*
X2037D01*
X2003Y49137D01*
Y49003D01*
X2037Y48970D01*
X2103D01*
X2137Y49003D01*
Y50137D02*
X2103Y50170D01*
X2037D01*
X2003Y50137D01*
Y50003D01*
X2037Y49970D01*
X2103D01*
X2137Y50003D01*
Y51137D02*
X2103Y51170D01*
X2037D01*
X2003Y51137D01*
Y51003D01*
X2037Y50970D01*
X2103D01*
X2137Y51003D01*
Y52137D02*
X2103Y52170D01*
X2037D01*
X2003Y52137D01*
Y52003D01*
X2037Y51970D01*
X2103D01*
X2137Y52003D01*
X23547Y19947D02*
X23513Y19980D01*
X23447D01*
X23413Y19947D01*
Y19813D01*
X23447Y19780D01*
X23513D01*
X23547Y19813D01*
Y18947D02*
X23513Y18980D01*
X23447D01*
X23413Y18947D01*
Y18813D01*
X23447Y18780D01*
X23513D01*
X23547Y18813D01*
Y17947D02*
X23513Y17980D01*
X23447D01*
X23413Y17947D01*
Y17813D01*
X23447Y17780D01*
X23513D01*
X23547Y17813D01*
Y16947D02*
X23513Y16980D01*
X23447D01*
X23413Y16947D01*
Y16813D01*
X23447Y16780D01*
X23513D01*
X23547Y16813D01*
Y15947D02*
X23513Y15980D01*
X23447D01*
X23413Y15947D01*
Y15813D01*
X23447Y15780D01*
X23513D01*
X23547Y15813D01*
Y14947D02*
X23513Y14980D01*
X23447D01*
X23413Y14947D01*
Y14813D01*
X23447Y14780D01*
X23513D01*
X23547Y14813D01*
Y10947D02*
X23513Y10980D01*
X23447D01*
X23413Y10947D01*
Y10813D01*
X23447Y10780D01*
X23513D01*
X23547Y10813D01*
Y11947D02*
X23513Y11980D01*
X23447D01*
X23413Y11947D01*
Y11813D01*
X23447Y11780D01*
X23513D01*
X23547Y11813D01*
Y12947D02*
X23513Y12980D01*
X23447D01*
X23413Y12947D01*
Y12813D01*
X23447Y12780D01*
X23513D01*
X23547Y12813D01*
Y13947D02*
X23513Y13980D01*
X23447D01*
X23413Y13947D01*
Y13813D01*
X23447Y13780D01*
X23513D01*
X23547Y13813D01*
Y5347D02*
X23513Y5380D01*
X23447D01*
X23413Y5347D01*
Y5213D01*
X23447Y5180D01*
X23513D01*
X23547Y5213D01*
Y4347D02*
X23513Y4380D01*
X23447D01*
X23413Y4347D01*
Y4213D01*
X23447Y4180D01*
X23513D01*
X23547Y4213D01*
Y3347D02*
X23513Y3380D01*
X23447D01*
X23413Y3347D01*
Y3213D01*
X23447Y3180D01*
X23513D01*
X23547Y3213D01*
Y2347D02*
X23513Y2380D01*
X23447D01*
X23413Y2347D01*
Y2213D01*
X23447Y2180D01*
X23513D01*
X23547Y2213D01*
Y6347D02*
X23513Y6380D01*
X23447D01*
X23413Y6347D01*
Y6213D01*
X23447Y6180D01*
X23513D01*
X23547Y6213D01*
Y7347D02*
X23513Y7380D01*
X23447D01*
X23413Y7347D01*
Y7213D01*
X23447Y7180D01*
X23513D01*
X23547Y7213D01*
Y8347D02*
X23513Y8380D01*
X23447D01*
X23413Y8347D01*
Y8213D01*
X23447Y8180D01*
X23513D01*
X23547Y8213D01*
Y9347D02*
X23513Y9380D01*
X23447D01*
X23413Y9347D01*
Y9213D01*
X23447Y9180D01*
X23513D01*
X23547Y9213D01*
X4547Y12347D02*
X4513Y12380D01*
X4447D01*
X4413Y12347D01*
Y12213D01*
X4447Y12180D01*
X4513D01*
X4547Y12213D01*
Y11347D02*
X4513Y11380D01*
X4447D01*
X4413Y11347D01*
Y11213D01*
X4447Y11180D01*
X4513D01*
X4547Y11213D01*
Y10347D02*
X4513Y10380D01*
X4447D01*
X4413Y10347D01*
Y10213D01*
X4447Y10180D01*
X4513D01*
X4547Y10213D01*
Y9347D02*
X4513Y9380D01*
X4447D01*
X4413Y9347D01*
Y9213D01*
X4447Y9180D01*
X4513D01*
X4547Y9213D01*
Y13347D02*
X4513Y13380D01*
X4447D01*
X4413Y13347D01*
Y13213D01*
X4447Y13180D01*
X4513D01*
X4547Y13213D01*
Y14347D02*
X4513Y14380D01*
X4447D01*
X4413Y14347D01*
Y14213D01*
X4447Y14180D01*
X4513D01*
X4547Y14213D01*
Y3347D02*
X4513Y3380D01*
X4447D01*
X4413Y3347D01*
Y3213D01*
X4447Y3180D01*
X4513D01*
X4547Y3213D01*
Y2347D02*
X4513Y2380D01*
X4447D01*
X4413Y2347D01*
Y2213D01*
X4447Y2180D01*
X4513D01*
X4547Y2213D01*
Y4347D02*
X4513Y4380D01*
X4447D01*
X4413Y4347D01*
Y4213D01*
X4447Y4180D01*
X4513D01*
X4547Y4213D01*
Y5347D02*
X4513Y5380D01*
X4447D01*
X4413Y5347D01*
Y5213D01*
X4447Y5180D01*
X4513D01*
X4547Y5213D01*
Y6347D02*
X4513Y6380D01*
X4447D01*
X4413Y6347D01*
Y6213D01*
X4447Y6180D01*
X4513D01*
X4547Y6213D01*
Y7347D02*
X4513Y7380D01*
X4447D01*
X4413Y7347D01*
Y7213D01*
X4447Y7180D01*
X4513D01*
X4547Y7213D01*
Y15347D02*
X4513Y15380D01*
X4447D01*
X4413Y15347D01*
Y15213D01*
X4447Y15180D01*
X4513D01*
X4547Y15213D01*
X20627Y15327D02*
X20593Y15360D01*
X20527D01*
X20493Y15327D01*
Y15193D01*
X20527Y15160D01*
X20593D01*
X20627Y15193D01*
Y14327D02*
X20593Y14360D01*
X20527D01*
X20493Y14327D01*
Y14193D01*
X20527Y14160D01*
X20593D01*
X20627Y14193D01*
Y13327D02*
X20593Y13360D01*
X20527D01*
X20493Y13327D01*
Y13193D01*
X20527Y13160D01*
X20593D01*
X20627Y13193D01*
Y12327D02*
X20593Y12360D01*
X20527D01*
X20493Y12327D01*
Y12193D01*
X20527Y12160D01*
X20593D01*
X20627Y12193D01*
Y11327D02*
X20593Y11360D01*
X20527D01*
X20493Y11327D01*
Y11193D01*
X20527Y11160D01*
X20593D01*
X20627Y11193D01*
Y10327D02*
X20593Y10360D01*
X20527D01*
X20493Y10327D01*
Y10193D01*
X20527Y10160D01*
X20593D01*
X20627Y10193D01*
Y9327D02*
X20593Y9360D01*
X20527D01*
X20493Y9327D01*
Y9193D01*
X20527Y9160D01*
X20593D01*
X20627Y9193D01*
Y8327D02*
X20593Y8360D01*
X20527D01*
X20493Y8327D01*
Y8193D01*
X20527Y8160D01*
X20593D01*
X20627Y8193D01*
Y7327D02*
X20593Y7360D01*
X20527D01*
X20493Y7327D01*
Y7193D01*
X20527Y7160D01*
X20593D01*
X20627Y7193D01*
Y6327D02*
X20593Y6360D01*
X20527D01*
X20493Y6327D01*
Y6193D01*
X20527Y6160D01*
X20593D01*
X20627Y6193D01*
Y5327D02*
X20593Y5360D01*
X20527D01*
X20493Y5327D01*
Y5193D01*
X20527Y5160D01*
X20593D01*
X20627Y5193D01*
Y4327D02*
X20593Y4360D01*
X20527D01*
X20493Y4327D01*
Y4193D01*
X20527Y4160D01*
X20593D01*
X20627Y4193D01*
Y3327D02*
X20593Y3360D01*
X20527D01*
X20493Y3327D01*
Y3193D01*
X20527Y3160D01*
X20593D01*
X20627Y3193D01*
X14627Y15327D02*
X14593Y15360D01*
X14527D01*
X14493Y15327D01*
Y15193D01*
X14527Y15160D01*
X14593D01*
X14627Y15193D01*
Y14327D02*
X14593Y14360D01*
X14527D01*
X14493Y14327D01*
Y14193D01*
X14527Y14160D01*
X14593D01*
X14627Y14193D01*
Y13327D02*
X14593Y13360D01*
X14527D01*
X14493Y13327D01*
Y13193D01*
X14527Y13160D01*
X14593D01*
X14627Y13193D01*
Y12327D02*
X14593Y12360D01*
X14527D01*
X14493Y12327D01*
Y12193D01*
X14527Y12160D01*
X14593D01*
X14627Y12193D01*
Y11327D02*
X14593Y11360D01*
X14527D01*
X14493Y11327D01*
Y11193D01*
X14527Y11160D01*
X14593D01*
X14627Y11193D01*
Y10327D02*
X14593Y10360D01*
X14527D01*
X14493Y10327D01*
Y10193D01*
X14527Y10160D01*
X14593D01*
X14627Y10193D01*
Y9327D02*
X14593Y9360D01*
X14527D01*
X14493Y9327D01*
Y9193D01*
X14527Y9160D01*
X14593D01*
X14627Y9193D01*
Y8327D02*
X14593Y8360D01*
X14527D01*
X14493Y8327D01*
Y8193D01*
X14527Y8160D01*
X14593D01*
X14627Y8193D01*
Y7327D02*
X14593Y7360D01*
X14527D01*
X14493Y7327D01*
Y7193D01*
X14527Y7160D01*
X14593D01*
X14627Y7193D01*
Y6327D02*
X14593Y6360D01*
X14527D01*
X14493Y6327D01*
Y6193D01*
X14527Y6160D01*
X14593D01*
X14627Y6193D01*
Y5327D02*
X14593Y5360D01*
X14527D01*
X14493Y5327D01*
Y5193D01*
X14527Y5160D01*
X14593D01*
X14627Y5193D01*
Y4327D02*
X14593Y4360D01*
X14527D01*
X14493Y4327D01*
Y4193D01*
X14527Y4160D01*
X14593D01*
X14627Y4193D01*
Y3327D02*
X14593Y3360D01*
X14527D01*
X14493Y3327D01*
Y3193D01*
X14527Y3160D01*
X14593D01*
X14627Y3193D01*
Y2327D02*
X14593Y2360D01*
X14527D01*
X14493Y2327D01*
Y2193D01*
X14527Y2160D01*
X14593D01*
X14627Y2193D01*
X20627Y2327D02*
X20593Y2360D01*
X20527D01*
X20493Y2327D01*
Y2193D01*
X20527Y2160D01*
X20593D01*
X20627Y2193D01*
X60633Y47830D02*
Y47630D01*
X60733D01*
X60767Y47663D01*
Y47697D01*
X60733Y47730D01*
X60633D01*
X60733D01*
X60767Y47763D01*
Y47797D01*
X60733Y47830D01*
X60633D01*
Y44830D02*
Y44630D01*
X60733D01*
X60767Y44663D01*
Y44697D01*
X60733Y44730D01*
X60633D01*
X60733D01*
X60767Y44763D01*
Y44797D01*
X60733Y44830D01*
X60633D01*
X58633Y47830D02*
Y47630D01*
X58733D01*
X58767Y47663D01*
Y47697D01*
X58733Y47730D01*
X58633D01*
X58733D01*
X58767Y47763D01*
Y47797D01*
X58733Y47830D01*
X58633D01*
X59633D02*
Y47630D01*
X59733D01*
X59767Y47663D01*
Y47697D01*
X59733Y47730D01*
X59633D01*
X59733D01*
X59767Y47763D01*
Y47797D01*
X59733Y47830D01*
X59633D01*
X61633D02*
Y47630D01*
X61733D01*
X61767Y47663D01*
Y47697D01*
X61733Y47730D01*
X61633D01*
X61733D01*
X61767Y47763D01*
Y47797D01*
X61733Y47830D01*
X61633D01*
X62633D02*
Y47630D01*
X62733D01*
X62767Y47663D01*
Y47697D01*
X62733Y47730D01*
X62633D01*
X62733D01*
X62767Y47763D01*
Y47797D01*
X62733Y47830D01*
X62633D01*
X58633Y44830D02*
Y44630D01*
X58733D01*
X58767Y44663D01*
Y44697D01*
X58733Y44730D01*
X58633D01*
X58733D01*
X58767Y44763D01*
Y44797D01*
X58733Y44830D01*
X58633D01*
X59633D02*
Y44630D01*
X59733D01*
X59767Y44663D01*
Y44697D01*
X59733Y44730D01*
X59633D01*
X59733D01*
X59767Y44763D01*
Y44797D01*
X59733Y44830D01*
X59633D01*
X61633D02*
Y44630D01*
X61733D01*
X61767Y44663D01*
Y44697D01*
X61733Y44730D01*
X61633D01*
X61733D01*
X61767Y44763D01*
Y44797D01*
X61733Y44830D01*
X61633D01*
X62633D02*
Y44630D01*
X62733D01*
X62767Y44663D01*
Y44697D01*
X62733Y44730D01*
X62633D01*
X62733D01*
X62767Y44763D01*
Y44797D01*
X62733Y44830D01*
X62633D01*
X60663Y53390D02*
Y53190D01*
X60763D01*
X60797Y53223D01*
Y53257D01*
X60763Y53290D01*
X60663D01*
X60763D01*
X60797Y53323D01*
Y53357D01*
X60763Y53390D01*
X60663D01*
Y50390D02*
Y50190D01*
X60763D01*
X60797Y50223D01*
Y50257D01*
X60763Y50290D01*
X60663D01*
X60763D01*
X60797Y50323D01*
Y50357D01*
X60763Y50390D01*
X60663D01*
X58663Y53390D02*
Y53190D01*
X58763D01*
X58797Y53223D01*
Y53257D01*
X58763Y53290D01*
X58663D01*
X58763D01*
X58797Y53323D01*
Y53357D01*
X58763Y53390D01*
X58663D01*
X59663D02*
Y53190D01*
X59763D01*
X59797Y53223D01*
Y53257D01*
X59763Y53290D01*
X59663D01*
X59763D01*
X59797Y53323D01*
Y53357D01*
X59763Y53390D01*
X59663D01*
X61663D02*
Y53190D01*
X61763D01*
X61797Y53223D01*
Y53257D01*
X61763Y53290D01*
X61663D01*
X61763D01*
X61797Y53323D01*
Y53357D01*
X61763Y53390D01*
X61663D01*
X62663D02*
Y53190D01*
X62763D01*
X62797Y53223D01*
Y53257D01*
X62763Y53290D01*
X62663D01*
X62763D01*
X62797Y53323D01*
Y53357D01*
X62763Y53390D01*
X62663D01*
X58663Y50390D02*
Y50190D01*
X58763D01*
X58797Y50223D01*
Y50257D01*
X58763Y50290D01*
X58663D01*
X58763D01*
X58797Y50323D01*
Y50357D01*
X58763Y50390D01*
X58663D01*
X59663D02*
Y50190D01*
X59763D01*
X59797Y50223D01*
Y50257D01*
X59763Y50290D01*
X59663D01*
X59763D01*
X59797Y50323D01*
Y50357D01*
X59763Y50390D01*
X59663D01*
X61663D02*
Y50190D01*
X61763D01*
X61797Y50223D01*
Y50257D01*
X61763Y50290D01*
X61663D01*
X61763D01*
X61797Y50323D01*
Y50357D01*
X61763Y50390D01*
X61663D01*
X62663D02*
Y50190D01*
X62763D01*
X62797Y50223D01*
Y50257D01*
X62763Y50290D01*
X62663D01*
X62763D01*
X62797Y50323D01*
Y50357D01*
X62763Y50390D01*
X62663D01*
X59757Y43767D02*
X59723Y43800D01*
X59657D01*
X59623Y43767D01*
Y43633D01*
X59657Y43600D01*
X59723D01*
X59757Y43633D01*
X60757Y43767D02*
X60723Y43800D01*
X60657D01*
X60623Y43767D01*
Y43633D01*
X60657Y43600D01*
X60723D01*
X60757Y43633D01*
X61767Y43767D02*
X61733Y43800D01*
X61667D01*
X61633Y43767D01*
Y43633D01*
X61667Y43600D01*
X61733D01*
X61767Y43633D01*
X61777Y48647D02*
X61743Y48680D01*
X61677D01*
X61643Y48647D01*
Y48513D01*
X61677Y48480D01*
X61743D01*
X61777Y48513D01*
X60767Y48647D02*
X60733Y48680D01*
X60667D01*
X60633Y48647D01*
Y48513D01*
X60667Y48480D01*
X60733D01*
X60767Y48513D01*
X59767Y48647D02*
X59733Y48680D01*
X59667D01*
X59633Y48647D01*
Y48513D01*
X59667Y48480D01*
X59733D01*
X59767Y48513D01*
X61807Y49507D02*
X61773Y49540D01*
X61707D01*
X61673Y49507D01*
Y49373D01*
X61707Y49340D01*
X61773D01*
X61807Y49373D01*
X60797Y49507D02*
X60763Y49540D01*
X60697D01*
X60663Y49507D01*
Y49373D01*
X60697Y49340D01*
X60763D01*
X60797Y49373D01*
X59797Y49507D02*
X59763Y49540D01*
X59697D01*
X59663Y49507D01*
Y49373D01*
X59697Y49340D01*
X59763D01*
X59797Y49373D01*
X61807Y54307D02*
X61773Y54340D01*
X61707D01*
X61673Y54307D01*
Y54173D01*
X61707Y54140D01*
X61773D01*
X61807Y54173D01*
X60797Y54307D02*
X60763Y54340D01*
X60697D01*
X60663Y54307D01*
Y54173D01*
X60697Y54140D01*
X60763D01*
X60797Y54173D01*
X59797Y54307D02*
X59763Y54340D01*
X59697D01*
X59663Y54307D01*
Y54173D01*
X59697Y54140D01*
X59763D01*
X59797Y54173D01*
D108*
X142419Y57721D02*
Y56516D01*
Y57118D01*
X143223D01*
Y57721D01*
Y56516D01*
X143825D02*
X144227D01*
X144428Y56717D01*
Y57118D01*
X144227Y57319D01*
X143825D01*
X143624Y57118D01*
Y56717D01*
X143825Y56516D01*
X144829D02*
X145231D01*
X145030D01*
Y57721D01*
X144829D01*
X146436Y56516D02*
X146034D01*
X145833Y56717D01*
Y57118D01*
X146034Y57319D01*
X146436D01*
X146637Y57118D01*
Y56917D01*
X145833D01*
X148243Y57721D02*
X149047D01*
X148645D01*
Y56516D01*
X149649D02*
X150051D01*
X150252Y56717D01*
Y57118D01*
X150051Y57319D01*
X149649D01*
X149448Y57118D01*
Y56717D01*
X149649Y56516D01*
X150653D02*
X151055D01*
X150854D01*
Y57721D01*
X150653D01*
X152260Y56516D02*
X151858D01*
X151657Y56717D01*
Y57118D01*
X151858Y57319D01*
X152260D01*
X152461Y57118D01*
Y56917D01*
X151657D01*
X152862Y57319D02*
Y56516D01*
Y56917D01*
X153063Y57118D01*
X153264Y57319D01*
X153465D01*
X154268D02*
X154670D01*
X154871Y57118D01*
Y56516D01*
X154268D01*
X154067Y56717D01*
X154268Y56917D01*
X154871D01*
X155272Y56516D02*
Y57319D01*
X155875D01*
X156075Y57118D01*
Y56516D01*
X157280Y57319D02*
X156678D01*
X156477Y57118D01*
Y56717D01*
X156678Y56516D01*
X157280D01*
X158285D02*
X157883D01*
X157682Y56717D01*
Y57118D01*
X157883Y57319D01*
X158285D01*
X158485Y57118D01*
Y56917D01*
X157682D01*
X132760Y57721D02*
Y56917D01*
X133162Y56516D01*
X133564Y56917D01*
Y57721D01*
X133965Y56516D02*
X134367D01*
X134166D01*
Y57319D01*
X133965D01*
X135170D02*
X135572D01*
X135773Y57118D01*
Y56516D01*
X135170D01*
X134970Y56717D01*
X135170Y56917D01*
X135773D01*
X136174Y56516D02*
X136978Y57319D01*
X137379Y56516D02*
Y57721D01*
X137982D01*
X138183Y57520D01*
Y57118D01*
X137982Y56917D01*
X137379D01*
X138785Y57319D02*
X139187D01*
X139388Y57118D01*
Y56516D01*
X138785D01*
X138584Y56717D01*
X138785Y56917D01*
X139388D01*
X140593Y57721D02*
Y56516D01*
X139990D01*
X139789Y56717D01*
Y57118D01*
X139990Y57319D01*
X140593D01*
X120692Y57721D02*
Y56516D01*
Y57118D01*
X121495D01*
Y57721D01*
Y56516D01*
X122097D02*
X122499D01*
X122700Y56717D01*
Y57118D01*
X122499Y57319D01*
X122097D01*
X121897Y57118D01*
Y56717D01*
X122097Y56516D01*
X123102D02*
X123503D01*
X123302D01*
Y57721D01*
X123102D01*
X124708Y56516D02*
X124307D01*
X124106Y56717D01*
Y57118D01*
X124307Y57319D01*
X124708D01*
X124909Y57118D01*
Y56917D01*
X124106D01*
X126516Y57721D02*
X127319D01*
X126917D01*
Y56516D01*
X127721Y57319D02*
Y56717D01*
X127921Y56516D01*
X128524D01*
Y56315D01*
X128323Y56114D01*
X128122D01*
X128524Y56516D02*
Y57319D01*
X128926Y56114D02*
Y57319D01*
X129528D01*
X129729Y57118D01*
Y56717D01*
X129528Y56516D01*
X128926D01*
X130733D02*
X130331D01*
X130130Y56717D01*
Y57118D01*
X130331Y57319D01*
X130733D01*
X130934Y57118D01*
Y56917D01*
X130130D01*
X112439Y56516D02*
Y57721D01*
X113041D01*
X113242Y57520D01*
Y57118D01*
X113041Y56917D01*
X112439D01*
X113644Y56516D02*
X114045D01*
X113844D01*
Y57721D01*
X113644D01*
X114848Y57319D02*
X115250D01*
X115451Y57118D01*
Y56516D01*
X114848D01*
X114648Y56717D01*
X114848Y56917D01*
X115451D01*
X116053Y57520D02*
Y57319D01*
X115853D01*
X116254D01*
X116053D01*
Y56717D01*
X116254Y56516D01*
X117459D02*
X117058D01*
X116857Y56717D01*
Y57118D01*
X117058Y57319D01*
X117459D01*
X117660Y57118D01*
Y56917D01*
X116857D01*
X118865Y57721D02*
Y56516D01*
X118263D01*
X118062Y56717D01*
Y57118D01*
X118263Y57319D01*
X118865D01*
X93327Y57721D02*
Y56516D01*
Y57118D01*
X94130D01*
Y57721D01*
Y56516D01*
X94733D02*
X95134D01*
X95335Y56717D01*
Y57118D01*
X95134Y57319D01*
X94733D01*
X94532Y57118D01*
Y56717D01*
X94733Y56516D01*
X95737D02*
X96139D01*
X95938D01*
Y57721D01*
X95737D01*
X97344Y56516D02*
X96942D01*
X96741Y56717D01*
Y57118D01*
X96942Y57319D01*
X97344D01*
X97544Y57118D01*
Y56917D01*
X96741D01*
X99954Y57520D02*
X99753Y57721D01*
X99352D01*
X99151Y57520D01*
Y57319D01*
X99352Y57118D01*
X99753D01*
X99954Y56917D01*
Y56717D01*
X99753Y56516D01*
X99352D01*
X99151Y56717D01*
X100356Y56516D02*
X100758D01*
X100557D01*
Y57319D01*
X100356D01*
X101360D02*
X102163D01*
X101360Y56516D01*
X102163D01*
X103167D02*
X102766D01*
X102565Y56717D01*
Y57118D01*
X102766Y57319D01*
X103167D01*
X103368Y57118D01*
Y56917D01*
X102565D01*
X84223Y57520D02*
X84022Y57721D01*
X83621D01*
X83420Y57520D01*
Y56717D01*
X83621Y56516D01*
X84022D01*
X84223Y56717D01*
X84826Y56516D02*
X85227D01*
X85428Y56717D01*
Y57118D01*
X85227Y57319D01*
X84826D01*
X84625Y57118D01*
Y56717D01*
X84826Y56516D01*
X85830Y57319D02*
Y56717D01*
X86031Y56516D01*
X86633D01*
Y57319D01*
X87035Y56516D02*
Y57319D01*
X87637D01*
X87838Y57118D01*
Y56516D01*
X88441Y57520D02*
Y57319D01*
X88240D01*
X88641D01*
X88441D01*
Y56717D01*
X88641Y56516D01*
X75970Y57520D02*
X75769Y57721D01*
X75368D01*
X75167Y57520D01*
Y57319D01*
X75368Y57118D01*
X75769D01*
X75970Y56917D01*
Y56717D01*
X75769Y56516D01*
X75368D01*
X75167Y56717D01*
X76372Y57319D02*
Y56717D01*
X76573Y56516D01*
X77175D01*
Y56315D01*
X76974Y56114D01*
X76774D01*
X77175Y56516D02*
Y57319D01*
X77577Y56516D02*
Y57319D01*
X77778D01*
X77978Y57118D01*
Y56516D01*
Y57118D01*
X78179Y57319D01*
X78380Y57118D01*
Y56516D01*
X78782Y57721D02*
Y56516D01*
X79384D01*
X79585Y56717D01*
Y56917D01*
Y57118D01*
X79384Y57319D01*
X78782D01*
X80188Y56516D02*
X80589D01*
X80790Y56717D01*
Y57118D01*
X80589Y57319D01*
X80188D01*
X79987Y57118D01*
Y56717D01*
X80188Y56516D01*
X81192D02*
X81593D01*
X81392D01*
Y57721D01*
X81192D01*
M02*
