G04*
G04 #@! TF.GenerationSoftware,Altium Limited,Altium Designer,18.0.11 (651)*
G04*
G04 Layer_Color=128*
%FSLAX24Y24*%
%MOIN*%
G70*
G01*
G75*
%ADD107C,0.0020*%
D107*
X59530Y42900D02*
X59910D01*
X59720Y42710D02*
Y43090D01*
X60530Y42900D02*
X60910D01*
X60720Y42710D02*
Y43090D01*
X61530Y42900D02*
X61910D01*
X61720Y42710D02*
Y43090D01*
X59530Y48050D02*
X59910D01*
X59720Y47860D02*
Y48240D01*
X60530Y48050D02*
X60910D01*
X60720Y47860D02*
Y48240D01*
X61530Y48050D02*
X61910D01*
X61720Y47860D02*
Y48240D01*
X59560Y49250D02*
X59940D01*
X59750Y49060D02*
Y49440D01*
X60560Y49250D02*
X60940D01*
X60750Y49060D02*
Y49440D01*
X61560Y49250D02*
X61940D01*
X61750Y49060D02*
Y49440D01*
X59560Y54350D02*
X59940D01*
X59750Y54160D02*
Y54540D01*
X60560Y54350D02*
X60940D01*
X60750Y54160D02*
Y54540D01*
X61560Y54350D02*
X61940D01*
X61750Y54160D02*
Y54540D01*
X44475Y15626D02*
X44825D01*
X44650Y15451D02*
Y15801D01*
X44475Y17594D02*
X44825D01*
X44650Y17419D02*
Y17769D01*
X62560Y50310D02*
X62940D01*
X62750Y50120D02*
Y50500D01*
X61560Y50310D02*
X61940D01*
X61750Y50120D02*
Y50500D01*
X59560Y50310D02*
X59940D01*
X59750Y50120D02*
Y50500D01*
X58560Y50310D02*
X58940D01*
X58750Y50120D02*
Y50500D01*
X62560Y53310D02*
X62940D01*
X62750Y53120D02*
Y53500D01*
X61560Y53310D02*
X61940D01*
X61750Y53120D02*
Y53500D01*
X59560Y53310D02*
X59940D01*
X59750Y53120D02*
Y53500D01*
X58560Y53310D02*
X58940D01*
X58750Y53120D02*
Y53500D01*
X60560Y50310D02*
X60940D01*
X60750Y50120D02*
Y50500D01*
X60560Y53310D02*
X60940D01*
X60750Y53120D02*
Y53500D01*
X62530Y44000D02*
X62910D01*
X62720Y43810D02*
Y44190D01*
X61530Y44000D02*
X61910D01*
X61720Y43810D02*
Y44190D01*
X59530Y44000D02*
X59910D01*
X59720Y43810D02*
Y44190D01*
X58530Y44000D02*
X58910D01*
X58720Y43810D02*
Y44190D01*
X62530Y47000D02*
X62910D01*
X62720Y46810D02*
Y47190D01*
X61530Y47000D02*
X61910D01*
X61720Y46810D02*
Y47190D01*
X59530Y47000D02*
X59910D01*
X59720Y46810D02*
Y47190D01*
X58530Y47000D02*
X58910D01*
X58720Y46810D02*
Y47190D01*
X60530Y44000D02*
X60910D01*
X60720Y43810D02*
Y44190D01*
X60530Y47000D02*
X60910D01*
X60720Y46810D02*
Y47190D01*
X20395Y2280D02*
X20765D01*
X20580Y2095D02*
Y2465D01*
X14395Y2280D02*
X14765D01*
X14580Y2095D02*
Y2465D01*
X14395Y3280D02*
X14765D01*
X14580Y3095D02*
Y3465D01*
X14395Y4280D02*
X14765D01*
X14580Y4095D02*
Y4465D01*
X14395Y5280D02*
X14765D01*
X14580Y5095D02*
Y5465D01*
X14395Y6280D02*
X14765D01*
X14580Y6095D02*
Y6465D01*
X14395Y7280D02*
X14765D01*
X14580Y7095D02*
Y7465D01*
X14395Y8280D02*
X14765D01*
X14580Y8095D02*
Y8465D01*
X14395Y9280D02*
X14765D01*
X14580Y9095D02*
Y9465D01*
X14395Y10280D02*
X14765D01*
X14580Y10095D02*
Y10465D01*
X14395Y11280D02*
X14765D01*
X14580Y11095D02*
Y11465D01*
X14395Y12280D02*
X14765D01*
X14580Y12095D02*
Y12465D01*
X14395Y13280D02*
X14765D01*
X14580Y13095D02*
Y13465D01*
X14395Y14280D02*
X14765D01*
X14580Y14095D02*
Y14465D01*
X14395Y15280D02*
X14765D01*
X14580Y15095D02*
Y15465D01*
X20395Y3280D02*
X20765D01*
X20580Y3095D02*
Y3465D01*
X20395Y4280D02*
X20765D01*
X20580Y4095D02*
Y4465D01*
X20395Y5280D02*
X20765D01*
X20580Y5095D02*
Y5465D01*
X20395Y6280D02*
X20765D01*
X20580Y6095D02*
Y6465D01*
X20395Y7280D02*
X20765D01*
X20580Y7095D02*
Y7465D01*
X20395Y8280D02*
X20765D01*
X20580Y8095D02*
Y8465D01*
X20395Y9280D02*
X20765D01*
X20580Y9095D02*
Y9465D01*
X20395Y10280D02*
X20765D01*
X20580Y10095D02*
Y10465D01*
X20395Y11280D02*
X20765D01*
X20580Y11095D02*
Y11465D01*
X20395Y12280D02*
X20765D01*
X20580Y12095D02*
Y12465D01*
X20395Y13280D02*
X20765D01*
X20580Y13095D02*
Y13465D01*
X20395Y14280D02*
X20765D01*
X20580Y14095D02*
Y14465D01*
X20395Y15280D02*
X20765D01*
X20580Y15095D02*
Y15465D01*
X4315Y15300D02*
X4685D01*
X4500Y15115D02*
Y15485D01*
X22900Y21300D02*
X24100D01*
X23500Y20700D02*
Y21900D01*
X16900Y1300D02*
X18100D01*
X17500Y700D02*
Y1900D01*
X5900Y1300D02*
X7100D01*
X6500Y700D02*
Y1900D01*
X3900Y21800D02*
X5100D01*
X4500Y21200D02*
Y22400D01*
X4315Y7300D02*
X4685D01*
X4500Y7115D02*
Y7485D01*
X4315Y6300D02*
X4685D01*
X4500Y6115D02*
Y6485D01*
X4315Y5300D02*
X4685D01*
X4500Y5115D02*
Y5485D01*
X4315Y4300D02*
X4685D01*
X4500Y4115D02*
Y4485D01*
X4315Y2300D02*
X4685D01*
X4500Y2115D02*
Y2485D01*
X4315Y3300D02*
X4685D01*
X4500Y3115D02*
Y3485D01*
X4315Y14300D02*
X4685D01*
X4500Y14115D02*
Y14485D01*
X4315Y13300D02*
X4685D01*
X4500Y13115D02*
Y13485D01*
X4315Y9300D02*
X4685D01*
X4500Y9115D02*
Y9485D01*
X4315Y10300D02*
X4685D01*
X4500Y10115D02*
Y10485D01*
X4315Y11300D02*
X4685D01*
X4500Y11115D02*
Y11485D01*
X4315Y12300D02*
X4685D01*
X4500Y12115D02*
Y12485D01*
X23315Y9300D02*
X23685D01*
X23500Y9115D02*
Y9485D01*
X23315Y8300D02*
X23685D01*
X23500Y8115D02*
Y8485D01*
X23315Y7300D02*
X23685D01*
X23500Y7115D02*
Y7485D01*
X23315Y6300D02*
X23685D01*
X23500Y6115D02*
Y6485D01*
X23315Y2300D02*
X23685D01*
X23500Y2115D02*
Y2485D01*
X23315Y3300D02*
X23685D01*
X23500Y3115D02*
Y3485D01*
X23315Y4300D02*
X23685D01*
X23500Y4115D02*
Y4485D01*
X23315Y5300D02*
X23685D01*
X23500Y5115D02*
Y5485D01*
X23315Y13900D02*
X23685D01*
X23500Y13715D02*
Y14085D01*
X23315Y12900D02*
X23685D01*
X23500Y12715D02*
Y13085D01*
X23315Y11900D02*
X23685D01*
X23500Y11715D02*
Y12085D01*
X23315Y10900D02*
X23685D01*
X23500Y10715D02*
Y11085D01*
X23315Y14900D02*
X23685D01*
X23500Y14715D02*
Y15085D01*
X23315Y15900D02*
X23685D01*
X23500Y15715D02*
Y16085D01*
X23315Y16900D02*
X23685D01*
X23500Y16715D02*
Y17085D01*
X23315Y17900D02*
X23685D01*
X23500Y17715D02*
Y18085D01*
X23315Y18900D02*
X23685D01*
X23500Y18715D02*
Y19085D01*
X23315Y19900D02*
X23685D01*
X23500Y19715D02*
Y20085D01*
X1905Y52090D02*
X2275D01*
X2090Y51905D02*
Y52275D01*
X1905Y51090D02*
X2275D01*
X2090Y50905D02*
Y51275D01*
X1905Y50090D02*
X2275D01*
X2090Y49905D02*
Y50275D01*
X1905Y49090D02*
X2275D01*
X2090Y48905D02*
Y49275D01*
X1905Y48090D02*
X2275D01*
X2090Y47905D02*
Y48275D01*
X1905Y47090D02*
X2275D01*
X2090Y46905D02*
Y47275D01*
X7602Y47842D02*
X8882D01*
X8242Y47202D02*
Y48482D01*
X7602Y51842D02*
X8882D01*
X8242Y51202D02*
Y52482D01*
X5545Y51090D02*
X5939D01*
X5742Y50893D02*
Y51287D01*
X4567Y50590D02*
X4917D01*
X4742Y50415D02*
Y50765D01*
X5567Y50090D02*
X5917D01*
X5742Y49915D02*
Y50265D01*
X4567Y49590D02*
X4917D01*
X4742Y49415D02*
Y49765D01*
X5567Y49090D02*
X5917D01*
X5742Y48915D02*
Y49265D01*
X4567Y48590D02*
X4917D01*
X4742Y48415D02*
Y48765D01*
X33410Y26600D02*
X33790D01*
X33600Y26410D02*
Y26790D01*
X33410Y25600D02*
X33790D01*
X33600Y25410D02*
Y25790D01*
X33410Y23600D02*
X33790D01*
X33600Y23410D02*
Y23790D01*
X33410Y22600D02*
X33790D01*
X33600Y22410D02*
Y22790D01*
X30410Y26600D02*
X30790D01*
X30600Y26410D02*
Y26790D01*
X30410Y25600D02*
X30790D01*
X30600Y25410D02*
Y25790D01*
X30410Y23600D02*
X30790D01*
X30600Y23410D02*
Y23790D01*
X30410Y22600D02*
X30790D01*
X30600Y22410D02*
Y22790D01*
X33410Y24600D02*
X33790D01*
X33600Y24410D02*
Y24790D01*
X30410Y24600D02*
X30790D01*
X30600Y24410D02*
Y24790D01*
X29010Y26574D02*
X29390D01*
X29200Y26384D02*
Y26764D01*
X29010Y25574D02*
X29390D01*
X29200Y25384D02*
Y25764D01*
X29010Y23574D02*
X29390D01*
X29200Y23384D02*
Y23764D01*
X29010Y22574D02*
X29390D01*
X29200Y22384D02*
Y22764D01*
X26010Y26574D02*
X26390D01*
X26200Y26384D02*
Y26764D01*
X26010Y25574D02*
X26390D01*
X26200Y25384D02*
Y25764D01*
X26010Y23574D02*
X26390D01*
X26200Y23384D02*
Y23764D01*
X26010Y22574D02*
X26390D01*
X26200Y22384D02*
Y22764D01*
X29010Y24574D02*
X29390D01*
X29200Y24384D02*
Y24764D01*
X26010Y24574D02*
X26390D01*
X26200Y24384D02*
Y24764D01*
X53810Y7212D02*
X54270D01*
X54040Y6982D02*
Y7442D01*
X51810Y7212D02*
X52270D01*
X52040Y6982D02*
Y7442D01*
X52330Y1952D02*
X52670D01*
X52500Y1781D02*
Y2121D01*
X52330Y3920D02*
X52670D01*
X52500Y3750D02*
Y4090D01*
X37215Y33050D02*
X37585D01*
X37400Y32865D02*
Y33235D01*
X38215Y33050D02*
X38585D01*
X38400Y32865D02*
Y33235D01*
X37215Y32050D02*
X37585D01*
X37400Y31865D02*
Y32235D01*
X38215Y32050D02*
X38585D01*
X38400Y31865D02*
Y32235D01*
X37215Y31050D02*
X37585D01*
X37400Y30865D02*
Y31235D01*
X38215Y31050D02*
X38585D01*
X38400Y30865D02*
Y31235D01*
X37215Y30050D02*
X37585D01*
X37400Y29865D02*
Y30235D01*
X38215Y30050D02*
X38585D01*
X38400Y29865D02*
Y30235D01*
X37215Y29050D02*
X37585D01*
X37400Y28865D02*
Y29235D01*
X38215Y29050D02*
X38585D01*
X38400Y28865D02*
Y29235D01*
X37215Y28050D02*
X37585D01*
X37400Y27865D02*
Y28235D01*
X38215Y28050D02*
X38585D01*
X38400Y27865D02*
Y28235D01*
X37215Y27050D02*
X37585D01*
X37400Y26865D02*
Y27235D01*
X38215Y27050D02*
X38585D01*
X38400Y26865D02*
Y27235D01*
X37215Y26050D02*
X37585D01*
X37400Y25865D02*
Y26235D01*
X38215Y26050D02*
X38585D01*
X38400Y25865D02*
Y26235D01*
X11360Y35900D02*
X11740D01*
X11550Y35710D02*
Y36090D01*
X12360Y35900D02*
X12740D01*
X12550Y35710D02*
Y36090D01*
X11380Y32870D02*
X11760D01*
X11570Y32680D02*
Y33060D01*
X12380Y32870D02*
X12760D01*
X12570Y32680D02*
Y33060D01*
X11380Y33870D02*
X11760D01*
X11570Y33680D02*
Y34060D01*
X12380Y33870D02*
X12760D01*
X12570Y33680D02*
Y34060D01*
X11380Y34870D02*
X11760D01*
X11570Y34680D02*
Y35060D01*
X12380Y34870D02*
X12760D01*
X12570Y34680D02*
Y35060D01*
X62865Y4500D02*
X63535D01*
X63200Y4165D02*
Y4835D01*
X61765Y6500D02*
X62435D01*
X62100Y6165D02*
Y6835D01*
X60615Y4500D02*
X61285D01*
X60950Y4165D02*
Y4835D01*
X30193Y10000D02*
X31807D01*
X31000Y9193D02*
Y10807D01*
X1193Y1900D02*
X2807D01*
X2000Y1093D02*
Y2707D01*
X1193Y37000D02*
X2807D01*
X2000Y36193D02*
Y37807D01*
X6593Y55600D02*
X8207D01*
X7400Y54793D02*
Y56407D01*
X57193Y55600D02*
X58807D01*
X58000Y54793D02*
Y56407D01*
X30193Y55600D02*
X31807D01*
X31000Y54793D02*
Y56407D01*
X57193Y37000D02*
X58807D01*
X58000Y36193D02*
Y37807D01*
X30193Y35500D02*
X31807D01*
X31000Y34693D02*
Y36307D01*
X57173Y2000D02*
X58827D01*
X58000Y1173D02*
Y2827D01*
X58432Y10760D02*
X58865D01*
X58649Y10543D02*
Y10977D01*
X56432Y10760D02*
X56865D01*
X56649Y10543D02*
Y10977D01*
X56432Y9760D02*
X56865D01*
X56649Y9543D02*
Y9977D01*
X58432Y9760D02*
X58865D01*
X58649Y9543D02*
Y9977D01*
X43600Y12270D02*
X43800D01*
X43700Y12170D02*
Y12370D01*
X43600Y11460D02*
X43800D01*
X43700Y11360D02*
Y11560D01*
X43600Y10650D02*
X43800D01*
X43700Y10550D02*
Y10750D01*
X43600Y9922D02*
X43800D01*
X43700Y9822D02*
Y10022D01*
X43620Y12960D02*
X43820D01*
X43720Y12860D02*
Y13060D01*
X45380Y12960D02*
X45580D01*
X45480Y12860D02*
Y13060D01*
X47160Y12960D02*
X47360D01*
X47260Y12860D02*
Y13060D01*
X46260Y12960D02*
X46460D01*
X46360Y12860D02*
Y13060D01*
X44500Y12960D02*
X44700D01*
X44600Y12860D02*
Y13060D01*
X44480Y9922D02*
X44680D01*
X44580Y9822D02*
Y10022D01*
X44480Y10650D02*
X44680D01*
X44580Y10550D02*
Y10750D01*
X44480Y11460D02*
X44680D01*
X44580Y11360D02*
Y11560D01*
X44480Y12270D02*
X44680D01*
X44580Y12170D02*
Y12370D01*
X45360Y9922D02*
X45560D01*
X45460Y9822D02*
Y10022D01*
X47140Y9922D02*
X47340D01*
X47240Y9822D02*
Y10022D01*
X46240Y9922D02*
X46440D01*
X46340Y9822D02*
Y10022D01*
X47160Y11460D02*
X47360D01*
X47260Y11360D02*
Y11560D01*
X54545Y46085D02*
X54825D01*
X54685Y45945D02*
Y46225D01*
X54413Y21927D02*
X54613D01*
X54513Y21827D02*
Y22027D01*
X31150Y2950D02*
X31350D01*
X31250Y2850D02*
Y3050D01*
X37800Y9277D02*
X38000D01*
X37900Y9177D02*
Y9377D01*
X38350Y5541D02*
X38550D01*
X38450Y5441D02*
Y5641D01*
X46240Y11460D02*
X46440D01*
X46340Y11360D02*
Y11560D01*
X45360Y12270D02*
X45560D01*
X45460Y12170D02*
Y12370D01*
X46260Y12270D02*
X46460D01*
X46360Y12170D02*
Y12370D01*
X46240Y10650D02*
X46440D01*
X46340Y10550D02*
Y10750D01*
X47140Y10650D02*
X47340D01*
X47240Y10550D02*
Y10750D01*
X47160Y12270D02*
X47360D01*
X47260Y12170D02*
Y12370D01*
X45360Y11460D02*
X45560D01*
X45460Y11360D02*
Y11560D01*
X45360Y10650D02*
X45560D01*
X45460Y10550D02*
Y10750D01*
X63180Y16140D02*
X63380D01*
X63280Y16040D02*
Y16240D01*
X63180Y16950D02*
X63380D01*
X63280Y16850D02*
Y17050D01*
X63180Y17760D02*
X63380D01*
X63280Y17660D02*
Y17860D01*
X63180Y18488D02*
X63380D01*
X63280Y18388D02*
Y18588D01*
X63160Y15450D02*
X63360D01*
X63260Y15350D02*
Y15550D01*
X61400Y15450D02*
X61600D01*
X61500Y15350D02*
Y15550D01*
X60500Y15450D02*
X60700D01*
X60600Y15350D02*
Y15550D01*
X62280Y15450D02*
X62480D01*
X62380Y15350D02*
Y15550D01*
X61420Y18488D02*
X61620D01*
X61520Y18388D02*
Y18588D01*
X60520Y18488D02*
X60720D01*
X60620Y18388D02*
Y18588D01*
X62300Y18488D02*
X62500D01*
X62400Y18388D02*
Y18588D01*
X54050Y52465D02*
X54330D01*
X54190Y52325D02*
Y52605D01*
X27570Y41080D02*
X27850D01*
X27710Y40940D02*
Y41220D01*
X23070Y36580D02*
X23350D01*
X23210Y36440D02*
Y36720D01*
X20640Y29210D02*
X20920D01*
X20780Y29070D02*
Y29350D01*
X28810Y39950D02*
X29090D01*
X28950Y39810D02*
Y40090D01*
X24290Y35430D02*
X24570D01*
X24430Y35290D02*
Y35570D01*
X21720Y28010D02*
X22000D01*
X21860Y27870D02*
Y28150D01*
X24860Y23800D02*
X25140D01*
X25000Y23660D02*
Y23940D01*
X49780Y7960D02*
X50060D01*
X49920Y7820D02*
Y8100D01*
X54530Y13410D02*
X54810D01*
X54670Y13270D02*
Y13550D01*
X41520Y20300D02*
X41800D01*
X41660Y20160D02*
Y20440D01*
X41520Y18640D02*
X41800D01*
X41660Y18500D02*
Y18780D01*
X28020Y34120D02*
X28220D01*
X28120Y34020D02*
Y34220D01*
X32880Y31280D02*
X33080D01*
X32980Y31180D02*
Y31380D01*
X34444Y29144D02*
X34644D01*
X34544Y29044D02*
Y29244D01*
X34500Y25840D02*
X34700D01*
X34600Y25740D02*
Y25940D01*
X36520Y28540D02*
X36720D01*
X36620Y28440D02*
Y28640D01*
X36280Y27580D02*
X36480D01*
X36380Y27480D02*
Y27680D01*
X27750Y31938D02*
X27950D01*
X27850Y31838D02*
Y32038D01*
X29700Y20700D02*
X29900D01*
X29800Y20600D02*
Y20800D01*
X39560Y17600D02*
X39840D01*
X39700Y17460D02*
Y17740D01*
X40633Y26050D02*
X40833D01*
X40733Y25950D02*
Y26150D01*
X27530Y7294D02*
X27810D01*
X27670Y7154D02*
Y7434D01*
X1340Y5800D02*
X1620D01*
X1480Y5660D02*
Y5940D01*
X25730Y400D02*
X26010D01*
X25870Y260D02*
Y540D01*
X62300Y17760D02*
X62500D01*
X62400Y17660D02*
Y17860D01*
X62300Y16950D02*
X62500D01*
X62400Y16850D02*
Y17050D01*
X60500Y16950D02*
X60700D01*
X60600Y16850D02*
Y17050D01*
X60500Y16140D02*
X60700D01*
X60600Y16040D02*
Y16240D01*
X60520Y17760D02*
X60720D01*
X60620Y17660D02*
Y17860D01*
X61420Y17760D02*
X61620D01*
X61520Y17660D02*
Y17860D01*
X61400Y16140D02*
X61600D01*
X61500Y16040D02*
Y16240D01*
X62300Y16140D02*
X62500D01*
X62400Y16040D02*
Y16240D01*
X61420Y16950D02*
X61620D01*
X61520Y16850D02*
Y17050D01*
X40600Y16000D02*
X40880D01*
X40740Y15860D02*
Y16140D01*
X42200Y5050D02*
X42400D01*
X42300Y4950D02*
Y5150D01*
X32207Y47100D02*
X32407D01*
X32307Y47000D02*
Y47200D01*
X34250Y12900D02*
X34450D01*
X34350Y12800D02*
Y13000D01*
X19100Y23580D02*
X19300D01*
X19200Y23480D02*
Y23680D01*
X3140Y45090D02*
X3340D01*
X3240Y44990D02*
Y45190D01*
X36350Y34900D02*
X36550D01*
X36450Y34800D02*
Y35000D01*
X36071Y30550D02*
X36271D01*
X36171Y30450D02*
Y30650D01*
X41600Y28850D02*
X41800D01*
X41700Y28750D02*
Y28950D01*
X39560Y18600D02*
X39840D01*
X39700Y18460D02*
Y18740D01*
X39523Y20300D02*
X39803D01*
X39663Y20160D02*
Y20440D01*
X39500Y24800D02*
X39700D01*
X39600Y24700D02*
Y24900D01*
X32000Y7100D02*
X32200D01*
X32100Y7000D02*
Y7200D01*
X27434Y26100D02*
X27634D01*
X27534Y26000D02*
Y26200D01*
X27800Y16950D02*
X28000D01*
X27900Y16850D02*
Y17050D01*
X34640Y22740D02*
X34840D01*
X34740Y22640D02*
Y22840D01*
X36940Y24230D02*
X37140D01*
X37040Y24130D02*
Y24330D01*
X3398Y47640D02*
X3598D01*
X3498Y47540D02*
Y47740D01*
X3500Y31700D02*
X3700D01*
X3600Y31600D02*
Y31800D01*
X13100Y4650D02*
X13300D01*
X13200Y4550D02*
Y4750D01*
X38300Y2442D02*
X38500D01*
X38400Y2342D02*
Y2542D01*
M02*
