G04*
G04 #@! TF.GenerationSoftware,Altium Limited,Altium Designer,18.0.11 (651)*
G04*
G04 Layer_Color=16711935*
%FSLAX24Y24*%
%MOIN*%
G70*
G01*
G75*
%ADD54C,0.0640*%
%ADD55C,0.0590*%
%ADD56R,0.0590X0.0590*%
%ADD57R,0.0640X0.0640*%
%ADD58C,0.0690*%
G04:AMPARAMS|DCode=59|XSize=84mil|YSize=56mil|CornerRadius=0mil|HoleSize=0mil|Usage=FLASHONLY|Rotation=0.000|XOffset=0mil|YOffset=0mil|HoleType=Round|Shape=Octagon|*
%AMOCTAGOND59*
4,1,8,0.0420,-0.0140,0.0420,0.0140,0.0280,0.0280,-0.0280,0.0280,-0.0420,0.0140,-0.0420,-0.0140,-0.0280,-0.0280,0.0280,-0.0280,0.0420,-0.0140,0.0*
%
%ADD59OCTAGOND59*%

%ADD60C,0.1300*%
%ADD61O,0.0631X0.0640*%
%ADD62C,0.1221*%
%ADD63C,0.0631*%
%ADD64C,0.0591*%
%ADD65R,0.0591X0.0591*%
%ADD66R,0.0640X0.0640*%
%ADD67C,0.0740*%
%ADD68C,0.0660*%
%ADD69R,0.0660X0.0660*%
%ADD70R,0.0660X0.0660*%
%ADD71O,0.0940X0.1440*%
%ADD72O,0.1440X0.0940*%
%ADD73C,0.0040*%
%ADD74C,0.2107*%
%ADD75C,0.0768*%
%ADD76R,0.0768X0.0768*%
D54*
X59720Y42900D02*
D03*
X60720D02*
D03*
X61720D02*
D03*
X59720Y48050D02*
D03*
X60720D02*
D03*
X61720D02*
D03*
X59750Y49250D02*
D03*
X60750D02*
D03*
X61750D02*
D03*
X59750Y54350D02*
D03*
X60750D02*
D03*
X61750D02*
D03*
X62750Y50310D02*
D03*
X61750D02*
D03*
X59750D02*
D03*
X62750Y53310D02*
D03*
X61750D02*
D03*
X59750D02*
D03*
X58750D02*
D03*
X60750Y50310D02*
D03*
Y53310D02*
D03*
X62720Y44000D02*
D03*
X61720D02*
D03*
X59720D02*
D03*
X62720Y47000D02*
D03*
X61720D02*
D03*
X59720D02*
D03*
X58720D02*
D03*
X60720Y44000D02*
D03*
Y47000D02*
D03*
X33600Y26600D02*
D03*
Y25600D02*
D03*
Y23600D02*
D03*
X30600Y26600D02*
D03*
Y25600D02*
D03*
Y23600D02*
D03*
Y22600D02*
D03*
X33600Y24600D02*
D03*
X30600D02*
D03*
X29200Y26574D02*
D03*
Y25574D02*
D03*
Y23574D02*
D03*
X26200Y26574D02*
D03*
Y25574D02*
D03*
Y23574D02*
D03*
Y22574D02*
D03*
X29200Y24574D02*
D03*
X26200D02*
D03*
D55*
X44650Y15626D02*
D03*
X52500Y1952D02*
D03*
D56*
X44650Y17594D02*
D03*
X52500Y3920D02*
D03*
D57*
X58750Y50310D02*
D03*
X58720Y44000D02*
D03*
X2090Y47090D02*
D03*
D58*
X20580Y2280D02*
D03*
X14580D02*
D03*
Y3280D02*
D03*
Y4280D02*
D03*
Y5280D02*
D03*
Y6280D02*
D03*
Y7280D02*
D03*
Y8280D02*
D03*
Y9280D02*
D03*
Y10280D02*
D03*
Y11280D02*
D03*
Y12280D02*
D03*
Y13280D02*
D03*
Y14280D02*
D03*
Y15280D02*
D03*
X20580Y3280D02*
D03*
Y4280D02*
D03*
Y5280D02*
D03*
Y6280D02*
D03*
Y7280D02*
D03*
Y8280D02*
D03*
Y9280D02*
D03*
Y10280D02*
D03*
Y11280D02*
D03*
Y12280D02*
D03*
Y13280D02*
D03*
Y14280D02*
D03*
Y15280D02*
D03*
D59*
X4500Y15300D02*
D03*
Y7300D02*
D03*
Y6300D02*
D03*
Y5300D02*
D03*
Y4300D02*
D03*
Y2300D02*
D03*
Y3300D02*
D03*
Y14300D02*
D03*
Y13300D02*
D03*
Y9300D02*
D03*
Y10300D02*
D03*
Y11300D02*
D03*
Y12300D02*
D03*
X23500Y9300D02*
D03*
Y8300D02*
D03*
Y7300D02*
D03*
Y6300D02*
D03*
Y2300D02*
D03*
Y3300D02*
D03*
Y4300D02*
D03*
Y5300D02*
D03*
Y13900D02*
D03*
Y12900D02*
D03*
Y11900D02*
D03*
Y10900D02*
D03*
Y14900D02*
D03*
Y15900D02*
D03*
Y16900D02*
D03*
Y17900D02*
D03*
Y18900D02*
D03*
Y19900D02*
D03*
D60*
Y21300D02*
D03*
X17500Y1300D02*
D03*
X6500D02*
D03*
X4500Y21800D02*
D03*
D61*
X2090Y52090D02*
D03*
Y51090D02*
D03*
Y50090D02*
D03*
Y49090D02*
D03*
Y48090D02*
D03*
D62*
X8242Y47842D02*
D03*
Y51842D02*
D03*
D63*
X5742Y51090D02*
D03*
D64*
X4742Y50590D02*
D03*
X5742Y50090D02*
D03*
X4742Y49590D02*
D03*
X5742Y49090D02*
D03*
D65*
X4742Y48590D02*
D03*
D66*
X33600Y22600D02*
D03*
X29200Y22574D02*
D03*
D67*
X54040Y7212D02*
D03*
X52040D02*
D03*
D68*
X37400Y33050D02*
D03*
X38400D02*
D03*
X37400Y32050D02*
D03*
X38400D02*
D03*
X37400Y31050D02*
D03*
X38400D02*
D03*
X37400Y30050D02*
D03*
X38400D02*
D03*
X37400Y29050D02*
D03*
X38400D02*
D03*
X37400Y28050D02*
D03*
X38400D02*
D03*
X37400Y27050D02*
D03*
X38400D02*
D03*
X37400Y26050D02*
D03*
X11550Y35900D02*
D03*
X11570Y32870D02*
D03*
Y33870D02*
D03*
Y34870D02*
D03*
D69*
X38400Y26050D02*
D03*
D70*
X12550Y35900D02*
D03*
X12570Y32870D02*
D03*
Y33870D02*
D03*
Y34870D02*
D03*
D71*
X63200Y4500D02*
D03*
X60950D02*
D03*
D72*
X62100Y6500D02*
D03*
D73*
X31000Y10000D02*
D03*
X2000Y1900D02*
D03*
Y37000D02*
D03*
X7400Y55600D02*
D03*
X58000D02*
D03*
X31000D02*
D03*
X58000Y37000D02*
D03*
X31000Y35500D02*
D03*
D74*
X58000Y2000D02*
D03*
D75*
X58649Y10760D02*
D03*
X56649D02*
D03*
Y9760D02*
D03*
D76*
X58649D02*
D03*
M02*
