G04*
G04 #@! TF.GenerationSoftware,Altium Limited,Altium Designer,18.0.11 (651)*
G04*
G04 Layer_Color=8421504*
%FSLAX24Y24*%
%MOIN*%
G70*
G01*
G75*
%ADD22R,0.0236X0.0571*%
%ADD23R,0.1378X0.0630*%
%ADD24R,0.4803X0.3839*%
G04:AMPARAMS|DCode=25|XSize=35mil|YSize=50mil|CornerRadius=4.4mil|HoleSize=0mil|Usage=FLASHONLY|Rotation=0.000|XOffset=0mil|YOffset=0mil|HoleType=Round|Shape=RoundedRectangle|*
%AMROUNDEDRECTD25*
21,1,0.0350,0.0413,0,0,0.0*
21,1,0.0263,0.0500,0,0,0.0*
1,1,0.0088,0.0131,-0.0206*
1,1,0.0088,-0.0131,-0.0206*
1,1,0.0088,-0.0131,0.0206*
1,1,0.0088,0.0131,0.0206*
%
%ADD25ROUNDEDRECTD25*%
%ADD26R,0.0710X0.0700*%
%ADD27R,0.0700X0.0710*%
%ADD28R,0.0531X0.0748*%
%ADD29R,0.0500X0.0600*%
%ADD30O,0.0276X0.0984*%
%ADD31R,0.0571X0.0236*%
%ADD32R,0.0748X0.0531*%
%ADD33R,0.1063X0.1299*%
%ADD34R,0.1063X0.0394*%
%ADD35R,0.0689X0.0858*%
%ADD36O,0.0866X0.0236*%
D22*
X55956Y46835D02*
D03*
X56704D02*
D03*
X56330Y47760D02*
D03*
X55966Y52465D02*
D03*
X56714D02*
D03*
X56340Y53390D02*
D03*
X40359Y6007D02*
D03*
X41107D02*
D03*
X40733Y6933D02*
D03*
D23*
X49560Y12500D02*
D03*
Y10500D02*
D03*
X58300Y15910D02*
D03*
Y17910D02*
D03*
D24*
X45515Y11500D02*
D03*
X62345Y16910D02*
D03*
D25*
X43500Y30300D02*
D03*
X44200D02*
D03*
Y27400D02*
D03*
X43500D02*
D03*
Y28850D02*
D03*
X44200D02*
D03*
Y31750D02*
D03*
X43500D02*
D03*
D26*
X32520Y20520D02*
D03*
X30906D02*
D03*
X27066Y20500D02*
D03*
X28680D02*
D03*
X43486Y4550D02*
D03*
X45100D02*
D03*
D27*
X47150Y1390D02*
D03*
Y3004D02*
D03*
X1460Y8670D02*
D03*
Y7056D02*
D03*
X56800Y16116D02*
D03*
Y17730D02*
D03*
D28*
X49910Y9405D02*
D03*
X48690D02*
D03*
X49910Y13580D02*
D03*
X48690D02*
D03*
X58050Y14750D02*
D03*
X59270D02*
D03*
X58140Y19080D02*
D03*
X59360D02*
D03*
X45680Y27600D02*
D03*
X46900D02*
D03*
X45680Y29000D02*
D03*
X46900D02*
D03*
X45680Y31800D02*
D03*
X46900D02*
D03*
X45680Y30400D02*
D03*
X46900D02*
D03*
X33990Y6140D02*
D03*
X35210D02*
D03*
X37618Y3117D02*
D03*
X36397D02*
D03*
X37618Y4317D02*
D03*
X36397D02*
D03*
X45080Y6460D02*
D03*
X43860D02*
D03*
X39887Y4817D02*
D03*
X41107D02*
D03*
X39848Y3617D02*
D03*
X41107D02*
D03*
Y2417D02*
D03*
X39848D02*
D03*
X41107Y1217D02*
D03*
X39848D02*
D03*
D29*
X59380Y6310D02*
D03*
X55880D02*
D03*
X59380Y4310D02*
D03*
X55880D02*
D03*
D30*
X34357Y17981D02*
D03*
X33857D02*
D03*
X33357D02*
D03*
X32857D02*
D03*
X32357D02*
D03*
X31857D02*
D03*
X31357D02*
D03*
X30857D02*
D03*
X34357Y16052D02*
D03*
X33857D02*
D03*
X33357D02*
D03*
X32857D02*
D03*
X32357D02*
D03*
X31857D02*
D03*
X31357D02*
D03*
X30857D02*
D03*
D31*
X36482Y6191D02*
D03*
Y5443D02*
D03*
X37407Y5817D02*
D03*
D32*
X1500Y16610D02*
D03*
Y15390D02*
D03*
X27457Y1057D02*
D03*
Y2277D02*
D03*
X28650Y3707D02*
D03*
Y4927D02*
D03*
X30557D02*
D03*
Y3707D02*
D03*
D33*
X45030Y2222D02*
D03*
D34*
X42707Y1317D02*
D03*
Y2222D02*
D03*
Y3128D02*
D03*
D35*
X7890Y44540D02*
D03*
X6229D02*
D03*
D36*
X28650Y2400D02*
D03*
Y1900D02*
D03*
Y1400D02*
D03*
Y900D02*
D03*
X30540Y2400D02*
D03*
Y1900D02*
D03*
Y1400D02*
D03*
Y900D02*
D03*
M02*
