G04*
G04 #@! TF.GenerationSoftware,Altium Limited,Altium Designer,18.0.11 (651)*
G04*
G04 Layer_Color=65535*
%FSLAX24Y24*%
%MOIN*%
G70*
G01*
G75*
%ADD10C,0.0050*%
%ADD11C,0.0197*%
%ADD12C,0.0150*%
%ADD13C,0.0098*%
%ADD14C,0.0100*%
%ADD15C,0.0200*%
%ADD16C,0.0079*%
%ADD17C,0.0070*%
%ADD18C,0.0120*%
%ADD19C,0.0080*%
%ADD20C,0.0060*%
%ADD21R,0.0197X0.1260*%
%ADD22R,0.0402X0.0236*%
G36*
X1991Y8060D02*
Y8160D01*
X920D01*
Y8060D01*
X1991D01*
D02*
G37*
G36*
X28070Y19969D02*
X28170D01*
Y21040D01*
X28070D01*
Y19969D01*
D02*
G37*
G36*
X31910Y19988D02*
X32010D01*
Y21060D01*
X31910D01*
Y19988D01*
D02*
G37*
G36*
X44490Y4018D02*
X44590D01*
Y5090D01*
X44490D01*
Y4018D01*
D02*
G37*
G36*
X46618Y2000D02*
Y1900D01*
X47690D01*
Y2000D01*
X46618D01*
D02*
G37*
G36*
X57332Y17120D02*
Y17220D01*
X56260D01*
Y17120D01*
X57332D01*
D02*
G37*
G36*
X40844Y45577D02*
Y45086D01*
D01*
Y44607D01*
D01*
Y44121D01*
Y43527D01*
Y43035D01*
Y42549D01*
Y41963D01*
X35800D01*
Y42549D01*
D01*
Y43035D01*
Y43527D01*
Y44121D01*
Y44607D01*
D01*
Y45086D01*
D01*
Y45577D01*
D01*
Y46181D01*
X40844D01*
Y45577D01*
D02*
G37*
G36*
Y41471D02*
Y40985D01*
Y40493D01*
Y40002D01*
Y39511D01*
Y38922D01*
Y38443D01*
D01*
Y37952D01*
Y37260D01*
X35800D01*
Y37952D01*
D01*
Y38443D01*
D01*
Y38922D01*
Y39511D01*
Y40002D01*
Y40493D01*
Y40985D01*
Y41471D01*
Y41963D01*
X40844D01*
Y41471D01*
D02*
G37*
%LPC*%
G36*
X36692Y45878D02*
X36688D01*
X36678Y45877D01*
X36668Y45876D01*
X36658Y45873D01*
X36649Y45870D01*
X36641Y45866D01*
X36633Y45862D01*
X36626Y45858D01*
X36619Y45854D01*
X36614Y45849D01*
X36608Y45845D01*
X36604Y45841D01*
X36600Y45837D01*
X36598Y45834D01*
X36595Y45831D01*
X36594Y45830D01*
X36594Y45829D01*
Y45872D01*
X36523D01*
Y45583D01*
X36599D01*
Y45713D01*
Y45722D01*
Y45730D01*
X36600Y45737D01*
X36600Y45744D01*
Y45750D01*
X36601Y45755D01*
X36602Y45760D01*
X36602Y45764D01*
X36603Y45771D01*
X36604Y45776D01*
X36605Y45779D01*
Y45779D01*
X36607Y45786D01*
X36611Y45792D01*
X36614Y45796D01*
X36618Y45801D01*
X36621Y45804D01*
X36624Y45807D01*
X36626Y45808D01*
X36626Y45808D01*
X36633Y45812D01*
X36639Y45815D01*
X36645Y45817D01*
X36650Y45818D01*
X36655Y45819D01*
X36658Y45819D01*
X36662D01*
X36668Y45819D01*
X36673Y45818D01*
X36677Y45817D01*
X36681Y45815D01*
X36684Y45814D01*
X36686Y45813D01*
X36688Y45812D01*
X36688Y45811D01*
X36692Y45808D01*
X36695Y45805D01*
X36700Y45798D01*
X36702Y45795D01*
X36703Y45792D01*
X36704Y45791D01*
Y45790D01*
X36705Y45787D01*
X36706Y45784D01*
X36707Y45775D01*
X36708Y45765D01*
X36709Y45755D01*
X36709Y45745D01*
Y45741D01*
Y45737D01*
Y45734D01*
Y45732D01*
Y45730D01*
Y45730D01*
Y45583D01*
X36786D01*
Y45774D01*
X36785Y45784D01*
X36785Y45793D01*
X36784Y45800D01*
X36783Y45806D01*
X36782Y45810D01*
X36781Y45813D01*
Y45813D01*
X36779Y45820D01*
X36777Y45826D01*
X36775Y45831D01*
X36772Y45836D01*
X36770Y45840D01*
X36768Y45843D01*
X36767Y45845D01*
X36766Y45845D01*
X36762Y45850D01*
X36757Y45855D01*
X36751Y45859D01*
X36746Y45862D01*
X36742Y45865D01*
X36738Y45867D01*
X36735Y45868D01*
X36734Y45869D01*
X36726Y45872D01*
X36718Y45874D01*
X36711Y45876D01*
X36704Y45877D01*
X36697Y45877D01*
X36692Y45878D01*
D02*
G37*
G36*
X37463Y45872D02*
X37387D01*
Y45750D01*
Y45739D01*
Y45729D01*
X37386Y45720D01*
X37386Y45712D01*
Y45705D01*
X37385Y45698D01*
X37384Y45693D01*
X37384Y45688D01*
X37383Y45684D01*
X37383Y45681D01*
X37382Y45678D01*
Y45676D01*
X37381Y45673D01*
Y45672D01*
X37379Y45667D01*
X37375Y45662D01*
X37372Y45658D01*
X37368Y45654D01*
X37365Y45650D01*
X37362Y45648D01*
X37360Y45647D01*
X37360Y45646D01*
X37354Y45643D01*
X37348Y45640D01*
X37342Y45638D01*
X37336Y45637D01*
X37332Y45636D01*
X37328Y45636D01*
X37325D01*
X37318Y45636D01*
X37313Y45637D01*
X37308Y45638D01*
X37304Y45640D01*
X37301Y45641D01*
X37298Y45642D01*
X37297Y45643D01*
X37296Y45643D01*
X37292Y45647D01*
X37289Y45650D01*
X37286Y45654D01*
X37285Y45657D01*
X37283Y45660D01*
X37282Y45663D01*
X37281Y45664D01*
Y45665D01*
X37281Y45668D01*
X37280Y45672D01*
X37279Y45677D01*
X37279Y45682D01*
X37278Y45694D01*
X37278Y45707D01*
X37277Y45720D01*
Y45725D01*
Y45729D01*
Y45733D01*
Y45736D01*
Y45738D01*
Y45739D01*
Y45872D01*
X37201D01*
Y45577D01*
Y45689D01*
X37201Y45675D01*
X37203Y45662D01*
X37204Y45651D01*
X37206Y45642D01*
X37208Y45635D01*
X37209Y45629D01*
X37211Y45627D01*
X37211Y45625D01*
X37216Y45617D01*
X37221Y45610D01*
X37226Y45604D01*
X37232Y45599D01*
X37236Y45595D01*
X37241Y45592D01*
X37243Y45590D01*
X37244Y45590D01*
X37253Y45586D01*
X37262Y45582D01*
X37271Y45580D01*
X37279Y45579D01*
X37286Y45578D01*
X37292Y45577D01*
X37201D01*
X37463D01*
X37297D01*
X37307Y45578D01*
X37317Y45579D01*
X37326Y45581D01*
X37334Y45583D01*
X37341Y45586D01*
X37346Y45588D01*
X37349Y45589D01*
X37351Y45590D01*
X37360Y45595D01*
X37368Y45601D01*
X37375Y45607D01*
X37381Y45613D01*
X37386Y45619D01*
X37390Y45623D01*
X37392Y45625D01*
X37393Y45627D01*
Y45583D01*
X37463D01*
Y45872D01*
D02*
G37*
G36*
X37817D02*
X37740D01*
Y45795D01*
X37817D01*
Y45660D01*
X37740D01*
Y45583D01*
X37817D01*
Y45872D01*
D02*
G37*
G36*
X36445Y45981D02*
X36369D01*
Y45583D01*
X36445D01*
Y45872D01*
D01*
X36369D01*
Y45910D01*
X36445D01*
Y45981D01*
D02*
G37*
G36*
X36146D02*
X36000D01*
Y45583D01*
X36304D01*
Y45858D01*
X36303Y45875D01*
X36301Y45891D01*
X36297Y45903D01*
X36293Y45915D01*
X36290Y45919D01*
X36288Y45923D01*
X36286Y45927D01*
X36284Y45930D01*
X36283Y45932D01*
X36282Y45934D01*
X36281Y45935D01*
Y45935D01*
X36272Y45946D01*
X36262Y45954D01*
X36253Y45961D01*
X36244Y45966D01*
X36236Y45970D01*
X36230Y45973D01*
X36227Y45973D01*
X36226Y45974D01*
X36224Y45974D01*
X36224D01*
X36219Y45976D01*
X36214Y45977D01*
X36207Y45977D01*
X36200Y45978D01*
X36184Y45979D01*
X36168Y45980D01*
X36153D01*
X36146Y45981D01*
D02*
G37*
G36*
X37680Y45974D02*
X37510D01*
X37622D01*
X37545Y45929D01*
Y45872D01*
X37510D01*
Y45811D01*
X37545D01*
Y45685D01*
Y45678D01*
Y45671D01*
Y45665D01*
X37546Y45660D01*
Y45651D01*
X37546Y45643D01*
X37547Y45637D01*
Y45634D01*
X37548Y45632D01*
Y45631D01*
X37549Y45625D01*
X37550Y45619D01*
X37552Y45614D01*
X37554Y45610D01*
X37556Y45606D01*
X37557Y45604D01*
X37557Y45602D01*
X37558Y45602D01*
X37561Y45598D01*
X37565Y45594D01*
X37573Y45589D01*
X37577Y45587D01*
X37580Y45585D01*
X37582Y45585D01*
X37583Y45584D01*
X37589Y45582D01*
X37595Y45580D01*
X37601Y45579D01*
X37607Y45578D01*
X37612Y45578D01*
X37616Y45577D01*
X37680D01*
X37620D01*
X37632Y45578D01*
X37643Y45579D01*
X37654Y45581D01*
X37662Y45583D01*
X37670Y45585D01*
X37676Y45586D01*
X37679Y45588D01*
X37680Y45588D01*
X37680D01*
D01*
X37673Y45647D01*
X37666Y45645D01*
X37660Y45643D01*
X37655Y45642D01*
X37650Y45641D01*
X37647Y45641D01*
X37645Y45640D01*
X37642D01*
X37637Y45641D01*
X37633Y45642D01*
X37631Y45643D01*
X37630Y45644D01*
X37626Y45647D01*
X37624Y45650D01*
X37623Y45652D01*
X37623Y45654D01*
Y45655D01*
X37622Y45657D01*
Y45662D01*
Y45669D01*
X37622Y45676D01*
Y45683D01*
Y45689D01*
Y45691D01*
Y45693D01*
Y45694D01*
Y45694D01*
Y45811D01*
X37674D01*
Y45872D01*
X37622D01*
Y45974D01*
X37680D01*
D02*
G37*
G36*
X37000Y45878D02*
X36994D01*
X36978Y45877D01*
X36964Y45875D01*
X36951Y45872D01*
X36939Y45869D01*
X36934Y45866D01*
X36930Y45865D01*
X36926Y45864D01*
X36923Y45862D01*
X36920Y45861D01*
X36918Y45860D01*
X36917Y45859D01*
X36917D01*
X36905Y45851D01*
X36894Y45842D01*
X36885Y45833D01*
X36878Y45825D01*
X36872Y45817D01*
X36867Y45810D01*
X36866Y45808D01*
X36865Y45806D01*
X36864Y45805D01*
Y45804D01*
X36858Y45791D01*
X36854Y45778D01*
X36850Y45766D01*
X36848Y45755D01*
X36847Y45745D01*
X36846Y45741D01*
Y45738D01*
X36846Y45736D01*
Y45577D01*
Y45732D01*
X36846Y45714D01*
X36848Y45697D01*
X36851Y45683D01*
X36853Y45676D01*
X36855Y45671D01*
X36856Y45666D01*
X36858Y45661D01*
X36860Y45657D01*
X36861Y45654D01*
X36862Y45651D01*
X36863Y45649D01*
X36864Y45648D01*
Y45647D01*
X36872Y45635D01*
X36881Y45625D01*
X36890Y45616D01*
X36898Y45608D01*
X36906Y45602D01*
X36913Y45598D01*
X36915Y45597D01*
X36917Y45596D01*
X36918Y45595D01*
X36918D01*
X36932Y45589D01*
X36945Y45585D01*
X36958Y45582D01*
X36970Y45579D01*
X36980Y45578D01*
X36984Y45578D01*
X36987D01*
X36990Y45577D01*
X36846D01*
X37143D01*
D01*
X36994D01*
X37006Y45578D01*
X37017Y45579D01*
X37028Y45581D01*
X37038Y45584D01*
X37048Y45587D01*
X37056Y45590D01*
X37064Y45594D01*
X37072Y45598D01*
X37078Y45602D01*
X37084Y45606D01*
X37089Y45610D01*
X37093Y45613D01*
X37096Y45616D01*
X37099Y45618D01*
X37100Y45619D01*
X37100Y45620D01*
X37108Y45628D01*
X37114Y45637D01*
X37120Y45645D01*
X37125Y45655D01*
X37129Y45664D01*
X37132Y45673D01*
X37135Y45682D01*
X37138Y45690D01*
X37139Y45698D01*
X37141Y45705D01*
X37142Y45711D01*
X37142Y45717D01*
X37143Y45722D01*
Y45728D01*
X37142Y45740D01*
X37141Y45752D01*
X37139Y45762D01*
X37137Y45772D01*
X37133Y45782D01*
X37130Y45791D01*
X37126Y45799D01*
X37122Y45806D01*
X37118Y45813D01*
X37114Y45819D01*
X37111Y45823D01*
X37107Y45828D01*
X37105Y45831D01*
X37103Y45834D01*
X37102Y45835D01*
X37101Y45835D01*
X37093Y45843D01*
X37084Y45849D01*
X37076Y45855D01*
X37066Y45860D01*
X37057Y45864D01*
X37049Y45868D01*
X37040Y45870D01*
X37031Y45873D01*
X37024Y45875D01*
X37017Y45876D01*
X37010Y45877D01*
X37004Y45877D01*
X37000Y45878D01*
D02*
G37*
G36*
X37410Y45498D02*
X37403D01*
X37388Y45497D01*
X37373Y45495D01*
X37360Y45493D01*
X37347Y45489D01*
X37335Y45485D01*
X37324Y45481D01*
X37314Y45475D01*
X37305Y45470D01*
X37296Y45465D01*
X37289Y45460D01*
X37283Y45455D01*
X37278Y45451D01*
X37274Y45448D01*
X37271Y45445D01*
X37269Y45443D01*
X37269Y45443D01*
X37259Y45432D01*
X37252Y45420D01*
X37245Y45408D01*
X37239Y45396D01*
X37234Y45382D01*
X37230Y45370D01*
X37227Y45357D01*
X37224Y45345D01*
X37221Y45333D01*
X37220Y45323D01*
X37219Y45313D01*
X37218Y45305D01*
Y45298D01*
X37217Y45293D01*
Y45288D01*
X37218Y45271D01*
X37220Y45255D01*
X37222Y45239D01*
X37225Y45226D01*
X37229Y45212D01*
X37234Y45200D01*
X37238Y45189D01*
X37243Y45179D01*
X37247Y45170D01*
X37252Y45162D01*
X37256Y45156D01*
X37260Y45150D01*
X37263Y45146D01*
X37266Y45142D01*
X37267Y45141D01*
X37268Y45140D01*
X37278Y45130D01*
X37288Y45122D01*
X37299Y45115D01*
X37310Y45109D01*
X37321Y45104D01*
X37332Y45099D01*
X37342Y45096D01*
X37352Y45093D01*
X37362Y45091D01*
X37370Y45089D01*
X37378Y45088D01*
X37384Y45087D01*
X37390Y45087D01*
X37394Y45086D01*
X37217D01*
X37563D01*
Y45215D01*
X37485Y45239D01*
X37480Y45223D01*
X37475Y45210D01*
X37470Y45199D01*
X37464Y45190D01*
X37460Y45183D01*
X37456Y45179D01*
X37453Y45176D01*
X37452Y45175D01*
X37442Y45168D01*
X37433Y45163D01*
X37424Y45160D01*
X37416Y45157D01*
X37409Y45156D01*
X37402Y45155D01*
X37400Y45154D01*
X37397D01*
X37389Y45155D01*
X37382Y45156D01*
X37368Y45160D01*
X37356Y45164D01*
X37346Y45171D01*
X37338Y45176D01*
X37332Y45181D01*
X37330Y45183D01*
X37328Y45185D01*
X37328Y45185D01*
X37327Y45186D01*
X37322Y45192D01*
X37318Y45200D01*
X37314Y45208D01*
X37312Y45216D01*
X37307Y45234D01*
X37304Y45252D01*
X37302Y45261D01*
X37302Y45268D01*
X37301Y45276D01*
Y45282D01*
X37300Y45286D01*
Y45291D01*
Y45293D01*
Y45294D01*
X37301Y45307D01*
X37301Y45319D01*
X37302Y45330D01*
X37304Y45340D01*
X37306Y45350D01*
X37309Y45358D01*
X37311Y45366D01*
X37314Y45373D01*
X37316Y45378D01*
X37318Y45384D01*
X37321Y45388D01*
X37323Y45391D01*
X37325Y45394D01*
X37326Y45396D01*
X37327Y45397D01*
Y45397D01*
X37332Y45403D01*
X37338Y45408D01*
X37344Y45412D01*
X37350Y45416D01*
X37362Y45421D01*
X37374Y45425D01*
X37383Y45428D01*
X37388Y45428D01*
X37391Y45429D01*
X37395Y45429D01*
X37399D01*
X37410Y45429D01*
X37421Y45427D01*
X37430Y45424D01*
X37438Y45420D01*
X37444Y45417D01*
X37449Y45414D01*
X37452Y45412D01*
X37453Y45411D01*
X37460Y45404D01*
X37467Y45396D01*
X37472Y45388D01*
X37476Y45380D01*
X37479Y45373D01*
X37481Y45368D01*
X37482Y45366D01*
Y45364D01*
X37483Y45363D01*
Y45363D01*
X37562Y45382D01*
X37556Y45398D01*
X37550Y45413D01*
X37543Y45425D01*
X37537Y45436D01*
X37530Y45444D01*
X37528Y45447D01*
X37526Y45450D01*
X37524Y45452D01*
X37522Y45454D01*
X37522Y45455D01*
X37521D01*
X37512Y45462D01*
X37503Y45469D01*
X37494Y45475D01*
X37484Y45479D01*
X37473Y45484D01*
X37464Y45487D01*
X37454Y45490D01*
X37445Y45493D01*
X37436Y45494D01*
X37428Y45495D01*
X37421Y45497D01*
X37415Y45497D01*
X37410Y45498D01*
D02*
G37*
G36*
X37150Y45490D02*
X36972D01*
X37030D01*
X36959Y45219D01*
X36888Y45490D01*
X36768D01*
Y45093D01*
X36892D01*
X36842D01*
Y45405D01*
X36920Y45093D01*
X37035D01*
X36998D01*
X37076Y45405D01*
X37076Y45093D01*
X37150D01*
Y45490D01*
D02*
G37*
G36*
X37914Y45487D02*
Y45160D01*
X37715D01*
Y45487D01*
X37634D01*
Y45093D01*
X37914D01*
Y45487D01*
D02*
G37*
G36*
X38329Y45490D02*
X37972D01*
Y45093D01*
X38094D01*
X38052D01*
Y45259D01*
X38078D01*
X38086Y45258D01*
X38093Y45258D01*
X38099Y45257D01*
X38103Y45256D01*
X38106Y45255D01*
X38108Y45254D01*
X38108D01*
X38113Y45252D01*
X38117Y45250D01*
X38122Y45247D01*
X38126Y45245D01*
X38128Y45242D01*
X38131Y45239D01*
X38132Y45238D01*
X38132Y45238D01*
X38135Y45235D01*
X38138Y45232D01*
X38144Y45223D01*
X38151Y45214D01*
X38158Y45204D01*
X38165Y45195D01*
X38167Y45190D01*
X38170Y45187D01*
X38172Y45184D01*
X38174Y45181D01*
X38174Y45180D01*
X38175Y45179D01*
X38232Y45093D01*
X38329D01*
X38280Y45171D01*
X38275Y45179D01*
X38270Y45187D01*
X38265Y45194D01*
X38260Y45200D01*
X38256Y45206D01*
X38253Y45211D01*
X38246Y45220D01*
X38241Y45227D01*
X38237Y45231D01*
X38235Y45234D01*
X38234Y45235D01*
X38228Y45242D01*
X38220Y45248D01*
X38213Y45253D01*
X38206Y45258D01*
X38201Y45262D01*
X38196Y45265D01*
X38193Y45268D01*
X38192Y45268D01*
X38192D01*
X38201Y45270D01*
X38210Y45272D01*
X38218Y45274D01*
X38226Y45277D01*
X38233Y45280D01*
X38239Y45283D01*
X38245Y45286D01*
X38251Y45289D01*
X38255Y45292D01*
X38259Y45295D01*
X38263Y45298D01*
X38265Y45300D01*
X38267Y45302D01*
X38269Y45304D01*
X38270Y45304D01*
X38270Y45305D01*
X38275Y45311D01*
X38279Y45316D01*
X38286Y45329D01*
X38290Y45341D01*
X38293Y45353D01*
X38295Y45363D01*
X38296Y45367D01*
Y45371D01*
X38297Y45374D01*
Y45377D01*
Y45378D01*
Y45379D01*
X38296Y45392D01*
X38294Y45404D01*
X38291Y45414D01*
X38288Y45423D01*
X38285Y45431D01*
X38282Y45436D01*
X38280Y45438D01*
X38279Y45440D01*
X38279Y45440D01*
Y45441D01*
X38272Y45451D01*
X38264Y45459D01*
X38257Y45465D01*
X38250Y45471D01*
X38243Y45474D01*
X38237Y45477D01*
X38234Y45479D01*
X38233Y45479D01*
X38233D01*
X38227Y45481D01*
X38221Y45483D01*
X38206Y45486D01*
X38191Y45487D01*
X38176Y45489D01*
X38169D01*
X38162Y45490D01*
X38156D01*
X38151Y45490D01*
X38329D01*
D02*
G37*
G36*
X36381Y45169D02*
X36305D01*
Y45093D01*
X36381D01*
Y45169D01*
D02*
G37*
G36*
X36174Y45493D02*
X36000D01*
X36112D01*
X36107Y45479D01*
X36099Y45467D01*
X36091Y45456D01*
X36083Y45447D01*
X36076Y45439D01*
X36070Y45433D01*
X36068Y45431D01*
X36066Y45429D01*
X36065Y45429D01*
X36064Y45428D01*
X36052Y45419D01*
X36040Y45411D01*
X36029Y45405D01*
X36019Y45400D01*
X36011Y45397D01*
X36005Y45394D01*
X36003Y45393D01*
X36001Y45393D01*
X36001Y45392D01*
X36000D01*
Y45323D01*
X36021Y45331D01*
X36039Y45340D01*
X36048Y45344D01*
X36056Y45350D01*
X36063Y45354D01*
X36070Y45359D01*
X36076Y45363D01*
X36082Y45367D01*
X36087Y45371D01*
X36091Y45374D01*
X36094Y45377D01*
X36096Y45379D01*
X36098Y45380D01*
X36098Y45381D01*
Y45093D01*
X36000D01*
X36174D01*
Y45493D01*
D02*
G37*
G36*
X37128Y45004D02*
X36919D01*
X37043D01*
X36946Y44711D01*
X36845Y45004D01*
X36758D01*
X36901Y44607D01*
X36758D01*
X36987D01*
X37128Y45004D01*
D02*
G37*
G36*
X37728D02*
X37570D01*
Y44607D01*
X37902D01*
X37720D01*
X37736Y44608D01*
X37750Y44608D01*
X37762Y44610D01*
X37772Y44611D01*
X37780Y44613D01*
X37786Y44614D01*
X37788Y44615D01*
X37790D01*
X37790Y44615D01*
X37791D01*
X37804Y44620D01*
X37815Y44625D01*
X37824Y44630D01*
X37832Y44635D01*
X37839Y44640D01*
X37843Y44643D01*
X37846Y44646D01*
X37847Y44647D01*
X37857Y44658D01*
X37866Y44669D01*
X37873Y44681D01*
X37879Y44692D01*
X37883Y44703D01*
X37886Y44707D01*
X37887Y44710D01*
X37888Y44713D01*
X37889Y44716D01*
X37890Y44717D01*
Y44717D01*
X37894Y44731D01*
X37897Y44746D01*
X37899Y44759D01*
X37901Y44773D01*
X37901Y44779D01*
X37902Y44785D01*
Y44789D01*
X37902Y44794D01*
Y44802D01*
X37902Y44822D01*
X37900Y44840D01*
X37899Y44848D01*
X37898Y44856D01*
X37897Y44863D01*
X37896Y44870D01*
X37894Y44875D01*
X37893Y44880D01*
X37892Y44885D01*
X37891Y44888D01*
X37890Y44891D01*
X37890Y44894D01*
X37889Y44895D01*
Y44895D01*
X37884Y44909D01*
X37878Y44922D01*
X37871Y44933D01*
X37865Y44942D01*
X37860Y44949D01*
X37855Y44955D01*
X37852Y44959D01*
X37852Y44960D01*
X37851D01*
X37841Y44969D01*
X37832Y44976D01*
X37821Y44983D01*
X37812Y44988D01*
X37804Y44992D01*
X37797Y44995D01*
X37795Y44995D01*
X37793Y44996D01*
X37792Y44996D01*
X37791D01*
X37781Y44999D01*
X37768Y45001D01*
X37756Y45003D01*
X37744Y45003D01*
X37733Y45004D01*
X37728Y45004D01*
D02*
G37*
G36*
X37328D02*
X37169D01*
Y44607D01*
X37502D01*
X37320D01*
X37335Y44608D01*
X37349Y44608D01*
X37362Y44610D01*
X37371Y44611D01*
X37379Y44613D01*
X37386Y44614D01*
X37387Y44615D01*
X37389D01*
X37390Y44615D01*
X37390D01*
X37403Y44620D01*
X37414Y44625D01*
X37424Y44630D01*
X37432Y44635D01*
X37438Y44640D01*
X37442Y44643D01*
X37445Y44646D01*
X37446Y44647D01*
X37456Y44658D01*
X37465Y44669D01*
X37472Y44681D01*
X37478Y44692D01*
X37483Y44703D01*
X37485Y44707D01*
X37486Y44710D01*
X37487Y44713D01*
X37488Y44716D01*
X37489Y44717D01*
Y44717D01*
X37493Y44731D01*
X37496Y44746D01*
X37499Y44759D01*
X37500Y44773D01*
X37500Y44779D01*
X37501Y44785D01*
Y44789D01*
X37502Y44794D01*
Y44805D01*
Y44802D01*
X37501Y44822D01*
X37499Y44840D01*
X37499Y44848D01*
X37498Y44856D01*
X37496Y44863D01*
X37495Y44870D01*
X37494Y44875D01*
X37492Y44880D01*
X37491Y44885D01*
X37491Y44888D01*
X37490Y44891D01*
X37489Y44894D01*
X37488Y44895D01*
Y44895D01*
X37483Y44909D01*
X37477Y44922D01*
X37471Y44933D01*
X37464Y44942D01*
X37459Y44949D01*
X37455Y44955D01*
X37452Y44959D01*
X37451Y44960D01*
X37450D01*
X37441Y44969D01*
X37431Y44976D01*
X37421Y44983D01*
X37411Y44988D01*
X37403Y44992D01*
X37397Y44995D01*
X37394Y44995D01*
X37393Y44996D01*
X37391Y44996D01*
X37391D01*
X37380Y44999D01*
X37368Y45001D01*
X37355Y45003D01*
X37343Y45003D01*
X37332Y45004D01*
X37328Y45004D01*
D02*
G37*
G36*
X36411Y44684D02*
X36335D01*
Y44607D01*
X36411D01*
Y44684D01*
D02*
G37*
G36*
X36267Y45007D02*
X36141D01*
X36131Y45006D01*
X36122Y45006D01*
X36104Y45003D01*
X36089Y44998D01*
X36082Y44996D01*
X36076Y44993D01*
X36070Y44991D01*
X36065Y44988D01*
X36061Y44985D01*
X36057Y44984D01*
X36055Y44981D01*
X36053Y44980D01*
X36052Y44980D01*
X36051Y44979D01*
X36045Y44973D01*
X36039Y44968D01*
X36034Y44961D01*
X36029Y44953D01*
X36022Y44938D01*
X36017Y44924D01*
X36015Y44917D01*
X36013Y44910D01*
X36011Y44905D01*
X36011Y44899D01*
X36010Y44895D01*
Y44892D01*
X36009Y44890D01*
Y44889D01*
X36085Y44882D01*
X36086Y44893D01*
X36088Y44903D01*
X36091Y44911D01*
X36094Y44918D01*
X36096Y44923D01*
X36098Y44926D01*
X36100Y44929D01*
X36100Y44929D01*
X36106Y44934D01*
X36112Y44937D01*
X36119Y44940D01*
X36125Y44942D01*
X36130Y44943D01*
X36135Y44944D01*
X36139D01*
X36148Y44943D01*
X36155Y44941D01*
X36161Y44939D01*
X36167Y44937D01*
X36171Y44934D01*
X36174Y44932D01*
X36176Y44930D01*
X36177Y44930D01*
X36181Y44924D01*
X36185Y44918D01*
X36187Y44911D01*
X36189Y44905D01*
X36190Y44899D01*
X36191Y44894D01*
Y44891D01*
Y44891D01*
Y44890D01*
X36190Y44882D01*
X36188Y44874D01*
X36185Y44866D01*
X36183Y44859D01*
X36180Y44852D01*
X36177Y44848D01*
X36175Y44845D01*
X36174Y44844D01*
X36172Y44840D01*
X36169Y44836D01*
X36164Y44831D01*
X36160Y44826D01*
X36149Y44816D01*
X36139Y44805D01*
X36129Y44794D01*
X36124Y44790D01*
X36119Y44786D01*
X36116Y44783D01*
X36114Y44781D01*
X36112Y44779D01*
X36111Y44778D01*
X36100Y44767D01*
X36090Y44757D01*
X36080Y44747D01*
X36071Y44739D01*
X36063Y44730D01*
X36056Y44722D01*
X36050Y44715D01*
X36045Y44708D01*
X36040Y44703D01*
X36036Y44697D01*
X36033Y44693D01*
X36030Y44689D01*
X36028Y44687D01*
X36027Y44685D01*
X36026Y44684D01*
Y44683D01*
X36018Y44670D01*
X36013Y44656D01*
X36008Y44643D01*
X36005Y44632D01*
X36002Y44622D01*
X36002Y44618D01*
X36001Y44614D01*
X36001Y44611D01*
X36000Y44609D01*
Y44607D01*
X36267D01*
Y44759D01*
Y44678D01*
X36115D01*
X36120Y44685D01*
X36125Y44692D01*
X36127Y44694D01*
X36129Y44697D01*
X36130Y44698D01*
X36131Y44698D01*
X36133Y44701D01*
X36135Y44704D01*
X36142Y44710D01*
X36150Y44717D01*
X36157Y44725D01*
X36165Y44732D01*
X36171Y44738D01*
X36173Y44740D01*
X36175Y44742D01*
X36176Y44742D01*
X36177Y44743D01*
X36189Y44755D01*
X36200Y44764D01*
X36208Y44774D01*
X36215Y44781D01*
X36220Y44786D01*
X36224Y44790D01*
X36226Y44793D01*
X36227Y44794D01*
X36234Y44804D01*
X36241Y44813D01*
X36246Y44821D01*
X36250Y44829D01*
X36253Y44835D01*
X36255Y44840D01*
X36257Y44843D01*
X36257Y44844D01*
X36261Y44853D01*
X36263Y44863D01*
X36265Y44871D01*
X36266Y44879D01*
X36266Y44886D01*
X36267Y44891D01*
Y44895D01*
X36266Y44904D01*
X36265Y44913D01*
X36264Y44921D01*
X36262Y44928D01*
X36256Y44941D01*
X36250Y44953D01*
X36247Y44958D01*
X36244Y44962D01*
X36241Y44966D01*
X36238Y44969D01*
X36236Y44971D01*
X36235Y44973D01*
X36234Y44974D01*
X36233Y44975D01*
X36227Y44980D01*
X36219Y44985D01*
X36212Y44990D01*
X36204Y44993D01*
X36189Y44999D01*
X36174Y45003D01*
X36168Y45004D01*
X36161Y45005D01*
X36156Y45006D01*
X36150Y45006D01*
X36146Y45007D01*
X36267D01*
D02*
G37*
G36*
X37044Y44520D02*
Y44261D01*
X37043Y44272D01*
X37042Y44283D01*
X37040Y44292D01*
X37038Y44302D01*
X37036Y44310D01*
X37032Y44318D01*
X37029Y44325D01*
X37026Y44331D01*
X37022Y44337D01*
X37019Y44342D01*
X37016Y44347D01*
X37014Y44350D01*
X37011Y44353D01*
X37010Y44356D01*
X37009Y44357D01*
X37008Y44357D01*
X37001Y44364D01*
X36994Y44369D01*
X36987Y44375D01*
X36979Y44379D01*
X36972Y44383D01*
X36965Y44385D01*
X36952Y44390D01*
X36945Y44392D01*
X36940Y44393D01*
X36934Y44393D01*
X36930Y44394D01*
X36927Y44395D01*
X36922D01*
X36912Y44394D01*
X36902Y44392D01*
X36894Y44391D01*
X36886Y44388D01*
X36879Y44385D01*
X36874Y44384D01*
X36871Y44382D01*
X36870Y44381D01*
X36870D01*
X36882Y44449D01*
X37026D01*
Y44520D01*
X36824D01*
X36785Y44313D01*
X36847Y44304D01*
X36852Y44310D01*
X36857Y44314D01*
X36862Y44318D01*
X36867Y44322D01*
X36877Y44327D01*
X36886Y44330D01*
X36894Y44332D01*
X36900Y44333D01*
X36902Y44334D01*
X36906D01*
X36915Y44333D01*
X36924Y44331D01*
X36931Y44328D01*
X36937Y44325D01*
X36942Y44321D01*
X36946Y44318D01*
X36948Y44315D01*
X36949Y44315D01*
X36955Y44307D01*
X36959Y44299D01*
X36961Y44290D01*
X36963Y44280D01*
X36965Y44272D01*
X36965Y44266D01*
Y44263D01*
Y44261D01*
Y44260D01*
Y44260D01*
X36965Y44246D01*
X36963Y44234D01*
X36960Y44224D01*
X36957Y44216D01*
X36954Y44209D01*
X36952Y44205D01*
X36949Y44202D01*
X36949Y44201D01*
X36943Y44195D01*
X36936Y44190D01*
X36929Y44186D01*
X36922Y44184D01*
X36917Y44183D01*
X36912Y44182D01*
X36909Y44182D01*
X36908D01*
X36901Y44182D01*
X36893Y44184D01*
X36887Y44186D01*
X36882Y44189D01*
X36877Y44192D01*
X36874Y44194D01*
X36871Y44196D01*
X36871Y44197D01*
X36866Y44203D01*
X36861Y44209D01*
X36858Y44216D01*
X36855Y44222D01*
X36854Y44228D01*
X36852Y44233D01*
X36852Y44236D01*
Y44237D01*
X36776Y44229D01*
X36778Y44220D01*
X36779Y44212D01*
X36785Y44196D01*
X36792Y44182D01*
X36795Y44176D01*
X36799Y44171D01*
X36802Y44166D01*
X36805Y44162D01*
X36809Y44159D01*
X36811Y44155D01*
X36813Y44153D01*
X36815Y44151D01*
X36816Y44151D01*
X36817Y44150D01*
X36824Y44145D01*
X36831Y44140D01*
X36838Y44136D01*
X36846Y44133D01*
X36861Y44128D01*
X36875Y44124D01*
X36882Y44123D01*
X36887Y44123D01*
X36893Y44122D01*
X36898Y44121D01*
X36902Y44121D01*
X36776D01*
D01*
X37044D01*
X36907D01*
X36920Y44121D01*
X36932Y44123D01*
X36943Y44125D01*
X36953Y44129D01*
X36963Y44133D01*
X36971Y44137D01*
X36979Y44142D01*
X36987Y44147D01*
X36993Y44152D01*
X36999Y44156D01*
X37004Y44161D01*
X37008Y44165D01*
X37011Y44168D01*
X37013Y44171D01*
X37014Y44172D01*
X37015Y44173D01*
X37020Y44181D01*
X37025Y44188D01*
X37028Y44195D01*
X37031Y44203D01*
X37037Y44218D01*
X37040Y44232D01*
X37041Y44238D01*
X37042Y44244D01*
X37043Y44249D01*
Y44253D01*
X37044Y44257D01*
Y44520D01*
D02*
G37*
G36*
X37430Y44525D02*
X37345D01*
X37248Y44232D01*
X37147Y44525D01*
X37060D01*
X37203Y44128D01*
X37060D01*
X37430D01*
D01*
X37289D01*
X37430Y44525D01*
D02*
G37*
G36*
X36133Y44528D02*
X36128D01*
X36116Y44527D01*
X36105Y44526D01*
X36095Y44524D01*
X36086Y44521D01*
X36079Y44519D01*
X36073Y44517D01*
X36070Y44516D01*
X36069Y44515D01*
X36069D01*
X36060Y44510D01*
X36051Y44504D01*
X36044Y44499D01*
X36038Y44493D01*
X36034Y44488D01*
X36030Y44484D01*
X36028Y44482D01*
X36028Y44481D01*
X36022Y44472D01*
X36018Y44463D01*
X36014Y44453D01*
X36011Y44444D01*
X36009Y44435D01*
X36007Y44429D01*
X36006Y44426D01*
Y44424D01*
X36006Y44423D01*
Y44423D01*
X36076Y44411D01*
X36077Y44420D01*
X36080Y44428D01*
X36082Y44435D01*
X36085Y44441D01*
X36088Y44445D01*
X36090Y44449D01*
X36092Y44450D01*
X36092Y44451D01*
X36098Y44455D01*
X36103Y44459D01*
X36109Y44461D01*
X36114Y44463D01*
X36119Y44464D01*
X36122Y44465D01*
X36126D01*
X36133Y44464D01*
X36139Y44463D01*
X36145Y44461D01*
X36149Y44459D01*
X36153Y44457D01*
X36156Y44454D01*
X36157Y44453D01*
X36158Y44453D01*
X36162Y44448D01*
X36165Y44442D01*
X36167Y44437D01*
X36168Y44432D01*
X36169Y44427D01*
X36170Y44424D01*
Y44422D01*
Y44420D01*
X36169Y44412D01*
X36168Y44404D01*
X36165Y44398D01*
X36162Y44393D01*
X36158Y44388D01*
X36156Y44385D01*
X36154Y44383D01*
X36153Y44383D01*
X36146Y44378D01*
X36139Y44375D01*
X36131Y44372D01*
X36123Y44371D01*
X36117Y44370D01*
X36111Y44369D01*
X36106D01*
X36098Y44308D01*
X36105Y44310D01*
X36111Y44311D01*
X36118Y44313D01*
X36123Y44313D01*
X36127Y44314D01*
X36133D01*
X36141Y44313D01*
X36148Y44311D01*
X36154Y44309D01*
X36160Y44305D01*
X36164Y44302D01*
X36167Y44299D01*
X36169Y44297D01*
X36170Y44296D01*
X36175Y44290D01*
X36179Y44282D01*
X36182Y44275D01*
X36184Y44267D01*
X36185Y44260D01*
X36186Y44255D01*
Y44252D01*
Y44251D01*
Y44251D01*
X36185Y44240D01*
X36184Y44230D01*
X36181Y44221D01*
X36178Y44214D01*
X36174Y44209D01*
X36172Y44205D01*
X36170Y44202D01*
X36169Y44202D01*
X36163Y44196D01*
X36156Y44191D01*
X36150Y44189D01*
X36144Y44186D01*
X36138Y44185D01*
X36134Y44185D01*
X36131Y44184D01*
X36130D01*
X36122Y44185D01*
X36115Y44186D01*
X36108Y44189D01*
X36103Y44191D01*
X36099Y44194D01*
X36095Y44196D01*
X36093Y44198D01*
X36092Y44198D01*
X36087Y44205D01*
X36083Y44212D01*
X36080Y44219D01*
X36077Y44226D01*
X36075Y44232D01*
X36074Y44237D01*
X36073Y44241D01*
Y44241D01*
Y44242D01*
X36000Y44233D01*
X36001Y44224D01*
X36003Y44215D01*
X36009Y44199D01*
X36015Y44185D01*
X36019Y44179D01*
X36022Y44174D01*
X36026Y44168D01*
X36029Y44164D01*
X36032Y44160D01*
X36035Y44158D01*
X36037Y44155D01*
X36039Y44154D01*
X36040Y44152D01*
X36041Y44152D01*
X36048Y44147D01*
X36055Y44141D01*
X36062Y44137D01*
X36070Y44134D01*
X36085Y44128D01*
X36099Y44125D01*
X36106Y44124D01*
X36111Y44123D01*
X36117Y44122D01*
X36121Y44121D01*
X36125Y44121D01*
X36000D01*
D01*
X36264D01*
Y44257D01*
Y44247D01*
X36263Y44260D01*
X36261Y44272D01*
X36258Y44283D01*
X36254Y44291D01*
X36250Y44299D01*
X36247Y44304D01*
X36245Y44307D01*
X36243Y44309D01*
X36235Y44317D01*
X36226Y44325D01*
X36217Y44330D01*
X36208Y44335D01*
X36201Y44338D01*
X36195Y44340D01*
X36192Y44341D01*
X36191D01*
X36189Y44342D01*
X36189D01*
X36199Y44348D01*
X36208Y44354D01*
X36215Y44361D01*
X36222Y44368D01*
X36228Y44375D01*
X36232Y44382D01*
X36236Y44389D01*
X36239Y44395D01*
X36242Y44401D01*
X36243Y44407D01*
X36245Y44412D01*
X36245Y44417D01*
X36246Y44420D01*
X36246Y44423D01*
Y44425D01*
Y44426D01*
X36246Y44433D01*
X36245Y44439D01*
X36242Y44451D01*
X36238Y44463D01*
X36232Y44473D01*
X36227Y44481D01*
X36223Y44486D01*
X36221Y44489D01*
X36219Y44490D01*
X36219Y44491D01*
X36218Y44492D01*
X36212Y44498D01*
X36204Y44504D01*
X36197Y44508D01*
X36190Y44512D01*
X36182Y44516D01*
X36174Y44519D01*
X36160Y44523D01*
X36154Y44525D01*
X36148Y44526D01*
X36142Y44527D01*
X36137Y44527D01*
X36133Y44528D01*
D02*
G37*
G36*
X36404Y44205D02*
X36328D01*
Y44128D01*
X36404D01*
Y44205D01*
D02*
G37*
G36*
X37814Y44041D02*
X37491D01*
X37650D01*
X37634Y44041D01*
X37619Y44039D01*
X37605Y44037D01*
X37594Y44034D01*
X37589Y44033D01*
X37584Y44032D01*
X37581Y44030D01*
X37577Y44029D01*
X37575Y44028D01*
X37573Y44028D01*
X37572Y44027D01*
X37572D01*
X37560Y44021D01*
X37550Y44015D01*
X37542Y44008D01*
X37535Y44002D01*
X37529Y43996D01*
X37526Y43991D01*
X37523Y43988D01*
X37522Y43987D01*
Y43987D01*
X37517Y43977D01*
X37512Y43967D01*
X37510Y43957D01*
X37508Y43948D01*
X37507Y43941D01*
X37506Y43935D01*
Y43933D01*
Y43931D01*
Y43931D01*
Y43930D01*
X37506Y43921D01*
X37507Y43913D01*
X37509Y43905D01*
X37511Y43898D01*
X37517Y43884D01*
X37524Y43872D01*
X37527Y43867D01*
X37530Y43863D01*
X37533Y43859D01*
X37536Y43855D01*
X37538Y43853D01*
X37540Y43851D01*
X37541Y43850D01*
X37542Y43850D01*
X37547Y43846D01*
X37553Y43842D01*
X37560Y43838D01*
X37567Y43834D01*
X37581Y43827D01*
X37596Y43822D01*
X37604Y43819D01*
X37610Y43817D01*
X37616Y43815D01*
X37622Y43814D01*
X37626Y43812D01*
X37629Y43811D01*
X37631Y43811D01*
X37632D01*
X37641Y43808D01*
X37649Y43806D01*
X37657Y43804D01*
X37663Y43803D01*
X37669Y43801D01*
X37674Y43800D01*
X37679Y43798D01*
X37683Y43797D01*
X37686Y43796D01*
X37689Y43795D01*
X37693Y43794D01*
X37696Y43793D01*
X37696D01*
X37704Y43790D01*
X37709Y43787D01*
X37715Y43784D01*
X37719Y43781D01*
X37721Y43779D01*
X37723Y43777D01*
X37724Y43776D01*
X37725Y43776D01*
X37728Y43772D01*
X37730Y43768D01*
X37731Y43764D01*
X37732Y43760D01*
X37733Y43757D01*
X37733Y43754D01*
Y43752D01*
Y43752D01*
X37733Y43743D01*
X37731Y43737D01*
X37727Y43730D01*
X37724Y43724D01*
X37720Y43719D01*
X37717Y43716D01*
X37715Y43714D01*
X37713Y43713D01*
X37705Y43708D01*
X37696Y43704D01*
X37686Y43701D01*
X37677Y43699D01*
X37669Y43698D01*
X37662Y43697D01*
X37655D01*
X37642Y43698D01*
X37631Y43700D01*
X37621Y43703D01*
X37612Y43706D01*
X37605Y43710D01*
X37601Y43712D01*
X37598Y43715D01*
X37597Y43715D01*
X37589Y43723D01*
X37584Y43732D01*
X37578Y43742D01*
X37575Y43752D01*
X37572Y43760D01*
X37570Y43767D01*
X37569Y43769D01*
Y43772D01*
X37569Y43773D01*
Y43773D01*
X37491Y43766D01*
D01*
X37492Y43754D01*
X37495Y43742D01*
X37498Y43731D01*
X37501Y43722D01*
X37505Y43712D01*
X37509Y43704D01*
X37513Y43696D01*
X37517Y43690D01*
X37521Y43684D01*
X37525Y43679D01*
X37529Y43674D01*
X37532Y43670D01*
X37534Y43667D01*
X37537Y43665D01*
X37538Y43664D01*
X37538Y43664D01*
X37546Y43657D01*
X37555Y43652D01*
X37564Y43648D01*
X37574Y43644D01*
X37583Y43641D01*
X37593Y43638D01*
X37612Y43634D01*
X37620Y43632D01*
X37628Y43631D01*
X37635Y43630D01*
X37642Y43630D01*
X37647Y43629D01*
X37491D01*
X37654D01*
X37673Y43630D01*
X37689Y43632D01*
X37704Y43634D01*
X37711Y43635D01*
X37717Y43637D01*
X37722Y43638D01*
X37727Y43639D01*
X37731Y43640D01*
X37734Y43641D01*
X37737Y43642D01*
X37739Y43643D01*
X37740Y43644D01*
X37740D01*
X37753Y43650D01*
X37763Y43657D01*
X37773Y43664D01*
X37781Y43671D01*
X37786Y43677D01*
X37791Y43683D01*
X37793Y43687D01*
X37794Y43687D01*
Y43688D01*
X37801Y43699D01*
X37806Y43710D01*
X37809Y43721D01*
X37812Y43731D01*
X37813Y43739D01*
X37813Y43743D01*
X37814Y43746D01*
Y43699D01*
Y43757D01*
Y43752D01*
X37813Y43766D01*
X37812Y43778D01*
X37809Y43789D01*
X37806Y43798D01*
X37803Y43805D01*
X37800Y43811D01*
X37798Y43814D01*
X37798Y43815D01*
X37791Y43824D01*
X37784Y43832D01*
X37777Y43839D01*
X37770Y43845D01*
X37763Y43850D01*
X37758Y43853D01*
X37755Y43855D01*
X37754Y43856D01*
X37754D01*
X37748Y43859D01*
X37742Y43862D01*
X37728Y43867D01*
X37714Y43871D01*
X37700Y43876D01*
X37694Y43878D01*
X37688Y43880D01*
X37682Y43881D01*
X37677Y43882D01*
X37673Y43884D01*
X37670Y43884D01*
X37668Y43885D01*
X37667D01*
X37657Y43888D01*
X37648Y43890D01*
X37639Y43892D01*
X37631Y43894D01*
X37625Y43897D01*
X37619Y43899D01*
X37614Y43901D01*
X37609Y43903D01*
X37605Y43905D01*
X37602Y43906D01*
X37599Y43908D01*
X37597Y43909D01*
X37595Y43910D01*
X37594Y43911D01*
X37590Y43915D01*
X37587Y43919D01*
X37585Y43923D01*
X37584Y43927D01*
X37583Y43930D01*
X37583Y43933D01*
Y43935D01*
Y43935D01*
X37583Y43941D01*
X37584Y43946D01*
X37587Y43950D01*
X37589Y43954D01*
X37591Y43956D01*
X37593Y43958D01*
X37595Y43959D01*
X37595Y43960D01*
X37603Y43965D01*
X37612Y43968D01*
X37621Y43971D01*
X37630Y43973D01*
X37637Y43974D01*
X37643Y43975D01*
X37649D01*
X37661Y43974D01*
X37671Y43972D01*
X37680Y43970D01*
X37687Y43968D01*
X37693Y43966D01*
X37697Y43963D01*
X37699Y43962D01*
X37700Y43961D01*
X37705Y43955D01*
X37711Y43948D01*
X37715Y43941D01*
X37717Y43934D01*
X37720Y43928D01*
X37721Y43923D01*
X37722Y43919D01*
Y43918D01*
Y43917D01*
X37802Y43920D01*
X37802Y43931D01*
X37800Y43940D01*
X37798Y43949D01*
X37795Y43957D01*
X37792Y43965D01*
X37789Y43972D01*
X37785Y43979D01*
X37782Y43985D01*
X37778Y43990D01*
X37774Y43995D01*
X37771Y43999D01*
X37768Y44002D01*
X37766Y44005D01*
X37764Y44006D01*
X37763Y44008D01*
X37762Y44008D01*
X37755Y44014D01*
X37747Y44019D01*
X37738Y44024D01*
X37729Y44028D01*
X37720Y44030D01*
X37711Y44033D01*
X37692Y44037D01*
X37684Y44039D01*
X37676Y44040D01*
X37669Y44040D01*
X37662Y44041D01*
X37657Y44041D01*
X37814D01*
D02*
G37*
G36*
X36286Y44036D02*
Y43783D01*
X36236D01*
Y44036D01*
X36286D01*
X36172D01*
X36000Y43783D01*
Y43783D01*
Y43716D01*
X36163D01*
Y43637D01*
X36000D01*
X36236D01*
Y43716D01*
X36286D01*
Y44036D01*
D02*
G37*
G36*
X40127Y44034D02*
Y43704D01*
X39906D01*
Y43812D01*
X40105D01*
Y43879D01*
X39906D01*
Y43967D01*
X40120D01*
Y44034D01*
X40127D01*
X39825D01*
Y43637D01*
X40127D01*
Y44034D01*
D02*
G37*
G36*
X37444Y44034D02*
Y43704D01*
X37222D01*
Y43812D01*
X37421D01*
Y43879D01*
X37222D01*
Y43967D01*
X37436D01*
Y44034D01*
X37444D01*
X37142D01*
Y43637D01*
X37444D01*
Y44034D01*
D02*
G37*
G36*
X39757Y44034D02*
X39424D01*
Y43637D01*
X39575D01*
X39590Y43637D01*
X39605Y43638D01*
X39617Y43639D01*
X39627Y43641D01*
X39635Y43642D01*
X39641Y43644D01*
X39643Y43644D01*
X39644D01*
X39645Y43645D01*
X39645D01*
X39658Y43649D01*
X39670Y43654D01*
X39679Y43660D01*
X39687Y43665D01*
X39693Y43669D01*
X39698Y43673D01*
X39701Y43675D01*
X39702Y43676D01*
X39711Y43687D01*
X39720Y43699D01*
X39728Y43711D01*
X39733Y43722D01*
X39738Y43732D01*
X39740Y43736D01*
X39741Y43739D01*
X39742Y43743D01*
X39744Y43745D01*
X39744Y43746D01*
Y43747D01*
X39748Y43761D01*
X39752Y43775D01*
X39754Y43789D01*
X39755Y43802D01*
X39756Y43808D01*
X39756Y43814D01*
Y43819D01*
X39757Y43823D01*
Y43831D01*
X39756Y43851D01*
X39755Y43869D01*
X39754Y43878D01*
X39753Y43885D01*
X39752Y43893D01*
X39751Y43899D01*
X39749Y43905D01*
X39748Y43910D01*
X39746Y43915D01*
X39746Y43918D01*
X39745Y43921D01*
X39744Y43923D01*
X39744Y43924D01*
Y43925D01*
X39738Y43939D01*
X39732Y43951D01*
X39726Y43962D01*
X39720Y43971D01*
X39714Y43979D01*
X39710Y43985D01*
X39707Y43988D01*
X39706Y43989D01*
X39706D01*
X39696Y43998D01*
X39686Y44006D01*
X39676Y44012D01*
X39667Y44017D01*
X39659Y44021D01*
X39652Y44024D01*
X39649Y44025D01*
X39648Y44025D01*
X39647Y44026D01*
X39646D01*
X39635Y44029D01*
X39623Y44030D01*
X39610Y44032D01*
X39598Y44033D01*
X39588Y44033D01*
X39583Y44034D01*
X39757D01*
D01*
D02*
G37*
G36*
X38911D02*
X38529Y44034D01*
Y43637D01*
X38603D01*
Y43949D01*
X38681Y43637D01*
X38759D01*
X38837Y43949D01*
X38837Y43637D01*
X38911D01*
Y44034D01*
D02*
G37*
G36*
X38169Y44034D02*
X37854D01*
Y43637D01*
Y43967D01*
X37972D01*
Y43637D01*
X37854D01*
X38169D01*
D01*
X38052D01*
Y43967D01*
X38169D01*
Y44034D01*
D02*
G37*
G36*
X37089D02*
X36774D01*
Y43637D01*
Y43967D01*
X36892D01*
Y43637D01*
X36774D01*
X37089D01*
D01*
X36972D01*
Y43967D01*
X37089D01*
Y44034D01*
D02*
G37*
G36*
X36414Y43713D02*
X36338D01*
Y43637D01*
X36414D01*
Y43713D01*
D02*
G37*
G36*
X39361Y44041D02*
X38976D01*
X39168D01*
X39151Y44041D01*
X39134Y44039D01*
X39120Y44036D01*
X39107Y44033D01*
X39102Y44032D01*
X39097Y44030D01*
X39093Y44029D01*
X39089Y44028D01*
X39086Y44027D01*
X39084Y44026D01*
X39083Y44025D01*
X39082D01*
X39072Y44021D01*
X39062Y44015D01*
X39054Y44009D01*
X39046Y44003D01*
X39040Y43998D01*
X39035Y43993D01*
X39032Y43990D01*
X39031Y43990D01*
X39031Y43989D01*
X39023Y43980D01*
X39015Y43970D01*
X39009Y43962D01*
X39004Y43953D01*
X39000Y43946D01*
X38996Y43940D01*
X38996Y43937D01*
X38995Y43936D01*
X38994Y43935D01*
Y43935D01*
X38988Y43919D01*
X38984Y43901D01*
X38981Y43884D01*
X38978Y43868D01*
X38978Y43861D01*
X38977Y43854D01*
X38977Y43848D01*
Y43843D01*
X38976Y43838D01*
Y43629D01*
Y43832D01*
X38977Y43815D01*
X38978Y43799D01*
X38981Y43783D01*
X38984Y43769D01*
X38988Y43756D01*
X38993Y43743D01*
X38997Y43732D01*
X39003Y43722D01*
X39007Y43713D01*
X39012Y43706D01*
X39016Y43699D01*
X39020Y43693D01*
X39024Y43689D01*
X39026Y43685D01*
X39028Y43684D01*
X39028Y43683D01*
X39039Y43673D01*
X39050Y43665D01*
X39061Y43658D01*
X39073Y43652D01*
X39084Y43647D01*
X39096Y43642D01*
X39107Y43639D01*
X39119Y43636D01*
X39129Y43634D01*
X39139Y43632D01*
X39147Y43631D01*
X39155Y43630D01*
X39160Y43630D01*
X39165Y43629D01*
X39169D01*
X39185Y43630D01*
X39200Y43632D01*
X39214Y43634D01*
X39228Y43638D01*
X39240Y43642D01*
X39252Y43646D01*
X39262Y43651D01*
X39272Y43656D01*
X39280Y43661D01*
X39287Y43666D01*
X39294Y43671D01*
X39299Y43675D01*
X39303Y43678D01*
X39306Y43681D01*
X39308Y43683D01*
X39309Y43683D01*
X39318Y43694D01*
X39326Y43706D01*
X39333Y43718D01*
X39339Y43730D01*
X39344Y43742D01*
X39349Y43755D01*
X39352Y43768D01*
X39355Y43780D01*
X39357Y43791D01*
X39358Y43801D01*
X39360Y43811D01*
X39361Y43819D01*
Y43826D01*
X39361Y43831D01*
Y43835D01*
X39361Y43853D01*
X39359Y43869D01*
X39357Y43885D01*
X39353Y43900D01*
X39349Y43913D01*
X39345Y43925D01*
X39340Y43937D01*
X39335Y43947D01*
X39330Y43956D01*
X39325Y43964D01*
X39321Y43971D01*
X39317Y43977D01*
X39314Y43981D01*
X39311Y43984D01*
X39309Y43986D01*
X39309Y43986D01*
X39298Y43996D01*
X39287Y44005D01*
X39276Y44012D01*
X39264Y44018D01*
X39252Y44024D01*
X39241Y44028D01*
X39229Y44032D01*
X39218Y44034D01*
X39208Y44037D01*
X39198Y44039D01*
X39190Y44040D01*
X39182Y44041D01*
X39177D01*
X39172Y44041D01*
X39361D01*
D02*
G37*
G36*
X38492Y43637D02*
Y43576D01*
X38175D01*
Y43527D01*
X38492D01*
Y43637D01*
D02*
G37*
G36*
X37798Y43448D02*
X37791D01*
X37777Y43447D01*
X37762Y43445D01*
X37748Y43442D01*
X37735Y43439D01*
X37724Y43435D01*
X37712Y43430D01*
X37702Y43425D01*
X37693Y43420D01*
X37685Y43415D01*
X37678Y43410D01*
X37671Y43405D01*
X37666Y43401D01*
X37662Y43398D01*
X37659Y43395D01*
X37658Y43393D01*
X37657Y43393D01*
X37648Y43382D01*
X37640Y43370D01*
X37634Y43358D01*
X37628Y43345D01*
X37623Y43332D01*
X37619Y43320D01*
X37615Y43307D01*
X37612Y43295D01*
X37610Y43283D01*
X37609Y43273D01*
X37608Y43263D01*
X37607Y43255D01*
Y43248D01*
X37606Y43243D01*
Y43238D01*
X37607Y43221D01*
X37608Y43205D01*
X37611Y43189D01*
X37614Y43176D01*
X37618Y43162D01*
X37622Y43150D01*
X37627Y43139D01*
X37631Y43129D01*
X37636Y43120D01*
X37640Y43112D01*
X37645Y43106D01*
X37649Y43100D01*
X37652Y43096D01*
X37654Y43092D01*
X37656Y43091D01*
X37657Y43090D01*
X37666Y43080D01*
X37677Y43072D01*
X37688Y43065D01*
X37698Y43059D01*
X37709Y43054D01*
X37720Y43049D01*
X37731Y43046D01*
X37740Y43043D01*
X37750Y43041D01*
X37759Y43039D01*
X37767Y43038D01*
X37773Y43037D01*
X37779Y43037D01*
X37783Y43036D01*
X37606D01*
X37952D01*
Y43165D01*
X37874Y43189D01*
X37869Y43173D01*
X37864Y43160D01*
X37859Y43149D01*
X37853Y43140D01*
X37848Y43133D01*
X37844Y43128D01*
X37841Y43126D01*
X37840Y43124D01*
X37831Y43118D01*
X37822Y43113D01*
X37813Y43110D01*
X37805Y43107D01*
X37797Y43106D01*
X37791Y43105D01*
X37789Y43104D01*
X37786D01*
X37778Y43105D01*
X37770Y43106D01*
X37756Y43110D01*
X37744Y43114D01*
X37735Y43120D01*
X37727Y43126D01*
X37721Y43131D01*
X37719Y43133D01*
X37717Y43135D01*
X37716Y43135D01*
X37716Y43136D01*
X37711Y43142D01*
X37707Y43150D01*
X37703Y43158D01*
X37700Y43166D01*
X37696Y43184D01*
X37692Y43202D01*
X37691Y43211D01*
X37690Y43218D01*
X37689Y43225D01*
Y43232D01*
X37689Y43236D01*
Y43240D01*
Y43243D01*
Y43244D01*
X37689Y43257D01*
X37690Y43269D01*
X37691Y43280D01*
X37693Y43290D01*
X37695Y43300D01*
X37697Y43308D01*
X37700Y43316D01*
X37702Y43323D01*
X37705Y43328D01*
X37707Y43333D01*
X37709Y43337D01*
X37712Y43341D01*
X37713Y43344D01*
X37715Y43345D01*
X37716Y43347D01*
Y43347D01*
X37721Y43353D01*
X37727Y43358D01*
X37732Y43362D01*
X37739Y43366D01*
X37751Y43371D01*
X37762Y43375D01*
X37772Y43378D01*
X37777Y43378D01*
X37780Y43379D01*
X37783Y43379D01*
X37787D01*
X37799Y43379D01*
X37809Y43376D01*
X37818Y43374D01*
X37826Y43370D01*
X37833Y43367D01*
X37837Y43364D01*
X37840Y43362D01*
X37841Y43361D01*
X37849Y43354D01*
X37856Y43346D01*
X37861Y43338D01*
X37865Y43330D01*
X37868Y43323D01*
X37870Y43318D01*
X37871Y43316D01*
Y43314D01*
X37871Y43313D01*
Y43313D01*
X37950Y43332D01*
X37945Y43348D01*
X37938Y43363D01*
X37932Y43375D01*
X37925Y43386D01*
X37919Y43394D01*
X37917Y43397D01*
X37914Y43400D01*
X37913Y43402D01*
X37911Y43403D01*
X37910Y43405D01*
X37910D01*
X37901Y43412D01*
X37891Y43419D01*
X37882Y43425D01*
X37872Y43429D01*
X37862Y43434D01*
X37852Y43437D01*
X37843Y43440D01*
X37833Y43442D01*
X37825Y43444D01*
X37817Y43445D01*
X37810Y43446D01*
X37804Y43447D01*
X37798Y43448D01*
D02*
G37*
G36*
X37571Y43440D02*
X37463D01*
X37300Y43263D01*
Y43440D01*
X37220D01*
Y43043D01*
X37578D01*
D01*
X37421Y43285D01*
X37571Y43440D01*
D02*
G37*
G36*
X36267Y43435D02*
Y43176D01*
X36267Y43187D01*
X36266Y43197D01*
X36264Y43207D01*
X36262Y43216D01*
X36259Y43224D01*
X36256Y43232D01*
X36253Y43240D01*
X36250Y43246D01*
X36246Y43252D01*
X36243Y43257D01*
X36240Y43262D01*
X36238Y43265D01*
X36235Y43268D01*
X36234Y43270D01*
X36232Y43271D01*
X36232Y43272D01*
X36225Y43278D01*
X36218Y43284D01*
X36211Y43289D01*
X36203Y43294D01*
X36196Y43297D01*
X36189Y43300D01*
X36176Y43305D01*
X36169Y43306D01*
X36164Y43308D01*
X36158Y43308D01*
X36154Y43309D01*
X36151Y43309D01*
X36146D01*
X36136Y43309D01*
X36126Y43307D01*
X36118Y43305D01*
X36110Y43303D01*
X36103Y43300D01*
X36098Y43298D01*
X36095Y43297D01*
X36094Y43296D01*
X36094D01*
X36106Y43364D01*
X36250D01*
Y43435D01*
X36048D01*
X36009Y43228D01*
X36071Y43219D01*
X36076Y43224D01*
X36081Y43229D01*
X36086Y43233D01*
X36091Y43236D01*
X36101Y43242D01*
X36110Y43245D01*
X36118Y43247D01*
X36124Y43248D01*
X36126Y43248D01*
X36130D01*
X36139Y43248D01*
X36148Y43246D01*
X36155Y43243D01*
X36161Y43239D01*
X36166Y43235D01*
X36170Y43232D01*
X36172Y43230D01*
X36173Y43230D01*
X36179Y43222D01*
X36183Y43213D01*
X36185Y43204D01*
X36187Y43195D01*
X36189Y43187D01*
X36189Y43181D01*
Y43178D01*
Y43176D01*
Y43175D01*
Y43174D01*
X36189Y43161D01*
X36187Y43149D01*
X36184Y43139D01*
X36181Y43131D01*
X36178Y43124D01*
X36176Y43119D01*
X36173Y43117D01*
X36173Y43116D01*
X36166Y43110D01*
X36160Y43104D01*
X36153Y43101D01*
X36146Y43099D01*
X36141Y43097D01*
X36136Y43097D01*
X36133Y43096D01*
X36132D01*
X36125Y43097D01*
X36117Y43099D01*
X36111Y43101D01*
X36106Y43104D01*
X36101Y43107D01*
X36098Y43109D01*
X36095Y43111D01*
X36095Y43111D01*
X36090Y43118D01*
X36085Y43124D01*
X36082Y43131D01*
X36079Y43137D01*
X36077Y43143D01*
X36076Y43148D01*
X36076Y43151D01*
Y43152D01*
X36000Y43144D01*
X36002Y43135D01*
X36003Y43126D01*
X36009Y43111D01*
X36016Y43097D01*
X36019Y43091D01*
X36023Y43085D01*
X36026Y43081D01*
X36029Y43077D01*
X36033Y43073D01*
X36035Y43070D01*
X36037Y43068D01*
X36039Y43066D01*
X36040Y43065D01*
X36041Y43065D01*
X36048Y43060D01*
X36055Y43055D01*
X36062Y43051D01*
X36069Y43048D01*
X36085Y43042D01*
X36099Y43039D01*
X36106Y43038D01*
X36111Y43037D01*
X36117Y43037D01*
X36122Y43036D01*
X36126Y43035D01*
X36000D01*
D01*
X36267D01*
X36131D01*
X36144Y43036D01*
X36156Y43038D01*
X36166Y43040D01*
X36177Y43044D01*
X36187Y43048D01*
X36195Y43052D01*
X36203Y43057D01*
X36211Y43062D01*
X36217Y43066D01*
X36223Y43071D01*
X36228Y43076D01*
X36232Y43080D01*
X36235Y43083D01*
X36237Y43085D01*
X36238Y43087D01*
X36239Y43088D01*
X36244Y43095D01*
X36249Y43103D01*
X36252Y43110D01*
X36255Y43118D01*
X36261Y43133D01*
X36264Y43147D01*
X36265Y43153D01*
X36266Y43158D01*
X36267Y43163D01*
Y43168D01*
X36267Y43172D01*
Y43435D01*
D02*
G37*
G36*
X36400Y43119D02*
X36324D01*
Y43043D01*
X36400D01*
Y43119D01*
D02*
G37*
G36*
X36967Y43448D02*
X36963D01*
X36946Y43447D01*
X36929Y43445D01*
X36915Y43442D01*
X36902Y43440D01*
X36897Y43438D01*
X36892Y43437D01*
X36888Y43436D01*
X36885Y43434D01*
X36882Y43433D01*
X36879Y43432D01*
X36878Y43432D01*
X36878D01*
X36867Y43427D01*
X36858Y43421D01*
X36849Y43415D01*
X36841Y43409D01*
X36835Y43404D01*
X36830Y43399D01*
X36827Y43397D01*
X36827Y43396D01*
X36826Y43395D01*
X36818Y43386D01*
X36810Y43376D01*
X36804Y43368D01*
X36799Y43359D01*
X36795Y43352D01*
X36792Y43346D01*
X36791Y43344D01*
X36790Y43342D01*
X36789Y43341D01*
Y43341D01*
X36784Y43325D01*
X36779Y43308D01*
X36776Y43290D01*
X36774Y43274D01*
X36773Y43267D01*
X36773Y43260D01*
X36772Y43254D01*
Y43249D01*
X36771Y43244D01*
Y43035D01*
X37157D01*
D01*
X36964D01*
X36980Y43036D01*
X36995Y43038D01*
X37010Y43041D01*
X37023Y43044D01*
X37036Y43048D01*
X37047Y43053D01*
X37057Y43057D01*
X37067Y43062D01*
X37075Y43068D01*
X37083Y43072D01*
X37089Y43077D01*
X37094Y43081D01*
X37099Y43084D01*
X37102Y43087D01*
X37103Y43089D01*
X37104Y43089D01*
X37113Y43100D01*
X37121Y43112D01*
X37128Y43124D01*
X37134Y43136D01*
X37139Y43149D01*
X37144Y43161D01*
X37147Y43174D01*
X37150Y43186D01*
X37152Y43197D01*
X37154Y43208D01*
X37155Y43217D01*
X37156Y43225D01*
Y43232D01*
X37157Y43237D01*
Y43241D01*
X37156Y43259D01*
X37154Y43275D01*
X37152Y43291D01*
X37149Y43306D01*
X37145Y43319D01*
X37140Y43332D01*
X37135Y43343D01*
X37130Y43353D01*
X37125Y43362D01*
X37120Y43370D01*
X37116Y43377D01*
X37112Y43383D01*
X37109Y43387D01*
X37106Y43390D01*
X37104Y43392D01*
X37104Y43393D01*
X37093Y43402D01*
X37083Y43411D01*
X37071Y43418D01*
X37060Y43425D01*
X37048Y43430D01*
X37036Y43434D01*
X37025Y43438D01*
X37014Y43441D01*
X37003Y43443D01*
X36994Y43445D01*
X36985Y43446D01*
X36978Y43447D01*
X36972D01*
X36967Y43448D01*
D02*
G37*
G36*
X36150Y42956D02*
X36145D01*
X36133Y42955D01*
X36122Y42954D01*
X36111Y42951D01*
X36102Y42949D01*
X36092Y42945D01*
X36083Y42941D01*
X36076Y42936D01*
X36068Y42932D01*
X36062Y42927D01*
X36056Y42923D01*
X36052Y42919D01*
X36048Y42915D01*
X36044Y42912D01*
X36042Y42910D01*
X36041Y42908D01*
X36040Y42907D01*
X36033Y42898D01*
X36027Y42887D01*
X36022Y42875D01*
X36017Y42862D01*
X36013Y42849D01*
X36010Y42836D01*
X36007Y42823D01*
X36005Y42810D01*
X36003Y42798D01*
X36002Y42787D01*
X36001Y42776D01*
X36001Y42767D01*
X36000Y42760D01*
Y42749D01*
X36001Y42730D01*
X36002Y42712D01*
X36003Y42695D01*
X36006Y42681D01*
X36009Y42666D01*
X36012Y42654D01*
X36016Y42643D01*
X36020Y42632D01*
X36023Y42624D01*
X36026Y42616D01*
X36029Y42610D01*
X36033Y42605D01*
X36035Y42601D01*
X36037Y42598D01*
X36038Y42596D01*
X36038Y42596D01*
X36046Y42588D01*
X36054Y42580D01*
X36062Y42574D01*
X36071Y42569D01*
X36079Y42564D01*
X36087Y42561D01*
X36095Y42557D01*
X36103Y42555D01*
X36110Y42553D01*
X36117Y42551D01*
X36123Y42551D01*
X36128Y42550D01*
X36132D01*
X36135Y42549D01*
X36000D01*
D01*
X36266D01*
Y42684D01*
X36265Y42695D01*
X36264Y42705D01*
X36262Y42714D01*
X36261Y42723D01*
X36258Y42732D01*
X36255Y42739D01*
X36252Y42747D01*
X36249Y42753D01*
X36245Y42759D01*
X36242Y42764D01*
X36239Y42768D01*
X36236Y42772D01*
X36235Y42775D01*
X36233Y42776D01*
X36232Y42778D01*
X36231Y42778D01*
X36225Y42784D01*
X36218Y42790D01*
X36211Y42795D01*
X36204Y42799D01*
X36197Y42803D01*
X36191Y42806D01*
X36178Y42810D01*
X36172Y42812D01*
X36166Y42813D01*
X36162Y42814D01*
X36158Y42814D01*
X36154Y42815D01*
X36150D01*
X36142Y42814D01*
X36134Y42813D01*
X36127Y42812D01*
X36121Y42810D01*
X36108Y42804D01*
X36098Y42798D01*
X36090Y42792D01*
X36087Y42789D01*
X36084Y42786D01*
X36082Y42784D01*
X36080Y42783D01*
X36079Y42782D01*
X36079Y42781D01*
X36080Y42793D01*
X36081Y42805D01*
X36082Y42815D01*
X36084Y42824D01*
X36086Y42832D01*
X36087Y42840D01*
X36089Y42846D01*
X36091Y42852D01*
X36093Y42857D01*
X36094Y42861D01*
X36096Y42864D01*
X36097Y42867D01*
X36098Y42869D01*
X36099Y42870D01*
X36100Y42871D01*
X36106Y42879D01*
X36113Y42884D01*
X36120Y42888D01*
X36126Y42890D01*
X36132Y42892D01*
X36137Y42892D01*
X36139Y42893D01*
X36141D01*
X36147Y42892D01*
X36153Y42891D01*
X36158Y42889D01*
X36162Y42888D01*
X36166Y42885D01*
X36168Y42884D01*
X36170Y42883D01*
X36170Y42882D01*
X36174Y42877D01*
X36177Y42872D01*
X36180Y42867D01*
X36182Y42861D01*
X36183Y42856D01*
X36184Y42852D01*
X36185Y42850D01*
Y42849D01*
X36258Y42857D01*
X36254Y42874D01*
X36249Y42888D01*
X36242Y42901D01*
X36236Y42912D01*
X36230Y42920D01*
X36227Y42923D01*
X36224Y42926D01*
X36223Y42927D01*
X36221Y42929D01*
X36220Y42930D01*
X36220D01*
X36214Y42935D01*
X36208Y42939D01*
X36196Y42945D01*
X36183Y42950D01*
X36172Y42953D01*
X36161Y42955D01*
X36157Y42955D01*
X36153D01*
X36150Y42956D01*
D02*
G37*
G36*
X37719Y42954D02*
X37560D01*
Y42557D01*
X37892D01*
X37711D01*
X37726Y42557D01*
X37740Y42558D01*
X37752Y42559D01*
X37762Y42561D01*
X37770Y42562D01*
X37777Y42563D01*
X37778Y42564D01*
X37780D01*
X37781Y42565D01*
X37781D01*
X37794Y42569D01*
X37805Y42574D01*
X37814Y42580D01*
X37822Y42585D01*
X37829Y42589D01*
X37833Y42593D01*
X37836Y42595D01*
X37837Y42596D01*
X37847Y42607D01*
X37856Y42619D01*
X37863Y42631D01*
X37869Y42642D01*
X37874Y42652D01*
X37876Y42656D01*
X37877Y42659D01*
X37878Y42663D01*
X37879Y42665D01*
X37880Y42666D01*
Y42667D01*
X37884Y42681D01*
X37887Y42695D01*
X37890Y42709D01*
X37891Y42722D01*
X37891Y42728D01*
X37892Y42734D01*
Y42739D01*
X37892Y42743D01*
Y42771D01*
Y42751D01*
X37892Y42771D01*
X37890Y42789D01*
X37890Y42798D01*
X37888Y42805D01*
X37887Y42813D01*
X37886Y42819D01*
X37884Y42825D01*
X37883Y42830D01*
X37882Y42834D01*
X37882Y42838D01*
X37880Y42841D01*
X37880Y42843D01*
X37879Y42844D01*
Y42845D01*
X37874Y42858D01*
X37868Y42871D01*
X37861Y42882D01*
X37855Y42891D01*
X37850Y42899D01*
X37845Y42904D01*
X37843Y42908D01*
X37842Y42909D01*
X37841D01*
X37832Y42918D01*
X37822Y42926D01*
X37812Y42932D01*
X37802Y42937D01*
X37794Y42941D01*
X37787Y42944D01*
X37785Y42945D01*
X37783Y42945D01*
X37782Y42946D01*
X37782D01*
X37771Y42949D01*
X37759Y42950D01*
X37746Y42952D01*
X37734Y42953D01*
X37723Y42953D01*
X37719Y42954D01*
D02*
G37*
G36*
X37358D02*
X37273D01*
X37119Y42557D01*
D01*
X37517D01*
X37358Y42954D01*
D02*
G37*
G36*
X36936D02*
X36789D01*
Y42557D01*
X37093D01*
Y42849D01*
Y42832D01*
X37092Y42848D01*
X37090Y42864D01*
X37086Y42876D01*
X37082Y42888D01*
X37080Y42892D01*
X37077Y42896D01*
X37076Y42900D01*
X37073Y42903D01*
X37072Y42906D01*
X37071Y42907D01*
X37070Y42908D01*
Y42908D01*
X37061Y42919D01*
X37052Y42927D01*
X37042Y42934D01*
X37033Y42939D01*
X37025Y42943D01*
X37019Y42946D01*
X37017Y42946D01*
X37015Y42947D01*
X37014Y42947D01*
X37013D01*
X37009Y42949D01*
X37003Y42950D01*
X36996Y42950D01*
X36989Y42951D01*
X36973Y42952D01*
X36957Y42953D01*
X36942D01*
X36936Y42954D01*
D02*
G37*
G36*
X36401Y42633D02*
X36325D01*
Y42557D01*
X36401D01*
Y42633D01*
D02*
G37*
G36*
X38629Y42470D02*
X38537D01*
X38446Y42312D01*
X38352Y42470D01*
X38259D01*
X38404Y42239D01*
Y42072D01*
X38624D01*
D01*
X38484D01*
Y42239D01*
X38629Y42470D01*
D02*
G37*
G36*
X37842Y42467D02*
Y42140D01*
X37642D01*
Y42467D01*
X37562D01*
Y42072D01*
X37842D01*
Y42467D01*
D02*
G37*
G36*
X37492Y42470D02*
Y42140D01*
X37270D01*
Y42248D01*
X37469D01*
Y42315D01*
X37270D01*
Y42402D01*
X37484D01*
Y42470D01*
X37492D01*
X37190D01*
Y42072D01*
X37492D01*
Y42470D01*
D02*
G37*
G36*
X39449Y42470D02*
X39133D01*
Y42072D01*
X39208D01*
Y42334D01*
X39369Y42072D01*
X39449D01*
Y42470D01*
D02*
G37*
G36*
X39057D02*
X38976D01*
Y42072D01*
X39057D01*
Y42470D01*
D02*
G37*
G36*
X38097Y42470D02*
X37859D01*
X38012D01*
X37859Y42072D01*
X37944D01*
X37976Y42163D01*
X38136D01*
X38170Y42072D01*
X37965D01*
X38257D01*
X38097Y42470D01*
D02*
G37*
G36*
X36968D02*
X36789D01*
Y42072D01*
X37042D01*
X36870D01*
Y42238D01*
X36895D01*
X36903Y42238D01*
X36910Y42237D01*
X36916Y42236D01*
X36921Y42235D01*
X36924Y42234D01*
X36925Y42234D01*
X36926D01*
X36930Y42231D01*
X36935Y42229D01*
X36939Y42226D01*
X36943Y42224D01*
X36946Y42221D01*
X36948Y42219D01*
X36949Y42218D01*
X36950Y42217D01*
X36952Y42214D01*
X36955Y42211D01*
X36961Y42203D01*
X36968Y42194D01*
X36976Y42183D01*
X36982Y42174D01*
X36985Y42169D01*
X36987Y42166D01*
X36990Y42163D01*
X36991Y42161D01*
X36992Y42159D01*
X36992Y42159D01*
X37050Y42072D01*
X37146D01*
X37097Y42150D01*
X37092Y42158D01*
X37087Y42166D01*
X37083Y42173D01*
X37078Y42179D01*
X37074Y42185D01*
X37071Y42191D01*
X37064Y42199D01*
X37058Y42206D01*
X37055Y42211D01*
X37052Y42214D01*
X37052Y42214D01*
X37045Y42221D01*
X37038Y42227D01*
X37031Y42233D01*
X37024Y42238D01*
X37018Y42242D01*
X37014Y42245D01*
X37010Y42247D01*
X37010Y42248D01*
X37009D01*
X37019Y42249D01*
X37027Y42252D01*
X37036Y42254D01*
X37044Y42257D01*
X37050Y42260D01*
X37057Y42262D01*
X37063Y42265D01*
X37068Y42269D01*
X37073Y42272D01*
X37077Y42274D01*
X37080Y42277D01*
X37083Y42280D01*
X37085Y42281D01*
X37087Y42283D01*
X37087Y42284D01*
X37088Y42284D01*
X37092Y42290D01*
X37096Y42296D01*
X37103Y42308D01*
X37108Y42320D01*
X37111Y42332D01*
X37113Y42343D01*
X37114Y42347D01*
Y42351D01*
X37114Y42354D01*
Y42357D01*
Y42358D01*
Y42358D01*
X37114Y42371D01*
X37111Y42383D01*
X37108Y42393D01*
X37106Y42402D01*
X37102Y42410D01*
X37099Y42416D01*
X37098Y42417D01*
X37097Y42419D01*
X37096Y42420D01*
Y42420D01*
X37089Y42430D01*
X37082Y42438D01*
X37075Y42444D01*
X37067Y42450D01*
X37060Y42454D01*
X37055Y42456D01*
X37052Y42458D01*
X37051Y42459D01*
X37050D01*
X37045Y42460D01*
X37038Y42462D01*
X37024Y42465D01*
X37009Y42467D01*
X36994Y42469D01*
X36986D01*
X36980Y42469D01*
X36974D01*
X36968Y42470D01*
D02*
G37*
G36*
X36401Y42149D02*
X36325D01*
Y42072D01*
X36401D01*
Y42149D01*
D02*
G37*
G36*
X36261Y42464D02*
X36000D01*
Y42072D01*
X36261D01*
Y42464D01*
D02*
G37*
G36*
X38941Y42072D02*
Y42012D01*
X38624Y42012D01*
Y41963D01*
X38941Y41963D01*
Y42072D01*
D02*
G37*
%LPD*%
G36*
X36146Y45913D02*
X36151D01*
X36156Y45912D01*
X36164D01*
X36169Y45912D01*
X36173Y45911D01*
X36176Y45911D01*
X36176D01*
X36183Y45909D01*
X36189Y45907D01*
X36195Y45904D01*
X36200Y45900D01*
X36203Y45897D01*
X36206Y45895D01*
X36208Y45893D01*
X36208Y45893D01*
X36213Y45887D01*
X36216Y45881D01*
X36218Y45875D01*
X36220Y45869D01*
X36221Y45864D01*
X36222Y45860D01*
Y45858D01*
Y45857D01*
X36221Y45850D01*
X36220Y45845D01*
X36219Y45839D01*
X36217Y45835D01*
X36215Y45831D01*
X36214Y45828D01*
X36213Y45826D01*
X36212Y45826D01*
X36209Y45821D01*
X36204Y45817D01*
X36200Y45814D01*
X36196Y45811D01*
X36193Y45809D01*
X36190Y45807D01*
X36188Y45807D01*
X36187Y45806D01*
X36184Y45805D01*
X36180Y45804D01*
X36170Y45803D01*
X36160Y45802D01*
X36150Y45801D01*
X36139D01*
X36135Y45800D01*
X36080D01*
Y45914D01*
X36140D01*
X36146Y45913D01*
D02*
G37*
G36*
X36304Y45583D02*
X36080D01*
Y45733D01*
X36152D01*
X36160Y45734D01*
X36168D01*
X36176Y45734D01*
X36183Y45735D01*
X36189Y45736D01*
X36194Y45736D01*
X36199D01*
X36203Y45737D01*
X36207Y45737D01*
X36210Y45738D01*
X36212D01*
X36214Y45738D01*
X36215D01*
X36223Y45741D01*
X36231Y45744D01*
X36238Y45746D01*
X36244Y45750D01*
X36249Y45753D01*
X36253Y45755D01*
X36255Y45757D01*
X36257Y45757D01*
X36264Y45763D01*
X36270Y45769D01*
X36277Y45776D01*
X36281Y45782D01*
X36285Y45788D01*
X36288Y45792D01*
X36290Y45795D01*
X36290Y45796D01*
X36295Y45806D01*
X36298Y45817D01*
X36301Y45827D01*
X36302Y45837D01*
X36304Y45845D01*
Y45849D01*
X36304Y45852D01*
Y45583D01*
D02*
G37*
G36*
X37005Y45815D02*
X37015Y45813D01*
X37023Y45808D01*
X37030Y45804D01*
X37036Y45800D01*
X37041Y45796D01*
X37043Y45794D01*
X37044Y45793D01*
X37051Y45784D01*
X37056Y45773D01*
X37060Y45762D01*
X37062Y45752D01*
X37064Y45742D01*
X37064Y45738D01*
Y45734D01*
X37065Y45732D01*
Y45729D01*
Y45728D01*
Y45728D01*
X37064Y45713D01*
X37061Y45699D01*
X37058Y45688D01*
X37054Y45678D01*
X37050Y45671D01*
X37048Y45666D01*
X37045Y45663D01*
X37044Y45662D01*
X37036Y45654D01*
X37028Y45648D01*
X37019Y45645D01*
X37011Y45642D01*
X37004Y45640D01*
X36999Y45640D01*
X36997Y45639D01*
X36994D01*
X36983Y45640D01*
X36974Y45643D01*
X36965Y45646D01*
X36958Y45651D01*
X36952Y45655D01*
X36947Y45658D01*
X36945Y45660D01*
X36944Y45662D01*
X36937Y45671D01*
X36932Y45682D01*
X36929Y45693D01*
X36926Y45703D01*
X36925Y45713D01*
X36924Y45717D01*
Y45721D01*
X36924Y45724D01*
Y45726D01*
Y45727D01*
Y45728D01*
X36925Y45742D01*
X36927Y45756D01*
X36930Y45767D01*
X36934Y45776D01*
X36937Y45783D01*
X36941Y45789D01*
X36943Y45792D01*
X36944Y45793D01*
X36952Y45800D01*
X36960Y45806D01*
X36969Y45810D01*
X36977Y45813D01*
X36984Y45815D01*
X36989Y45815D01*
X36991Y45816D01*
X36994D01*
X37005Y45815D01*
D02*
G37*
G36*
X37563Y45086D02*
X37398D01*
X37410Y45087D01*
X37421Y45087D01*
X37432Y45089D01*
X37441Y45091D01*
X37450Y45094D01*
X37459Y45096D01*
X37467Y45099D01*
X37475Y45102D01*
X37481Y45105D01*
X37487Y45108D01*
X37492Y45110D01*
X37496Y45113D01*
X37499Y45115D01*
X37502Y45117D01*
X37503Y45117D01*
X37503Y45118D01*
X37511Y45124D01*
X37518Y45131D01*
X37530Y45146D01*
X37541Y45163D01*
X37549Y45178D01*
X37552Y45185D01*
X37555Y45192D01*
X37557Y45199D01*
X37560Y45204D01*
X37561Y45208D01*
X37562Y45212D01*
X37563Y45214D01*
Y45086D01*
D02*
G37*
G36*
X38149Y45423D02*
X38162D01*
X38167Y45422D01*
X38170D01*
X38172Y45421D01*
X38173D01*
X38179Y45420D01*
X38186Y45417D01*
X38191Y45415D01*
X38195Y45412D01*
X38198Y45409D01*
X38201Y45408D01*
X38202Y45406D01*
X38203Y45405D01*
X38206Y45401D01*
X38209Y45395D01*
X38211Y45390D01*
X38213Y45385D01*
X38213Y45380D01*
X38214Y45377D01*
Y45374D01*
Y45373D01*
X38213Y45367D01*
X38213Y45361D01*
X38211Y45356D01*
X38210Y45351D01*
X38208Y45348D01*
X38206Y45346D01*
X38206Y45344D01*
X38205Y45343D01*
X38202Y45339D01*
X38198Y45336D01*
X38191Y45331D01*
X38188Y45329D01*
X38185Y45328D01*
X38184Y45327D01*
X38183D01*
X38180Y45326D01*
X38175Y45325D01*
X38171Y45324D01*
X38166Y45324D01*
X38154Y45323D01*
X38142Y45323D01*
X38130Y45322D01*
X38052D01*
Y45423D01*
X38144D01*
X38149Y45423D01*
D02*
G37*
G36*
X37710Y44937D02*
X37717D01*
X37723Y44936D01*
X37728D01*
X37733Y44936D01*
X37737D01*
X37743Y44934D01*
X37748Y44934D01*
X37751Y44933D01*
X37751D01*
X37759Y44931D01*
X37766Y44928D01*
X37773Y44925D01*
X37778Y44922D01*
X37782Y44919D01*
X37786Y44917D01*
X37787Y44915D01*
X37788Y44914D01*
X37793Y44909D01*
X37798Y44902D01*
X37802Y44896D01*
X37805Y44890D01*
X37808Y44884D01*
X37809Y44880D01*
X37810Y44877D01*
X37811Y44876D01*
Y44876D01*
X37814Y44866D01*
X37816Y44855D01*
X37817Y44843D01*
X37818Y44831D01*
X37819Y44821D01*
X37820Y44817D01*
Y44813D01*
Y44810D01*
Y44808D01*
Y44806D01*
Y44805D01*
X37819Y44789D01*
X37818Y44774D01*
X37817Y44762D01*
X37816Y44752D01*
X37814Y44743D01*
X37813Y44740D01*
X37812Y44738D01*
X37812Y44735D01*
Y44734D01*
X37811Y44733D01*
Y44732D01*
X37808Y44723D01*
X37805Y44715D01*
X37801Y44709D01*
X37798Y44704D01*
X37795Y44700D01*
X37793Y44697D01*
X37791Y44695D01*
X37790Y44694D01*
X37785Y44690D01*
X37780Y44687D01*
X37775Y44684D01*
X37770Y44682D01*
X37765Y44680D01*
X37762Y44679D01*
X37759Y44678D01*
X37758D01*
X37752Y44677D01*
X37744Y44676D01*
X37736Y44675D01*
X37728D01*
X37721Y44674D01*
X37650D01*
Y44937D01*
X37702D01*
X37710Y44937D01*
D02*
G37*
G36*
X37309D02*
X37316D01*
X37322Y44936D01*
X37327D01*
X37332Y44936D01*
X37336D01*
X37343Y44934D01*
X37347Y44934D01*
X37350Y44933D01*
X37351D01*
X37359Y44931D01*
X37366Y44928D01*
X37372Y44925D01*
X37378Y44922D01*
X37382Y44919D01*
X37385Y44917D01*
X37387Y44915D01*
X37387Y44914D01*
X37393Y44909D01*
X37397Y44902D01*
X37401Y44896D01*
X37405Y44890D01*
X37407Y44884D01*
X37409Y44880D01*
X37410Y44877D01*
X37410Y44876D01*
Y44876D01*
X37413Y44866D01*
X37415Y44855D01*
X37417Y44843D01*
X37418Y44831D01*
X37418Y44821D01*
X37419Y44817D01*
Y44813D01*
Y44810D01*
Y44808D01*
Y44806D01*
Y44805D01*
X37418Y44789D01*
X37418Y44774D01*
X37416Y44762D01*
X37415Y44752D01*
X37413Y44743D01*
X37413Y44740D01*
X37411Y44738D01*
X37411Y44735D01*
Y44734D01*
X37410Y44733D01*
Y44732D01*
X37407Y44723D01*
X37404Y44715D01*
X37400Y44709D01*
X37397Y44704D01*
X37394Y44700D01*
X37392Y44697D01*
X37390Y44695D01*
X37390Y44694D01*
X37384Y44690D01*
X37379Y44687D01*
X37374Y44684D01*
X37369Y44682D01*
X37364Y44680D01*
X37361Y44679D01*
X37359Y44678D01*
X37358D01*
X37351Y44677D01*
X37344Y44676D01*
X37336Y44675D01*
X37328D01*
X37320Y44674D01*
X37250D01*
Y44937D01*
X37302D01*
X37309Y44937D01*
D02*
G37*
G36*
X36264Y44121D02*
X36130D01*
X36141Y44121D01*
X36151Y44123D01*
X36160Y44124D01*
X36169Y44127D01*
X36177Y44129D01*
X36185Y44132D01*
X36193Y44136D01*
X36199Y44139D01*
X36205Y44143D01*
X36211Y44146D01*
X36215Y44149D01*
X36219Y44152D01*
X36222Y44154D01*
X36224Y44156D01*
X36225Y44157D01*
X36226Y44158D01*
X36232Y44164D01*
X36238Y44172D01*
X36243Y44179D01*
X36248Y44187D01*
X36251Y44195D01*
X36255Y44202D01*
X36259Y44216D01*
X36261Y44222D01*
X36262Y44229D01*
X36263Y44234D01*
X36263Y44238D01*
X36264Y44242D01*
Y44121D01*
D02*
G37*
G36*
X36163Y43783D02*
X36071D01*
X36163Y43920D01*
Y43783D01*
D02*
G37*
G36*
X39565Y43966D02*
X39571D01*
X39577Y43966D01*
X39582D01*
X39588Y43965D01*
X39592D01*
X39598Y43964D01*
X39602Y43963D01*
X39605Y43963D01*
X39606D01*
X39614Y43960D01*
X39621Y43958D01*
X39627Y43955D01*
X39633Y43951D01*
X39637Y43948D01*
X39640Y43946D01*
X39642Y43944D01*
X39643Y43944D01*
X39648Y43938D01*
X39652Y43932D01*
X39656Y43925D01*
X39660Y43920D01*
X39662Y43914D01*
X39664Y43909D01*
X39665Y43906D01*
X39666Y43906D01*
Y43905D01*
X39668Y43895D01*
X39671Y43884D01*
X39672Y43872D01*
X39673Y43861D01*
X39674Y43851D01*
X39674Y43846D01*
Y43842D01*
Y43839D01*
Y43837D01*
Y43835D01*
Y43835D01*
X39674Y43819D01*
X39673Y43804D01*
X39671Y43792D01*
X39670Y43781D01*
X39668Y43773D01*
X39668Y43769D01*
X39667Y43767D01*
X39666Y43765D01*
Y43763D01*
X39666Y43762D01*
Y43762D01*
X39662Y43753D01*
X39659Y43745D01*
X39655Y43738D01*
X39652Y43733D01*
X39649Y43729D01*
X39647Y43726D01*
X39645Y43725D01*
X39645Y43724D01*
X39640Y43720D01*
X39635Y43716D01*
X39629Y43714D01*
X39624Y43711D01*
X39620Y43710D01*
X39616Y43708D01*
X39614Y43707D01*
X39613D01*
X39606Y43706D01*
X39599Y43706D01*
X39591Y43704D01*
X39583D01*
X39575Y43704D01*
X39505D01*
Y43967D01*
X39557D01*
X39565Y43966D01*
D02*
G37*
G36*
X38720Y43762D02*
X38649Y44034D01*
X38791Y44034D01*
X38720Y43762D01*
D02*
G37*
G36*
X39178Y43972D02*
X39187Y43971D01*
X39195Y43970D01*
X39202Y43968D01*
X39216Y43962D01*
X39222Y43959D01*
X39227Y43956D01*
X39232Y43953D01*
X39236Y43950D01*
X39240Y43947D01*
X39243Y43944D01*
X39245Y43942D01*
X39247Y43941D01*
X39248Y43940D01*
X39248Y43939D01*
X39253Y43932D01*
X39259Y43925D01*
X39263Y43917D01*
X39266Y43909D01*
X39271Y43892D01*
X39275Y43875D01*
X39276Y43867D01*
X39277Y43860D01*
X39278Y43854D01*
X39278Y43848D01*
X39279Y43843D01*
Y43839D01*
Y43837D01*
Y43836D01*
X39278Y43824D01*
X39278Y43812D01*
X39276Y43801D01*
X39274Y43791D01*
X39272Y43781D01*
X39269Y43773D01*
X39266Y43765D01*
X39263Y43758D01*
X39260Y43752D01*
X39257Y43747D01*
X39255Y43742D01*
X39252Y43738D01*
X39251Y43735D01*
X39249Y43734D01*
X39248Y43733D01*
X39248Y43732D01*
X39242Y43726D01*
X39236Y43721D01*
X39229Y43716D01*
X39222Y43712D01*
X39216Y43709D01*
X39209Y43706D01*
X39197Y43702D01*
X39186Y43699D01*
X39181Y43699D01*
X39177Y43698D01*
X39174Y43698D01*
X39169D01*
X39160Y43698D01*
X39152Y43699D01*
X39144Y43701D01*
X39136Y43703D01*
X39123Y43708D01*
X39112Y43715D01*
X39106Y43718D01*
X39102Y43722D01*
X39098Y43725D01*
X39096Y43727D01*
X39093Y43729D01*
X39092Y43731D01*
X39090Y43732D01*
X39090Y43733D01*
X39085Y43739D01*
X39080Y43747D01*
X39075Y43755D01*
X39072Y43764D01*
X39066Y43780D01*
X39063Y43797D01*
X39062Y43805D01*
X39061Y43812D01*
X39060Y43819D01*
X39059Y43824D01*
X39059Y43829D01*
Y43832D01*
Y43835D01*
Y43835D01*
X39059Y43848D01*
X39060Y43859D01*
X39062Y43870D01*
X39063Y43881D01*
X39066Y43890D01*
X39068Y43898D01*
X39071Y43906D01*
X39074Y43913D01*
X39077Y43919D01*
X39080Y43924D01*
X39082Y43928D01*
X39084Y43932D01*
X39086Y43935D01*
X39088Y43937D01*
X39088Y43938D01*
X39089Y43939D01*
X39094Y43945D01*
X39101Y43950D01*
X39108Y43955D01*
X39114Y43959D01*
X39121Y43962D01*
X39128Y43964D01*
X39140Y43969D01*
X39152Y43971D01*
X39156Y43972D01*
X39161Y43972D01*
X39164Y43973D01*
X39169D01*
X39178Y43972D01*
D02*
G37*
G36*
X37952Y43036D02*
X37786D01*
X37798Y43037D01*
X37809Y43037D01*
X37820Y43039D01*
X37830Y43041D01*
X37839Y43044D01*
X37848Y43046D01*
X37856Y43049D01*
X37863Y43052D01*
X37870Y43055D01*
X37875Y43058D01*
X37880Y43060D01*
X37884Y43062D01*
X37888Y43065D01*
X37890Y43066D01*
X37891Y43067D01*
X37892Y43068D01*
X37899Y43074D01*
X37906Y43081D01*
X37919Y43096D01*
X37929Y43112D01*
X37937Y43128D01*
X37941Y43135D01*
X37944Y43142D01*
X37946Y43149D01*
X37948Y43154D01*
X37950Y43158D01*
X37951Y43162D01*
X37952Y43164D01*
Y43036D01*
D02*
G37*
G36*
X37475Y43043D02*
X37300D01*
Y43163D01*
X37365Y43230D01*
X37475Y43043D01*
D02*
G37*
G36*
X36974Y43379D02*
X36982Y43378D01*
X36990Y43376D01*
X36998Y43374D01*
X37011Y43368D01*
X37017Y43366D01*
X37022Y43363D01*
X37027Y43359D01*
X37031Y43356D01*
X37035Y43353D01*
X37038Y43351D01*
X37041Y43348D01*
X37042Y43347D01*
X37043Y43346D01*
X37044Y43345D01*
X37049Y43339D01*
X37054Y43331D01*
X37058Y43324D01*
X37061Y43315D01*
X37066Y43298D01*
X37070Y43281D01*
X37072Y43274D01*
X37072Y43266D01*
X37073Y43260D01*
X37073Y43254D01*
X37074Y43249D01*
Y43246D01*
Y43243D01*
Y43243D01*
X37073Y43230D01*
X37073Y43218D01*
X37071Y43207D01*
X37069Y43197D01*
X37067Y43188D01*
X37064Y43179D01*
X37061Y43172D01*
X37058Y43165D01*
X37056Y43158D01*
X37053Y43153D01*
X37050Y43149D01*
X37048Y43145D01*
X37046Y43142D01*
X37044Y43140D01*
X37044Y43139D01*
X37043Y43138D01*
X37037Y43132D01*
X37031Y43127D01*
X37024Y43122D01*
X37018Y43118D01*
X37011Y43115D01*
X37004Y43112D01*
X36992Y43108D01*
X36981Y43106D01*
X36976Y43105D01*
X36972Y43104D01*
X36969Y43104D01*
X36964D01*
X36956Y43104D01*
X36947Y43106D01*
X36939Y43107D01*
X36932Y43110D01*
X36918Y43115D01*
X36907Y43122D01*
X36902Y43124D01*
X36898Y43128D01*
X36894Y43131D01*
X36891Y43134D01*
X36889Y43135D01*
X36887Y43137D01*
X36886Y43138D01*
X36885Y43139D01*
X36880Y43146D01*
X36875Y43153D01*
X36871Y43161D01*
X36867Y43170D01*
X36862Y43186D01*
X36858Y43203D01*
X36857Y43211D01*
X36856Y43218D01*
X36855Y43225D01*
X36855Y43231D01*
X36854Y43235D01*
Y43239D01*
Y43241D01*
Y43242D01*
X36855Y43254D01*
X36855Y43266D01*
X36857Y43277D01*
X36859Y43287D01*
X36861Y43296D01*
X36863Y43305D01*
X36866Y43312D01*
X36869Y43319D01*
X36872Y43325D01*
X36875Y43331D01*
X36877Y43335D01*
X36879Y43339D01*
X36881Y43341D01*
X36883Y43343D01*
X36883Y43344D01*
X36884Y43345D01*
X36890Y43351D01*
X36896Y43356D01*
X36903Y43361D01*
X36909Y43365D01*
X36916Y43368D01*
X36923Y43371D01*
X36936Y43375D01*
X36947Y43378D01*
X36952Y43378D01*
X36956Y43379D01*
X36960Y43379D01*
X36964D01*
X36974Y43379D01*
D02*
G37*
G36*
X36772Y43221D02*
X36774Y43205D01*
X36776Y43189D01*
X36779Y43175D01*
X36784Y43162D01*
X36788Y43150D01*
X36793Y43138D01*
X36798Y43128D01*
X36802Y43119D01*
X36807Y43112D01*
X36812Y43105D01*
X36816Y43099D01*
X36819Y43095D01*
X36821Y43092D01*
X36823Y43090D01*
X36824Y43089D01*
X36834Y43080D01*
X36845Y43072D01*
X36856Y43064D01*
X36868Y43058D01*
X36879Y43053D01*
X36891Y43049D01*
X36902Y43045D01*
X36914Y43042D01*
X36924Y43040D01*
X36934Y43038D01*
X36943Y43037D01*
X36950Y43037D01*
X36956Y43036D01*
X36960Y43035D01*
X36771D01*
Y43239D01*
X36772Y43221D01*
D02*
G37*
G36*
X36146Y42758D02*
X36153Y42756D01*
X36160Y42753D01*
X36165Y42749D01*
X36170Y42746D01*
X36173Y42743D01*
X36175Y42741D01*
X36176Y42740D01*
X36181Y42733D01*
X36185Y42724D01*
X36187Y42714D01*
X36189Y42705D01*
X36191Y42696D01*
X36191Y42689D01*
Y42687D01*
Y42685D01*
Y42683D01*
Y42683D01*
X36191Y42670D01*
X36189Y42658D01*
X36187Y42649D01*
X36184Y42642D01*
X36181Y42636D01*
X36179Y42632D01*
X36177Y42629D01*
X36177Y42628D01*
X36171Y42623D01*
X36165Y42619D01*
X36159Y42616D01*
X36154Y42615D01*
X36149Y42613D01*
X36145Y42612D01*
X36141D01*
X36133Y42613D01*
X36126Y42616D01*
X36119Y42619D01*
X36114Y42623D01*
X36109Y42626D01*
X36105Y42629D01*
X36103Y42632D01*
X36102Y42632D01*
X36096Y42640D01*
X36092Y42650D01*
X36090Y42659D01*
X36088Y42668D01*
X36087Y42677D01*
X36086Y42683D01*
Y42686D01*
Y42688D01*
Y42689D01*
Y42690D01*
X36086Y42702D01*
X36088Y42712D01*
X36090Y42721D01*
X36093Y42728D01*
X36096Y42733D01*
X36098Y42737D01*
X36100Y42740D01*
X36100Y42741D01*
X36106Y42747D01*
X36112Y42751D01*
X36119Y42754D01*
X36125Y42756D01*
X36130Y42757D01*
X36134Y42759D01*
X36138D01*
X36146Y42758D01*
D02*
G37*
G36*
X36266Y42549D02*
X36138D01*
X36148Y42550D01*
X36158Y42551D01*
X36167Y42553D01*
X36176Y42555D01*
X36184Y42558D01*
X36192Y42561D01*
X36199Y42564D01*
X36205Y42567D01*
X36211Y42571D01*
X36215Y42574D01*
X36220Y42577D01*
X36223Y42580D01*
X36226Y42582D01*
X36228Y42584D01*
X36229Y42585D01*
X36230Y42586D01*
X36236Y42593D01*
X36242Y42601D01*
X36246Y42609D01*
X36250Y42617D01*
X36254Y42625D01*
X36257Y42633D01*
X36261Y42649D01*
X36263Y42656D01*
X36264Y42663D01*
X36265Y42668D01*
X36265Y42674D01*
X36266Y42678D01*
Y42549D01*
D02*
G37*
G36*
X37700Y42886D02*
X37707D01*
X37713Y42885D01*
X37718D01*
X37723Y42885D01*
X37727D01*
X37733Y42884D01*
X37738Y42883D01*
X37741Y42883D01*
X37742D01*
X37750Y42880D01*
X37756Y42877D01*
X37763Y42875D01*
X37768Y42871D01*
X37773Y42868D01*
X37776Y42866D01*
X37778Y42864D01*
X37778Y42864D01*
X37783Y42858D01*
X37788Y42852D01*
X37792Y42845D01*
X37795Y42840D01*
X37798Y42834D01*
X37799Y42829D01*
X37801Y42826D01*
X37801Y42826D01*
Y42825D01*
X37804Y42815D01*
X37806Y42804D01*
X37808Y42792D01*
X37809Y42780D01*
X37809Y42771D01*
X37810Y42766D01*
Y42762D01*
Y42759D01*
Y42757D01*
Y42755D01*
Y42755D01*
X37809Y42739D01*
X37809Y42724D01*
X37807Y42712D01*
X37806Y42701D01*
X37804Y42693D01*
X37804Y42689D01*
X37802Y42687D01*
X37802Y42685D01*
Y42683D01*
X37801Y42682D01*
Y42682D01*
X37798Y42673D01*
X37795Y42664D01*
X37791Y42658D01*
X37788Y42653D01*
X37785Y42649D01*
X37783Y42646D01*
X37781Y42644D01*
X37781Y42644D01*
X37775Y42640D01*
X37770Y42636D01*
X37765Y42633D01*
X37760Y42631D01*
X37755Y42629D01*
X37752Y42628D01*
X37750Y42627D01*
X37748D01*
X37742Y42626D01*
X37735Y42625D01*
X37727Y42624D01*
X37719D01*
X37711Y42624D01*
X37640D01*
Y42887D01*
X37693D01*
X37700Y42886D01*
D02*
G37*
G36*
X37370Y42714D02*
X37260D01*
X37314Y42861D01*
X37370Y42714D01*
D02*
G37*
G36*
X37430Y42557D02*
X37204D01*
X37236Y42647D01*
X37396D01*
X37430Y42557D01*
D02*
G37*
G36*
X36935Y42886D02*
X36940D01*
X36945Y42885D01*
X36953D01*
X36959Y42885D01*
X36963Y42884D01*
X36965Y42884D01*
X36965D01*
X36972Y42882D01*
X36979Y42880D01*
X36984Y42877D01*
X36989Y42873D01*
X36992Y42871D01*
X36995Y42868D01*
X36997Y42867D01*
X36998Y42866D01*
X37002Y42860D01*
X37005Y42854D01*
X37007Y42848D01*
X37009Y42842D01*
X37010Y42837D01*
X37011Y42833D01*
Y42831D01*
Y42830D01*
X37010Y42823D01*
X37010Y42818D01*
X37008Y42813D01*
X37006Y42808D01*
X37004Y42804D01*
X37003Y42801D01*
X37002Y42799D01*
X37002Y42799D01*
X36998Y42794D01*
X36994Y42790D01*
X36990Y42787D01*
X36986Y42784D01*
X36982Y42782D01*
X36979Y42780D01*
X36977Y42780D01*
X36976Y42779D01*
X36973Y42778D01*
X36969Y42778D01*
X36960Y42776D01*
X36949Y42775D01*
X36939Y42774D01*
X36929D01*
X36925Y42774D01*
X36870D01*
Y42887D01*
X36929D01*
X36935Y42886D01*
D02*
G37*
G36*
X37093Y42557D02*
X36870D01*
Y42706D01*
X36941D01*
X36949Y42707D01*
X36957D01*
X36965Y42708D01*
X36972Y42708D01*
X36978Y42709D01*
X36983Y42709D01*
X36988D01*
X36992Y42710D01*
X36996Y42710D01*
X36999Y42711D01*
X37002D01*
X37003Y42712D01*
X37004D01*
X37013Y42714D01*
X37020Y42717D01*
X37027Y42720D01*
X37033Y42723D01*
X37038Y42726D01*
X37042Y42728D01*
X37045Y42730D01*
X37046Y42730D01*
X37053Y42736D01*
X37060Y42743D01*
X37066Y42749D01*
X37071Y42755D01*
X37075Y42761D01*
X37077Y42765D01*
X37079Y42768D01*
X37080Y42769D01*
X37084Y42779D01*
X37088Y42790D01*
X37090Y42800D01*
X37092Y42810D01*
X37093Y42818D01*
Y42822D01*
X37093Y42825D01*
Y42557D01*
D02*
G37*
G36*
X39375Y42202D02*
X39211Y42470D01*
X39375D01*
Y42202D01*
D02*
G37*
G36*
X38110Y42230D02*
X38000D01*
X38054Y42377D01*
X38110Y42230D01*
D02*
G37*
G36*
X36967Y42402D02*
X36979D01*
X36984Y42401D01*
X36988D01*
X36990Y42401D01*
X36990D01*
X36997Y42399D01*
X37003Y42397D01*
X37009Y42394D01*
X37013Y42392D01*
X37016Y42389D01*
X37019Y42387D01*
X37020Y42385D01*
X37021Y42385D01*
X37024Y42380D01*
X37027Y42374D01*
X37029Y42369D01*
X37030Y42364D01*
X37031Y42359D01*
X37031Y42356D01*
Y42354D01*
Y42353D01*
X37031Y42346D01*
X37030Y42340D01*
X37029Y42335D01*
X37027Y42331D01*
X37026Y42327D01*
X37024Y42325D01*
X37023Y42323D01*
X37023Y42323D01*
X37019Y42319D01*
X37016Y42315D01*
X37009Y42310D01*
X37006Y42308D01*
X37003Y42307D01*
X37001Y42306D01*
X37000D01*
X36998Y42305D01*
X36993Y42304D01*
X36988Y42304D01*
X36983Y42303D01*
X36971Y42303D01*
X36959Y42302D01*
X36948Y42301D01*
X36870D01*
Y42402D01*
X36961D01*
X36967Y42402D01*
D02*
G37*
G36*
X36261Y42072D02*
X36127D01*
X36127Y42093D01*
X36129Y42113D01*
X36132Y42133D01*
X36133Y42142D01*
X36135Y42152D01*
X36137Y42160D01*
X36138Y42168D01*
X36139Y42174D01*
X36141Y42180D01*
X36142Y42185D01*
X36143Y42188D01*
X36144Y42191D01*
Y42191D01*
X36151Y42216D01*
X36159Y42239D01*
X36163Y42250D01*
X36168Y42261D01*
X36172Y42270D01*
X36176Y42280D01*
X36180Y42288D01*
X36183Y42295D01*
X36187Y42302D01*
X36189Y42307D01*
X36191Y42312D01*
X36193Y42315D01*
X36194Y42317D01*
X36195Y42318D01*
X36201Y42328D01*
X36207Y42339D01*
X36213Y42348D01*
X36219Y42357D01*
X36224Y42365D01*
X36230Y42373D01*
X36235Y42380D01*
X36240Y42386D01*
X36245Y42392D01*
X36249Y42396D01*
X36252Y42400D01*
X36255Y42404D01*
X36257Y42406D01*
X36259Y42408D01*
X36260Y42409D01*
X36261Y42409D01*
Y42072D01*
D02*
G37*
G36*
X36154Y42368D02*
X36137Y42341D01*
X36129Y42328D01*
X36122Y42315D01*
X36116Y42303D01*
X36110Y42292D01*
X36105Y42281D01*
X36100Y42271D01*
X36096Y42262D01*
X36093Y42254D01*
X36091Y42249D01*
X36089Y42244D01*
X36088Y42241D01*
X36087Y42240D01*
X36082Y42224D01*
X36076Y42208D01*
X36072Y42193D01*
X36068Y42178D01*
X36065Y42163D01*
X36063Y42149D01*
X36060Y42136D01*
X36059Y42124D01*
X36057Y42113D01*
X36056Y42103D01*
X36055Y42094D01*
X36054Y42087D01*
Y42080D01*
X36053Y42076D01*
Y42074D01*
Y42072D01*
X36000D01*
Y42394D01*
X36173D01*
X36154Y42368D01*
D02*
G37*
%LPC*%
G36*
X38203Y41883D02*
X38199D01*
X38182Y41883D01*
X38165Y41881D01*
X38151Y41878D01*
X38138Y41875D01*
X38133Y41874D01*
X38128Y41872D01*
X38124Y41871D01*
X38120Y41870D01*
X38117Y41869D01*
X38115Y41868D01*
X38114Y41867D01*
X38113D01*
X38103Y41863D01*
X38093Y41857D01*
X38085Y41851D01*
X38077Y41845D01*
X38071Y41840D01*
X38066Y41835D01*
X38063Y41832D01*
X38062Y41832D01*
X38062Y41831D01*
X38054Y41822D01*
X38046Y41812D01*
X38040Y41804D01*
X38035Y41795D01*
X38031Y41788D01*
X38027Y41782D01*
X38027Y41779D01*
X38026Y41778D01*
X38025Y41777D01*
Y41777D01*
X38019Y41761D01*
X38015Y41743D01*
X38012Y41726D01*
X38010Y41710D01*
X38009Y41703D01*
X38008Y41696D01*
X38008Y41690D01*
Y41685D01*
X38007Y41680D01*
Y41685D01*
Y41471D01*
X38392D01*
D01*
X38200D01*
X38216Y41472D01*
X38231Y41474D01*
X38245Y41476D01*
X38259Y41480D01*
X38271Y41484D01*
X38283Y41488D01*
X38293Y41493D01*
X38303Y41498D01*
X38311Y41503D01*
X38318Y41508D01*
X38325Y41513D01*
X38330Y41517D01*
X38334Y41520D01*
X38337Y41523D01*
X38339Y41525D01*
X38340Y41525D01*
X38349Y41536D01*
X38357Y41548D01*
X38364Y41560D01*
X38370Y41572D01*
X38375Y41584D01*
X38380Y41597D01*
X38383Y41610D01*
X38386Y41622D01*
X38388Y41633D01*
X38390Y41643D01*
X38391Y41653D01*
X38392Y41661D01*
Y41668D01*
X38392Y41673D01*
Y41677D01*
X38392Y41695D01*
X38390Y41711D01*
X38388Y41727D01*
X38384Y41742D01*
X38380Y41755D01*
X38376Y41767D01*
X38371Y41779D01*
X38366Y41789D01*
X38361Y41798D01*
X38356Y41806D01*
X38352Y41813D01*
X38348Y41818D01*
X38345Y41823D01*
X38342Y41826D01*
X38340Y41828D01*
X38340Y41828D01*
X38329Y41838D01*
X38318Y41847D01*
X38307Y41854D01*
X38295Y41860D01*
X38283Y41866D01*
X38272Y41870D01*
X38260Y41874D01*
X38250Y41876D01*
X38239Y41879D01*
X38229Y41880D01*
X38221Y41882D01*
X38213Y41883D01*
X38208D01*
X38203Y41883D01*
D02*
G37*
G36*
X37942Y41876D02*
X37764D01*
X37822D01*
X37751Y41604D01*
X37680Y41876D01*
X37560D01*
Y41479D01*
X37684D01*
X37634D01*
Y41791D01*
X37712Y41479D01*
X37827D01*
X37790D01*
X37868Y41791D01*
X37868Y41479D01*
X37942D01*
Y41876D01*
D02*
G37*
G36*
X39097Y41876D02*
Y41546D01*
X38875D01*
Y41654D01*
X39074D01*
Y41721D01*
X38875D01*
Y41809D01*
X39089D01*
Y41876D01*
X39097D01*
X38795D01*
Y41479D01*
X39097D01*
Y41876D01*
D02*
G37*
G36*
X37493Y41876D02*
Y41546D01*
X37271D01*
Y41654D01*
X37471D01*
Y41721D01*
X37271D01*
Y41809D01*
X37486D01*
Y41876D01*
X37493D01*
X37191D01*
Y41479D01*
X37493D01*
Y41876D01*
D02*
G37*
G36*
X38743Y41876D02*
X38427Y41876D01*
Y41479D01*
Y41809D01*
X38545D01*
Y41479D01*
X38427D01*
X38743Y41479D01*
D01*
X38625Y41479D01*
Y41809D01*
X38743Y41809D01*
Y41876D01*
D02*
G37*
G36*
X37147Y41876D02*
X36790D01*
Y41479D01*
X36912D01*
X36871D01*
Y41645D01*
X36897D01*
X36905Y41644D01*
X36912Y41643D01*
X36917Y41642D01*
X36922Y41642D01*
X36925Y41641D01*
X36926Y41640D01*
X36927D01*
X36932Y41638D01*
X36936Y41635D01*
X36940Y41633D01*
X36944Y41630D01*
X36947Y41627D01*
X36949Y41625D01*
X36951Y41624D01*
X36951Y41623D01*
X36953Y41620D01*
X36956Y41618D01*
X36963Y41609D01*
X36969Y41600D01*
X36977Y41589D01*
X36983Y41580D01*
X36986Y41576D01*
X36988Y41572D01*
X36991Y41569D01*
X36992Y41567D01*
X36993Y41565D01*
X36994Y41565D01*
X37051Y41479D01*
X37147D01*
X37099Y41556D01*
X37093Y41564D01*
X37088Y41572D01*
X37084Y41579D01*
X37079Y41585D01*
X37075Y41591D01*
X37072Y41597D01*
X37065Y41606D01*
X37060Y41612D01*
X37056Y41617D01*
X37053Y41620D01*
X37053Y41620D01*
X37046Y41627D01*
X37039Y41634D01*
X37032Y41639D01*
X37025Y41644D01*
X37019Y41648D01*
X37015Y41651D01*
X37011Y41653D01*
X37011Y41654D01*
X37010D01*
X37020Y41655D01*
X37029Y41658D01*
X37037Y41660D01*
X37045Y41663D01*
X37052Y41666D01*
X37058Y41669D01*
X37064Y41672D01*
X37069Y41675D01*
X37074Y41678D01*
X37078Y41681D01*
X37081Y41684D01*
X37084Y41686D01*
X37086Y41688D01*
X37088Y41689D01*
X37088Y41690D01*
X37089Y41691D01*
X37093Y41696D01*
X37097Y41702D01*
X37104Y41715D01*
X37109Y41727D01*
X37112Y41739D01*
X37114Y41749D01*
X37115Y41753D01*
Y41757D01*
X37115Y41760D01*
Y41763D01*
Y41764D01*
Y41765D01*
X37115Y41777D01*
X37112Y41789D01*
X37110Y41800D01*
X37107Y41809D01*
X37103Y41816D01*
X37100Y41822D01*
X37099Y41824D01*
X37098Y41825D01*
X37097Y41826D01*
Y41827D01*
X37091Y41836D01*
X37083Y41844D01*
X37076Y41851D01*
X37068Y41856D01*
X37061Y41860D01*
X37056Y41863D01*
X37053Y41864D01*
X37052Y41865D01*
X37052D01*
X37046Y41867D01*
X37040Y41868D01*
X37025Y41871D01*
X37010Y41873D01*
X36995Y41875D01*
X36987D01*
X36981Y41875D01*
X36975D01*
X36969Y41876D01*
X37147D01*
D02*
G37*
G36*
X36402Y41555D02*
X36326D01*
Y41479D01*
X36402D01*
Y41555D01*
D02*
G37*
G36*
X36135Y41878D02*
X36129D01*
X36119Y41878D01*
X36109Y41877D01*
X36100Y41875D01*
X36091Y41874D01*
X36083Y41871D01*
X36076Y41869D01*
X36069Y41866D01*
X36064Y41864D01*
X36058Y41861D01*
X36053Y41858D01*
X36050Y41856D01*
X36046Y41854D01*
X36044Y41852D01*
X36042Y41850D01*
X36041Y41849D01*
X36041Y41849D01*
X36036Y41843D01*
X36030Y41837D01*
X36026Y41831D01*
X36023Y41825D01*
X36017Y41813D01*
X36014Y41801D01*
X36011Y41791D01*
X36011Y41786D01*
X36010Y41783D01*
X36010Y41779D01*
Y41777D01*
Y41776D01*
Y41775D01*
X36010Y41766D01*
X36012Y41757D01*
X36014Y41748D01*
X36017Y41742D01*
X36019Y41735D01*
X36021Y41731D01*
X36022Y41728D01*
X36023Y41727D01*
X36029Y41720D01*
X36036Y41713D01*
X36042Y41707D01*
X36050Y41702D01*
X36056Y41699D01*
X36061Y41696D01*
X36065Y41694D01*
X36065Y41693D01*
X36066D01*
X36054Y41687D01*
X36044Y41681D01*
X36035Y41674D01*
X36028Y41667D01*
X36022Y41661D01*
X36018Y41656D01*
X36016Y41653D01*
X36016Y41652D01*
Y41651D01*
X36010Y41641D01*
X36006Y41631D01*
X36004Y41620D01*
X36002Y41611D01*
X36001Y41604D01*
X36000Y41598D01*
Y41592D01*
X36001Y41581D01*
X36002Y41571D01*
X36004Y41561D01*
X36007Y41553D01*
X36010Y41544D01*
X36013Y41537D01*
X36017Y41530D01*
X36021Y41523D01*
X36025Y41518D01*
X36029Y41513D01*
X36033Y41509D01*
X36036Y41506D01*
X36038Y41503D01*
X36041Y41501D01*
X36042Y41500D01*
X36042Y41499D01*
X36049Y41494D01*
X36057Y41490D01*
X36064Y41486D01*
X36072Y41483D01*
X36087Y41478D01*
X36101Y41475D01*
X36108Y41474D01*
X36114Y41473D01*
X36119Y41472D01*
X36123Y41472D01*
X36127Y41471D01*
X36000D01*
X36262D01*
X36133D01*
X36144Y41472D01*
X36153Y41473D01*
X36163Y41475D01*
X36172Y41476D01*
X36180Y41479D01*
X36188Y41482D01*
X36195Y41485D01*
X36201Y41488D01*
X36207Y41492D01*
X36212Y41495D01*
X36216Y41498D01*
X36220Y41501D01*
X36223Y41502D01*
X36224Y41504D01*
X36226Y41505D01*
X36226Y41506D01*
X36232Y41513D01*
X36238Y41519D01*
X36243Y41527D01*
X36247Y41534D01*
X36250Y41542D01*
X36253Y41549D01*
X36257Y41564D01*
X36259Y41570D01*
X36260Y41576D01*
X36261Y41581D01*
X36261Y41586D01*
X36262Y41590D01*
Y41595D01*
X36261Y41607D01*
X36259Y41618D01*
X36257Y41629D01*
X36253Y41637D01*
X36250Y41644D01*
X36247Y41649D01*
X36245Y41653D01*
X36245Y41654D01*
X36238Y41663D01*
X36230Y41671D01*
X36221Y41678D01*
X36213Y41683D01*
X36205Y41688D01*
X36200Y41691D01*
X36197Y41692D01*
X36196Y41693D01*
X36195Y41693D01*
X36194D01*
X36203Y41698D01*
X36211Y41703D01*
X36218Y41708D01*
X36224Y41714D01*
X36228Y41719D01*
X36231Y41723D01*
X36234Y41725D01*
X36234Y41726D01*
X36239Y41735D01*
X36243Y41743D01*
X36246Y41751D01*
X36247Y41759D01*
X36249Y41766D01*
X36249Y41771D01*
Y41774D01*
Y41775D01*
Y41775D01*
X36249Y41783D01*
X36248Y41792D01*
X36244Y41806D01*
X36239Y41818D01*
X36234Y41829D01*
X36227Y41837D01*
X36225Y41841D01*
X36223Y41844D01*
X36220Y41846D01*
X36219Y41848D01*
X36218Y41848D01*
X36218Y41849D01*
X36211Y41854D01*
X36205Y41859D01*
X36197Y41863D01*
X36191Y41866D01*
X36176Y41871D01*
X36161Y41875D01*
X36155Y41876D01*
X36149Y41876D01*
X36144Y41877D01*
X36138Y41878D01*
X36135Y41878D01*
D02*
G37*
G36*
X39375Y41389D02*
X39283D01*
X39191Y41232D01*
X39098Y41389D01*
X39004D01*
X39150Y41159D01*
Y40992D01*
X39004D01*
D01*
X39375D01*
D01*
X39230D01*
Y41159D01*
X39375Y41389D01*
D02*
G37*
G36*
X38577Y41389D02*
Y41059D01*
X38355D01*
Y41167D01*
X38554D01*
Y41235D01*
X38355D01*
Y41322D01*
X38569D01*
Y41389D01*
X38577D01*
X38275D01*
Y40992D01*
X38577D01*
Y41389D01*
D02*
G37*
G36*
X36130Y41392D02*
X36000D01*
X36127D01*
X36117Y41391D01*
X36107Y41390D01*
X36098Y41388D01*
X36090Y41386D01*
X36082Y41383D01*
X36074Y41380D01*
X36067Y41377D01*
X36061Y41373D01*
X36055Y41369D01*
X36050Y41367D01*
X36046Y41363D01*
X36042Y41360D01*
X36039Y41358D01*
X36037Y41356D01*
X36036Y41355D01*
X36036Y41354D01*
X36029Y41347D01*
X36024Y41340D01*
X36019Y41332D01*
X36015Y41323D01*
X36011Y41315D01*
X36009Y41307D01*
X36005Y41291D01*
X36003Y41284D01*
X36002Y41278D01*
X36001Y41272D01*
X36001Y41267D01*
X36000Y41262D01*
Y41256D01*
X36001Y41246D01*
X36002Y41236D01*
X36003Y41226D01*
X36005Y41217D01*
X36008Y41209D01*
X36011Y41201D01*
X36014Y41194D01*
X36017Y41187D01*
X36020Y41182D01*
X36023Y41177D01*
X36026Y41173D01*
X36029Y41168D01*
X36031Y41166D01*
X36032Y41164D01*
X36033Y41163D01*
X36034Y41162D01*
X36040Y41156D01*
X36047Y41150D01*
X36054Y41146D01*
X36061Y41142D01*
X36068Y41138D01*
X36074Y41135D01*
X36087Y41131D01*
X36098Y41128D01*
X36102Y41127D01*
X36106Y41127D01*
X36110Y41126D01*
X36114D01*
X36122Y41127D01*
X36130Y41128D01*
X36137Y41129D01*
X36144Y41131D01*
X36156Y41136D01*
X36166Y41143D01*
X36174Y41149D01*
X36178Y41152D01*
X36181Y41154D01*
X36183Y41156D01*
X36185Y41158D01*
X36185Y41159D01*
X36186Y41159D01*
X36185Y41147D01*
X36184Y41136D01*
X36183Y41125D01*
X36181Y41116D01*
X36179Y41108D01*
X36177Y41101D01*
X36176Y41094D01*
X36174Y41089D01*
X36172Y41084D01*
X36170Y41080D01*
X36169Y41076D01*
X36168Y41074D01*
X36166Y41072D01*
X36165Y41070D01*
X36165Y41069D01*
X36158Y41062D01*
X36152Y41057D01*
X36145Y41053D01*
X36139Y41051D01*
X36133Y41049D01*
X36129Y41049D01*
X36126Y41048D01*
X36125D01*
X36119Y41049D01*
X36112Y41050D01*
X36108Y41051D01*
X36103Y41053D01*
X36100Y41055D01*
X36098Y41057D01*
X36096Y41058D01*
X36095Y41058D01*
X36091Y41063D01*
X36088Y41068D01*
X36086Y41074D01*
X36084Y41080D01*
X36083Y41084D01*
X36082Y41088D01*
X36082Y41091D01*
Y41092D01*
X36008Y41084D01*
X36010Y41074D01*
X36012Y41066D01*
X36014Y41058D01*
X36017Y41051D01*
X36020Y41045D01*
X36023Y41038D01*
X36026Y41033D01*
X36029Y41028D01*
X36033Y41024D01*
X36035Y41020D01*
X36038Y41017D01*
X36040Y41014D01*
X36042Y41012D01*
X36044Y41011D01*
X36044Y41010D01*
X36045Y41009D01*
X36051Y41005D01*
X36056Y41001D01*
X36069Y40995D01*
X36081Y40991D01*
X36093Y40988D01*
X36104Y40986D01*
X36108Y40985D01*
X36112D01*
X36115Y40985D01*
X36000D01*
X36265D01*
X36120D01*
X36132Y40985D01*
X36143Y40987D01*
X36153Y40989D01*
X36164Y40992D01*
X36173Y40996D01*
X36181Y41000D01*
X36189Y41004D01*
X36196Y41009D01*
X36203Y41014D01*
X36208Y41018D01*
X36213Y41022D01*
X36217Y41026D01*
X36220Y41028D01*
X36223Y41031D01*
X36224Y41032D01*
X36224Y41033D01*
X36232Y41043D01*
X36238Y41054D01*
X36243Y41066D01*
X36248Y41078D01*
X36252Y41091D01*
X36255Y41104D01*
X36258Y41117D01*
X36260Y41130D01*
X36262Y41142D01*
X36263Y41153D01*
X36264Y41163D01*
X36265Y41173D01*
X36265Y41180D01*
Y41190D01*
X36265Y41210D01*
X36263Y41228D01*
X36262Y41244D01*
X36259Y41260D01*
X36256Y41274D01*
X36253Y41286D01*
X36249Y41298D01*
X36246Y41308D01*
X36242Y41317D01*
X36239Y41324D01*
X36235Y41330D01*
X36232Y41336D01*
X36230Y41340D01*
X36228Y41342D01*
X36227Y41344D01*
X36226Y41345D01*
X36219Y41353D01*
X36211Y41360D01*
X36203Y41367D01*
X36195Y41372D01*
X36186Y41376D01*
X36178Y41380D01*
X36170Y41383D01*
X36162Y41386D01*
X36155Y41388D01*
X36148Y41389D01*
X36142Y41391D01*
X36137Y41391D01*
X36133D01*
X36130Y41392D01*
D02*
G37*
G36*
X38824Y41389D02*
X38645Y41389D01*
Y40992D01*
X38897Y40992D01*
X38725D01*
Y41158D01*
X38751D01*
X38759Y41158D01*
X38766Y41157D01*
X38772Y41156D01*
X38776Y41155D01*
X38779Y41154D01*
X38781Y41154D01*
X38782D01*
X38786Y41151D01*
X38791Y41149D01*
X38795Y41146D01*
X38799Y41144D01*
X38802Y41141D01*
X38804Y41139D01*
X38805Y41138D01*
X38806Y41137D01*
X38808Y41134D01*
X38811Y41131D01*
X38817Y41123D01*
X38824Y41113D01*
X38832Y41103D01*
X38838Y41094D01*
X38841Y41089D01*
X38843Y41086D01*
X38845Y41083D01*
X38847Y41081D01*
X38848Y41079D01*
X38848Y41078D01*
X38906Y40992D01*
X39002D01*
X38953Y41070D01*
X38948Y41078D01*
X38943Y41086D01*
X38938Y41093D01*
X38934Y41099D01*
X38930Y41105D01*
X38926Y41111D01*
X38919Y41119D01*
X38914Y41126D01*
X38911Y41131D01*
X38908Y41133D01*
X38907Y41134D01*
X38901Y41141D01*
X38894Y41147D01*
X38887Y41152D01*
X38880Y41158D01*
X38874Y41162D01*
X38869Y41164D01*
X38866Y41167D01*
X38865Y41167D01*
X38865D01*
X38875Y41169D01*
X38883Y41171D01*
X38891Y41174D01*
X38899Y41177D01*
X38906Y41179D01*
X38912Y41182D01*
X38919Y41185D01*
X38924Y41189D01*
X38929Y41191D01*
X38933Y41194D01*
X38936Y41197D01*
X38938Y41199D01*
X38941Y41201D01*
X38942Y41203D01*
X38943Y41204D01*
X38943Y41204D01*
X38948Y41210D01*
X38952Y41216D01*
X38959Y41228D01*
X38964Y41240D01*
X38966Y41252D01*
X38969Y41263D01*
X38969Y41267D01*
Y41271D01*
X38970Y41274D01*
Y41276D01*
Y41278D01*
Y41278D01*
X38969Y41291D01*
X38967Y41303D01*
X38964Y41313D01*
X38961Y41322D01*
X38958Y41330D01*
X38955Y41336D01*
X38954Y41337D01*
X38953Y41339D01*
X38952Y41340D01*
Y41340D01*
X38945Y41350D01*
X38938Y41358D01*
X38930Y41364D01*
X38923Y41370D01*
X38916Y41373D01*
X38911Y41376D01*
X38907Y41378D01*
X38907Y41379D01*
X38906D01*
X38900Y41380D01*
X38894Y41382D01*
X38880Y41385D01*
X38864Y41387D01*
X38849Y41388D01*
X38842D01*
X38836Y41389D01*
X38829D01*
X38824Y41389D01*
D02*
G37*
G36*
X38223Y41389D02*
X37907D01*
Y40992D01*
X38223D01*
D01*
X38105D01*
Y41322D01*
X38223D01*
Y41389D01*
D02*
G37*
G36*
X37883D02*
X37568D01*
Y40992D01*
Y41322D01*
X37686D01*
Y40992D01*
X37766D01*
Y41322D01*
X37883D01*
Y41389D01*
D02*
G37*
G36*
X37394D02*
X37155D01*
X37309D01*
X37155Y40992D01*
X37240D01*
X37273Y41082D01*
X37432D01*
X37467Y40992D01*
X37261D01*
X37553D01*
X37394Y41389D01*
D02*
G37*
G36*
X36969D02*
X36795D01*
Y40992D01*
X36967D01*
X36977Y40993D01*
X36994D01*
X37001Y40993D01*
X37012D01*
X37016Y40994D01*
X37022D01*
X37024Y40995D01*
X37026D01*
X37038Y40996D01*
X37048Y40999D01*
X37057Y41002D01*
X37065Y41005D01*
X37072Y41008D01*
X37076Y41011D01*
X37079Y41013D01*
X37080Y41014D01*
X37088Y41020D01*
X37095Y41027D01*
X37101Y41033D01*
X37106Y41040D01*
X37110Y41046D01*
X37112Y41050D01*
X37114Y41053D01*
X37115Y41054D01*
X37119Y41064D01*
X37122Y41073D01*
X37124Y41082D01*
X37126Y41090D01*
X37127Y41097D01*
X37127Y41102D01*
Y41113D01*
Y41107D01*
X37127Y41120D01*
X37124Y41131D01*
X37121Y41141D01*
X37118Y41150D01*
X37114Y41157D01*
X37111Y41162D01*
X37108Y41166D01*
X37108Y41167D01*
X37100Y41176D01*
X37091Y41183D01*
X37081Y41190D01*
X37073Y41194D01*
X37065Y41198D01*
X37058Y41201D01*
X37056Y41202D01*
X37054Y41202D01*
X37053Y41203D01*
X37052D01*
X37061Y41208D01*
X37069Y41213D01*
X37076Y41220D01*
X37082Y41225D01*
X37086Y41230D01*
X37089Y41234D01*
X37092Y41237D01*
X37092Y41238D01*
X37097Y41247D01*
X37102Y41256D01*
X37104Y41264D01*
X37106Y41272D01*
X37107Y41279D01*
X37108Y41284D01*
Y41288D01*
Y41288D01*
Y41289D01*
X37107Y41298D01*
X37106Y41307D01*
X37104Y41315D01*
X37102Y41322D01*
X37099Y41328D01*
X37097Y41332D01*
X37096Y41334D01*
X37095Y41336D01*
X37091Y41343D01*
X37085Y41349D01*
X37080Y41355D01*
X37076Y41360D01*
X37071Y41364D01*
X37068Y41367D01*
X37065Y41368D01*
X37065Y41369D01*
X37058Y41373D01*
X37050Y41377D01*
X37044Y41380D01*
X37037Y41382D01*
X37031Y41384D01*
X37027Y41385D01*
X37025Y41385D01*
X37023D01*
X37014Y41387D01*
X37003Y41388D01*
X36991Y41388D01*
X36980Y41389D01*
X36969Y41389D01*
D02*
G37*
G36*
X36407Y41069D02*
X36331D01*
Y40992D01*
X36407D01*
Y41069D01*
D02*
G37*
G36*
X37502Y40905D02*
X37495D01*
X37480Y40905D01*
X37465Y40903D01*
X37452Y40900D01*
X37439Y40897D01*
X37428Y40893D01*
X37416Y40888D01*
X37406Y40883D01*
X37397Y40878D01*
X37389Y40873D01*
X37382Y40868D01*
X37375Y40863D01*
X37370Y40859D01*
X37366Y40855D01*
X37363Y40853D01*
X37362Y40851D01*
X37361Y40850D01*
X37352Y40839D01*
X37344Y40828D01*
X37337Y40816D01*
X37332Y40803D01*
X37327Y40790D01*
X37322Y40777D01*
X37319Y40765D01*
X37316Y40753D01*
X37314Y40741D01*
X37313Y40730D01*
X37312Y40721D01*
X37310Y40713D01*
Y40706D01*
X37310Y40700D01*
Y40696D01*
X37310Y40679D01*
X37312Y40663D01*
X37314Y40647D01*
X37318Y40633D01*
X37321Y40620D01*
X37326Y40607D01*
X37331Y40597D01*
X37335Y40587D01*
X37340Y40578D01*
X37344Y40570D01*
X37349Y40563D01*
X37352Y40558D01*
X37356Y40554D01*
X37358Y40550D01*
X37360Y40548D01*
X37360Y40548D01*
X37370Y40538D01*
X37380Y40530D01*
X37391Y40523D01*
X37402Y40517D01*
X37413Y40512D01*
X37424Y40507D01*
X37434Y40504D01*
X37444Y40501D01*
X37454Y40498D01*
X37463Y40497D01*
X37471Y40496D01*
X37477Y40495D01*
X37483Y40494D01*
X37487Y40494D01*
X37310D01*
X37655D01*
Y40622D01*
X37577Y40647D01*
X37573Y40631D01*
X37568Y40618D01*
X37562Y40607D01*
X37557Y40598D01*
X37552Y40591D01*
X37548Y40586D01*
X37545Y40583D01*
X37544Y40582D01*
X37535Y40575D01*
X37526Y40571D01*
X37517Y40567D01*
X37508Y40564D01*
X37501Y40563D01*
X37495Y40563D01*
X37492Y40562D01*
X37490D01*
X37481Y40563D01*
X37474Y40563D01*
X37460Y40567D01*
X37448Y40572D01*
X37438Y40578D01*
X37430Y40584D01*
X37425Y40589D01*
X37422Y40591D01*
X37421Y40593D01*
X37420Y40593D01*
X37420Y40594D01*
X37415Y40600D01*
X37411Y40607D01*
X37407Y40616D01*
X37404Y40624D01*
X37399Y40642D01*
X37396Y40660D01*
X37395Y40668D01*
X37394Y40676D01*
X37393Y40683D01*
Y40690D01*
X37393Y40694D01*
Y40698D01*
Y40701D01*
Y40702D01*
X37393Y40715D01*
X37394Y40727D01*
X37395Y40738D01*
X37397Y40748D01*
X37399Y40757D01*
X37401Y40766D01*
X37403Y40773D01*
X37406Y40780D01*
X37409Y40786D01*
X37411Y40791D01*
X37413Y40795D01*
X37415Y40799D01*
X37417Y40801D01*
X37418Y40803D01*
X37420Y40804D01*
Y40805D01*
X37425Y40811D01*
X37430Y40816D01*
X37436Y40820D01*
X37442Y40823D01*
X37455Y40829D01*
X37466Y40833D01*
X37476Y40835D01*
X37480Y40836D01*
X37484Y40837D01*
X37487Y40837D01*
X37491D01*
X37503Y40837D01*
X37513Y40834D01*
X37522Y40831D01*
X37530Y40828D01*
X37537Y40824D01*
X37541Y40822D01*
X37544Y40819D01*
X37545Y40819D01*
X37553Y40812D01*
X37560Y40804D01*
X37565Y40796D01*
X37569Y40788D01*
X37572Y40781D01*
X37573Y40776D01*
X37574Y40773D01*
Y40772D01*
X37575Y40771D01*
Y40770D01*
X37654Y40789D01*
X37649Y40806D01*
X37642Y40820D01*
X37635Y40833D01*
X37629Y40843D01*
X37623Y40851D01*
X37620Y40855D01*
X37618Y40858D01*
X37616Y40859D01*
X37615Y40861D01*
X37614Y40862D01*
X37614D01*
X37605Y40870D01*
X37595Y40877D01*
X37586Y40882D01*
X37576Y40887D01*
X37566Y40892D01*
X37556Y40895D01*
X37546Y40898D01*
X37537Y40900D01*
X37529Y40902D01*
X37521Y40903D01*
X37514Y40904D01*
X37507Y40905D01*
X37502Y40905D01*
D02*
G37*
G36*
X36546Y40900D02*
X36289D01*
X36417D01*
X36407Y40900D01*
X36397Y40898D01*
X36387Y40896D01*
X36379Y40894D01*
X36371Y40890D01*
X36363Y40887D01*
X36357Y40884D01*
X36351Y40880D01*
X36346Y40876D01*
X36340Y40872D01*
X36336Y40869D01*
X36333Y40865D01*
X36331Y40863D01*
X36329Y40861D01*
X36328Y40859D01*
X36327Y40859D01*
X36320Y40849D01*
X36315Y40838D01*
X36309Y40826D01*
X36305Y40813D01*
X36301Y40800D01*
X36298Y40786D01*
X36296Y40773D01*
X36293Y40760D01*
X36292Y40747D01*
X36291Y40735D01*
X36290Y40725D01*
X36289Y40715D01*
X36289Y40708D01*
Y40697D01*
X36289Y40676D01*
X36290Y40657D01*
X36292Y40640D01*
X36294Y40624D01*
X36297Y40609D01*
X36300Y40596D01*
X36303Y40585D01*
X36307Y40574D01*
X36309Y40566D01*
X36313Y40558D01*
X36316Y40551D01*
X36319Y40546D01*
X36320Y40543D01*
X36322Y40540D01*
X36323Y40538D01*
X36324Y40537D01*
X36331Y40529D01*
X36338Y40523D01*
X36346Y40517D01*
X36354Y40512D01*
X36361Y40508D01*
X36369Y40504D01*
X36377Y40501D01*
X36384Y40499D01*
X36391Y40497D01*
X36397Y40496D01*
X36403Y40494D01*
X36408Y40494D01*
X36412D01*
X36415Y40493D01*
X36289D01*
X36417D01*
X36428Y40494D01*
X36437Y40495D01*
X36447Y40497D01*
X36456Y40500D01*
X36464Y40502D01*
X36471Y40506D01*
X36478Y40510D01*
X36484Y40514D01*
X36489Y40517D01*
X36494Y40521D01*
X36498Y40525D01*
X36502Y40528D01*
X36504Y40530D01*
X36506Y40532D01*
X36507Y40533D01*
X36507Y40534D01*
X36514Y40544D01*
X36520Y40555D01*
X36526Y40567D01*
X36530Y40581D01*
X36534Y40594D01*
X36537Y40607D01*
X36540Y40621D01*
X36542Y40634D01*
X36543Y40647D01*
X36544Y40658D01*
X36545Y40669D01*
X36546Y40678D01*
X36546Y40686D01*
Y40532D01*
Y40697D01*
Y40696D01*
X36546Y40717D01*
X36545Y40736D01*
X36543Y40753D01*
X36540Y40769D01*
X36537Y40784D01*
X36534Y40797D01*
X36530Y40810D01*
X36527Y40820D01*
X36523Y40830D01*
X36520Y40837D01*
X36517Y40844D01*
X36514Y40850D01*
X36511Y40854D01*
X36509Y40857D01*
X36508Y40858D01*
X36507Y40859D01*
X36501Y40866D01*
X36494Y40873D01*
X36487Y40878D01*
X36479Y40883D01*
X36472Y40887D01*
X36464Y40890D01*
X36457Y40893D01*
X36450Y40895D01*
X36443Y40897D01*
X36437Y40898D01*
X36432Y40899D01*
X36427Y40900D01*
X36423Y40900D01*
X36546D01*
D02*
G37*
G36*
X37844D02*
X37839D01*
X37829Y40900D01*
X37820Y40899D01*
X37802Y40896D01*
X37787Y40892D01*
X37780Y40889D01*
X37774Y40886D01*
X37768Y40884D01*
X37763Y40881D01*
X37759Y40879D01*
X37755Y40877D01*
X37752Y40875D01*
X37751Y40874D01*
X37750Y40873D01*
X37749Y40873D01*
X37743Y40867D01*
X37737Y40861D01*
X37732Y40854D01*
X37727Y40847D01*
X37720Y40832D01*
X37715Y40818D01*
X37713Y40810D01*
X37711Y40804D01*
X37709Y40798D01*
X37709Y40793D01*
X37708Y40788D01*
Y40785D01*
X37707Y40783D01*
Y40783D01*
X37783Y40775D01*
X37784Y40787D01*
X37786Y40796D01*
X37789Y40805D01*
X37791Y40811D01*
X37794Y40816D01*
X37796Y40820D01*
X37798Y40822D01*
X37798Y40823D01*
X37804Y40827D01*
X37810Y40831D01*
X37817Y40834D01*
X37823Y40835D01*
X37828Y40837D01*
X37833Y40837D01*
X37837D01*
X37845Y40837D01*
X37853Y40835D01*
X37859Y40832D01*
X37865Y40830D01*
X37869Y40828D01*
X37872Y40826D01*
X37874Y40824D01*
X37875Y40823D01*
X37879Y40818D01*
X37883Y40811D01*
X37885Y40805D01*
X37887Y40799D01*
X37888Y40793D01*
X37888Y40788D01*
Y40785D01*
Y40784D01*
Y40784D01*
X37888Y40775D01*
X37886Y40767D01*
X37883Y40759D01*
X37880Y40752D01*
X37878Y40746D01*
X37875Y40741D01*
X37873Y40738D01*
X37872Y40737D01*
X37870Y40734D01*
X37867Y40730D01*
X37862Y40725D01*
X37857Y40720D01*
X37847Y40709D01*
X37837Y40698D01*
X37826Y40688D01*
X37822Y40683D01*
X37817Y40680D01*
X37814Y40676D01*
X37812Y40674D01*
X37810Y40672D01*
X37809Y40672D01*
X37798Y40661D01*
X37787Y40651D01*
X37778Y40641D01*
X37769Y40632D01*
X37761Y40624D01*
X37754Y40616D01*
X37748Y40609D01*
X37743Y40602D01*
X37738Y40596D01*
X37734Y40591D01*
X37731Y40587D01*
X37728Y40583D01*
X37726Y40581D01*
X37725Y40578D01*
X37724Y40577D01*
Y40576D01*
X37716Y40563D01*
X37711Y40550D01*
X37706Y40537D01*
X37702Y40525D01*
X37700Y40515D01*
X37700Y40511D01*
X37699Y40508D01*
X37698Y40505D01*
X37698Y40502D01*
Y40501D01*
X37965D01*
Y40688D01*
Y40571D01*
X37813D01*
X37818Y40579D01*
X37823Y40585D01*
X37825Y40588D01*
X37827Y40590D01*
X37828Y40591D01*
X37829Y40592D01*
X37831Y40594D01*
X37833Y40597D01*
X37840Y40603D01*
X37848Y40611D01*
X37855Y40618D01*
X37863Y40625D01*
X37869Y40631D01*
X37871Y40633D01*
X37873Y40635D01*
X37874Y40636D01*
X37875Y40636D01*
X37887Y40648D01*
X37898Y40658D01*
X37906Y40667D01*
X37913Y40674D01*
X37918Y40680D01*
X37922Y40684D01*
X37924Y40687D01*
X37925Y40687D01*
X37932Y40697D01*
X37938Y40706D01*
X37944Y40715D01*
X37948Y40722D01*
X37951Y40729D01*
X37953Y40734D01*
X37954Y40737D01*
X37955Y40738D01*
X37958Y40747D01*
X37961Y40756D01*
X37963Y40765D01*
X37964Y40773D01*
X37964Y40779D01*
X37965Y40784D01*
Y40789D01*
X37964Y40797D01*
X37963Y40806D01*
X37962Y40814D01*
X37960Y40822D01*
X37954Y40835D01*
X37948Y40846D01*
X37945Y40851D01*
X37942Y40855D01*
X37939Y40859D01*
X37936Y40862D01*
X37934Y40865D01*
X37933Y40867D01*
X37932Y40868D01*
X37931Y40868D01*
X37925Y40874D01*
X37917Y40879D01*
X37910Y40883D01*
X37902Y40886D01*
X37887Y40892D01*
X37872Y40896D01*
X37866Y40897D01*
X37859Y40898D01*
X37853Y40899D01*
X37848Y40900D01*
X37844Y40900D01*
D02*
G37*
G36*
X37122Y40898D02*
X37037D01*
X36883Y40501D01*
D01*
X37281D01*
X37122Y40898D01*
D02*
G37*
G36*
X36690Y40577D02*
X36614D01*
Y40501D01*
X36690D01*
Y40577D01*
D02*
G37*
G36*
X36174Y40900D02*
X36000D01*
X36112D01*
X36107Y40887D01*
X36099Y40875D01*
X36091Y40863D01*
X36083Y40854D01*
X36076Y40847D01*
X36070Y40841D01*
X36068Y40839D01*
X36066Y40837D01*
X36065Y40837D01*
X36064Y40836D01*
X36052Y40827D01*
X36040Y40819D01*
X36029Y40812D01*
X36019Y40808D01*
X36011Y40804D01*
X36005Y40801D01*
X36003Y40801D01*
X36001Y40800D01*
X36001Y40800D01*
X36000D01*
Y40731D01*
X36021Y40739D01*
X36039Y40748D01*
X36048Y40752D01*
X36056Y40757D01*
X36063Y40762D01*
X36070Y40766D01*
X36076Y40771D01*
X36082Y40775D01*
X36087Y40779D01*
X36091Y40782D01*
X36094Y40785D01*
X36096Y40787D01*
X36098Y40788D01*
X36098Y40788D01*
Y40501D01*
X36000D01*
X36174D01*
Y40900D01*
D02*
G37*
G36*
X37113Y40414D02*
X37106D01*
X37085Y40413D01*
X37067Y40411D01*
X37059Y40409D01*
X37051Y40407D01*
X37044Y40406D01*
X37037Y40404D01*
X37031Y40402D01*
X37026Y40400D01*
X37022Y40398D01*
X37018Y40397D01*
X37015Y40395D01*
X37013Y40395D01*
X37011Y40394D01*
X37011D01*
X36993Y40383D01*
X36986Y40377D01*
X36978Y40371D01*
X36971Y40365D01*
X36965Y40359D01*
X36959Y40352D01*
X36954Y40347D01*
X36950Y40341D01*
X36946Y40336D01*
X36943Y40331D01*
X36940Y40327D01*
X36938Y40324D01*
X36936Y40321D01*
X36936Y40320D01*
X36935Y40319D01*
X36930Y40310D01*
X36926Y40301D01*
X36920Y40282D01*
X36916Y40263D01*
X36913Y40246D01*
X36912Y40238D01*
X36910Y40231D01*
X36910Y40225D01*
Y40219D01*
X36909Y40215D01*
Y40219D01*
Y40002D01*
Y40209D01*
X36910Y40188D01*
X36913Y40168D01*
X36917Y40150D01*
X36918Y40142D01*
X36921Y40134D01*
X36923Y40127D01*
X36925Y40121D01*
X36927Y40116D01*
X36929Y40111D01*
X36930Y40108D01*
X36931Y40105D01*
X36932Y40103D01*
Y40103D01*
X36942Y40085D01*
X36953Y40071D01*
X36964Y40057D01*
X36976Y40047D01*
X36981Y40042D01*
X36986Y40038D01*
X36990Y40035D01*
X36994Y40033D01*
X36997Y40030D01*
X37000Y40029D01*
X37001Y40028D01*
X37002Y40027D01*
X37011Y40023D01*
X37019Y40019D01*
X37038Y40013D01*
X37057Y40008D01*
X37073Y40005D01*
X37081Y40004D01*
X37088Y40003D01*
X37095Y40002D01*
X37100D01*
X37104Y40002D01*
X36909D01*
X37281D01*
Y40225D01*
Y40222D01*
X37108D01*
Y40155D01*
X37200D01*
Y40104D01*
X37193Y40099D01*
X37185Y40094D01*
X37178Y40090D01*
X37171Y40087D01*
X37165Y40084D01*
X37160Y40081D01*
X37157Y40080D01*
X37157Y40080D01*
X37156D01*
X37147Y40076D01*
X37138Y40074D01*
X37129Y40072D01*
X37122Y40071D01*
X37115Y40071D01*
X37110Y40070D01*
X37106D01*
X37096Y40071D01*
X37087Y40072D01*
X37079Y40073D01*
X37071Y40076D01*
X37057Y40081D01*
X37051Y40084D01*
X37045Y40088D01*
X37040Y40091D01*
X37036Y40094D01*
X37032Y40098D01*
X37029Y40100D01*
X37026Y40102D01*
X37025Y40104D01*
X37023Y40105D01*
X37023Y40106D01*
X37018Y40112D01*
X37013Y40120D01*
X37009Y40129D01*
X37005Y40137D01*
X36999Y40155D01*
X36996Y40172D01*
X36995Y40180D01*
X36994Y40188D01*
X36993Y40195D01*
X36992Y40201D01*
X36992Y40205D01*
Y40209D01*
Y40212D01*
Y40212D01*
X36992Y40224D01*
X36993Y40235D01*
X36995Y40246D01*
X36996Y40256D01*
X36999Y40265D01*
X37002Y40273D01*
X37004Y40280D01*
X37007Y40287D01*
X37010Y40293D01*
X37013Y40298D01*
X37015Y40302D01*
X37018Y40305D01*
X37019Y40308D01*
X37021Y40310D01*
X37022Y40311D01*
X37022Y40312D01*
X37029Y40317D01*
X37035Y40323D01*
X37042Y40327D01*
X37049Y40331D01*
X37056Y40335D01*
X37062Y40337D01*
X37076Y40341D01*
X37082Y40343D01*
X37088Y40344D01*
X37093Y40344D01*
X37097Y40345D01*
X37101Y40346D01*
X37106D01*
X37119Y40345D01*
X37130Y40343D01*
X37139Y40340D01*
X37148Y40337D01*
X37154Y40334D01*
X37159Y40331D01*
X37162Y40329D01*
X37164Y40328D01*
X37172Y40321D01*
X37178Y40314D01*
X37184Y40306D01*
X37188Y40299D01*
X37192Y40292D01*
X37194Y40287D01*
X37195Y40284D01*
X37196Y40283D01*
Y40282D01*
X37275Y40297D01*
X37273Y40307D01*
X37270Y40317D01*
X37266Y40325D01*
X37262Y40333D01*
X37258Y40341D01*
X37253Y40348D01*
X37248Y40355D01*
X37244Y40360D01*
X37239Y40366D01*
X37235Y40370D01*
X37232Y40374D01*
X37228Y40377D01*
X37225Y40379D01*
X37223Y40382D01*
X37222Y40382D01*
X37221Y40383D01*
X37213Y40389D01*
X37205Y40393D01*
X37196Y40397D01*
X37186Y40401D01*
X37167Y40406D01*
X37149Y40410D01*
X37140Y40412D01*
X37132Y40412D01*
X37124Y40413D01*
X37118Y40413D01*
X37113Y40414D01*
D02*
G37*
G36*
X37671Y40406D02*
X37597D01*
Y40139D01*
X37433Y40406D01*
X37355D01*
Y40009D01*
X37671D01*
Y40406D01*
D02*
G37*
G36*
X37914D02*
X37756D01*
Y40009D01*
X38088D01*
X37906D01*
X37922Y40010D01*
X37936Y40010D01*
X37948Y40011D01*
X37958Y40013D01*
X37966Y40015D01*
X37972Y40016D01*
X37974Y40017D01*
X37976D01*
X37976Y40017D01*
X37977D01*
X37989Y40022D01*
X38001Y40027D01*
X38010Y40032D01*
X38018Y40037D01*
X38024Y40042D01*
X38029Y40045D01*
X38032Y40048D01*
X38033Y40049D01*
X38043Y40060D01*
X38051Y40071D01*
X38059Y40083D01*
X38065Y40094D01*
X38069Y40104D01*
X38072Y40108D01*
X38073Y40112D01*
X38074Y40115D01*
X38075Y40118D01*
X38076Y40119D01*
Y40119D01*
X38080Y40133D01*
X38083Y40147D01*
X38085Y40161D01*
X38086Y40174D01*
X38087Y40181D01*
X38088Y40187D01*
Y40191D01*
X38088Y40196D01*
Y40204D01*
X38088Y40224D01*
X38086Y40242D01*
X38085Y40250D01*
X38084Y40258D01*
X38083Y40265D01*
X38082Y40271D01*
X38080Y40277D01*
X38079Y40282D01*
X38078Y40287D01*
X38077Y40290D01*
X38076Y40293D01*
X38076Y40296D01*
X38075Y40297D01*
Y40297D01*
X38070Y40311D01*
X38064Y40324D01*
X38057Y40335D01*
X38051Y40344D01*
X38046Y40351D01*
X38041Y40357D01*
X38038Y40360D01*
X38038Y40362D01*
X38037D01*
X38027Y40371D01*
X38018Y40378D01*
X38007Y40385D01*
X37998Y40390D01*
X37990Y40394D01*
X37983Y40397D01*
X37981Y40397D01*
X37979Y40398D01*
X37978Y40398D01*
X37977D01*
X37967Y40401D01*
X37954Y40403D01*
X37942Y40405D01*
X37930Y40405D01*
X37919Y40406D01*
X37914Y40406D01*
D02*
G37*
G36*
X36690Y40085D02*
X36614D01*
Y40009D01*
X36690D01*
Y40085D01*
D02*
G37*
G36*
X36483Y40409D02*
X36309D01*
X36421D01*
X36416Y40395D01*
X36408Y40383D01*
X36400Y40372D01*
X36392Y40363D01*
X36385Y40355D01*
X36379Y40350D01*
X36377Y40347D01*
X36375Y40346D01*
X36374Y40345D01*
X36373Y40344D01*
X36360Y40335D01*
X36348Y40327D01*
X36338Y40321D01*
X36328Y40316D01*
X36320Y40313D01*
X36314Y40310D01*
X36312Y40309D01*
X36310Y40309D01*
X36309Y40308D01*
X36309D01*
Y40239D01*
X36329Y40247D01*
X36348Y40256D01*
X36356Y40261D01*
X36364Y40266D01*
X36372Y40270D01*
X36379Y40275D01*
X36385Y40279D01*
X36391Y40284D01*
X36395Y40287D01*
X36400Y40290D01*
X36403Y40293D01*
X36405Y40295D01*
X36406Y40296D01*
X36407Y40297D01*
Y40009D01*
X36309D01*
X36483D01*
Y40409D01*
D02*
G37*
G36*
X36174D02*
X36000D01*
X36112D01*
X36107Y40395D01*
X36099Y40383D01*
X36091Y40372D01*
X36083Y40363D01*
X36076Y40355D01*
X36070Y40350D01*
X36068Y40347D01*
X36066Y40346D01*
X36065Y40345D01*
X36064Y40344D01*
X36052Y40335D01*
X36040Y40327D01*
X36029Y40321D01*
X36019Y40316D01*
X36011Y40313D01*
X36005Y40310D01*
X36003Y40309D01*
X36001Y40309D01*
X36001Y40308D01*
X36000D01*
Y40239D01*
X36021Y40247D01*
X36039Y40256D01*
X36048Y40261D01*
X36056Y40266D01*
X36063Y40270D01*
X36070Y40275D01*
X36076Y40279D01*
X36082Y40284D01*
X36087Y40287D01*
X36091Y40290D01*
X36094Y40293D01*
X36096Y40295D01*
X36098Y40296D01*
X36098Y40297D01*
Y40009D01*
X36000D01*
X36174D01*
Y40409D01*
D02*
G37*
G36*
X37502Y39922D02*
X37495D01*
X37480Y39922D01*
X37465Y39920D01*
X37452Y39917D01*
X37439Y39914D01*
X37428Y39910D01*
X37416Y39905D01*
X37406Y39900D01*
X37397Y39895D01*
X37389Y39890D01*
X37382Y39884D01*
X37375Y39880D01*
X37370Y39876D01*
X37366Y39872D01*
X37363Y39869D01*
X37362Y39868D01*
X37361Y39867D01*
X37352Y39856D01*
X37344Y39845D01*
X37337Y39833D01*
X37332Y39820D01*
X37327Y39807D01*
X37322Y39794D01*
X37319Y39782D01*
X37316Y39770D01*
X37314Y39757D01*
X37313Y39747D01*
X37312Y39737D01*
X37310Y39729D01*
Y39722D01*
X37310Y39717D01*
Y39713D01*
X37310Y39695D01*
X37312Y39679D01*
X37314Y39664D01*
X37318Y39650D01*
X37321Y39637D01*
X37326Y39624D01*
X37331Y39613D01*
X37335Y39604D01*
X37340Y39594D01*
X37344Y39586D01*
X37349Y39580D01*
X37352Y39574D01*
X37356Y39570D01*
X37358Y39567D01*
X37360Y39565D01*
X37360Y39565D01*
X37370Y39555D01*
X37380Y39547D01*
X37391Y39539D01*
X37402Y39534D01*
X37413Y39528D01*
X37424Y39524D01*
X37434Y39520D01*
X37444Y39518D01*
X37454Y39515D01*
X37463Y39514D01*
X37471Y39512D01*
X37477Y39512D01*
X37483Y39511D01*
X37487Y39511D01*
X37310D01*
X37655D01*
Y39639D01*
X37577Y39663D01*
X37573Y39648D01*
X37568Y39635D01*
X37562Y39624D01*
X37557Y39615D01*
X37552Y39608D01*
X37548Y39603D01*
X37545Y39600D01*
X37544Y39599D01*
X37535Y39592D01*
X37526Y39588D01*
X37517Y39584D01*
X37508Y39581D01*
X37501Y39580D01*
X37495Y39580D01*
X37492Y39579D01*
X37490D01*
X37481Y39580D01*
X37474Y39580D01*
X37460Y39584D01*
X37448Y39589D01*
X37438Y39595D01*
X37430Y39601D01*
X37425Y39605D01*
X37422Y39608D01*
X37421Y39609D01*
X37420Y39610D01*
X37420Y39611D01*
X37415Y39617D01*
X37411Y39624D01*
X37407Y39632D01*
X37404Y39641D01*
X37399Y39659D01*
X37396Y39677D01*
X37395Y39685D01*
X37394Y39693D01*
X37393Y39700D01*
Y39706D01*
X37393Y39711D01*
Y39715D01*
Y39718D01*
Y39718D01*
X37393Y39732D01*
X37394Y39744D01*
X37395Y39755D01*
X37397Y39765D01*
X37399Y39774D01*
X37401Y39783D01*
X37403Y39790D01*
X37406Y39797D01*
X37409Y39803D01*
X37411Y39808D01*
X37413Y39812D01*
X37415Y39815D01*
X37417Y39818D01*
X37418Y39820D01*
X37420Y39821D01*
Y39822D01*
X37425Y39828D01*
X37430Y39833D01*
X37436Y39837D01*
X37442Y39840D01*
X37455Y39846D01*
X37466Y39850D01*
X37476Y39852D01*
X37480Y39853D01*
X37484Y39853D01*
X37487Y39854D01*
X37491D01*
X37503Y39853D01*
X37513Y39851D01*
X37522Y39848D01*
X37530Y39845D01*
X37537Y39841D01*
X37541Y39838D01*
X37544Y39836D01*
X37545Y39836D01*
X37553Y39829D01*
X37560Y39821D01*
X37565Y39813D01*
X37569Y39805D01*
X37572Y39798D01*
X37573Y39793D01*
X37574Y39790D01*
Y39788D01*
X37575Y39788D01*
Y39787D01*
X37654Y39806D01*
X37649Y39823D01*
X37642Y39837D01*
X37635Y39850D01*
X37629Y39860D01*
X37623Y39868D01*
X37620Y39872D01*
X37618Y39875D01*
X37616Y39876D01*
X37615Y39878D01*
X37614Y39879D01*
X37614D01*
X37605Y39887D01*
X37595Y39894D01*
X37586Y39899D01*
X37576Y39904D01*
X37566Y39908D01*
X37556Y39912D01*
X37546Y39915D01*
X37537Y39917D01*
X37529Y39919D01*
X37521Y39920D01*
X37514Y39921D01*
X37507Y39922D01*
X37502Y39922D01*
D02*
G37*
G36*
X37902Y39917D02*
X37840D01*
X37834Y39904D01*
X37827Y39892D01*
X37819Y39880D01*
X37811Y39871D01*
X37804Y39864D01*
X37798Y39858D01*
X37795Y39856D01*
X37794Y39854D01*
X37793Y39853D01*
X37792Y39853D01*
X37779Y39844D01*
X37767Y39836D01*
X37756Y39829D01*
X37747Y39825D01*
X37739Y39821D01*
X37733Y39818D01*
X37731Y39818D01*
X37729Y39817D01*
X37728Y39817D01*
X37728D01*
Y39748D01*
X37748Y39756D01*
X37767Y39764D01*
X37775Y39769D01*
X37783Y39774D01*
X37791Y39779D01*
X37798Y39783D01*
X37804Y39788D01*
X37810Y39792D01*
X37814Y39795D01*
X37818Y39799D01*
X37822Y39802D01*
X37824Y39803D01*
X37825Y39805D01*
X37826Y39805D01*
Y39518D01*
X37728D01*
X37902D01*
Y39917D01*
D02*
G37*
G36*
X37122Y39915D02*
X37037D01*
X36883Y39518D01*
D01*
X37281D01*
X37122Y39915D01*
D02*
G37*
G36*
X36690Y39594D02*
X36614D01*
Y39518D01*
X36690D01*
Y39594D01*
D02*
G37*
G36*
X36546Y39917D02*
X36420D01*
X36410Y39916D01*
X36401Y39916D01*
X36383Y39913D01*
X36368Y39908D01*
X36361Y39906D01*
X36355Y39903D01*
X36349Y39901D01*
X36344Y39898D01*
X36340Y39896D01*
X36336Y39894D01*
X36333Y39892D01*
X36332Y39891D01*
X36331Y39890D01*
X36330Y39890D01*
X36324Y39884D01*
X36318Y39878D01*
X36313Y39871D01*
X36308Y39864D01*
X36301Y39849D01*
X36296Y39834D01*
X36294Y39827D01*
X36292Y39821D01*
X36290Y39815D01*
X36290Y39810D01*
X36289Y39805D01*
Y39802D01*
X36288Y39800D01*
Y39799D01*
X36364Y39792D01*
X36365Y39803D01*
X36367Y39813D01*
X36370Y39822D01*
X36373Y39828D01*
X36375Y39833D01*
X36377Y39837D01*
X36379Y39839D01*
X36379Y39840D01*
X36385Y39844D01*
X36391Y39848D01*
X36398Y39850D01*
X36404Y39852D01*
X36409Y39853D01*
X36414Y39854D01*
X36418D01*
X36426Y39853D01*
X36434Y39852D01*
X36440Y39849D01*
X36446Y39847D01*
X36450Y39845D01*
X36453Y39842D01*
X36455Y39841D01*
X36456Y39840D01*
X36460Y39834D01*
X36464Y39828D01*
X36466Y39822D01*
X36468Y39815D01*
X36469Y39810D01*
X36470Y39805D01*
Y39802D01*
Y39801D01*
Y39801D01*
X36469Y39792D01*
X36467Y39784D01*
X36464Y39776D01*
X36462Y39769D01*
X36459Y39763D01*
X36456Y39758D01*
X36454Y39755D01*
X36453Y39754D01*
X36451Y39751D01*
X36448Y39747D01*
X36443Y39741D01*
X36439Y39737D01*
X36428Y39726D01*
X36418Y39715D01*
X36408Y39705D01*
X36403Y39700D01*
X36398Y39697D01*
X36395Y39693D01*
X36393Y39691D01*
X36391Y39689D01*
X36390Y39689D01*
X36379Y39678D01*
X36369Y39667D01*
X36359Y39658D01*
X36350Y39649D01*
X36342Y39640D01*
X36335Y39632D01*
X36329Y39625D01*
X36324Y39619D01*
X36319Y39613D01*
X36315Y39608D01*
X36312Y39604D01*
X36309Y39600D01*
X36307Y39597D01*
X36306Y39595D01*
X36305Y39594D01*
Y39593D01*
X36297Y39580D01*
X36292Y39566D01*
X36287Y39554D01*
X36284Y39542D01*
X36281Y39532D01*
X36281Y39528D01*
X36280Y39524D01*
X36280Y39522D01*
X36279Y39519D01*
Y39518D01*
X36546D01*
Y39675D01*
Y39588D01*
X36394D01*
X36399Y39596D01*
X36404Y39602D01*
X36406Y39605D01*
X36408Y39607D01*
X36409Y39608D01*
X36410Y39609D01*
X36412Y39611D01*
X36414Y39614D01*
X36421Y39620D01*
X36429Y39628D01*
X36436Y39635D01*
X36444Y39642D01*
X36450Y39648D01*
X36452Y39650D01*
X36454Y39652D01*
X36455Y39652D01*
X36456Y39653D01*
X36468Y39665D01*
X36479Y39675D01*
X36487Y39684D01*
X36494Y39691D01*
X36499Y39697D01*
X36503Y39701D01*
X36505Y39704D01*
X36506Y39704D01*
X36513Y39714D01*
X36519Y39723D01*
X36525Y39732D01*
X36529Y39739D01*
X36532Y39745D01*
X36534Y39751D01*
X36536Y39753D01*
X36536Y39755D01*
X36540Y39764D01*
X36542Y39773D01*
X36544Y39782D01*
X36545Y39790D01*
X36545Y39796D01*
X36546Y39801D01*
Y39806D01*
X36545Y39814D01*
X36544Y39823D01*
X36543Y39831D01*
X36541Y39838D01*
X36535Y39852D01*
X36529Y39863D01*
X36526Y39868D01*
X36523Y39872D01*
X36520Y39876D01*
X36517Y39879D01*
X36515Y39881D01*
X36514Y39884D01*
X36513Y39884D01*
X36512Y39885D01*
X36506Y39891D01*
X36498Y39896D01*
X36491Y39900D01*
X36483Y39903D01*
X36468Y39909D01*
X36453Y39913D01*
X36447Y39914D01*
X36440Y39915D01*
X36435Y39916D01*
X36429Y39916D01*
X36425Y39917D01*
X36546D01*
D02*
G37*
G36*
X36174D02*
X36000D01*
X36112D01*
X36107Y39904D01*
X36099Y39892D01*
X36091Y39880D01*
X36083Y39871D01*
X36076Y39864D01*
X36070Y39858D01*
X36068Y39856D01*
X36066Y39854D01*
X36065Y39853D01*
X36064Y39853D01*
X36052Y39844D01*
X36040Y39836D01*
X36029Y39829D01*
X36019Y39825D01*
X36011Y39821D01*
X36005Y39818D01*
X36003Y39818D01*
X36001Y39817D01*
X36001Y39817D01*
X36000D01*
Y39748D01*
X36021Y39756D01*
X36039Y39764D01*
X36048Y39769D01*
X36056Y39774D01*
X36063Y39779D01*
X36070Y39783D01*
X36076Y39788D01*
X36082Y39792D01*
X36087Y39795D01*
X36091Y39799D01*
X36094Y39802D01*
X36096Y39803D01*
X36098Y39805D01*
X36098Y39805D01*
Y39518D01*
X36000D01*
X36174D01*
Y39917D01*
D02*
G37*
G36*
X38764Y39429D02*
X38671D01*
X38580Y39272D01*
X38487Y39429D01*
X38393D01*
X38538Y39199D01*
Y39032D01*
X38393D01*
D01*
X38759Y39032D01*
X38764D01*
D01*
X38619Y39032D01*
Y39198D01*
X38764Y39429D01*
D02*
G37*
G36*
X39583D02*
X39509D01*
Y39161D01*
X39345Y39429D01*
X39397D01*
X39268D01*
Y39032D01*
X39342D01*
Y39293D01*
X39503Y39032D01*
X39583D01*
Y39429D01*
D02*
G37*
G36*
X37626Y39429D02*
Y39099D01*
X37405D01*
Y39207D01*
X37604D01*
Y39274D01*
X37405D01*
Y39362D01*
X37619D01*
Y39429D01*
X37626D01*
X37324D01*
Y39032D01*
X37626D01*
Y39429D01*
D02*
G37*
G36*
X36550Y39431D02*
X36286D01*
X36414D01*
X36402Y39431D01*
X36391Y39430D01*
X36381Y39427D01*
X36372Y39425D01*
X36365Y39423D01*
X36359Y39420D01*
X36356Y39419D01*
X36355Y39419D01*
X36355D01*
X36346Y39413D01*
X36337Y39408D01*
X36330Y39402D01*
X36324Y39397D01*
X36320Y39392D01*
X36316Y39388D01*
X36314Y39385D01*
X36313Y39384D01*
X36308Y39376D01*
X36304Y39366D01*
X36300Y39357D01*
X36297Y39347D01*
X36294Y39339D01*
X36293Y39332D01*
X36292Y39330D01*
Y39328D01*
X36292Y39327D01*
Y39326D01*
X36362Y39315D01*
X36363Y39324D01*
X36366Y39332D01*
X36368Y39339D01*
X36371Y39344D01*
X36374Y39349D01*
X36376Y39352D01*
X36378Y39354D01*
X36378Y39354D01*
X36383Y39359D01*
X36389Y39362D01*
X36395Y39365D01*
X36400Y39366D01*
X36405Y39368D01*
X36408Y39368D01*
X36412D01*
X36418Y39368D01*
X36425Y39366D01*
X36430Y39364D01*
X36435Y39362D01*
X36439Y39360D01*
X36441Y39358D01*
X36443Y39357D01*
X36444Y39356D01*
X36448Y39351D01*
X36451Y39346D01*
X36453Y39341D01*
X36454Y39335D01*
X36455Y39331D01*
X36456Y39327D01*
Y39325D01*
Y39324D01*
X36455Y39315D01*
X36453Y39308D01*
X36451Y39302D01*
X36448Y39296D01*
X36444Y39292D01*
X36442Y39289D01*
X36440Y39287D01*
X36439Y39286D01*
X36432Y39281D01*
X36425Y39278D01*
X36417Y39276D01*
X36409Y39274D01*
X36402Y39273D01*
X36397Y39273D01*
X36391D01*
X36383Y39211D01*
X36391Y39213D01*
X36397Y39215D01*
X36404Y39216D01*
X36409Y39217D01*
X36413Y39217D01*
X36418D01*
X36426Y39217D01*
X36433Y39214D01*
X36440Y39212D01*
X36445Y39209D01*
X36449Y39206D01*
X36453Y39203D01*
X36455Y39200D01*
X36456Y39200D01*
X36461Y39193D01*
X36465Y39186D01*
X36468Y39178D01*
X36470Y39171D01*
X36471Y39164D01*
X36472Y39159D01*
Y39155D01*
Y39155D01*
Y39154D01*
X36471Y39143D01*
X36470Y39133D01*
X36467Y39125D01*
X36464Y39118D01*
X36460Y39113D01*
X36458Y39109D01*
X36456Y39106D01*
X36455Y39105D01*
X36449Y39099D01*
X36442Y39095D01*
X36436Y39092D01*
X36429Y39090D01*
X36424Y39089D01*
X36420Y39088D01*
X36417Y39087D01*
X36416D01*
X36408Y39088D01*
X36401Y39090D01*
X36394Y39092D01*
X36389Y39095D01*
X36385Y39097D01*
X36381Y39099D01*
X36379Y39101D01*
X36378Y39102D01*
X36373Y39108D01*
X36369Y39115D01*
X36366Y39122D01*
X36363Y39129D01*
X36361Y39136D01*
X36360Y39141D01*
X36359Y39144D01*
Y39145D01*
Y39145D01*
X36286Y39136D01*
X36287Y39127D01*
X36289Y39118D01*
X36294Y39102D01*
X36301Y39089D01*
X36305Y39083D01*
X36308Y39077D01*
X36312Y39072D01*
X36315Y39068D01*
X36318Y39064D01*
X36321Y39061D01*
X36323Y39059D01*
X36325Y39057D01*
X36326Y39056D01*
X36327Y39055D01*
X36333Y39050D01*
X36341Y39045D01*
X36348Y39041D01*
X36356Y39037D01*
X36371Y39032D01*
X36385Y39028D01*
X36391Y39027D01*
X36397Y39026D01*
X36402Y39025D01*
X36407Y39025D01*
X36411Y39024D01*
X36286D01*
X36416D01*
X36426Y39025D01*
X36437Y39026D01*
X36446Y39028D01*
X36455Y39030D01*
X36463Y39033D01*
X36471Y39036D01*
X36479Y39039D01*
X36485Y39043D01*
X36491Y39046D01*
X36497Y39050D01*
X36501Y39052D01*
X36505Y39055D01*
X36507Y39058D01*
X36510Y39059D01*
X36511Y39060D01*
X36511Y39061D01*
X36518Y39068D01*
X36524Y39075D01*
X36529Y39083D01*
X36534Y39090D01*
X36537Y39098D01*
X36541Y39106D01*
X36545Y39120D01*
X36546Y39126D01*
X36548Y39132D01*
X36549Y39137D01*
X36549Y39142D01*
X36550Y39145D01*
Y39043D01*
Y39151D01*
X36549Y39164D01*
X36546Y39175D01*
X36544Y39186D01*
X36540Y39195D01*
X36536Y39202D01*
X36533Y39207D01*
X36530Y39211D01*
X36529Y39212D01*
X36521Y39221D01*
X36512Y39228D01*
X36503Y39234D01*
X36494Y39238D01*
X36487Y39242D01*
X36480Y39244D01*
X36478Y39245D01*
X36476D01*
X36475Y39245D01*
X36475D01*
X36485Y39252D01*
X36494Y39258D01*
X36501Y39265D01*
X36508Y39272D01*
X36514Y39279D01*
X36518Y39285D01*
X36522Y39292D01*
X36525Y39299D01*
X36528Y39305D01*
X36529Y39311D01*
X36530Y39316D01*
X36531Y39320D01*
X36532Y39324D01*
X36532Y39327D01*
Y39328D01*
Y39329D01*
X36532Y39336D01*
X36531Y39342D01*
X36528Y39355D01*
X36523Y39366D01*
X36518Y39376D01*
X36513Y39384D01*
X36509Y39390D01*
X36507Y39392D01*
X36505Y39394D01*
X36505Y39395D01*
X36504Y39395D01*
X36498Y39401D01*
X36490Y39407D01*
X36483Y39412D01*
X36476Y39416D01*
X36468Y39420D01*
X36460Y39423D01*
X36446Y39427D01*
X36440Y39428D01*
X36433Y39430D01*
X36428Y39430D01*
X36423Y39431D01*
X36419Y39431D01*
X36550D01*
D01*
D02*
G37*
G36*
X39191Y39429D02*
X39111D01*
Y39032D01*
X39191D01*
Y39429D01*
D02*
G37*
G36*
X38232Y39429D02*
X37993D01*
X38147D01*
X37993Y39032D01*
X38078D01*
X38111Y39122D01*
X38270D01*
X38305Y39032D01*
X38099D01*
X38391D01*
X38232Y39429D01*
D02*
G37*
G36*
X37976Y39426D02*
X37696D01*
Y39032D01*
X37976D01*
Y39426D01*
D02*
G37*
G36*
X37103Y39429D02*
X36924D01*
Y39032D01*
X37176D01*
X37004D01*
Y39198D01*
X37030D01*
X37038Y39197D01*
X37045Y39196D01*
X37050Y39195D01*
X37055Y39195D01*
X37058Y39194D01*
X37060Y39193D01*
X37060D01*
X37065Y39191D01*
X37069Y39188D01*
X37073Y39186D01*
X37077Y39183D01*
X37080Y39180D01*
X37083Y39178D01*
X37084Y39177D01*
X37084Y39176D01*
X37087Y39174D01*
X37089Y39171D01*
X37096Y39162D01*
X37103Y39153D01*
X37110Y39143D01*
X37116Y39133D01*
X37119Y39129D01*
X37122Y39125D01*
X37124Y39122D01*
X37126Y39120D01*
X37126Y39118D01*
X37127Y39118D01*
X37184Y39032D01*
X37281D01*
X37232Y39109D01*
X37227Y39117D01*
X37221Y39125D01*
X37217Y39132D01*
X37212Y39138D01*
X37208Y39144D01*
X37205Y39150D01*
X37198Y39159D01*
X37193Y39165D01*
X37189Y39170D01*
X37186Y39173D01*
X37186Y39174D01*
X37180Y39180D01*
X37172Y39187D01*
X37165Y39192D01*
X37158Y39197D01*
X37153Y39201D01*
X37148Y39204D01*
X37145Y39206D01*
X37144Y39207D01*
X37143D01*
X37153Y39209D01*
X37162Y39211D01*
X37170Y39213D01*
X37178Y39216D01*
X37185Y39219D01*
X37191Y39222D01*
X37197Y39225D01*
X37203Y39228D01*
X37207Y39231D01*
X37211Y39234D01*
X37215Y39237D01*
X37217Y39239D01*
X37219Y39241D01*
X37221Y39242D01*
X37221Y39243D01*
X37222Y39244D01*
X37227Y39249D01*
X37231Y39255D01*
X37238Y39268D01*
X37242Y39280D01*
X37245Y39292D01*
X37247Y39302D01*
X37248Y39306D01*
Y39310D01*
X37248Y39313D01*
Y39316D01*
Y39317D01*
Y39318D01*
X37248Y39330D01*
X37246Y39342D01*
X37243Y39353D01*
X37240Y39362D01*
X37236Y39369D01*
X37234Y39375D01*
X37232Y39377D01*
X37231Y39378D01*
X37231Y39379D01*
Y39380D01*
X37224Y39389D01*
X37216Y39397D01*
X37209Y39404D01*
X37201Y39409D01*
X37194Y39413D01*
X37189Y39416D01*
X37186Y39417D01*
X37185Y39418D01*
X37185D01*
X37179Y39420D01*
X37173Y39421D01*
X37158Y39424D01*
X37143Y39426D01*
X37128Y39428D01*
X37120D01*
X37114Y39428D01*
X37108D01*
X37103Y39429D01*
D02*
G37*
G36*
X36690Y39108D02*
X36614D01*
Y39032D01*
X36690D01*
Y39108D01*
D02*
G37*
G36*
X36174Y39431D02*
X36000D01*
X36112D01*
X36107Y39418D01*
X36099Y39406D01*
X36091Y39395D01*
X36083Y39385D01*
X36076Y39378D01*
X36070Y39372D01*
X36068Y39370D01*
X36066Y39368D01*
X36065Y39368D01*
X36064Y39367D01*
X36052Y39358D01*
X36040Y39350D01*
X36029Y39343D01*
X36019Y39339D01*
X36011Y39335D01*
X36005Y39332D01*
X36003Y39332D01*
X36001Y39331D01*
X36001Y39331D01*
X36000D01*
Y39262D01*
X36021Y39270D01*
X36039Y39279D01*
X36048Y39283D01*
X36056Y39288D01*
X36063Y39293D01*
X36070Y39297D01*
X36076Y39302D01*
X36082Y39306D01*
X36087Y39310D01*
X36091Y39313D01*
X36094Y39316D01*
X36096Y39318D01*
X36098Y39319D01*
X36098Y39319D01*
Y39032D01*
X36000D01*
X36174D01*
Y39431D01*
D02*
G37*
G36*
X39075Y39032D02*
Y38971D01*
X38759D01*
Y38922D01*
X39075D01*
Y39032D01*
D02*
G37*
G36*
X36561Y38842D02*
Y38590D01*
X36512D01*
Y38842D01*
X36561D01*
X36276D01*
D01*
X36448D01*
X36276Y38589D01*
Y38590D01*
Y38523D01*
X36439D01*
Y38443D01*
X36512D01*
Y38523D01*
X36561D01*
Y38842D01*
D02*
G37*
G36*
X38262Y38840D02*
X38023D01*
X38177D01*
X38023Y38443D01*
X38108D01*
X38141Y38533D01*
X38301D01*
X38335Y38443D01*
X38129D01*
X38422D01*
X38262Y38840D01*
D02*
G37*
G36*
X38012D02*
X37697D01*
Y38443D01*
X38012D01*
D01*
X37895D01*
Y38773D01*
X38012D01*
Y38840D01*
D02*
G37*
G36*
X37522D02*
X37437D01*
X37283Y38443D01*
D01*
X37682D01*
X37522Y38840D01*
D02*
G37*
G36*
X37082D02*
X36924D01*
Y38443D01*
X37256D01*
X37074D01*
X37089Y38444D01*
X37104Y38444D01*
X37116Y38445D01*
X37126Y38447D01*
X37134Y38449D01*
X37140Y38450D01*
X37142Y38451D01*
X37143D01*
X37144Y38451D01*
X37145D01*
X37157Y38456D01*
X37169Y38461D01*
X37178Y38466D01*
X37186Y38471D01*
X37192Y38476D01*
X37197Y38479D01*
X37200Y38482D01*
X37201Y38483D01*
X37211Y38494D01*
X37219Y38505D01*
X37227Y38517D01*
X37232Y38528D01*
X37237Y38538D01*
X37239Y38542D01*
X37240Y38546D01*
X37242Y38549D01*
X37243Y38552D01*
X37243Y38553D01*
Y38553D01*
X37247Y38567D01*
X37251Y38581D01*
X37253Y38595D01*
X37254Y38608D01*
X37255Y38615D01*
X37255Y38621D01*
Y38625D01*
X37256Y38630D01*
Y38638D01*
X37255Y38658D01*
X37254Y38676D01*
X37253Y38684D01*
X37252Y38692D01*
X37251Y38699D01*
X37250Y38705D01*
X37248Y38711D01*
X37247Y38716D01*
X37246Y38721D01*
X37245Y38724D01*
X37244Y38727D01*
X37243Y38730D01*
X37243Y38731D01*
Y38731D01*
X37238Y38745D01*
X37231Y38758D01*
X37225Y38769D01*
X37219Y38778D01*
X37213Y38785D01*
X37209Y38791D01*
X37206Y38794D01*
X37205Y38796D01*
X37205D01*
X37195Y38805D01*
X37185Y38812D01*
X37175Y38819D01*
X37166Y38824D01*
X37158Y38828D01*
X37151Y38831D01*
X37149Y38831D01*
X37147Y38832D01*
X37146Y38832D01*
X37145D01*
X37134Y38835D01*
X37122Y38837D01*
X37110Y38839D01*
X37097Y38839D01*
X37087Y38840D01*
X37082Y38840D01*
D02*
G37*
G36*
X36690Y38519D02*
X36614D01*
Y38443D01*
X36690D01*
Y38519D01*
D02*
G37*
G36*
X36174Y38843D02*
X36000D01*
X36112D01*
X36107Y38829D01*
X36099Y38817D01*
X36091Y38806D01*
X36083Y38797D01*
X36076Y38789D01*
X36070Y38784D01*
X36068Y38781D01*
X36066Y38780D01*
X36065Y38779D01*
X36064Y38778D01*
X36052Y38769D01*
X36040Y38761D01*
X36029Y38755D01*
X36019Y38750D01*
X36011Y38747D01*
X36005Y38744D01*
X36003Y38743D01*
X36001Y38743D01*
X36001Y38742D01*
X36000D01*
Y38673D01*
X36021Y38681D01*
X36039Y38690D01*
X36048Y38695D01*
X36056Y38700D01*
X36063Y38704D01*
X36070Y38709D01*
X36076Y38714D01*
X36082Y38718D01*
X36087Y38721D01*
X36091Y38724D01*
X36094Y38727D01*
X36096Y38729D01*
X36098Y38730D01*
X36098Y38731D01*
Y38443D01*
X36000D01*
X36174D01*
Y38843D01*
D02*
G37*
G36*
X37113Y38364D02*
X37106D01*
X37085Y38363D01*
X37067Y38361D01*
X37059Y38359D01*
X37051Y38357D01*
X37044Y38356D01*
X37037Y38354D01*
X37031Y38352D01*
X37026Y38350D01*
X37022Y38348D01*
X37018Y38347D01*
X37015Y38345D01*
X37013Y38345D01*
X37011Y38344D01*
X37011D01*
X36993Y38333D01*
X36986Y38327D01*
X36978Y38321D01*
X36971Y38315D01*
X36965Y38309D01*
X36959Y38302D01*
X36954Y38297D01*
X36950Y38291D01*
X36946Y38286D01*
X36943Y38281D01*
X36940Y38277D01*
X36938Y38274D01*
X36936Y38271D01*
X36936Y38270D01*
X36935Y38269D01*
X36930Y38260D01*
X36926Y38251D01*
X36920Y38232D01*
X36916Y38213D01*
X36913Y38196D01*
X36912Y38188D01*
X36910Y38181D01*
X36910Y38175D01*
Y38169D01*
X36909Y38165D01*
Y37952D01*
Y38159D01*
X36910Y38138D01*
X36913Y38118D01*
X36917Y38100D01*
X36918Y38092D01*
X36921Y38084D01*
X36923Y38077D01*
X36925Y38071D01*
X36927Y38066D01*
X36929Y38061D01*
X36930Y38058D01*
X36931Y38055D01*
X36932Y38053D01*
Y38053D01*
X36942Y38035D01*
X36953Y38020D01*
X36964Y38007D01*
X36976Y37997D01*
X36981Y37992D01*
X36986Y37988D01*
X36990Y37985D01*
X36994Y37983D01*
X36997Y37980D01*
X37000Y37979D01*
X37001Y37978D01*
X37002Y37977D01*
X37011Y37973D01*
X37019Y37969D01*
X37038Y37962D01*
X37057Y37958D01*
X37073Y37955D01*
X37081Y37954D01*
X37088Y37953D01*
X37095Y37952D01*
X37100D01*
X37104Y37952D01*
X36909D01*
X37281D01*
Y38181D01*
Y38172D01*
X37108D01*
Y38105D01*
X37200D01*
Y38054D01*
X37193Y38049D01*
X37185Y38044D01*
X37178Y38040D01*
X37171Y38037D01*
X37165Y38034D01*
X37160Y38031D01*
X37157Y38030D01*
X37157Y38030D01*
X37156D01*
X37147Y38026D01*
X37138Y38024D01*
X37129Y38022D01*
X37122Y38021D01*
X37115Y38020D01*
X37110Y38020D01*
X37106D01*
X37096Y38020D01*
X37087Y38022D01*
X37079Y38023D01*
X37071Y38026D01*
X37057Y38031D01*
X37051Y38034D01*
X37045Y38038D01*
X37040Y38041D01*
X37036Y38044D01*
X37032Y38047D01*
X37029Y38050D01*
X37026Y38052D01*
X37025Y38054D01*
X37023Y38055D01*
X37023Y38055D01*
X37018Y38062D01*
X37013Y38070D01*
X37009Y38078D01*
X37005Y38087D01*
X36999Y38105D01*
X36996Y38122D01*
X36995Y38130D01*
X36994Y38138D01*
X36993Y38144D01*
X36992Y38151D01*
X36992Y38155D01*
Y38159D01*
Y38162D01*
Y38162D01*
X36992Y38174D01*
X36993Y38185D01*
X36995Y38196D01*
X36996Y38206D01*
X36999Y38214D01*
X37002Y38222D01*
X37004Y38230D01*
X37007Y38237D01*
X37010Y38243D01*
X37013Y38248D01*
X37015Y38252D01*
X37018Y38255D01*
X37019Y38258D01*
X37021Y38260D01*
X37022Y38261D01*
X37022Y38262D01*
X37029Y38267D01*
X37035Y38273D01*
X37042Y38277D01*
X37049Y38281D01*
X37056Y38284D01*
X37062Y38287D01*
X37076Y38291D01*
X37082Y38293D01*
X37088Y38294D01*
X37093Y38294D01*
X37097Y38295D01*
X37101Y38295D01*
X37106D01*
X37119Y38295D01*
X37130Y38293D01*
X37139Y38290D01*
X37148Y38287D01*
X37154Y38284D01*
X37159Y38281D01*
X37162Y38279D01*
X37164Y38278D01*
X37172Y38271D01*
X37178Y38264D01*
X37184Y38256D01*
X37188Y38249D01*
X37192Y38242D01*
X37194Y38237D01*
X37195Y38233D01*
X37196Y38233D01*
Y38232D01*
X37275Y38247D01*
X37273Y38257D01*
X37270Y38267D01*
X37266Y38275D01*
X37262Y38283D01*
X37258Y38291D01*
X37253Y38298D01*
X37248Y38305D01*
X37244Y38310D01*
X37239Y38315D01*
X37235Y38320D01*
X37232Y38324D01*
X37228Y38327D01*
X37225Y38329D01*
X37223Y38332D01*
X37222Y38332D01*
X37221Y38333D01*
X37213Y38338D01*
X37205Y38343D01*
X37196Y38347D01*
X37186Y38351D01*
X37167Y38356D01*
X37149Y38360D01*
X37140Y38361D01*
X37132Y38362D01*
X37124Y38363D01*
X37118Y38363D01*
X37113Y38364D01*
D02*
G37*
G36*
X36557Y38351D02*
Y38092D01*
X36557Y38103D01*
X36556Y38113D01*
X36554Y38123D01*
X36552Y38132D01*
X36549Y38140D01*
X36546Y38148D01*
X36543Y38156D01*
X36540Y38162D01*
X36536Y38168D01*
X36533Y38173D01*
X36530Y38178D01*
X36528Y38181D01*
X36525Y38184D01*
X36523Y38186D01*
X36522Y38187D01*
X36522Y38188D01*
X36515Y38194D01*
X36508Y38200D01*
X36501Y38205D01*
X36493Y38210D01*
X36486Y38213D01*
X36479Y38216D01*
X36466Y38221D01*
X36459Y38222D01*
X36453Y38224D01*
X36448Y38224D01*
X36444Y38225D01*
X36441Y38225D01*
X36436D01*
X36426Y38225D01*
X36416Y38223D01*
X36408Y38221D01*
X36400Y38219D01*
X36393Y38216D01*
X36388Y38214D01*
X36385Y38213D01*
X36384Y38212D01*
X36383D01*
X36395Y38280D01*
X36540D01*
Y38351D01*
X36290D01*
X36338D01*
X36299Y38144D01*
X36360Y38135D01*
X36366Y38140D01*
X36371Y38145D01*
X36376Y38149D01*
X36381Y38152D01*
X36391Y38158D01*
X36400Y38161D01*
X36408Y38163D01*
X36414Y38164D01*
X36416Y38165D01*
X36420D01*
X36429Y38164D01*
X36437Y38162D01*
X36445Y38159D01*
X36451Y38155D01*
X36456Y38151D01*
X36460Y38148D01*
X36462Y38146D01*
X36463Y38146D01*
X36468Y38138D01*
X36472Y38130D01*
X36475Y38120D01*
X36477Y38111D01*
X36479Y38103D01*
X36479Y38097D01*
Y38094D01*
Y38092D01*
Y38091D01*
Y38090D01*
X36479Y38077D01*
X36477Y38065D01*
X36474Y38055D01*
X36471Y38047D01*
X36468Y38040D01*
X36466Y38035D01*
X36463Y38033D01*
X36463Y38032D01*
X36456Y38026D01*
X36449Y38020D01*
X36443Y38017D01*
X36436Y38015D01*
X36430Y38014D01*
X36426Y38013D01*
X36423Y38012D01*
X36422D01*
X36414Y38013D01*
X36407Y38015D01*
X36401Y38017D01*
X36395Y38020D01*
X36391Y38023D01*
X36387Y38025D01*
X36385Y38027D01*
X36385Y38027D01*
X36379Y38034D01*
X36375Y38040D01*
X36371Y38047D01*
X36369Y38053D01*
X36367Y38059D01*
X36366Y38064D01*
X36366Y38067D01*
Y38068D01*
X36290Y38060D01*
X36292Y38051D01*
X36293Y38042D01*
X36299Y38027D01*
X36305Y38013D01*
X36309Y38007D01*
X36313Y38002D01*
X36316Y37997D01*
X36319Y37993D01*
X36323Y37989D01*
X36325Y37986D01*
X36327Y37984D01*
X36329Y37982D01*
X36330Y37981D01*
X36331Y37981D01*
X36338Y37976D01*
X36344Y37971D01*
X36352Y37967D01*
X36359Y37964D01*
X36375Y37958D01*
X36389Y37955D01*
X36395Y37954D01*
X36401Y37953D01*
X36407Y37953D01*
X36412Y37952D01*
X36416Y37952D01*
X36290D01*
X36557D01*
X36421D01*
X36433Y37952D01*
X36445Y37954D01*
X36456Y37956D01*
X36467Y37960D01*
X36476Y37964D01*
X36485Y37968D01*
X36493Y37973D01*
X36501Y37978D01*
X36507Y37983D01*
X36513Y37987D01*
X36518Y37992D01*
X36522Y37996D01*
X36525Y37999D01*
X36527Y38002D01*
X36528Y38003D01*
X36529Y38004D01*
X36534Y38011D01*
X36538Y38019D01*
X36542Y38026D01*
X36545Y38034D01*
X36550Y38049D01*
X36554Y38063D01*
X36555Y38069D01*
X36556Y38074D01*
X36557Y38080D01*
Y38084D01*
X36557Y38088D01*
Y38351D01*
D02*
G37*
G36*
X37671Y38356D02*
X37597D01*
Y38089D01*
X37433Y38356D01*
X37355D01*
Y37959D01*
X37671D01*
Y38356D01*
D02*
G37*
G36*
X37914D02*
X37756D01*
Y37959D01*
X38088D01*
X37906D01*
X37922Y37960D01*
X37936Y37960D01*
X37948Y37961D01*
X37958Y37963D01*
X37966Y37965D01*
X37972Y37966D01*
X37974Y37966D01*
X37976D01*
X37976Y37967D01*
X37977D01*
X37989Y37972D01*
X38001Y37977D01*
X38010Y37982D01*
X38018Y37987D01*
X38024Y37992D01*
X38029Y37995D01*
X38032Y37997D01*
X38033Y37999D01*
X38043Y38010D01*
X38051Y38021D01*
X38059Y38033D01*
X38065Y38044D01*
X38069Y38054D01*
X38072Y38058D01*
X38073Y38062D01*
X38074Y38065D01*
X38075Y38068D01*
X38076Y38069D01*
Y38069D01*
X38080Y38083D01*
X38083Y38097D01*
X38085Y38111D01*
X38086Y38124D01*
X38087Y38131D01*
X38088Y38136D01*
Y38141D01*
X38088Y38146D01*
Y38154D01*
X38088Y38174D01*
X38086Y38192D01*
X38085Y38200D01*
X38084Y38208D01*
X38083Y38215D01*
X38082Y38221D01*
X38080Y38227D01*
X38079Y38232D01*
X38078Y38237D01*
X38077Y38240D01*
X38076Y38243D01*
X38076Y38245D01*
X38075Y38247D01*
Y38247D01*
X38070Y38261D01*
X38064Y38274D01*
X38057Y38284D01*
X38051Y38294D01*
X38046Y38301D01*
X38041Y38307D01*
X38038Y38310D01*
X38038Y38311D01*
X38037D01*
X38027Y38321D01*
X38018Y38328D01*
X38007Y38334D01*
X37998Y38340D01*
X37990Y38344D01*
X37983Y38346D01*
X37981Y38347D01*
X37979Y38348D01*
X37978Y38348D01*
X37977D01*
X37967Y38351D01*
X37954Y38353D01*
X37942Y38355D01*
X37930Y38355D01*
X37919Y38356D01*
X37914Y38356D01*
D02*
G37*
G36*
X36690Y38035D02*
X36614D01*
Y37959D01*
X36690D01*
Y38035D01*
D02*
G37*
G36*
X36174Y38359D02*
X36000D01*
X36112D01*
X36107Y38345D01*
X36099Y38333D01*
X36091Y38322D01*
X36083Y38313D01*
X36076Y38305D01*
X36070Y38299D01*
X36068Y38297D01*
X36066Y38295D01*
X36065Y38295D01*
X36064Y38294D01*
X36052Y38285D01*
X36040Y38277D01*
X36029Y38271D01*
X36019Y38266D01*
X36011Y38263D01*
X36005Y38260D01*
X36003Y38259D01*
X36001Y38259D01*
X36001Y38258D01*
X36000D01*
Y38189D01*
X36021Y38197D01*
X36039Y38206D01*
X36048Y38210D01*
X36056Y38216D01*
X36063Y38220D01*
X36070Y38225D01*
X36076Y38229D01*
X36082Y38233D01*
X36087Y38237D01*
X36091Y38240D01*
X36094Y38243D01*
X36096Y38245D01*
X36098Y38246D01*
X36098Y38247D01*
Y37959D01*
X36000D01*
X36174D01*
Y38359D01*
D02*
G37*
G36*
X36554Y37867D02*
X36289D01*
Y37460D01*
D01*
Y37660D01*
X36289Y37641D01*
X36290Y37623D01*
X36292Y37606D01*
X36295Y37591D01*
X36298Y37577D01*
X36301Y37564D01*
X36304Y37554D01*
X36308Y37543D01*
X36312Y37535D01*
X36315Y37527D01*
X36318Y37521D01*
X36321Y37516D01*
X36324Y37512D01*
X36325Y37509D01*
X36327Y37507D01*
X36327Y37506D01*
X36335Y37498D01*
X36343Y37491D01*
X36351Y37485D01*
X36359Y37480D01*
X36367Y37475D01*
X36376Y37471D01*
X36384Y37468D01*
X36391Y37466D01*
X36399Y37464D01*
X36405Y37462D01*
X36412Y37462D01*
X36417Y37461D01*
X36421D01*
X36424Y37460D01*
X36426D01*
X36437Y37461D01*
X36447Y37462D01*
X36456Y37463D01*
X36464Y37466D01*
X36473Y37469D01*
X36480Y37471D01*
X36487Y37475D01*
X36494Y37478D01*
X36499Y37482D01*
X36504Y37485D01*
X36509Y37488D01*
X36512Y37491D01*
X36515Y37493D01*
X36517Y37495D01*
X36518Y37496D01*
X36518Y37497D01*
X36525Y37504D01*
X36530Y37512D01*
X36535Y37520D01*
X36539Y37528D01*
X36543Y37536D01*
X36546Y37544D01*
X36550Y37560D01*
X36552Y37567D01*
X36553Y37574D01*
X36553Y37579D01*
X36554Y37585D01*
X36554Y37589D01*
Y37595D01*
X36554Y37606D01*
X36553Y37616D01*
X36551Y37625D01*
X36549Y37634D01*
X36546Y37643D01*
X36544Y37650D01*
X36541Y37657D01*
X36537Y37664D01*
X36534Y37670D01*
X36531Y37675D01*
X36528Y37679D01*
X36525Y37683D01*
X36523Y37686D01*
X36522Y37687D01*
X36521Y37688D01*
X36520Y37689D01*
X36514Y37695D01*
X36507Y37701D01*
X36500Y37706D01*
X36493Y37710D01*
X36486Y37714D01*
X36479Y37717D01*
X36467Y37721D01*
X36461Y37723D01*
X36455Y37724D01*
X36451Y37725D01*
X36447Y37725D01*
X36443Y37726D01*
X36439D01*
X36430Y37725D01*
X36423Y37724D01*
X36416Y37723D01*
X36409Y37721D01*
X36397Y37715D01*
X36387Y37709D01*
X36379Y37703D01*
X36375Y37700D01*
X36373Y37697D01*
X36370Y37695D01*
X36369Y37694D01*
X36368Y37692D01*
X36367Y37692D01*
X36369Y37704D01*
X36370Y37715D01*
X36371Y37726D01*
X36373Y37735D01*
X36374Y37743D01*
X36376Y37750D01*
X36378Y37757D01*
X36380Y37762D01*
X36382Y37768D01*
X36383Y37772D01*
X36385Y37775D01*
X36386Y37777D01*
X36387Y37780D01*
X36388Y37781D01*
X36389Y37782D01*
X36395Y37789D01*
X36402Y37795D01*
X36409Y37799D01*
X36415Y37801D01*
X36421Y37803D01*
X36425Y37803D01*
X36428Y37804D01*
X36429D01*
X36436Y37803D01*
X36442Y37802D01*
X36447Y37800D01*
X36451Y37799D01*
X36455Y37796D01*
X36457Y37795D01*
X36459Y37793D01*
X36459Y37793D01*
X36463Y37788D01*
X36466Y37783D01*
X36469Y37777D01*
X36471Y37772D01*
X36472Y37767D01*
X36473Y37763D01*
X36474Y37761D01*
Y37760D01*
X36547Y37768D01*
X36543Y37785D01*
X36537Y37799D01*
X36531Y37812D01*
X36525Y37823D01*
X36518Y37831D01*
X36516Y37834D01*
X36513Y37837D01*
X36511Y37838D01*
X36510Y37840D01*
X36509Y37841D01*
X36509D01*
X36503Y37846D01*
X36497Y37850D01*
X36484Y37856D01*
X36472Y37861D01*
X36460Y37864D01*
X36450Y37866D01*
X36445Y37866D01*
X36441D01*
X36439Y37867D01*
X36554D01*
D02*
G37*
G36*
X38015Y37865D02*
X37907D01*
X37744Y37688D01*
Y37865D01*
X37663D01*
Y37467D01*
X38022D01*
D01*
X37864Y37710D01*
X38015Y37865D01*
D02*
G37*
G36*
X37102Y37872D02*
X37095D01*
X37080Y37872D01*
X37065Y37870D01*
X37052Y37867D01*
X37038Y37864D01*
X37027Y37859D01*
X37015Y37855D01*
X37006Y37850D01*
X36996Y37845D01*
X36988Y37839D01*
X36981Y37834D01*
X36975Y37830D01*
X36969Y37826D01*
X36965Y37822D01*
X36963Y37819D01*
X36961Y37818D01*
X36960Y37817D01*
X36951Y37806D01*
X36944Y37795D01*
X36937Y37783D01*
X36931Y37770D01*
X36926Y37757D01*
X36922Y37744D01*
X36918Y37731D01*
X36916Y37719D01*
X36913Y37707D01*
X36912Y37697D01*
X36911Y37687D01*
X36910Y37679D01*
Y37672D01*
X36909Y37667D01*
Y37872D01*
Y37461D01*
D01*
Y37663D01*
X36910Y37645D01*
X36912Y37629D01*
X36914Y37614D01*
X36917Y37600D01*
X36921Y37587D01*
X36925Y37574D01*
X36930Y37563D01*
X36934Y37554D01*
X36939Y37544D01*
X36944Y37536D01*
X36948Y37530D01*
X36952Y37524D01*
X36955Y37520D01*
X36957Y37517D01*
X36959Y37515D01*
X36960Y37515D01*
X36969Y37505D01*
X36980Y37497D01*
X36991Y37489D01*
X37002Y37484D01*
X37013Y37478D01*
X37023Y37474D01*
X37034Y37470D01*
X37044Y37467D01*
X37053Y37465D01*
X37062Y37463D01*
X37070Y37462D01*
X37076Y37462D01*
X37082Y37461D01*
X37086Y37461D01*
X37089D01*
X37255D01*
X37089D01*
X37102Y37461D01*
X37112Y37462D01*
X37123Y37463D01*
X37133Y37466D01*
X37142Y37468D01*
X37151Y37470D01*
X37159Y37473D01*
X37166Y37477D01*
X37173Y37480D01*
X37178Y37482D01*
X37184Y37485D01*
X37188Y37487D01*
X37191Y37489D01*
X37193Y37491D01*
X37194Y37492D01*
X37195Y37492D01*
X37203Y37498D01*
X37209Y37505D01*
X37222Y37521D01*
X37232Y37537D01*
X37240Y37552D01*
X37244Y37560D01*
X37247Y37567D01*
X37249Y37573D01*
X37251Y37578D01*
X37253Y37583D01*
X37254Y37586D01*
X37255Y37589D01*
Y37591D01*
Y37589D01*
X37177Y37613D01*
X37172Y37598D01*
X37167Y37585D01*
X37162Y37574D01*
X37156Y37564D01*
X37151Y37558D01*
X37147Y37553D01*
X37145Y37550D01*
X37143Y37549D01*
X37134Y37542D01*
X37125Y37537D01*
X37116Y37534D01*
X37108Y37531D01*
X37100Y37530D01*
X37094Y37529D01*
X37092Y37529D01*
X37089D01*
X37081Y37529D01*
X37073Y37530D01*
X37060Y37534D01*
X37048Y37539D01*
X37038Y37545D01*
X37030Y37551D01*
X37024Y37555D01*
X37022Y37558D01*
X37020Y37559D01*
X37019Y37560D01*
X37019Y37560D01*
X37014Y37567D01*
X37010Y37574D01*
X37006Y37582D01*
X37003Y37591D01*
X36999Y37609D01*
X36995Y37626D01*
X36994Y37635D01*
X36994Y37643D01*
X36992Y37650D01*
Y37656D01*
X36992Y37661D01*
Y37665D01*
Y37668D01*
Y37668D01*
X36992Y37682D01*
X36993Y37694D01*
X36994Y37705D01*
X36996Y37715D01*
X36998Y37724D01*
X37000Y37733D01*
X37003Y37740D01*
X37006Y37747D01*
X37008Y37753D01*
X37010Y37758D01*
X37013Y37762D01*
X37015Y37765D01*
X37017Y37768D01*
X37018Y37770D01*
X37019Y37771D01*
Y37772D01*
X37024Y37777D01*
X37030Y37783D01*
X37036Y37787D01*
X37042Y37790D01*
X37054Y37796D01*
X37065Y37800D01*
X37075Y37802D01*
X37080Y37803D01*
X37083Y37803D01*
X37087Y37804D01*
X37091D01*
X37102Y37803D01*
X37112Y37801D01*
X37122Y37798D01*
X37130Y37795D01*
X37136Y37791D01*
X37141Y37788D01*
X37143Y37786D01*
X37145Y37785D01*
X37152Y37779D01*
X37159Y37771D01*
X37164Y37762D01*
X37168Y37754D01*
X37171Y37748D01*
X37173Y37742D01*
X37174Y37740D01*
Y37738D01*
X37174Y37738D01*
Y37737D01*
X37254Y37756D01*
X37248Y37773D01*
X37242Y37787D01*
X37235Y37800D01*
X37228Y37810D01*
X37222Y37818D01*
X37220Y37822D01*
X37217Y37824D01*
X37216Y37826D01*
X37214Y37828D01*
X37213Y37829D01*
X37213D01*
X37204Y37837D01*
X37194Y37843D01*
X37185Y37849D01*
X37176Y37854D01*
X37165Y37858D01*
X37155Y37862D01*
X37146Y37865D01*
X37137Y37867D01*
X37128Y37869D01*
X37120Y37870D01*
X37113Y37871D01*
X37107Y37872D01*
X37102Y37872D01*
D02*
G37*
G36*
X37406Y37862D02*
X37326D01*
Y37467D01*
X37606D01*
Y37547D01*
Y37535D01*
X37406D01*
Y37862D01*
D02*
G37*
G36*
X36690Y37544D02*
X36614D01*
Y37467D01*
X36690D01*
Y37544D01*
D02*
G37*
G36*
X36174Y37867D02*
X36000D01*
X36112D01*
X36107Y37854D01*
X36099Y37842D01*
X36091Y37830D01*
X36083Y37821D01*
X36076Y37814D01*
X36070Y37808D01*
X36068Y37806D01*
X36066Y37804D01*
X36065Y37803D01*
X36064Y37803D01*
X36052Y37793D01*
X36040Y37785D01*
X36029Y37779D01*
X36019Y37775D01*
X36011Y37771D01*
X36005Y37768D01*
X36003Y37768D01*
X36001Y37767D01*
X36001Y37767D01*
X36000D01*
Y37698D01*
X36021Y37706D01*
X36039Y37714D01*
X36048Y37719D01*
X36056Y37724D01*
X36063Y37729D01*
X36070Y37733D01*
X36076Y37738D01*
X36082Y37742D01*
X36087Y37745D01*
X36091Y37749D01*
X36094Y37752D01*
X36096Y37753D01*
X36098Y37754D01*
X36098Y37755D01*
Y37467D01*
X36000D01*
X36174D01*
Y37867D01*
D02*
G37*
%LPD*%
G36*
X37089Y37461D02*
D01*
D01*
D01*
D02*
G37*
%LPC*%
G36*
X37086D02*
D01*
X36909D01*
X37086D01*
D02*
G37*
G36*
X36424Y37460D02*
D01*
X36289D01*
X36424D01*
D02*
G37*
%LPD*%
G36*
X38209Y41814D02*
X38218Y41813D01*
X38226Y41812D01*
X38233Y41810D01*
X38247Y41804D01*
X38253Y41801D01*
X38258Y41798D01*
X38263Y41795D01*
X38267Y41792D01*
X38271Y41789D01*
X38274Y41786D01*
X38276Y41784D01*
X38278Y41783D01*
X38279Y41782D01*
X38279Y41781D01*
X38285Y41774D01*
X38290Y41767D01*
X38294Y41759D01*
X38297Y41751D01*
X38302Y41734D01*
X38306Y41717D01*
X38307Y41709D01*
X38308Y41702D01*
X38309Y41696D01*
X38309Y41690D01*
X38310Y41685D01*
Y41681D01*
Y41679D01*
Y41678D01*
X38309Y41666D01*
X38309Y41654D01*
X38307Y41643D01*
X38305Y41633D01*
X38303Y41623D01*
X38300Y41615D01*
X38297Y41607D01*
X38294Y41600D01*
X38291Y41594D01*
X38289Y41589D01*
X38286Y41584D01*
X38283Y41580D01*
X38282Y41577D01*
X38280Y41576D01*
X38279Y41575D01*
X38279Y41574D01*
X38273Y41568D01*
X38267Y41562D01*
X38260Y41558D01*
X38254Y41554D01*
X38247Y41551D01*
X38240Y41548D01*
X38228Y41544D01*
X38217Y41541D01*
X38212Y41541D01*
X38208Y41540D01*
X38205Y41540D01*
X38200D01*
X38192Y41540D01*
X38183Y41541D01*
X38175Y41543D01*
X38167Y41545D01*
X38154Y41550D01*
X38143Y41557D01*
X38138Y41560D01*
X38134Y41564D01*
X38130Y41567D01*
X38127Y41569D01*
X38124Y41571D01*
X38123Y41573D01*
X38122Y41574D01*
X38121Y41575D01*
X38116Y41581D01*
X38111Y41589D01*
X38107Y41597D01*
X38103Y41606D01*
X38097Y41622D01*
X38094Y41639D01*
X38093Y41647D01*
X38092Y41654D01*
X38091Y41661D01*
X38091Y41666D01*
X38090Y41671D01*
Y41674D01*
Y41677D01*
Y41677D01*
X38091Y41690D01*
X38091Y41701D01*
X38093Y41712D01*
X38095Y41723D01*
X38097Y41732D01*
X38099Y41740D01*
X38102Y41748D01*
X38105Y41755D01*
X38108Y41761D01*
X38111Y41766D01*
X38113Y41770D01*
X38115Y41774D01*
X38117Y41777D01*
X38119Y41779D01*
X38119Y41780D01*
X38120Y41781D01*
X38126Y41787D01*
X38132Y41792D01*
X38139Y41797D01*
X38145Y41801D01*
X38152Y41804D01*
X38159Y41806D01*
X38171Y41811D01*
X38183Y41813D01*
X38188Y41814D01*
X38192Y41814D01*
X38196Y41815D01*
X38200D01*
X38209Y41814D01*
D02*
G37*
G36*
X38008Y41657D02*
X38010Y41641D01*
X38012Y41625D01*
X38015Y41611D01*
X38019Y41598D01*
X38024Y41585D01*
X38029Y41574D01*
X38034Y41564D01*
X38038Y41555D01*
X38043Y41548D01*
X38047Y41541D01*
X38051Y41535D01*
X38055Y41531D01*
X38057Y41527D01*
X38059Y41526D01*
X38060Y41525D01*
X38070Y41515D01*
X38081Y41507D01*
X38092Y41500D01*
X38104Y41494D01*
X38115Y41489D01*
X38127Y41484D01*
X38138Y41481D01*
X38150Y41478D01*
X38160Y41476D01*
X38170Y41474D01*
X38178Y41473D01*
X38186Y41472D01*
X38192Y41472D01*
X38196Y41471D01*
X38007D01*
Y41674D01*
X38008Y41657D01*
D02*
G37*
G36*
X36968Y41808D02*
X36980D01*
X36986Y41808D01*
X36989D01*
X36991Y41807D01*
X36991D01*
X36998Y41805D01*
X37004Y41803D01*
X37010Y41801D01*
X37014Y41798D01*
X37017Y41795D01*
X37020Y41793D01*
X37021Y41792D01*
X37022Y41791D01*
X37025Y41786D01*
X37028Y41781D01*
X37030Y41775D01*
X37031Y41770D01*
X37032Y41766D01*
X37033Y41762D01*
Y41760D01*
Y41759D01*
X37032Y41752D01*
X37031Y41747D01*
X37030Y41742D01*
X37029Y41737D01*
X37027Y41734D01*
X37025Y41731D01*
X37025Y41730D01*
X37024Y41729D01*
X37021Y41725D01*
X37017Y41721D01*
X37010Y41716D01*
X37007Y41715D01*
X37004Y41713D01*
X37002Y41712D01*
X37002D01*
X36999Y41712D01*
X36994Y41711D01*
X36990Y41710D01*
X36984Y41709D01*
X36972Y41709D01*
X36960Y41708D01*
X36949Y41708D01*
X36871D01*
Y41809D01*
X36963D01*
X36968Y41808D01*
D02*
G37*
G36*
X36137Y41817D02*
X36144Y41816D01*
X36150Y41814D01*
X36155Y41812D01*
X36159Y41809D01*
X36162Y41807D01*
X36164Y41805D01*
X36164Y41805D01*
X36169Y41800D01*
X36172Y41794D01*
X36174Y41788D01*
X36176Y41782D01*
X36177Y41778D01*
X36177Y41774D01*
Y41771D01*
Y41770D01*
X36177Y41762D01*
X36175Y41755D01*
X36173Y41749D01*
X36171Y41744D01*
X36168Y41739D01*
X36166Y41736D01*
X36165Y41735D01*
X36164Y41734D01*
X36159Y41730D01*
X36153Y41727D01*
X36148Y41724D01*
X36142Y41723D01*
X36137Y41722D01*
X36133Y41721D01*
X36129D01*
X36122Y41722D01*
X36115Y41723D01*
X36109Y41726D01*
X36104Y41728D01*
X36100Y41730D01*
X36097Y41732D01*
X36095Y41734D01*
X36095Y41734D01*
X36091Y41739D01*
X36087Y41745D01*
X36085Y41751D01*
X36084Y41757D01*
X36083Y41762D01*
X36082Y41766D01*
Y41769D01*
Y41770D01*
X36083Y41778D01*
X36084Y41785D01*
X36086Y41790D01*
X36088Y41796D01*
X36091Y41800D01*
X36093Y41802D01*
X36094Y41804D01*
X36095Y41805D01*
X36100Y41809D01*
X36106Y41812D01*
X36111Y41814D01*
X36117Y41816D01*
X36122Y41817D01*
X36126Y41818D01*
X36130D01*
X36137Y41817D01*
D02*
G37*
G36*
X36139Y41661D02*
X36147Y41658D01*
X36154Y41656D01*
X36160Y41653D01*
X36164Y41650D01*
X36168Y41647D01*
X36170Y41645D01*
X36170Y41644D01*
X36176Y41637D01*
X36180Y41630D01*
X36183Y41622D01*
X36185Y41615D01*
X36186Y41608D01*
X36187Y41603D01*
Y41600D01*
Y41599D01*
Y41599D01*
X36186Y41587D01*
X36184Y41577D01*
X36181Y41569D01*
X36179Y41562D01*
X36176Y41556D01*
X36173Y41553D01*
X36171Y41550D01*
X36170Y41549D01*
X36164Y41544D01*
X36158Y41540D01*
X36152Y41537D01*
X36145Y41535D01*
X36139Y41534D01*
X36135Y41533D01*
X36131D01*
X36123Y41533D01*
X36115Y41536D01*
X36108Y41538D01*
X36102Y41541D01*
X36098Y41545D01*
X36094Y41547D01*
X36092Y41549D01*
X36091Y41550D01*
X36086Y41557D01*
X36082Y41565D01*
X36079Y41573D01*
X36077Y41581D01*
X36076Y41589D01*
X36075Y41595D01*
Y41597D01*
Y41599D01*
Y41599D01*
Y41600D01*
X36076Y41608D01*
X36077Y41616D01*
X36079Y41623D01*
X36082Y41629D01*
X36084Y41634D01*
X36086Y41638D01*
X36088Y41641D01*
X36088Y41642D01*
X36094Y41648D01*
X36101Y41653D01*
X36108Y41657D01*
X36115Y41659D01*
X36121Y41660D01*
X36126Y41661D01*
X36130D01*
X36139Y41661D01*
D02*
G37*
G36*
X36131Y41328D02*
X36139Y41325D01*
X36146Y41322D01*
X36152Y41318D01*
X36156Y41314D01*
X36160Y41311D01*
X36162Y41309D01*
X36162Y41308D01*
X36168Y41299D01*
X36172Y41290D01*
X36176Y41280D01*
X36177Y41271D01*
X36179Y41263D01*
X36180Y41256D01*
Y41253D01*
Y41252D01*
Y41251D01*
Y41250D01*
X36179Y41238D01*
X36177Y41228D01*
X36174Y41219D01*
X36172Y41212D01*
X36169Y41206D01*
X36166Y41202D01*
X36165Y41199D01*
X36164Y41199D01*
X36158Y41193D01*
X36152Y41189D01*
X36146Y41186D01*
X36140Y41184D01*
X36135Y41183D01*
X36131Y41182D01*
X36129Y41182D01*
X36127D01*
X36119Y41182D01*
X36112Y41185D01*
X36106Y41187D01*
X36100Y41191D01*
X36095Y41194D01*
X36092Y41197D01*
X36090Y41199D01*
X36090Y41199D01*
X36084Y41207D01*
X36081Y41216D01*
X36078Y41225D01*
X36076Y41235D01*
X36075Y41243D01*
X36075Y41250D01*
Y41253D01*
Y41255D01*
Y41256D01*
Y41256D01*
X36075Y41270D01*
X36077Y41281D01*
X36079Y41291D01*
X36082Y41298D01*
X36084Y41304D01*
X36086Y41308D01*
X36088Y41311D01*
X36088Y41311D01*
X36094Y41317D01*
X36100Y41321D01*
X36106Y41325D01*
X36111Y41326D01*
X36116Y41328D01*
X36120Y41329D01*
X36123D01*
X36131Y41328D01*
D02*
G37*
G36*
X38822Y41322D02*
X38835D01*
X38840Y41321D01*
X38844D01*
X38845Y41321D01*
X38846D01*
X38853Y41319D01*
X38859Y41317D01*
X38864Y41314D01*
X38868Y41311D01*
X38872Y41309D01*
X38875Y41307D01*
X38876Y41305D01*
X38876Y41305D01*
X38880Y41300D01*
X38883Y41294D01*
X38884Y41289D01*
X38886Y41284D01*
X38887Y41279D01*
X38887Y41276D01*
Y41274D01*
Y41272D01*
X38887Y41266D01*
X38886Y41260D01*
X38884Y41255D01*
X38883Y41251D01*
X38881Y41247D01*
X38880Y41245D01*
X38879Y41243D01*
X38879Y41243D01*
X38875Y41239D01*
X38872Y41235D01*
X38864Y41230D01*
X38861Y41228D01*
X38859Y41227D01*
X38857Y41226D01*
X38856D01*
X38853Y41225D01*
X38849Y41224D01*
X38844Y41224D01*
X38839Y41223D01*
X38827Y41222D01*
X38815Y41222D01*
X38803Y41221D01*
X38725D01*
Y41322D01*
X38817D01*
X38822Y41322D01*
D02*
G37*
G36*
X38025Y40992D02*
X37907D01*
Y41322D01*
X38025D01*
Y40992D01*
D02*
G37*
G36*
X37406Y41150D02*
X37297D01*
X37351Y41297D01*
X37406Y41150D01*
D02*
G37*
G36*
X36961Y41323D02*
X36976D01*
X36980Y41322D01*
X36986D01*
X36988Y41322D01*
X36989D01*
X36996Y41321D01*
X37002Y41319D01*
X37007Y41317D01*
X37012Y41314D01*
X37015Y41312D01*
X37018Y41310D01*
X37019Y41309D01*
X37019Y41308D01*
X37023Y41303D01*
X37025Y41298D01*
X37027Y41294D01*
X37029Y41289D01*
X37029Y41284D01*
X37030Y41281D01*
Y41279D01*
Y41278D01*
X37029Y41271D01*
X37028Y41265D01*
X37026Y41260D01*
X37024Y41255D01*
X37022Y41251D01*
X37019Y41249D01*
X37018Y41247D01*
X37018Y41247D01*
X37013Y41243D01*
X37008Y41240D01*
X37003Y41237D01*
X36998Y41236D01*
X36992Y41234D01*
X36989Y41233D01*
X36987Y41233D01*
X36983D01*
X36980Y41232D01*
X36962D01*
X36952Y41232D01*
X36875D01*
Y41323D01*
X36955D01*
X36961Y41323D01*
D02*
G37*
G36*
X36967Y41165D02*
X36974Y41164D01*
X36980D01*
X36986Y41164D01*
X36991Y41163D01*
X36995Y41163D01*
X36999Y41162D01*
X37002Y41162D01*
X37007Y41161D01*
X37010Y41160D01*
X37010D01*
X37016Y41158D01*
X37021Y41155D01*
X37026Y41152D01*
X37029Y41148D01*
X37032Y41146D01*
X37034Y41144D01*
X37035Y41142D01*
X37036Y41142D01*
X37038Y41136D01*
X37041Y41131D01*
X37042Y41127D01*
X37044Y41121D01*
X37044Y41117D01*
X37045Y41114D01*
Y41112D01*
Y41111D01*
X37044Y41104D01*
X37043Y41097D01*
X37041Y41091D01*
X37039Y41086D01*
X37037Y41082D01*
X37035Y41080D01*
X37034Y41078D01*
X37033Y41077D01*
X37029Y41073D01*
X37024Y41070D01*
X37019Y41067D01*
X37014Y41065D01*
X37010Y41063D01*
X37007Y41062D01*
X37004Y41062D01*
X37004D01*
X37002Y41061D01*
X36998D01*
X36991Y41061D01*
X36982Y41060D01*
X36972D01*
X36964Y41059D01*
X36875D01*
Y41166D01*
X36959D01*
X36967Y41165D01*
D02*
G37*
G36*
X37655Y40494D02*
X37490D01*
X37502Y40494D01*
X37513Y40495D01*
X37524Y40497D01*
X37534Y40499D01*
X37543Y40501D01*
X37552Y40504D01*
X37560Y40506D01*
X37567Y40510D01*
X37573Y40513D01*
X37579Y40516D01*
X37584Y40518D01*
X37588Y40520D01*
X37592Y40523D01*
X37594Y40524D01*
X37595Y40525D01*
X37596Y40525D01*
X37603Y40532D01*
X37610Y40539D01*
X37623Y40554D01*
X37633Y40570D01*
X37641Y40586D01*
X37645Y40593D01*
X37647Y40600D01*
X37650Y40606D01*
X37652Y40611D01*
X37654Y40616D01*
X37655Y40620D01*
X37655Y40622D01*
Y40494D01*
D02*
G37*
G36*
X36422Y40837D02*
X36427Y40836D01*
X36431Y40834D01*
X36435Y40832D01*
X36437Y40831D01*
X36440Y40830D01*
X36441Y40828D01*
X36441Y40828D01*
X36445Y40824D01*
X36448Y40819D01*
X36451Y40813D01*
X36454Y40807D01*
X36456Y40801D01*
X36457Y40797D01*
X36458Y40794D01*
X36459Y40793D01*
Y40793D01*
X36460Y40788D01*
X36461Y40781D01*
X36462Y40774D01*
X36463Y40766D01*
X36464Y40751D01*
X36465Y40735D01*
X36466Y40727D01*
Y40720D01*
X36466Y40714D01*
Y40708D01*
Y40703D01*
Y40699D01*
Y40697D01*
Y40696D01*
Y40684D01*
X36466Y40672D01*
Y40661D01*
X36465Y40651D01*
X36464Y40642D01*
X36464Y40634D01*
X36463Y40626D01*
X36462Y40620D01*
X36462Y40614D01*
X36460Y40610D01*
X36460Y40606D01*
X36459Y40602D01*
X36459Y40600D01*
Y40598D01*
X36458Y40597D01*
Y40597D01*
X36456Y40589D01*
X36453Y40582D01*
X36450Y40576D01*
X36448Y40572D01*
X36445Y40569D01*
X36443Y40567D01*
X36442Y40566D01*
X36441Y40565D01*
X36437Y40562D01*
X36433Y40560D01*
X36429Y40559D01*
X36425Y40558D01*
X36422Y40557D01*
X36420Y40556D01*
X36417D01*
X36412Y40557D01*
X36408Y40558D01*
X36404Y40559D01*
X36400Y40561D01*
X36397Y40562D01*
X36395Y40564D01*
X36394Y40564D01*
X36393Y40565D01*
X36390Y40569D01*
X36386Y40574D01*
X36383Y40580D01*
X36381Y40586D01*
X36379Y40591D01*
X36377Y40595D01*
X36377Y40598D01*
X36376Y40599D01*
X36375Y40605D01*
X36374Y40611D01*
X36373Y40618D01*
X36372Y40626D01*
X36371Y40642D01*
X36370Y40658D01*
X36370Y40665D01*
Y40673D01*
X36369Y40679D01*
Y40685D01*
Y40690D01*
Y40694D01*
Y40696D01*
Y40696D01*
Y40709D01*
X36370Y40721D01*
Y40731D01*
X36370Y40742D01*
X36371Y40750D01*
X36371Y40759D01*
X36372Y40766D01*
X36373Y40773D01*
X36374Y40779D01*
X36374Y40783D01*
X36375Y40787D01*
X36375Y40791D01*
X36376Y40793D01*
Y40795D01*
X36377Y40796D01*
Y40796D01*
X36379Y40804D01*
X36382Y40811D01*
X36384Y40816D01*
X36387Y40821D01*
X36389Y40824D01*
X36391Y40826D01*
X36392Y40827D01*
X36393Y40828D01*
X36397Y40831D01*
X36401Y40833D01*
X36405Y40835D01*
X36409Y40836D01*
X36412Y40837D01*
X36415Y40837D01*
X36417D01*
X36422Y40837D01*
D02*
G37*
G36*
X37134Y40658D02*
X37025D01*
X37079Y40806D01*
X37134Y40658D01*
D02*
G37*
G36*
X37194Y40501D02*
X36968D01*
X37000Y40591D01*
X37160D01*
X37194Y40501D01*
D02*
G37*
G36*
X37281Y40002D02*
X37111D01*
X37129Y40002D01*
X37146Y40005D01*
X37163Y40007D01*
X37177Y40011D01*
X37184Y40013D01*
X37189Y40014D01*
X37194Y40016D01*
X37199Y40017D01*
X37203Y40018D01*
X37205Y40019D01*
X37207Y40020D01*
X37207D01*
X37224Y40027D01*
X37239Y40034D01*
X37251Y40042D01*
X37262Y40048D01*
X37270Y40054D01*
X37273Y40056D01*
X37276Y40058D01*
X37278Y40060D01*
X37279Y40061D01*
X37281Y40063D01*
Y40002D01*
D02*
G37*
G36*
X37591Y40009D02*
X37429D01*
Y40271D01*
X37591Y40009D01*
D02*
G37*
G36*
X37896Y40339D02*
X37903D01*
X37909Y40338D01*
X37914D01*
X37919Y40337D01*
X37923D01*
X37929Y40336D01*
X37934Y40336D01*
X37937Y40335D01*
X37937D01*
X37945Y40333D01*
X37952Y40330D01*
X37958Y40327D01*
X37964Y40324D01*
X37968Y40321D01*
X37972Y40319D01*
X37973Y40317D01*
X37974Y40316D01*
X37979Y40310D01*
X37984Y40304D01*
X37988Y40298D01*
X37991Y40292D01*
X37994Y40286D01*
X37995Y40282D01*
X37996Y40279D01*
X37997Y40278D01*
Y40278D01*
X38000Y40267D01*
X38002Y40257D01*
X38003Y40244D01*
X38004Y40233D01*
X38005Y40223D01*
X38006Y40219D01*
Y40215D01*
Y40212D01*
Y40209D01*
Y40208D01*
Y40207D01*
X38005Y40191D01*
X38004Y40176D01*
X38003Y40164D01*
X38002Y40154D01*
X38000Y40145D01*
X37999Y40142D01*
X37998Y40139D01*
X37998Y40137D01*
Y40135D01*
X37997Y40135D01*
Y40134D01*
X37994Y40125D01*
X37991Y40117D01*
X37987Y40111D01*
X37984Y40106D01*
X37981Y40102D01*
X37979Y40099D01*
X37977Y40097D01*
X37976Y40096D01*
X37971Y40092D01*
X37966Y40089D01*
X37961Y40086D01*
X37956Y40084D01*
X37951Y40082D01*
X37948Y40081D01*
X37945Y40080D01*
X37944D01*
X37938Y40079D01*
X37930Y40078D01*
X37922Y40077D01*
X37914D01*
X37907Y40076D01*
X37836D01*
Y40339D01*
X37888D01*
X37896Y40339D01*
D02*
G37*
G36*
X37655Y39511D02*
X37490D01*
X37502Y39511D01*
X37513Y39512D01*
X37524Y39514D01*
X37534Y39516D01*
X37543Y39518D01*
X37552Y39520D01*
X37560Y39523D01*
X37567Y39527D01*
X37573Y39530D01*
X37579Y39532D01*
X37584Y39535D01*
X37588Y39537D01*
X37592Y39539D01*
X37594Y39541D01*
X37595Y39542D01*
X37596Y39542D01*
X37603Y39549D01*
X37610Y39555D01*
X37623Y39571D01*
X37633Y39587D01*
X37641Y39603D01*
X37645Y39610D01*
X37647Y39617D01*
X37650Y39623D01*
X37652Y39628D01*
X37654Y39633D01*
X37655Y39636D01*
X37655Y39639D01*
Y39511D01*
D02*
G37*
G36*
X37134Y39675D02*
X37025D01*
X37079Y39822D01*
X37134Y39675D01*
D02*
G37*
G36*
X37194Y39518D02*
X36968D01*
X37000Y39608D01*
X37160D01*
X37194Y39518D01*
D02*
G37*
G36*
X38244Y39189D02*
X38135D01*
X38189Y39337D01*
X38244Y39189D01*
D02*
G37*
G36*
X37976Y39099D02*
X37777D01*
Y39426D01*
X37976D01*
Y39099D01*
D02*
G37*
G36*
X37101Y39361D02*
X37114D01*
X37119Y39361D01*
X37122D01*
X37124Y39360D01*
X37124D01*
X37131Y39358D01*
X37138Y39356D01*
X37143Y39354D01*
X37147Y39351D01*
X37150Y39348D01*
X37153Y39346D01*
X37154Y39345D01*
X37155Y39344D01*
X37158Y39339D01*
X37161Y39334D01*
X37163Y39328D01*
X37165Y39323D01*
X37165Y39319D01*
X37166Y39315D01*
Y39313D01*
Y39312D01*
X37165Y39306D01*
X37165Y39300D01*
X37163Y39295D01*
X37162Y39290D01*
X37160Y39287D01*
X37158Y39284D01*
X37158Y39283D01*
X37157Y39282D01*
X37154Y39278D01*
X37150Y39275D01*
X37143Y39269D01*
X37140Y39268D01*
X37137Y39266D01*
X37135Y39265D01*
X37135D01*
X37132Y39265D01*
X37127Y39264D01*
X37123Y39263D01*
X37118Y39262D01*
X37106Y39262D01*
X37093Y39261D01*
X37082Y39261D01*
X37004D01*
Y39362D01*
X37096D01*
X37101Y39361D01*
D02*
G37*
G36*
X36439Y38590D02*
X36346D01*
X36439Y38726D01*
Y38590D01*
D02*
G37*
G36*
X38275Y38600D02*
X38165D01*
X38219Y38748D01*
X38275Y38600D01*
D02*
G37*
G36*
X37814Y38443D02*
X37697D01*
Y38773D01*
X37814D01*
Y38443D01*
D02*
G37*
G36*
X37535Y38600D02*
X37425D01*
X37479Y38748D01*
X37535Y38600D01*
D02*
G37*
G36*
X37595Y38443D02*
X37368D01*
X37401Y38533D01*
X37561D01*
X37595Y38443D01*
D02*
G37*
G36*
X37064Y38773D02*
X37071D01*
X37076Y38772D01*
X37081D01*
X37087Y38771D01*
X37091D01*
X37097Y38770D01*
X37102Y38770D01*
X37104Y38769D01*
X37105D01*
X37113Y38767D01*
X37120Y38764D01*
X37126Y38761D01*
X37132Y38758D01*
X37136Y38755D01*
X37139Y38753D01*
X37141Y38751D01*
X37142Y38750D01*
X37147Y38744D01*
X37151Y38738D01*
X37155Y38732D01*
X37159Y38726D01*
X37161Y38720D01*
X37163Y38716D01*
X37164Y38713D01*
X37165Y38712D01*
Y38712D01*
X37168Y38701D01*
X37170Y38691D01*
X37171Y38678D01*
X37172Y38667D01*
X37173Y38657D01*
X37173Y38653D01*
Y38649D01*
Y38646D01*
Y38643D01*
Y38642D01*
Y38641D01*
X37173Y38625D01*
X37172Y38610D01*
X37170Y38598D01*
X37169Y38588D01*
X37168Y38579D01*
X37167Y38576D01*
X37166Y38573D01*
X37165Y38571D01*
Y38569D01*
X37165Y38569D01*
Y38568D01*
X37161Y38559D01*
X37158Y38551D01*
X37154Y38545D01*
X37151Y38540D01*
X37149Y38536D01*
X37146Y38533D01*
X37145Y38531D01*
X37144Y38530D01*
X37139Y38526D01*
X37134Y38523D01*
X37128Y38520D01*
X37123Y38518D01*
X37119Y38516D01*
X37115Y38515D01*
X37113Y38514D01*
X37112D01*
X37106Y38513D01*
X37098Y38512D01*
X37090Y38511D01*
X37082D01*
X37075Y38510D01*
X37004D01*
Y38773D01*
X37056D01*
X37064Y38773D01*
D02*
G37*
G36*
X37281Y37952D02*
X37111D01*
X37129Y37952D01*
X37146Y37954D01*
X37163Y37957D01*
X37177Y37961D01*
X37184Y37962D01*
X37189Y37964D01*
X37194Y37966D01*
X37199Y37967D01*
X37203Y37968D01*
X37205Y37969D01*
X37207Y37970D01*
X37207D01*
X37224Y37977D01*
X37239Y37984D01*
X37251Y37992D01*
X37262Y37998D01*
X37270Y38004D01*
X37273Y38006D01*
X37276Y38008D01*
X37278Y38010D01*
X37279Y38011D01*
X37281Y38012D01*
Y37952D01*
D02*
G37*
G36*
X37591Y37959D02*
X37429D01*
Y38221D01*
X37591Y37959D01*
D02*
G37*
G36*
X37896Y38289D02*
X37903D01*
X37909Y38288D01*
X37914D01*
X37919Y38287D01*
X37923D01*
X37929Y38286D01*
X37934Y38286D01*
X37937Y38285D01*
X37937D01*
X37945Y38283D01*
X37952Y38280D01*
X37958Y38277D01*
X37964Y38274D01*
X37968Y38271D01*
X37972Y38268D01*
X37973Y38267D01*
X37974Y38266D01*
X37979Y38260D01*
X37984Y38254D01*
X37988Y38248D01*
X37991Y38242D01*
X37994Y38236D01*
X37995Y38232D01*
X37996Y38229D01*
X37997Y38228D01*
Y38228D01*
X38000Y38217D01*
X38002Y38206D01*
X38003Y38194D01*
X38004Y38183D01*
X38005Y38173D01*
X38006Y38169D01*
Y38165D01*
Y38162D01*
Y38159D01*
Y38158D01*
Y38157D01*
X38005Y38141D01*
X38004Y38126D01*
X38003Y38114D01*
X38002Y38104D01*
X38000Y38095D01*
X37999Y38092D01*
X37998Y38089D01*
X37998Y38087D01*
Y38085D01*
X37997Y38085D01*
Y38084D01*
X37994Y38075D01*
X37991Y38067D01*
X37987Y38061D01*
X37984Y38055D01*
X37981Y38051D01*
X37979Y38049D01*
X37977Y38047D01*
X37976Y38046D01*
X37971Y38042D01*
X37966Y38039D01*
X37961Y38036D01*
X37956Y38034D01*
X37951Y38032D01*
X37948Y38031D01*
X37945Y38030D01*
X37944D01*
X37938Y38028D01*
X37930Y38028D01*
X37922Y38027D01*
X37914D01*
X37907Y38026D01*
X37836D01*
Y38289D01*
X37888D01*
X37896Y38289D01*
D02*
G37*
G36*
X36422Y37866D02*
X36411Y37865D01*
X36400Y37862D01*
X36390Y37859D01*
X36381Y37855D01*
X36372Y37851D01*
X36364Y37847D01*
X36357Y37843D01*
X36351Y37838D01*
X36345Y37834D01*
X36340Y37830D01*
X36336Y37826D01*
X36333Y37823D01*
X36331Y37820D01*
X36329Y37819D01*
X36329Y37818D01*
X36322Y37808D01*
X36316Y37798D01*
X36311Y37785D01*
X36306Y37773D01*
X36302Y37760D01*
X36298Y37747D01*
X36296Y37734D01*
X36294Y37721D01*
X36292Y37709D01*
X36291Y37698D01*
X36290Y37687D01*
X36289Y37678D01*
X36289Y37671D01*
Y37867D01*
X36434D01*
X36422Y37866D01*
D02*
G37*
G36*
X36435Y37669D02*
X36442Y37667D01*
X36448Y37664D01*
X36454Y37660D01*
X36459Y37657D01*
X36462Y37654D01*
X36464Y37652D01*
X36464Y37651D01*
X36470Y37644D01*
X36474Y37634D01*
X36476Y37625D01*
X36478Y37616D01*
X36479Y37607D01*
X36480Y37600D01*
Y37598D01*
Y37595D01*
Y37594D01*
Y37594D01*
X36479Y37581D01*
X36478Y37569D01*
X36475Y37560D01*
X36473Y37552D01*
X36470Y37547D01*
X36468Y37543D01*
X36466Y37540D01*
X36466Y37539D01*
X36460Y37534D01*
X36454Y37530D01*
X36448Y37527D01*
X36443Y37525D01*
X36437Y37524D01*
X36433Y37523D01*
X36430D01*
X36422Y37524D01*
X36414Y37527D01*
X36408Y37529D01*
X36402Y37533D01*
X36398Y37537D01*
X36394Y37540D01*
X36391Y37543D01*
X36391Y37543D01*
X36385Y37551D01*
X36381Y37560D01*
X36378Y37570D01*
X36377Y37579D01*
X36375Y37588D01*
X36374Y37594D01*
Y37597D01*
Y37599D01*
Y37600D01*
Y37601D01*
X36375Y37613D01*
X36377Y37623D01*
X36379Y37632D01*
X36382Y37639D01*
X36385Y37644D01*
X36387Y37648D01*
X36389Y37651D01*
X36389Y37652D01*
X36395Y37657D01*
X36401Y37662D01*
X36408Y37665D01*
X36413Y37667D01*
X36418Y37668D01*
X36423Y37670D01*
X36426D01*
X36435Y37669D01*
D02*
G37*
G36*
X37918Y37467D02*
X37744D01*
Y37587D01*
X37809Y37654D01*
X37918Y37467D01*
D02*
G37*
D10*
X57360Y6785D02*
G03*
X58040Y6785I340J0D01*
G01*
X53140Y7312D02*
Y7412D01*
X53190D01*
Y7512D01*
X53240D01*
Y7612D01*
X53340D01*
Y7512D02*
Y7612D01*
Y7512D02*
X53390D01*
Y7412D02*
Y7512D01*
Y7412D02*
X53440D01*
Y7312D02*
Y7412D01*
Y7312D02*
X53490D01*
Y7212D02*
Y7312D01*
Y7212D02*
X53540D01*
X53640D01*
X53090D02*
Y7312D01*
X53140D01*
X52540Y7212D02*
X52590D01*
Y7112D02*
Y7212D01*
Y7112D02*
X52640D01*
Y7012D02*
Y7112D01*
Y7012D02*
X52690D01*
Y6912D02*
Y7012D01*
Y6912D02*
X52740D01*
Y6812D02*
Y6912D01*
Y6812D02*
X52840D01*
Y6912D01*
X52890D01*
Y7012D01*
X52940D01*
Y7112D01*
X52990D01*
Y7212D01*
X52440D02*
X52540D01*
X52990D02*
X53090D01*
X44480Y29950D02*
Y30650D01*
X43225Y29950D02*
X44480D01*
X43225D02*
Y30650D01*
X44480D01*
X43775Y30400D02*
Y30500D01*
Y30300D02*
Y30400D01*
Y30200D02*
Y30300D01*
Y30100D02*
Y30200D01*
Y30100D02*
X43850Y30200D01*
X43930Y30300D01*
X43775Y30500D02*
X43930Y30300D01*
X43775Y30500D02*
X43900Y30275D01*
X43775Y30400D02*
X43900Y30275D01*
X43775Y30400D02*
X43880Y30250D01*
X43775Y30300D02*
X43880Y30250D01*
X43775Y30300D02*
X43850Y30200D01*
X43775D02*
X43850D01*
X43775Y27300D02*
X43850D01*
X43775Y27400D02*
X43850Y27300D01*
X43775Y27400D02*
X43880Y27350D01*
X43775Y27500D02*
X43880Y27350D01*
X43775Y27500D02*
X43900Y27375D01*
X43775Y27600D02*
X43900Y27375D01*
X43775Y27600D02*
X43930Y27400D01*
X43850Y27300D02*
X43930Y27400D01*
X43775Y27200D02*
X43850Y27300D01*
X43775Y27200D02*
Y27300D01*
Y27400D01*
Y27500D01*
Y27600D01*
X43225Y27750D02*
X44480D01*
X43225Y27050D02*
Y27750D01*
Y27050D02*
X44480D01*
Y27750D01*
Y28500D02*
Y29200D01*
X43225Y28500D02*
X44480D01*
X43225D02*
Y29200D01*
X44480D01*
X43775Y28950D02*
Y29050D01*
Y28850D02*
Y28950D01*
Y28750D02*
Y28850D01*
Y28650D02*
Y28750D01*
Y28650D02*
X43850Y28750D01*
X43930Y28850D01*
X43775Y29050D02*
X43930Y28850D01*
X43775Y29050D02*
X43900Y28825D01*
X43775Y28950D02*
X43900Y28825D01*
X43775Y28950D02*
X43880Y28800D01*
X43775Y28850D02*
X43880Y28800D01*
X43775Y28850D02*
X43850Y28750D01*
X43775D02*
X43850D01*
X43775Y31650D02*
X43850D01*
X43775Y31750D02*
X43850Y31650D01*
X43775Y31750D02*
X43880Y31700D01*
X43775Y31850D02*
X43880Y31700D01*
X43775Y31850D02*
X43900Y31725D01*
X43775Y31950D02*
X43900Y31725D01*
X43775Y31950D02*
X43930Y31750D01*
X43850Y31650D02*
X43930Y31750D01*
X43775Y31550D02*
X43850Y31650D01*
X43775Y31550D02*
Y31650D01*
Y31750D01*
Y31850D01*
Y31950D01*
X43225Y32100D02*
X44480D01*
X43225Y31400D02*
Y32100D01*
Y31400D02*
X44480D01*
Y32100D01*
X30864Y20920D02*
Y21040D01*
Y20008D02*
Y20126D01*
X32560Y20008D02*
Y20126D01*
Y20920D02*
Y21040D01*
X30866Y19988D02*
X32560D01*
X30866Y21060D02*
X32560D01*
X27026Y21040D02*
X28720D01*
X27026Y19969D02*
X28720D01*
Y20900D02*
Y21020D01*
Y19988D02*
Y20106D01*
X27024Y19988D02*
Y20106D01*
Y20900D02*
Y21020D01*
X47550Y3046D02*
X47670D01*
X46638D02*
X46756D01*
X46638Y1350D02*
X46756D01*
X47550D02*
X47670D01*
X46618D02*
Y3044D01*
X47690Y1350D02*
Y3044D01*
X43446Y5090D02*
X45140D01*
X43446Y4018D02*
X45140D01*
Y4950D02*
Y5070D01*
Y4038D02*
Y4156D01*
X43444Y4038D02*
Y4156D01*
Y4950D02*
Y5070D01*
X940Y7014D02*
X1060D01*
X1854D02*
X1972D01*
X1854Y8710D02*
X1972D01*
X940D02*
X1060D01*
X1991Y7016D02*
Y8710D01*
X920Y7016D02*
Y8710D01*
X56260Y16076D02*
Y17770D01*
X57332Y16076D02*
Y17770D01*
X56280D02*
X56400D01*
X57194D02*
X57312D01*
X57194Y16074D02*
X57312D01*
X56280D02*
X56400D01*
X55505Y3810D02*
X59755D01*
X55505Y6810D02*
X59755D01*
Y3810D02*
Y6810D01*
X55505Y3810D02*
Y6810D01*
D11*
X58704Y18469D02*
G03*
X58704Y18469I-20J0D01*
G01*
X49890Y9961D02*
G03*
X49890Y9961I-20J0D01*
G01*
D12*
X54544Y2936D02*
G03*
X54544Y2936I-2044J0D01*
G01*
X570Y48630D02*
Y48847D01*
Y48738D01*
X1220D01*
Y48630D01*
Y48847D01*
X679Y49605D02*
X570Y49496D01*
Y49280D01*
X679Y49171D01*
X1112D01*
X1220Y49280D01*
Y49496D01*
X1112Y49605D01*
X679Y50254D02*
X570Y50146D01*
Y49930D01*
X679Y49821D01*
X787D01*
X895Y49930D01*
Y50146D01*
X1003Y50254D01*
X1112D01*
X1220Y50146D01*
Y49930D01*
X1112Y49821D01*
X1220Y50471D02*
X570D01*
Y50796D01*
X679Y50904D01*
X895D01*
X1003Y50796D01*
Y50471D01*
D13*
X30552Y16052D02*
G03*
X30552Y16052I-49J0D01*
G01*
X36532Y6525D02*
G03*
X36532Y6525I-49J0D01*
G01*
X40074Y6007D02*
G03*
X40074Y6007I-49J0D01*
G01*
X42757Y3541D02*
G03*
X42757Y3541I-49J0D01*
G01*
X28699Y2735D02*
G03*
X28699Y2735I-49J0D01*
G01*
X59568Y9758D02*
G03*
X59568Y9758I-49J0D01*
G01*
X4004Y48590D02*
G03*
X4004Y48590I-49J0D01*
G01*
D14*
X34000Y21800D02*
Y27400D01*
X30200Y21800D02*
Y27400D01*
X34000D01*
X30200Y21800D02*
X34000D01*
X29600Y21774D02*
Y27374D01*
X25800Y21774D02*
Y27374D01*
X29600D01*
X25800Y21774D02*
X29600D01*
X54740Y6212D02*
Y8312D01*
X51340Y6212D02*
Y8312D01*
X54740D01*
X51340Y6212D02*
X54740D01*
X59894Y18016D02*
X60169D01*
X59894Y15812D02*
Y18016D01*
Y15812D02*
X60169D01*
X48384Y12618D02*
X48660D01*
Y10414D02*
Y12618D01*
X48384Y10414D02*
X48660D01*
X6229Y43871D02*
Y44020D01*
Y43871D02*
X7839D01*
X6229Y45209D02*
X7839D01*
X6229Y45060D02*
Y45209D01*
X12800Y36400D02*
X13050Y36150D01*
Y35650D02*
Y36150D01*
X12800Y35400D02*
X13050Y35650D01*
X11300Y35400D02*
X12800D01*
X11050Y35650D02*
X11300Y35400D01*
X11050Y35650D02*
Y36150D01*
X11300Y36400D01*
X12800D01*
X12820Y33370D02*
X13070Y33120D01*
Y32620D02*
Y33120D01*
X12820Y32370D02*
X13070Y32620D01*
X11320Y32370D02*
X12820D01*
X11070Y32620D02*
X11320Y32370D01*
X11070Y32620D02*
Y33120D01*
X11320Y33370D01*
X12820D01*
Y34370D02*
X13070Y34120D01*
Y33620D02*
Y34120D01*
X12820Y33370D02*
X13070Y33620D01*
X11320Y33370D02*
X12820D01*
X11070Y33620D02*
X11320Y33370D01*
X11070Y33620D02*
Y34120D01*
X11320Y34370D01*
X12820D01*
Y35370D02*
X13070Y35120D01*
Y34620D02*
Y35120D01*
X12820Y34370D02*
X13070Y34620D01*
X11320Y34370D02*
X12820D01*
X11070Y34620D02*
X11320Y34370D01*
X11070Y34620D02*
Y35120D01*
X11320Y35370D01*
X12820D01*
X58725Y6120D02*
X58632Y6275D01*
X58725Y6399D01*
X58663Y6522D01*
X60085Y9472D02*
X59932Y9872D01*
X59780Y9472D01*
X59837Y9606D02*
X60028D01*
X60464Y9777D02*
X60445Y9815D01*
X60407Y9853D01*
X60368Y9872D01*
X60292D01*
X60254Y9853D01*
X60216Y9815D01*
X60197Y9777D01*
X60178Y9720D01*
Y9625D01*
X60197Y9568D01*
X60216Y9530D01*
X60254Y9491D01*
X60292Y9472D01*
X60368D01*
X60407Y9491D01*
X60445Y9530D01*
X60464Y9568D01*
X60747Y9815D02*
Y9472D01*
X60576Y9644D02*
X60919D01*
X60105Y10600D02*
X59952Y11000D01*
X59800Y10600D01*
X59857Y10733D02*
X60048D01*
X60484Y10905D02*
X60465Y10943D01*
X60427Y10981D01*
X60388Y11000D01*
X60312D01*
X60274Y10981D01*
X60236Y10943D01*
X60217Y10905D01*
X60198Y10848D01*
Y10752D01*
X60217Y10695D01*
X60236Y10657D01*
X60274Y10619D01*
X60312Y10600D01*
X60388D01*
X60427Y10619D01*
X60465Y10657D01*
X60484Y10695D01*
X60596Y10771D02*
X60939D01*
X28252Y7764D02*
Y7394D01*
Y7764D02*
X28411D01*
X28463Y7746D01*
X28481Y7729D01*
X28499Y7693D01*
Y7658D01*
X28481Y7623D01*
X28463Y7605D01*
X28411Y7588D01*
X28252D01*
X28375D02*
X28499Y7394D01*
X28810Y7764D02*
X28581D01*
Y7394D01*
X28810D01*
X28581Y7588D02*
X28722D01*
X28872Y7764D02*
Y7394D01*
X29084D01*
X29406D02*
X29265Y7764D01*
X29124Y7394D01*
X29177Y7517D02*
X29353D01*
X29492Y7764D02*
X29633Y7588D01*
Y7394D01*
X29774Y7764D02*
X29633Y7588D01*
X28252Y7080D02*
Y6710D01*
X28330Y7080D02*
Y6710D01*
Y7080D02*
X28576Y6710D01*
Y7080D02*
Y6710D01*
X28678Y6886D02*
X28837D01*
X28890Y6904D01*
X28907Y6921D01*
X28925Y6957D01*
Y7009D01*
X28907Y7045D01*
X28890Y7062D01*
X28837Y7080D01*
X28678D01*
Y6710D01*
X29008Y7080D02*
Y6816D01*
X29025Y6763D01*
X29061Y6728D01*
X29113Y6710D01*
X29149D01*
X29202Y6728D01*
X29237Y6763D01*
X29254Y6816D01*
Y7080D01*
X29480D02*
Y6710D01*
X29357Y7080D02*
X29603D01*
X38000Y16554D02*
Y16184D01*
Y16554D02*
X38159D01*
X38211Y16536D01*
X38229Y16519D01*
X38247Y16483D01*
Y16448D01*
X38229Y16413D01*
X38211Y16395D01*
X38159Y16378D01*
X38000D02*
X38159D01*
X38211Y16360D01*
X38229Y16342D01*
X38247Y16307D01*
Y16254D01*
X38229Y16219D01*
X38211Y16202D01*
X38159Y16184D01*
X38000D01*
X38611D02*
X38470Y16554D01*
X38329Y16184D01*
X38382Y16307D02*
X38558D01*
X38821Y16554D02*
Y16184D01*
X38698Y16554D02*
X38944D01*
X39112D02*
Y16184D01*
X38988Y16554D02*
X39235D01*
X39508D02*
X39279D01*
Y16184D01*
X39508D01*
X39279Y16378D02*
X39420D01*
X39570Y16554D02*
Y16184D01*
Y16554D02*
X39728D01*
X39781Y16536D01*
X39799Y16519D01*
X39816Y16483D01*
Y16448D01*
X39799Y16413D01*
X39781Y16395D01*
X39728Y16378D01*
X39570D01*
X39693D02*
X39816Y16184D01*
X39899Y16554D02*
X40040Y16378D01*
Y16184D01*
X40181Y16554D02*
X40040Y16378D01*
X38106Y15870D02*
X38070Y15852D01*
X38035Y15817D01*
X38018Y15782D01*
X38000Y15729D01*
Y15641D01*
X38018Y15588D01*
X38035Y15553D01*
X38070Y15518D01*
X38106Y15500D01*
X38176D01*
X38211Y15518D01*
X38247Y15553D01*
X38264Y15588D01*
X38282Y15641D01*
Y15729D01*
X38264Y15782D01*
X38247Y15817D01*
X38211Y15852D01*
X38176Y15870D01*
X38106D01*
X38368D02*
Y15606D01*
X38386Y15553D01*
X38421Y15518D01*
X38474Y15500D01*
X38509D01*
X38562Y15518D01*
X38597Y15553D01*
X38615Y15606D01*
Y15870D01*
X38840D02*
Y15500D01*
X38717Y15870D02*
X38964D01*
X39008Y15676D02*
X39166D01*
X39219Y15694D01*
X39237Y15711D01*
X39254Y15747D01*
Y15799D01*
X39237Y15835D01*
X39219Y15852D01*
X39166Y15870D01*
X39008D01*
Y15500D01*
X39337Y15870D02*
Y15606D01*
X39355Y15553D01*
X39390Y15518D01*
X39443Y15500D01*
X39478D01*
X39531Y15518D01*
X39566Y15553D01*
X39584Y15606D01*
Y15870D01*
X39809D02*
Y15500D01*
X39686Y15870D02*
X39932D01*
X58795Y4110D02*
X58702Y4265D01*
X58795Y4389D01*
X58733Y4512D01*
X1954Y46200D02*
X1926Y46257D01*
X1840Y46343D01*
X2440D01*
X56314Y6268D02*
X56850D01*
X56582Y6000D02*
Y6536D01*
X56598Y4540D02*
Y4004D01*
X3500Y27700D02*
Y28300D01*
X3800D01*
X3900Y28200D01*
Y28000D01*
X3800Y27900D01*
X3500D01*
X4100Y27700D02*
X4300D01*
X4200D01*
Y28300D01*
X4100Y28200D01*
X55480Y17210D02*
Y16840D01*
X55665D01*
X55727Y16902D01*
Y17148D01*
X55665Y17210D01*
X55480D01*
X55850D02*
X56096D01*
Y17148D01*
X55850Y16902D01*
Y16840D01*
X2160Y8000D02*
Y7630D01*
X2345D01*
X2407Y7692D01*
Y7938D01*
X2345Y8000D01*
X2160D01*
X2776D02*
X2653Y7938D01*
X2530Y7815D01*
Y7692D01*
X2592Y7630D01*
X2715D01*
X2776Y7692D01*
Y7753D01*
X2715Y7815D01*
X2530D01*
X41867Y31950D02*
Y31683D01*
X42000Y31550D01*
X42133Y31683D01*
Y31950D01*
X42266D02*
X42400D01*
X42333D01*
Y31550D01*
X42266D01*
X42400D01*
X42600D02*
Y31950D01*
X42866Y31550D01*
Y31950D01*
X42466Y29067D02*
X42200D01*
Y28867D01*
X42333Y28934D01*
X42400D01*
X42466Y28867D01*
Y28734D01*
X42400Y28667D01*
X42266D01*
X42200Y28734D01*
X42600Y29067D02*
Y28801D01*
X42733Y28667D01*
X42866Y28801D01*
Y29067D01*
X41400Y27600D02*
Y27200D01*
X41600D01*
X41667Y27267D01*
Y27333D01*
X41600Y27400D01*
X41400D01*
X41600D01*
X41667Y27467D01*
Y27533D01*
X41600Y27600D01*
X41400D01*
X41800Y27200D02*
Y27467D01*
X41933Y27600D01*
X42066Y27467D01*
Y27200D01*
Y27400D01*
X41800D01*
X42200Y27600D02*
X42466D01*
X42333D01*
Y27200D01*
X42600Y27600D02*
X42866D01*
X42733D01*
Y27200D01*
X41867Y30100D02*
X42000D01*
X41933D01*
Y30500D01*
X41867Y30433D01*
X42466Y30100D02*
X42200D01*
X42466Y30367D01*
Y30433D01*
X42400Y30500D01*
X42266D01*
X42200Y30433D01*
X42600Y30500D02*
Y30233D01*
X42733Y30100D01*
X42866Y30233D01*
Y30500D01*
X26120Y27575D02*
Y27875D01*
X26045Y27950D01*
X25895D01*
X25820Y27875D01*
Y27575D01*
X25895Y27500D01*
X26045D01*
X25970Y27650D02*
X26120Y27500D01*
X26045D02*
X26120Y27575D01*
X26270Y27950D02*
Y27500D01*
X26420Y27650D01*
X26570Y27500D01*
Y27950D01*
X30227Y27520D02*
Y27820D01*
X30377Y27970D01*
X30527Y27820D01*
Y27520D01*
Y27745D01*
X30227D01*
X30977Y27895D02*
X30902Y27970D01*
X30752D01*
X30677Y27895D01*
Y27595D01*
X30752Y27520D01*
X30902D01*
X30977Y27595D01*
X31576Y27520D02*
Y27970D01*
X31801D01*
X31876Y27895D01*
Y27745D01*
X31801Y27670D01*
X31576D01*
X32026Y27970D02*
Y27520D01*
X32176Y27670D01*
X32326Y27520D01*
Y27970D01*
X32476Y27520D02*
Y27970D01*
X32701D01*
X32776Y27895D01*
Y27745D01*
X32701Y27670D01*
X32476D01*
X32626D02*
X32776Y27520D01*
X13891Y35717D02*
Y36050D01*
X13807Y36133D01*
X13641D01*
X13557Y36050D01*
Y35717D01*
X13641Y35633D01*
X13807D01*
X13724Y35800D02*
X13891Y35633D01*
X13807D02*
X13891Y35717D01*
X14057Y36133D02*
Y35633D01*
X14224Y35800D01*
X14391Y35633D01*
Y36133D01*
X15057Y35633D02*
Y36133D01*
X15307D01*
X15390Y36050D01*
Y35883D01*
X15307Y35800D01*
X15057D01*
X15557Y36133D02*
Y35633D01*
X15723Y35800D01*
X15890Y35633D01*
Y36133D01*
X16057Y35633D02*
Y36133D01*
X16307D01*
X16390Y36050D01*
Y35883D01*
X16307Y35800D01*
X16057D01*
X16223D02*
X16390Y35633D01*
X13500Y35170D02*
X13833D01*
X13667D01*
Y34670D01*
X14333Y35170D02*
X14000D01*
Y34670D01*
X14333D01*
X14000Y34920D02*
X14166D01*
X14833Y35087D02*
X14750Y35170D01*
X14583D01*
X14500Y35087D01*
Y35003D01*
X14583Y34920D01*
X14750D01*
X14833Y34837D01*
Y34753D01*
X14750Y34670D01*
X14583D01*
X14500Y34753D01*
X15000Y35170D02*
X15333D01*
X15166D01*
Y34670D01*
X15999Y35170D02*
X16166D01*
X16083D01*
Y34670D01*
X15999D01*
X16166D01*
X16416D02*
Y35170D01*
X16749Y34670D01*
Y35170D01*
X16916D02*
Y34670D01*
X17165D01*
X17249Y34753D01*
Y35087D01*
X17165Y35170D01*
X16916D01*
X13557Y32653D02*
Y33153D01*
X13807D01*
X13891Y33070D01*
Y32903D01*
X13807Y32820D01*
X13557D01*
X13724D02*
X13891Y32653D01*
X14391Y33153D02*
X14057D01*
Y32653D01*
X14391D01*
X14057Y32903D02*
X14224D01*
X14890Y33070D02*
X14807Y33153D01*
X14640D01*
X14557Y33070D01*
Y32986D01*
X14640Y32903D01*
X14807D01*
X14890Y32820D01*
Y32737D01*
X14807Y32653D01*
X14640D01*
X14557Y32737D01*
X15390Y33153D02*
X15057D01*
Y32653D01*
X15390D01*
X15057Y32903D02*
X15224D01*
X15557Y33153D02*
X15890D01*
X15723D01*
Y32653D01*
X13557Y33637D02*
Y34137D01*
X13807D01*
X13891Y34053D01*
Y33887D01*
X13807Y33803D01*
X13557D01*
X14057Y34137D02*
Y33637D01*
X14224Y33803D01*
X14391Y33637D01*
Y34137D01*
X14557Y33637D02*
Y34137D01*
X14807D01*
X14890Y34053D01*
Y33887D01*
X14807Y33803D01*
X14557D01*
X14724D02*
X14890Y33637D01*
X15557Y34137D02*
X15723D01*
X15640D01*
Y33637D01*
X15557D01*
X15723D01*
X15973D02*
Y34137D01*
X16307Y33637D01*
Y34137D01*
X16473D02*
Y33637D01*
X16723D01*
X16806Y33720D01*
Y34053D01*
X16723Y34137D01*
X16473D01*
D15*
X31100Y22100D02*
X33100D01*
X26700Y22074D02*
X28700D01*
X3500Y300D02*
Y27300D01*
Y300D02*
X24500D01*
X3500Y27300D02*
X24500D01*
Y300D02*
Y25800D01*
Y27300D01*
D16*
X49103Y9070D02*
X49497D01*
X49103Y9739D02*
X49497D01*
X49103Y13245D02*
X49497D01*
X49103Y13915D02*
X49497D01*
X59053Y15335D02*
X59447D01*
X59053Y14665D02*
X59447D01*
X59143Y19415D02*
X59537D01*
X59143Y18745D02*
X59537D01*
X46093Y27935D02*
X46487D01*
X46093Y27265D02*
X46487D01*
X46093Y29335D02*
X46487D01*
X46093Y28665D02*
X46487D01*
X46093Y32135D02*
X46487D01*
X46093Y31465D02*
X46487D01*
X46093Y30735D02*
X46487D01*
X46093Y30065D02*
X46487D01*
X34576Y16702D02*
Y17332D01*
X30639Y16702D02*
Y17332D01*
X34576D01*
X30639Y16702D02*
X34576D01*
X34403Y6475D02*
X34797D01*
X34403Y5805D02*
X34797D01*
X36906Y6407D02*
X37220D01*
Y6092D02*
Y6407D01*
X36906Y5226D02*
X37220D01*
Y5541D01*
X36811Y2782D02*
X37204D01*
X36811Y3451D02*
X37204D01*
X36811Y3982D02*
X37204D01*
X36811Y4651D02*
X37204D01*
X40143Y6431D02*
Y6746D01*
X40458D01*
X41324Y6431D02*
Y6746D01*
X41009D02*
X41324D01*
X44273Y6125D02*
X44667D01*
X44273Y6795D02*
X44667D01*
X40300Y5151D02*
X40694D01*
X40300Y4482D02*
X40694D01*
X40261Y3951D02*
X40694D01*
X40261Y3282D02*
X40694D01*
X40261Y2082D02*
X40694D01*
X40261Y2751D02*
X40694D01*
X40261Y882D02*
X40694D01*
X40261Y1551D02*
X40694D01*
X1835Y15803D02*
Y16197D01*
X1165Y15803D02*
Y16197D01*
X43357Y903D02*
X44381D01*
X43357Y3541D02*
X44381D01*
Y903D02*
Y3541D01*
X43357Y903D02*
Y3541D01*
X36887Y25537D02*
Y33537D01*
X38887Y25537D02*
Y33537D01*
X36887D02*
X38887D01*
X36887Y25537D02*
X38887D01*
X27123Y1470D02*
Y1864D01*
X27792Y1470D02*
Y1864D01*
X28315Y4120D02*
Y4514D01*
X28985Y4120D02*
Y4514D01*
X29241Y666D02*
Y2634D01*
X29949Y666D02*
Y2634D01*
X29241D02*
X29949D01*
X29241Y666D02*
X29949D01*
X30892Y4120D02*
Y4514D01*
X30223Y4120D02*
Y4514D01*
X62830Y6272D02*
X64760Y6280D01*
X60602Y6272D02*
X61780D01*
X60602Y4820D02*
Y6272D01*
X60602Y2728D02*
X64760D01*
X60602Y4010D02*
X60602Y2728D01*
X59334Y9260D02*
Y11260D01*
X55964D02*
X59334D01*
X55964Y9260D02*
Y11260D01*
Y9260D02*
X59334D01*
X1590Y52590D02*
X2590D01*
X1590Y46590D02*
X2590D01*
X1590D02*
Y52590D01*
X2590Y46590D02*
Y52590D01*
X4191Y47165D02*
Y52515D01*
X12443Y47165D02*
Y52515D01*
X4191Y47165D02*
X7813D01*
X4191Y52515D02*
X7813D01*
X8679Y47165D02*
X12443D01*
X8679Y52515D02*
X12443D01*
D17*
X5270Y15460D02*
Y15120D01*
X5438Y15460D02*
X5406Y15444D01*
X5374Y15411D01*
X5357Y15379D01*
X5341Y15330D01*
Y15250D01*
X5357Y15201D01*
X5374Y15169D01*
X5406Y15136D01*
X5438Y15120D01*
X5503D01*
X5535Y15136D01*
X5568Y15169D01*
X5584Y15201D01*
X5600Y15250D01*
Y15330D01*
X5584Y15379D01*
X5568Y15411D01*
X5535Y15444D01*
X5503Y15460D01*
X5438D01*
X5680D02*
Y15120D01*
Y15460D02*
X5825D01*
X5874Y15444D01*
X5890Y15428D01*
X5906Y15395D01*
Y15363D01*
X5890Y15330D01*
X5874Y15314D01*
X5825Y15298D01*
X5680D01*
X5793D02*
X5906Y15120D01*
X6193Y15460D02*
X5982D01*
Y15120D01*
X6193D01*
X5982Y15298D02*
X6112D01*
X6249Y15460D02*
Y15120D01*
Y15460D02*
X6460D01*
X6249Y15298D02*
X6379D01*
X22097Y20061D02*
X22064Y20094D01*
X22016Y20110D01*
X21951D01*
X21902Y20094D01*
X21870Y20061D01*
Y20029D01*
X21886Y19997D01*
X21902Y19980D01*
X21935Y19964D01*
X22032Y19932D01*
X22064Y19916D01*
X22080Y19899D01*
X22097Y19867D01*
Y19819D01*
X22064Y19786D01*
X22016Y19770D01*
X21951D01*
X21902Y19786D01*
X21870Y19819D01*
X22173Y20110D02*
Y19770D01*
Y20110D02*
X22286D01*
X22335Y20094D01*
X22367Y20061D01*
X22383Y20029D01*
X22399Y19980D01*
Y19899D01*
X22383Y19851D01*
X22367Y19819D01*
X22335Y19786D01*
X22286Y19770D01*
X22173D01*
X22734D02*
X22605Y20110D01*
X22475Y19770D01*
X22524Y19883D02*
X22686D01*
X22456Y8361D02*
X22440Y8394D01*
X22391Y8410D01*
X22359D01*
X22310Y8394D01*
X22278Y8345D01*
X22261Y8264D01*
Y8183D01*
X22278Y8119D01*
X22310Y8086D01*
X22359Y8070D01*
X22375D01*
X22423Y8086D01*
X22456Y8119D01*
X22472Y8167D01*
Y8183D01*
X22456Y8232D01*
X22423Y8264D01*
X22375Y8280D01*
X22359D01*
X22310Y8264D01*
X22278Y8232D01*
X22261Y8183D01*
X22480Y9410D02*
X22318Y9070D01*
X22253Y9410D02*
X22480D01*
X5513Y2120D02*
X5383Y2460D01*
X5254Y2120D01*
X5302Y2233D02*
X5464D01*
X5786Y2460D02*
X5624D01*
X5608Y2314D01*
X5624Y2330D01*
X5673Y2347D01*
X5721D01*
X5770Y2330D01*
X5802Y2298D01*
X5818Y2250D01*
Y2217D01*
X5802Y2169D01*
X5770Y2136D01*
X5721Y2120D01*
X5673D01*
X5624Y2136D01*
X5608Y2152D01*
X5592Y2185D01*
X22407Y6460D02*
X22245Y6233D01*
X22488D01*
X22407Y6460D02*
Y6120D01*
X22113Y17029D02*
X22097Y17061D01*
X22064Y17094D01*
X22032Y17110D01*
X21967D01*
X21935Y17094D01*
X21902Y17061D01*
X21886Y17029D01*
X21870Y16980D01*
Y16899D01*
X21886Y16851D01*
X21902Y16819D01*
X21935Y16786D01*
X21967Y16770D01*
X22032D01*
X22064Y16786D01*
X22097Y16819D01*
X22113Y16851D01*
Y16899D01*
X22032D02*
X22113D01*
X22190Y17110D02*
Y16770D01*
Y17110D02*
X22417Y16770D01*
Y17110D02*
Y16770D01*
X22511Y17110D02*
Y16770D01*
Y17110D02*
X22624D01*
X22673Y17094D01*
X22705Y17061D01*
X22721Y17029D01*
X22738Y16980D01*
Y16899D01*
X22721Y16851D01*
X22705Y16819D01*
X22673Y16786D01*
X22624Y16770D01*
X22511D01*
X22097Y19061D02*
X22064Y19094D01*
X22016Y19110D01*
X21951D01*
X21902Y19094D01*
X21870Y19061D01*
Y19029D01*
X21886Y18997D01*
X21902Y18980D01*
X21935Y18964D01*
X22032Y18932D01*
X22064Y18916D01*
X22080Y18900D01*
X22097Y18867D01*
Y18819D01*
X22064Y18786D01*
X22016Y18770D01*
X21951D01*
X21902Y18786D01*
X21870Y18819D01*
X22415Y19029D02*
X22399Y19061D01*
X22367Y19094D01*
X22335Y19110D01*
X22270D01*
X22237Y19094D01*
X22205Y19061D01*
X22189Y19029D01*
X22173Y18980D01*
Y18900D01*
X22189Y18851D01*
X22205Y18819D01*
X22237Y18786D01*
X22270Y18770D01*
X22335D01*
X22367Y18786D01*
X22399Y18819D01*
X22415Y18851D01*
X22511Y19110D02*
Y18770D01*
X22705D01*
X21703Y3474D02*
Y3134D01*
X21590Y3474D02*
X21816D01*
X21857D02*
X22083Y3134D01*
Y3474D02*
X21857Y3134D01*
X22160Y3279D02*
X22451D01*
X22551Y3425D02*
X22810Y3279D01*
X22551Y3134D01*
X21574Y2474D02*
Y2134D01*
Y2474D02*
X21719D01*
X21768Y2457D01*
X21784Y2441D01*
X21800Y2409D01*
Y2376D01*
X21784Y2344D01*
X21768Y2328D01*
X21719Y2312D01*
X21574D01*
X21687D02*
X21800Y2134D01*
X21876Y2474D02*
X22103Y2134D01*
Y2474D02*
X21876Y2134D01*
X22438Y2425D02*
X22179Y2279D01*
X22438Y2134D01*
X22535Y2279D02*
X22826D01*
X5513Y5120D02*
X5383Y5460D01*
X5254Y5120D01*
X5302Y5233D02*
X5464D01*
X5608Y5379D02*
Y5395D01*
X5624Y5428D01*
X5640Y5444D01*
X5673Y5460D01*
X5738D01*
X5770Y5444D01*
X5786Y5428D01*
X5802Y5395D01*
Y5363D01*
X5786Y5330D01*
X5754Y5282D01*
X5592Y5120D01*
X5818D01*
X22286Y5510D02*
X22464D01*
X22367Y5380D01*
X22415D01*
X22448Y5364D01*
X22464Y5348D01*
X22480Y5300D01*
Y5267D01*
X22464Y5219D01*
X22431Y5186D01*
X22383Y5170D01*
X22334D01*
X22286Y5186D01*
X22270Y5202D01*
X22253Y5235D01*
X22270Y4379D02*
Y4395D01*
X22286Y4428D01*
X22302Y4444D01*
X22334Y4460D01*
X22399D01*
X22431Y4444D01*
X22448Y4428D01*
X22464Y4395D01*
Y4363D01*
X22448Y4330D01*
X22415Y4282D01*
X22253Y4120D01*
X22480D01*
X22129Y15945D02*
X22161Y15961D01*
X22210Y16010D01*
Y15670D01*
X22410Y16010D02*
X22588D01*
X22491Y15880D01*
X22540D01*
X22572Y15864D01*
X22588Y15848D01*
X22605Y15799D01*
Y15767D01*
X22588Y15719D01*
X22556Y15686D01*
X22508Y15670D01*
X22459D01*
X22410Y15686D01*
X22394Y15702D01*
X22378Y15735D01*
X22129Y17770D02*
X21999Y18110D01*
X21870Y17770D01*
X21919Y17883D02*
X22080D01*
X22208Y18110D02*
Y17770D01*
Y18110D02*
X22354D01*
X22403Y18094D01*
X22419Y18078D01*
X22435Y18045D01*
Y18013D01*
X22419Y17980D01*
X22403Y17964D01*
X22354Y17948D01*
X22208D01*
X22322D02*
X22435Y17770D01*
X22721Y18110D02*
X22511D01*
Y17770D01*
X22721D01*
X22511Y17948D02*
X22641D01*
X22778Y18110D02*
Y17770D01*
Y18110D02*
X22989D01*
X22778Y17948D02*
X22908D01*
X5270Y9460D02*
X5400Y9120D01*
X5529Y9460D02*
X5400Y9120D01*
X5573Y9460D02*
Y9120D01*
X5644Y9460D02*
Y9120D01*
Y9460D02*
X5871Y9120D01*
Y9460D02*
Y9120D01*
X22334Y11010D02*
X22286Y10994D01*
X22270Y10961D01*
Y10929D01*
X22286Y10897D01*
X22318Y10880D01*
X22383Y10864D01*
X22431Y10848D01*
X22464Y10816D01*
X22480Y10783D01*
Y10735D01*
X22464Y10702D01*
X22448Y10686D01*
X22399Y10670D01*
X22334D01*
X22286Y10686D01*
X22270Y10702D01*
X22253Y10735D01*
Y10783D01*
X22270Y10816D01*
X22302Y10848D01*
X22350Y10864D01*
X22415Y10880D01*
X22448Y10897D01*
X22464Y10929D01*
Y10961D01*
X22448Y10994D01*
X22399Y11010D01*
X22334D01*
X5585Y6120D02*
X5456Y6460D01*
X5326Y6120D01*
X5375Y6233D02*
X5537D01*
X5665Y6395D02*
X5697Y6411D01*
X5746Y6460D01*
Y6120D01*
X5513Y4120D02*
X5383Y4460D01*
X5254Y4120D01*
X5302Y4233D02*
X5464D01*
X5624Y4460D02*
X5802D01*
X5705Y4330D01*
X5754D01*
X5786Y4314D01*
X5802Y4298D01*
X5818Y4250D01*
Y4217D01*
X5802Y4169D01*
X5770Y4136D01*
X5721Y4120D01*
X5673D01*
X5624Y4136D01*
X5608Y4152D01*
X5592Y4185D01*
X5513Y10379D02*
X5497Y10411D01*
X5464Y10444D01*
X5432Y10460D01*
X5367D01*
X5335Y10444D01*
X5302Y10411D01*
X5286Y10379D01*
X5270Y10330D01*
Y10250D01*
X5286Y10201D01*
X5302Y10169D01*
X5335Y10136D01*
X5367Y10120D01*
X5432D01*
X5464Y10136D01*
X5497Y10169D01*
X5513Y10201D01*
Y10250D01*
X5432D02*
X5513D01*
X5591Y10460D02*
Y10120D01*
Y10460D02*
X5817Y10120D01*
Y10460D02*
Y10120D01*
X5911Y10460D02*
Y10120D01*
Y10460D02*
X6024D01*
X6073Y10444D01*
X6105Y10411D01*
X6121Y10379D01*
X6138Y10330D01*
Y10250D01*
X6121Y10201D01*
X6105Y10169D01*
X6073Y10136D01*
X6024Y10120D01*
X5911D01*
X5504Y3120D02*
X5375Y3460D01*
X5245Y3120D01*
X5294Y3233D02*
X5456D01*
X5746Y3460D02*
X5584Y3233D01*
X5827D01*
X5746Y3460D02*
Y3120D01*
X22173Y13995D02*
X22205Y14011D01*
X22254Y14060D01*
Y13720D01*
X22422Y13995D02*
X22455Y14011D01*
X22503Y14060D01*
Y13720D01*
X5513Y7120D02*
X5383Y7460D01*
X5254Y7120D01*
X5302Y7233D02*
X5464D01*
X5689Y7460D02*
X5640Y7444D01*
X5608Y7395D01*
X5592Y7314D01*
Y7266D01*
X5608Y7185D01*
X5640Y7136D01*
X5689Y7120D01*
X5721D01*
X5770Y7136D01*
X5802Y7185D01*
X5818Y7266D01*
Y7314D01*
X5802Y7395D01*
X5770Y7444D01*
X5721Y7460D01*
X5689D01*
X22129Y14945D02*
X22161Y14961D01*
X22210Y15010D01*
Y14670D01*
X22394Y14929D02*
Y14945D01*
X22410Y14978D01*
X22427Y14994D01*
X22459Y15010D01*
X22524D01*
X22556Y14994D01*
X22572Y14978D01*
X22588Y14945D01*
Y14913D01*
X22572Y14880D01*
X22540Y14832D01*
X22378Y14670D01*
X22605D01*
X5514Y12460D02*
X5352D01*
X5336Y12314D01*
X5352Y12330D01*
X5401Y12347D01*
X5450D01*
X5498Y12330D01*
X5530Y12298D01*
X5547Y12249D01*
Y12217D01*
X5530Y12169D01*
X5498Y12136D01*
X5450Y12120D01*
X5401D01*
X5352Y12136D01*
X5336Y12152D01*
X5320Y12185D01*
X5623Y12460D02*
X5752Y12120D01*
X5882Y12460D02*
X5752Y12120D01*
X5302Y13460D02*
X5480D01*
X5383Y13330D01*
X5432D01*
X5464Y13314D01*
X5480Y13298D01*
X5497Y13249D01*
Y13217D01*
X5480Y13169D01*
X5448Y13136D01*
X5400Y13120D01*
X5351D01*
X5302Y13136D01*
X5286Y13152D01*
X5270Y13185D01*
X5573Y13460D02*
X5702Y13120D01*
X5832Y13460D02*
X5702Y13120D01*
X5908Y13460D02*
X6086D01*
X5989Y13330D01*
X6037D01*
X6070Y13314D01*
X6086Y13298D01*
X6102Y13249D01*
Y13217D01*
X6086Y13169D01*
X6053Y13136D01*
X6005Y13120D01*
X5956D01*
X5908Y13136D01*
X5892Y13152D01*
X5875Y13185D01*
X22448Y7410D02*
X22286D01*
X22270Y7264D01*
X22286Y7280D01*
X22334Y7297D01*
X22383D01*
X22431Y7280D01*
X22464Y7248D01*
X22480Y7200D01*
Y7167D01*
X22464Y7119D01*
X22431Y7086D01*
X22383Y7070D01*
X22334D01*
X22286Y7086D01*
X22270Y7102D01*
X22253Y7135D01*
X5270Y14510D02*
Y14170D01*
Y14510D02*
X5416D01*
X5464Y14494D01*
X5480Y14478D01*
X5497Y14445D01*
Y14413D01*
X5480Y14380D01*
X5464Y14364D01*
X5416Y14348D01*
X5270D01*
X5383D02*
X5497Y14170D01*
X5783Y14510D02*
X5573D01*
Y14170D01*
X5783D01*
X5573Y14348D02*
X5702D01*
X6066Y14461D02*
X6034Y14494D01*
X5985Y14510D01*
X5921D01*
X5872Y14494D01*
X5840Y14461D01*
Y14429D01*
X5856Y14397D01*
X5872Y14380D01*
X5905Y14364D01*
X6002Y14332D01*
X6034Y14316D01*
X6050Y14299D01*
X6066Y14267D01*
Y14219D01*
X6034Y14186D01*
X5985Y14170D01*
X5921D01*
X5872Y14186D01*
X5840Y14219D01*
X6353Y14510D02*
X6142D01*
Y14170D01*
X6353D01*
X6142Y14348D02*
X6272D01*
X6523Y14510D02*
Y14170D01*
X6410Y14510D02*
X6636D01*
X5513Y11329D02*
X5497Y11361D01*
X5464Y11394D01*
X5432Y11410D01*
X5367D01*
X5335Y11394D01*
X5302Y11361D01*
X5286Y11329D01*
X5270Y11280D01*
Y11200D01*
X5286Y11151D01*
X5302Y11119D01*
X5335Y11086D01*
X5367Y11070D01*
X5432D01*
X5464Y11086D01*
X5497Y11119D01*
X5513Y11151D01*
Y11200D01*
X5432D02*
X5513D01*
X5591Y11410D02*
Y11070D01*
Y11410D02*
X5817Y11070D01*
Y11410D02*
Y11070D01*
X5911Y11410D02*
Y11070D01*
Y11410D02*
X6024D01*
X6073Y11394D01*
X6105Y11361D01*
X6121Y11329D01*
X6138Y11280D01*
Y11200D01*
X6121Y11151D01*
X6105Y11119D01*
X6073Y11086D01*
X6024Y11070D01*
X5911D01*
X22129Y13045D02*
X22161Y13061D01*
X22210Y13110D01*
Y12770D01*
X22475Y13110D02*
X22427Y13094D01*
X22394Y13045D01*
X22378Y12964D01*
Y12916D01*
X22394Y12835D01*
X22427Y12786D01*
X22475Y12770D01*
X22508D01*
X22556Y12786D01*
X22588Y12835D01*
X22605Y12916D01*
Y12964D01*
X22588Y13045D01*
X22556Y13094D01*
X22508Y13110D01*
X22475D01*
X22472Y11947D02*
X22456Y11898D01*
X22423Y11866D01*
X22375Y11849D01*
X22359D01*
X22310Y11866D01*
X22278Y11898D01*
X22261Y11947D01*
Y11963D01*
X22278Y12011D01*
X22310Y12044D01*
X22359Y12060D01*
X22375D01*
X22423Y12044D01*
X22456Y12011D01*
X22472Y11947D01*
Y11866D01*
X22456Y11785D01*
X22423Y11736D01*
X22375Y11720D01*
X22342D01*
X22294Y11736D01*
X22278Y11769D01*
X33939Y21279D02*
Y21600D01*
X34100Y21439D02*
X33779D01*
X29539Y21252D02*
Y21574D01*
X29700Y21413D02*
X29379D01*
X43200Y32550D02*
Y32200D01*
X43433D01*
X43783Y32550D02*
X43550D01*
Y32200D01*
X43783D01*
X43550Y32375D02*
X43667D01*
X43900Y32550D02*
Y32200D01*
X44075D01*
X44133Y32258D01*
Y32492D01*
X44075Y32550D01*
X43900D01*
X44425Y32200D02*
Y32550D01*
X44250Y32375D01*
X44483D01*
X43250Y29700D02*
Y29350D01*
X43483D01*
X43833Y29700D02*
X43600D01*
Y29350D01*
X43833D01*
X43600Y29525D02*
X43717D01*
X43950Y29700D02*
Y29350D01*
X44125D01*
X44183Y29408D01*
Y29642D01*
X44125Y29700D01*
X43950D01*
X44300Y29642D02*
X44358Y29700D01*
X44475D01*
X44533Y29642D01*
Y29583D01*
X44475Y29525D01*
X44416D01*
X44475D01*
X44533Y29467D01*
Y29408D01*
X44475Y29350D01*
X44358D01*
X44300Y29408D01*
X43250Y28250D02*
Y27900D01*
X43483D01*
X43833Y28250D02*
X43600D01*
Y27900D01*
X43833D01*
X43600Y28075D02*
X43717D01*
X43950Y28250D02*
Y27900D01*
X44125D01*
X44183Y27958D01*
Y28192D01*
X44125Y28250D01*
X43950D01*
X44533Y27900D02*
X44300D01*
X44533Y28133D01*
Y28192D01*
X44475Y28250D01*
X44358D01*
X44300Y28192D01*
X43250Y31150D02*
Y30800D01*
X43483D01*
X43833Y31150D02*
X43600D01*
Y30800D01*
X43833D01*
X43600Y30975D02*
X43717D01*
X43950Y31150D02*
Y30800D01*
X44125D01*
X44183Y30858D01*
Y31092D01*
X44125Y31150D01*
X43950D01*
X44300Y30800D02*
X44416D01*
X44358D01*
Y31150D01*
X44300Y31092D01*
D18*
X11470Y36801D02*
X11813D01*
X12591Y37013D02*
Y36670D01*
X12420Y36841D02*
X12763D01*
D19*
X52524Y5534D02*
Y5134D01*
X52724Y5334D02*
X52324D01*
X38327Y33760D02*
X38494D01*
X38411D01*
Y34260D01*
X38327Y34177D01*
X54467Y8873D02*
X54200D01*
Y8673D01*
X54333D01*
X54200D01*
Y8473D01*
X54600D02*
X54733D01*
X54667D01*
Y8873D01*
X54600Y8806D01*
X45860Y13130D02*
Y12883D01*
X45983Y12760D01*
X46107Y12883D01*
Y13130D01*
X46230Y12760D02*
Y13130D01*
X46415D01*
X46476Y13068D01*
Y12945D01*
X46415Y12883D01*
X46230D01*
X46353D02*
X46476Y12760D01*
X46600Y13068D02*
X46661Y13130D01*
X46785D01*
X46846Y13068D01*
Y13007D01*
X46785Y12945D01*
X46723D01*
X46785D01*
X46846Y12883D01*
Y12822D01*
X46785Y12760D01*
X46661D01*
X46600Y12822D01*
X49167Y8808D02*
X49105Y8870D01*
X48982D01*
X48920Y8808D01*
Y8562D01*
X48982Y8500D01*
X49105D01*
X49167Y8562D01*
X49290Y8808D02*
X49352Y8870D01*
X49475D01*
X49536Y8808D01*
Y8747D01*
X49475Y8685D01*
X49536Y8623D01*
Y8562D01*
X49475Y8500D01*
X49352D01*
X49290Y8562D01*
Y8623D01*
X49352Y8685D01*
X49290Y8747D01*
Y8808D01*
X49352Y8685D02*
X49475D01*
X49307Y14368D02*
X49245Y14430D01*
X49122D01*
X49060Y14368D01*
Y14122D01*
X49122Y14060D01*
X49245D01*
X49307Y14122D01*
X49430Y14430D02*
X49676D01*
Y14368D01*
X49430Y14122D01*
Y14060D01*
X61720Y18610D02*
Y18363D01*
X61843Y18240D01*
X61967Y18363D01*
Y18610D01*
X62090Y18240D02*
Y18610D01*
X62275D01*
X62336Y18548D01*
Y18425D01*
X62275Y18363D01*
X62090D01*
X62213D02*
X62336Y18240D01*
X62706D02*
X62460D01*
X62706Y18487D01*
Y18548D01*
X62645Y18610D01*
X62521D01*
X62460Y18548D01*
X59107Y14353D02*
X59040Y14420D01*
X58907D01*
X58840Y14353D01*
Y14087D01*
X58907Y14020D01*
X59040D01*
X59107Y14087D01*
X59506Y14420D02*
X59373Y14353D01*
X59240Y14220D01*
Y14087D01*
X59307Y14020D01*
X59440D01*
X59506Y14087D01*
Y14153D01*
X59440Y14220D01*
X59240D01*
X59227Y19993D02*
X59160Y20060D01*
X59027D01*
X58960Y19993D01*
Y19727D01*
X59027Y19660D01*
X59160D01*
X59227Y19727D01*
X59626Y20060D02*
X59360D01*
Y19860D01*
X59493Y19927D01*
X59560D01*
X59626Y19860D01*
Y19727D01*
X59560Y19660D01*
X59427D01*
X59360Y19727D01*
X47400Y31600D02*
Y31970D01*
X47585D01*
X47647Y31908D01*
Y31785D01*
X47585Y31723D01*
X47400D01*
X47523D02*
X47647Y31600D01*
X47770D02*
X47893D01*
X47832D01*
Y31970D01*
X47770Y31908D01*
X48078D02*
X48140Y31970D01*
X48263D01*
X48325Y31908D01*
Y31847D01*
X48263Y31785D01*
X48201D01*
X48263D01*
X48325Y31723D01*
Y31662D01*
X48263Y31600D01*
X48140D01*
X48078Y31662D01*
X47400Y28800D02*
Y29170D01*
X47585D01*
X47647Y29108D01*
Y28985D01*
X47585Y28923D01*
X47400D01*
X47523D02*
X47647Y28800D01*
X47770D02*
X47893D01*
X47832D01*
Y29170D01*
X47770Y29108D01*
X48325Y28800D02*
X48078D01*
X48325Y29047D01*
Y29108D01*
X48263Y29170D01*
X48140D01*
X48078Y29108D01*
X47390Y27337D02*
Y27707D01*
X47575D01*
X47636Y27645D01*
Y27522D01*
X47575Y27460D01*
X47390D01*
X47513D02*
X47636Y27337D01*
X47760D02*
X47883D01*
X47821D01*
Y27707D01*
X47760Y27645D01*
X48068Y27337D02*
X48191D01*
X48130D01*
Y27707D01*
X48068Y27645D01*
X47400Y30200D02*
Y30570D01*
X47585D01*
X47647Y30508D01*
Y30385D01*
X47585Y30323D01*
X47400D01*
X47523D02*
X47647Y30200D01*
X47770D02*
X47893D01*
X47832D01*
Y30570D01*
X47770Y30508D01*
X48078D02*
X48140Y30570D01*
X48263D01*
X48325Y30508D01*
Y30262D01*
X48263Y30200D01*
X48140D01*
X48078Y30262D01*
Y30508D01*
X44780Y1180D02*
Y933D01*
X44903Y810D01*
X45027Y933D01*
Y1180D01*
X45150Y810D02*
Y1180D01*
X45335D01*
X45396Y1118D01*
Y995D01*
X45335Y933D01*
X45150D01*
X45273D02*
X45396Y810D01*
X45520D02*
X45643D01*
X45581D01*
Y1180D01*
X45520Y1118D01*
X39440Y6710D02*
Y6402D01*
X39502Y6340D01*
X39625D01*
X39687Y6402D01*
Y6710D01*
X39810Y6340D02*
X39933D01*
X39872D01*
Y6710D01*
X39810Y6648D01*
X34310Y6690D02*
Y7060D01*
X34495D01*
X34557Y6998D01*
Y6875D01*
X34495Y6813D01*
X34310D01*
X34433D02*
X34557Y6690D01*
X34680Y6752D02*
X34742Y6690D01*
X34865D01*
X34926Y6752D01*
Y6998D01*
X34865Y7060D01*
X34742D01*
X34680Y6998D01*
Y6937D01*
X34742Y6875D01*
X34926D01*
X35222Y2917D02*
Y3287D01*
X35407D01*
X35469Y3225D01*
Y3102D01*
X35407Y3040D01*
X35222D01*
X35346D02*
X35469Y2917D01*
X35592Y3225D02*
X35654Y3287D01*
X35777D01*
X35839Y3225D01*
Y3163D01*
X35777Y3102D01*
X35839Y3040D01*
Y2978D01*
X35777Y2917D01*
X35654D01*
X35592Y2978D01*
Y3040D01*
X35654Y3102D01*
X35592Y3163D01*
Y3225D01*
X35654Y3102D02*
X35777D01*
X35307Y4117D02*
Y4487D01*
X35492D01*
X35554Y4425D01*
Y4302D01*
X35492Y4240D01*
X35307D01*
X35431D02*
X35554Y4117D01*
X35677Y4487D02*
X35924D01*
Y4425D01*
X35677Y4178D01*
Y4117D01*
X44120Y6980D02*
Y7350D01*
X44305D01*
X44367Y7288D01*
Y7165D01*
X44305Y7103D01*
X44120D01*
X44243D02*
X44367Y6980D01*
X44736Y7350D02*
X44613Y7288D01*
X44490Y7165D01*
Y7042D01*
X44552Y6980D01*
X44675D01*
X44736Y7042D01*
Y7103D01*
X44675Y7165D01*
X44490D01*
X38807Y4600D02*
Y4970D01*
X38992D01*
X39054Y4908D01*
Y4785D01*
X38992Y4723D01*
X38807D01*
X38931D02*
X39054Y4600D01*
X39424Y4970D02*
X39177D01*
Y4785D01*
X39301Y4847D01*
X39362D01*
X39424Y4785D01*
Y4662D01*
X39362Y4600D01*
X39239D01*
X39177Y4662D01*
X1200Y17100D02*
Y17470D01*
X1385D01*
X1447Y17408D01*
Y17285D01*
X1385Y17223D01*
X1200D01*
X1323D02*
X1447Y17100D01*
X1755D02*
Y17470D01*
X1570Y17285D01*
X1816D01*
X37754Y6278D02*
Y6525D01*
X37692Y6587D01*
X37569D01*
X37507Y6525D01*
Y6278D01*
X37569Y6217D01*
X37692D01*
X37631Y6340D02*
X37754Y6217D01*
X37692D02*
X37754Y6278D01*
X37877Y6217D02*
X38001D01*
X37939D01*
Y6587D01*
X37877Y6525D01*
X43940Y5620D02*
Y5250D01*
X44125D01*
X44187Y5312D01*
Y5558D01*
X44125Y5620D01*
X43940D01*
X44556D02*
X44310D01*
Y5435D01*
X44433Y5497D01*
X44495D01*
X44556Y5435D01*
Y5312D01*
X44495Y5250D01*
X44372D01*
X44310Y5312D01*
X47850Y2553D02*
Y2183D01*
X48035D01*
X48097Y2245D01*
Y2491D01*
X48035Y2553D01*
X47850D01*
X48405Y2183D02*
Y2553D01*
X48220Y2368D01*
X48466D01*
X39054Y3725D02*
X38992Y3787D01*
X38869D01*
X38807Y3725D01*
Y3478D01*
X38869Y3417D01*
X38992D01*
X39054Y3478D01*
X39362Y3417D02*
Y3787D01*
X39177Y3602D01*
X39424D01*
X39054Y2525D02*
X38992Y2587D01*
X38869D01*
X38807Y2525D01*
Y2278D01*
X38869Y2217D01*
X38992D01*
X39054Y2278D01*
X39177Y2525D02*
X39239Y2587D01*
X39362D01*
X39424Y2525D01*
Y2463D01*
X39362Y2402D01*
X39301D01*
X39362D01*
X39424Y2340D01*
Y2278D01*
X39362Y2217D01*
X39239D01*
X39177Y2278D01*
X39054Y1325D02*
X38992Y1387D01*
X38869D01*
X38807Y1325D01*
Y1078D01*
X38869Y1017D01*
X38992D01*
X39054Y1078D01*
X39424Y1017D02*
X39177D01*
X39424Y1263D01*
Y1325D01*
X39362Y1387D01*
X39239D01*
X39177Y1325D01*
X28357Y5334D02*
Y5683D01*
X28532D01*
X28591Y5625D01*
Y5508D01*
X28532Y5450D01*
X28357D01*
X28474D02*
X28591Y5334D01*
X28707Y5625D02*
X28766Y5683D01*
X28882D01*
X28941Y5625D01*
Y5567D01*
X28882Y5508D01*
X28824D01*
X28882D01*
X28941Y5450D01*
Y5392D01*
X28882Y5334D01*
X28766D01*
X28707Y5392D01*
X30257Y5334D02*
Y5683D01*
X30432D01*
X30491Y5625D01*
Y5508D01*
X30432Y5450D01*
X30257D01*
X30374D02*
X30491Y5334D01*
X30841D02*
X30607D01*
X30841Y5567D01*
Y5625D01*
X30782Y5683D01*
X30666D01*
X30607Y5625D01*
X27207Y2717D02*
Y3067D01*
X27382D01*
X27441Y3008D01*
Y2892D01*
X27382Y2833D01*
X27207D01*
X27324D02*
X27441Y2717D01*
X27557D02*
X27674D01*
X27616D01*
Y3067D01*
X27557Y3008D01*
X25820Y21610D02*
Y21260D01*
Y21377D01*
X26053Y21610D01*
X25878Y21435D01*
X26053Y21260D01*
X26403D02*
X26170D01*
X26403Y21493D01*
Y21552D01*
X26345Y21610D01*
X26228D01*
X26170Y21552D01*
X30220Y21650D02*
Y21300D01*
Y21417D01*
X30453Y21650D01*
X30278Y21475D01*
X30453Y21300D01*
X30570D02*
X30687D01*
X30628D01*
Y21650D01*
X30570Y21592D01*
X37133Y25300D02*
X37017D01*
X37075D01*
Y25008D01*
X37017Y24950D01*
X36958D01*
X36900Y25008D01*
X37250Y24950D02*
Y25300D01*
X37425D01*
X37483Y25242D01*
Y25125D01*
X37425Y25067D01*
X37250D01*
X37600Y24950D02*
X37716D01*
X37658D01*
Y25300D01*
X37600Y25242D01*
X29200Y3150D02*
X29317D01*
X29258D01*
Y2800D01*
X29200D01*
X29317D01*
X29725Y3092D02*
X29667Y3150D01*
X29550D01*
X29492Y3092D01*
Y2858D01*
X29550Y2800D01*
X29667D01*
X29725Y2858D01*
X30075Y2800D02*
X29841D01*
X30075Y3033D01*
Y3092D01*
X30016Y3150D01*
X29900D01*
X29841Y3092D01*
X30810Y17220D02*
X30923D01*
X30867D01*
Y16880D01*
X30810D01*
X30923D01*
X31320Y17163D02*
X31263Y17220D01*
X31150D01*
X31093Y17163D01*
Y16937D01*
X31150Y16880D01*
X31263D01*
X31320Y16937D01*
X31433Y16880D02*
X31546D01*
X31490D01*
Y17220D01*
X31433Y17163D01*
D20*
X56222Y11852D02*
X56164Y11910D01*
X56047D01*
X55989Y11852D01*
Y11793D01*
X56047Y11735D01*
X56164D01*
X56222Y11677D01*
Y11618D01*
X56164Y11560D01*
X56047D01*
X55989Y11618D01*
X56339Y11910D02*
Y11560D01*
X56455Y11677D01*
X56572Y11560D01*
Y11910D01*
X56688Y11560D02*
X56805D01*
X56747D01*
Y11910D01*
X56688Y11852D01*
X1843Y53240D02*
X1727D01*
X1785D01*
Y52948D01*
X1727Y52890D01*
X1668D01*
X1610Y52948D01*
X1960Y52890D02*
Y53240D01*
X2135D01*
X2193Y53182D01*
Y53065D01*
X2135Y53007D01*
X1960D01*
X2543Y52890D02*
X2310D01*
X2543Y53123D01*
Y53182D01*
X2485Y53240D01*
X2368D01*
X2310Y53182D01*
X10533Y36050D02*
X10417D01*
X10475D01*
Y35758D01*
X10417Y35700D01*
X10358D01*
X10300Y35758D01*
X10883Y36050D02*
X10767Y35992D01*
X10650Y35875D01*
Y35758D01*
X10708Y35700D01*
X10825D01*
X10883Y35758D01*
Y35817D01*
X10825Y35875D01*
X10650D01*
X10503Y35020D02*
X10387D01*
X10445D01*
Y34728D01*
X10387Y34670D01*
X10328D01*
X10270Y34728D01*
X10853Y35020D02*
X10620D01*
Y34845D01*
X10737Y34903D01*
X10795D01*
X10853Y34845D01*
Y34728D01*
X10795Y34670D01*
X10678D01*
X10620Y34728D01*
X10503Y33053D02*
X10387D01*
X10445D01*
Y32762D01*
X10387Y32703D01*
X10328D01*
X10270Y32762D01*
X10795Y32703D02*
Y33053D01*
X10620Y32878D01*
X10853D01*
X10503Y33987D02*
X10387D01*
X10445D01*
Y33695D01*
X10387Y33637D01*
X10328D01*
X10270Y33695D01*
X10620Y33928D02*
X10678Y33987D01*
X10795D01*
X10853Y33928D01*
Y33870D01*
X10795Y33812D01*
X10737D01*
X10795D01*
X10853Y33754D01*
Y33695D01*
X10795Y33637D01*
X10678D01*
X10620Y33695D01*
X4153Y53600D02*
X4037D01*
X4095D01*
Y53308D01*
X4037Y53250D01*
X3978D01*
X3920Y53308D01*
X4503Y53250D02*
X4270D01*
X4503Y53483D01*
Y53542D01*
X4445Y53600D01*
X4328D01*
X4270Y53542D01*
X60783Y7000D02*
X60667D01*
X60725D01*
Y6708D01*
X60667Y6650D01*
X60608D01*
X60550Y6708D01*
X60900Y6650D02*
X61017D01*
X60958D01*
Y7000D01*
X60900Y6942D01*
X6790Y45740D02*
Y45390D01*
X6965D01*
X7023Y45448D01*
Y45682D01*
X6965Y45740D01*
X6790D01*
X7140Y45682D02*
X7198Y45740D01*
X7315D01*
X7373Y45682D01*
Y45623D01*
X7315Y45565D01*
X7257D01*
X7315D01*
X7373Y45507D01*
Y45448D01*
X7315Y45390D01*
X7198D01*
X7140Y45448D01*
X27670Y19650D02*
Y19300D01*
X27845D01*
X27903Y19358D01*
Y19592D01*
X27845Y19650D01*
X27670D01*
X28253Y19300D02*
X28020D01*
X28253Y19533D01*
Y19592D01*
X28195Y19650D01*
X28078D01*
X28020Y19592D01*
X31463Y19663D02*
Y19313D01*
X31637D01*
X31696Y19372D01*
Y19605D01*
X31637Y19663D01*
X31463D01*
X31812Y19313D02*
X31929D01*
X31871D01*
Y19663D01*
X31812Y19605D01*
X51083Y3777D02*
X51025Y3836D01*
X50908D01*
X50850Y3777D01*
Y3544D01*
X50908Y3486D01*
X51025D01*
X51083Y3544D01*
X51200Y3486D02*
X51317D01*
X51258D01*
Y3836D01*
X51200Y3777D01*
X55620Y7380D02*
Y7030D01*
X55795D01*
X55853Y7088D01*
Y7147D01*
X55795Y7205D01*
X55620D01*
X55795D01*
X55853Y7263D01*
Y7322D01*
X55795Y7380D01*
X55620D01*
X55970Y7030D02*
Y7380D01*
X56145D01*
X56203Y7322D01*
Y7205D01*
X56145Y7147D01*
X55970D01*
X56087D02*
X56203Y7030D01*
X56320D02*
X56436D01*
X56378D01*
Y7380D01*
X56320Y7322D01*
D21*
X7429Y44540D02*
D03*
D22*
X7689Y43989D02*
D03*
Y45091D02*
D03*
M02*
