G04*
G04 #@! TF.GenerationSoftware,Altium Limited,Altium Designer,18.0.11 (651)*
G04*
G04 Layer_Color=128*
%FSLAX24Y24*%
%MOIN*%
G70*
G01*
G75*
%ADD104C,0.0020*%
D104*
X33410Y26600D02*
X33790D01*
X33600Y26410D02*
Y26790D01*
X33410Y25600D02*
X33790D01*
X33600Y25410D02*
Y25790D01*
X33410Y23600D02*
X33790D01*
X33600Y23410D02*
Y23790D01*
X33410Y22600D02*
X33790D01*
X33600Y22410D02*
Y22790D01*
X30410Y26600D02*
X30790D01*
X30600Y26410D02*
Y26790D01*
X30410Y25600D02*
X30790D01*
X30600Y25410D02*
Y25790D01*
X30410Y23600D02*
X30790D01*
X30600Y23410D02*
Y23790D01*
X30410Y22600D02*
X30790D01*
X30600Y22410D02*
Y22790D01*
X33410Y24600D02*
X33790D01*
X33600Y24410D02*
Y24790D01*
X30410Y24600D02*
X30790D01*
X30600Y24410D02*
Y24790D01*
X29010Y26574D02*
X29390D01*
X29200Y26384D02*
Y26764D01*
X29010Y25574D02*
X29390D01*
X29200Y25384D02*
Y25764D01*
X29010Y23574D02*
X29390D01*
X29200Y23384D02*
Y23764D01*
X29010Y22574D02*
X29390D01*
X29200Y22384D02*
Y22764D01*
X26010Y26574D02*
X26390D01*
X26200Y26384D02*
Y26764D01*
X26010Y25574D02*
X26390D01*
X26200Y25384D02*
Y25764D01*
X26010Y23574D02*
X26390D01*
X26200Y23384D02*
Y23764D01*
X26010Y22574D02*
X26390D01*
X26200Y22384D02*
Y22764D01*
X29010Y24574D02*
X29390D01*
X29200Y24384D02*
Y24764D01*
X26010Y24574D02*
X26390D01*
X26200Y24384D02*
Y24764D01*
X53810Y7212D02*
X54270D01*
X54040Y6982D02*
Y7442D01*
X51810Y7212D02*
X52270D01*
X52040Y6982D02*
Y7442D01*
X23315Y19900D02*
X23685D01*
X23500Y19715D02*
Y20085D01*
X23315Y18900D02*
X23685D01*
X23500Y18715D02*
Y19085D01*
X23315Y17900D02*
X23685D01*
X23500Y17715D02*
Y18085D01*
X23315Y16900D02*
X23685D01*
X23500Y16715D02*
Y17085D01*
X23315Y15900D02*
X23685D01*
X23500Y15715D02*
Y16085D01*
X23315Y14900D02*
X23685D01*
X23500Y14715D02*
Y15085D01*
X23315Y10900D02*
X23685D01*
X23500Y10715D02*
Y11085D01*
X23315Y11900D02*
X23685D01*
X23500Y11715D02*
Y12085D01*
X23315Y12900D02*
X23685D01*
X23500Y12715D02*
Y13085D01*
X23315Y13900D02*
X23685D01*
X23500Y13715D02*
Y14085D01*
X23315Y5300D02*
X23685D01*
X23500Y5115D02*
Y5485D01*
X23315Y4300D02*
X23685D01*
X23500Y4115D02*
Y4485D01*
X23315Y3300D02*
X23685D01*
X23500Y3115D02*
Y3485D01*
X23315Y2300D02*
X23685D01*
X23500Y2115D02*
Y2485D01*
X23315Y6300D02*
X23685D01*
X23500Y6115D02*
Y6485D01*
X23315Y7300D02*
X23685D01*
X23500Y7115D02*
Y7485D01*
X23315Y8300D02*
X23685D01*
X23500Y8115D02*
Y8485D01*
X23315Y9300D02*
X23685D01*
X23500Y9115D02*
Y9485D01*
X4315Y12300D02*
X4685D01*
X4500Y12115D02*
Y12485D01*
X4315Y11300D02*
X4685D01*
X4500Y11115D02*
Y11485D01*
X4315Y10300D02*
X4685D01*
X4500Y10115D02*
Y10485D01*
X4315Y9300D02*
X4685D01*
X4500Y9115D02*
Y9485D01*
X4315Y13300D02*
X4685D01*
X4500Y13115D02*
Y13485D01*
X4315Y14300D02*
X4685D01*
X4500Y14115D02*
Y14485D01*
X4315Y3300D02*
X4685D01*
X4500Y3115D02*
Y3485D01*
X4315Y2300D02*
X4685D01*
X4500Y2115D02*
Y2485D01*
X4315Y4300D02*
X4685D01*
X4500Y4115D02*
Y4485D01*
X4315Y5300D02*
X4685D01*
X4500Y5115D02*
Y5485D01*
X4315Y6300D02*
X4685D01*
X4500Y6115D02*
Y6485D01*
X4315Y7300D02*
X4685D01*
X4500Y7115D02*
Y7485D01*
X3900Y21800D02*
X5100D01*
X4500Y21200D02*
Y22400D01*
X5900Y1300D02*
X7100D01*
X6500Y700D02*
Y1900D01*
X16900Y1300D02*
X18100D01*
X17500Y700D02*
Y1900D01*
X22900Y21300D02*
X24100D01*
X23500Y20700D02*
Y21900D01*
X4315Y15300D02*
X4685D01*
X4500Y15115D02*
Y15485D01*
X52343Y1952D02*
X52657D01*
X52500Y1794D02*
Y2109D01*
X52343Y3920D02*
X52657D01*
X52500Y3763D02*
Y4077D01*
X37202Y26037D02*
X37572D01*
X37387Y25852D02*
Y26222D01*
X38202Y26037D02*
X38572D01*
X38387Y25852D02*
Y26222D01*
X37202Y27037D02*
X37572D01*
X37387Y26852D02*
Y27222D01*
X38202Y27037D02*
X38572D01*
X38387Y26852D02*
Y27222D01*
X37202Y28037D02*
X37572D01*
X37387Y27852D02*
Y28222D01*
X38202Y28037D02*
X38572D01*
X38387Y27852D02*
Y28222D01*
X37202Y29037D02*
X37572D01*
X37387Y28852D02*
Y29222D01*
X38202Y29037D02*
X38572D01*
X38387Y28852D02*
Y29222D01*
X37202Y30037D02*
X37572D01*
X37387Y29852D02*
Y30222D01*
X38202Y30037D02*
X38572D01*
X38387Y29852D02*
Y30222D01*
X37202Y31037D02*
X37572D01*
X37387Y30852D02*
Y31222D01*
X38202Y31037D02*
X38572D01*
X38387Y30852D02*
Y31222D01*
X37202Y32037D02*
X37572D01*
X37387Y31852D02*
Y32222D01*
X38202Y32037D02*
X38572D01*
X38387Y31852D02*
Y32222D01*
X37202Y33037D02*
X37572D01*
X37387Y32852D02*
Y33222D01*
X38202Y33037D02*
X38572D01*
X38387Y32852D02*
Y33222D01*
X11360Y35900D02*
X11740D01*
X11550Y35710D02*
Y36090D01*
X12360Y35900D02*
X12740D01*
X12550Y35710D02*
Y36090D01*
X11380Y32870D02*
X11760D01*
X11570Y32680D02*
Y33060D01*
X12380Y32870D02*
X12760D01*
X12570Y32680D02*
Y33060D01*
X11380Y33870D02*
X11760D01*
X11570Y33680D02*
Y34060D01*
X12380Y33870D02*
X12760D01*
X12570Y33680D02*
Y34060D01*
X11380Y34870D02*
X11760D01*
X11570Y34680D02*
Y35060D01*
X12380Y34870D02*
X12760D01*
X12570Y34680D02*
Y35060D01*
X63065Y4500D02*
X63735D01*
X63400Y4165D02*
Y4835D01*
X61965Y6500D02*
X62635D01*
X62300Y6165D02*
Y6835D01*
X60815Y4500D02*
X61485D01*
X61150Y4165D02*
Y4835D01*
X30193Y10000D02*
X31807D01*
X31000Y9193D02*
Y10807D01*
X1193Y1900D02*
X2807D01*
X2000Y1093D02*
Y2707D01*
X1193Y37000D02*
X2807D01*
X2000Y36193D02*
Y37807D01*
X6593Y55600D02*
X8207D01*
X7400Y54793D02*
Y56407D01*
X57193Y55600D02*
X58807D01*
X58000Y54793D02*
Y56407D01*
X30193Y55600D02*
X31807D01*
X31000Y54793D02*
Y56407D01*
X57193Y37000D02*
X58807D01*
X58000Y36193D02*
Y37807D01*
X30193Y35500D02*
X31807D01*
X31000Y34693D02*
Y36307D01*
X57173Y2000D02*
X58827D01*
X58000Y1173D02*
Y2827D01*
X58432Y10760D02*
X58865D01*
X58649Y10543D02*
Y10977D01*
X56432Y10760D02*
X56865D01*
X56649Y10543D02*
Y10977D01*
X56432Y9760D02*
X56865D01*
X56649Y9543D02*
Y9977D01*
X58432Y9760D02*
X58865D01*
X58649Y9543D02*
Y9977D01*
X1905Y47090D02*
X2275D01*
X2090Y46905D02*
Y47275D01*
X1905Y48090D02*
X2275D01*
X2090Y47905D02*
Y48275D01*
X1905Y49090D02*
X2275D01*
X2090Y48905D02*
Y49275D01*
X1905Y50090D02*
X2275D01*
X2090Y49905D02*
Y50275D01*
X1905Y51090D02*
X2275D01*
X2090Y50905D02*
Y51275D01*
X1905Y52090D02*
X2275D01*
X2090Y51905D02*
Y52275D01*
X4567Y48590D02*
X4917D01*
X4742Y48415D02*
Y48765D01*
X5567Y49090D02*
X5917D01*
X5742Y48915D02*
Y49265D01*
X4567Y49590D02*
X4917D01*
X4742Y49415D02*
Y49765D01*
X5567Y50090D02*
X5917D01*
X5742Y49915D02*
Y50265D01*
X4567Y50590D02*
X4917D01*
X4742Y50415D02*
Y50765D01*
X5545Y51090D02*
X5939D01*
X5742Y50893D02*
Y51287D01*
X7602Y51842D02*
X8882D01*
X8242Y51202D02*
Y52482D01*
X7602Y47842D02*
X8882D01*
X8242Y47202D02*
Y48482D01*
X49780Y7960D02*
X50060D01*
X49920Y7820D02*
Y8100D01*
X54530Y13410D02*
X54810D01*
X54670Y13270D02*
Y13550D01*
X41520Y20300D02*
X41800D01*
X41660Y20160D02*
Y20440D01*
X41520Y18640D02*
X41800D01*
X41660Y18500D02*
Y18780D01*
X47840Y10700D02*
X48040D01*
X47940Y10600D02*
Y10800D01*
X28020Y34120D02*
X28220D01*
X28120Y34020D02*
Y34220D01*
X32880Y31280D02*
X33080D01*
X32980Y31180D02*
Y31380D01*
X34444Y29144D02*
X34644D01*
X34544Y29044D02*
Y29244D01*
X34500Y25840D02*
X34700D01*
X34600Y25740D02*
Y25940D01*
X36520Y28540D02*
X36720D01*
X36620Y28440D02*
Y28640D01*
X36280Y27580D02*
X36480D01*
X36380Y27480D02*
Y27680D01*
X24760Y22300D02*
X25040D01*
X24900Y22160D02*
Y22440D01*
X27750Y31938D02*
X27950D01*
X27850Y31838D02*
Y32038D01*
X29700Y20700D02*
X29900D01*
X29800Y20600D02*
Y20800D01*
X39560Y17600D02*
X39840D01*
X39700Y17460D02*
Y17740D01*
X46940Y11510D02*
X47140D01*
X47040Y11410D02*
Y11610D01*
X46060Y12320D02*
X46260D01*
X46160Y12220D02*
Y12420D01*
X46960Y12320D02*
X47160D01*
X47060Y12220D02*
Y12420D01*
X46940Y10700D02*
X47140D01*
X47040Y10600D02*
Y10800D01*
X47860Y12320D02*
X48060D01*
X47960Y12220D02*
Y12420D01*
X47860Y11510D02*
X48060D01*
X47960Y11410D02*
Y11610D01*
X46060Y11510D02*
X46260D01*
X46160Y11410D02*
Y11610D01*
X46060Y10700D02*
X46260D01*
X46160Y10600D02*
Y10800D01*
X40633Y26050D02*
X40833D01*
X40733Y25950D02*
Y26150D01*
X27530Y7294D02*
X27810D01*
X27670Y7154D02*
Y7434D01*
X1340Y5800D02*
X1620D01*
X1480Y5660D02*
Y5940D01*
X25730Y400D02*
X26010D01*
X25870Y260D02*
Y540D01*
X62300Y17760D02*
X62500D01*
X62400Y17660D02*
Y17860D01*
X62300Y16950D02*
X62500D01*
X62400Y16850D02*
Y17050D01*
X60500Y16950D02*
X60700D01*
X60600Y16850D02*
Y17050D01*
X60500Y16140D02*
X60700D01*
X60600Y16040D02*
Y16240D01*
X60520Y17760D02*
X60720D01*
X60620Y17660D02*
Y17860D01*
X61420Y17760D02*
X61620D01*
X61520Y17660D02*
Y17860D01*
X61400Y16140D02*
X61600D01*
X61500Y16040D02*
Y16240D01*
X62300Y16140D02*
X62500D01*
X62400Y16040D02*
Y16240D01*
X61420Y16950D02*
X61620D01*
X61520Y16850D02*
Y17050D01*
X40600Y16000D02*
X40880D01*
X40740Y15860D02*
Y16140D01*
X42200Y5050D02*
X42400D01*
X42300Y4950D02*
Y5150D01*
X32207Y47100D02*
X32407D01*
X32307Y47000D02*
Y47200D01*
X34250Y12900D02*
X34450D01*
X34350Y12800D02*
Y13000D01*
X16900Y23000D02*
X17100D01*
X17000Y22900D02*
Y23100D01*
X3140Y45090D02*
X3340D01*
X3240Y44990D02*
Y45190D01*
X36350Y34900D02*
X36550D01*
X36450Y34800D02*
Y35000D01*
X36071Y30550D02*
X36271D01*
X36171Y30450D02*
Y30650D01*
X41600Y28850D02*
X41800D01*
X41700Y28750D02*
Y28950D01*
X39560Y18600D02*
X39840D01*
X39700Y18460D02*
Y18740D01*
X39523Y20300D02*
X39803D01*
X39663Y20160D02*
Y20440D01*
X39500Y24800D02*
X39700D01*
X39600Y24700D02*
Y24900D01*
X32000Y7100D02*
X32200D01*
X32100Y7000D02*
Y7200D01*
X27434Y26100D02*
X27634D01*
X27534Y26000D02*
Y26200D01*
X27800Y16950D02*
X28000D01*
X27900Y16850D02*
Y17050D01*
X34640Y22740D02*
X34840D01*
X34740Y22640D02*
Y22840D01*
X36940Y24230D02*
X37140D01*
X37040Y24130D02*
Y24330D01*
X3398Y47640D02*
X3598D01*
X3498Y47540D02*
Y47740D01*
X3500Y31700D02*
X3700D01*
X3600Y31600D02*
Y31800D01*
X13100Y4650D02*
X13300D01*
X13200Y4550D02*
Y4750D01*
X33600Y2410D02*
X33800D01*
X33700Y2310D02*
Y2510D01*
M02*
